M48
; DRILL file {KiCad 7.0.10-7.0.10~ubuntu22.04.1} date ti. 09. jan. 2024 kl. 13.34 +0100
; FORMAT={-:-/ absolute / inch / decimal}
; #@! TF.CreationDate,2024-01-09T13:34:06+01:00
; #@! TF.GenerationSoftware,Kicad,Pcbnew,7.0.10-7.0.10~ubuntu22.04.1
; #@! TF.FileFunction,Plated,1,2,PTH
FMAT,2
INCH
; #@! TA.AperFunction,Plated,PTH,ViaDrill
T1C0.0157
; #@! TA.AperFunction,Plated,PTH,ComponentDrill
T2C0.0236
; #@! TA.AperFunction,Plated,PTH,ComponentDrill
T3C0.0256
; #@! TA.AperFunction,Plated,PTH,ComponentDrill
T4C0.0276
; #@! TA.AperFunction,Plated,PTH,ComponentDrill
T5C0.0315
; #@! TA.AperFunction,Plated,PTH,ComponentDrill
T6C0.0433
; #@! TA.AperFunction,Plated,PTH,ComponentDrill
T7C0.0500
; #@! TA.AperFunction,Plated,PTH,ComponentDrill
T8C0.0512
; #@! TA.AperFunction,Plated,PTH,ComponentDrill
T9C0.1693
%
G90
G05
T1
X1.902Y-3.09
X2.2414Y-2.8288
X2.276Y-3.112
X2.2915Y-4.4685
X2.426Y-2.678
X2.482Y-3.856
X2.5053Y-4.4876
X2.508Y-4.204
X2.5178Y-3.9625
X2.55Y-3.58
X2.728Y-4.288
X2.7435Y-4.132
X2.8074Y-4.1268
X2.8109Y-3.7579
X2.834Y-2.62
X2.9271Y-4.6103
X3.006Y-3.902
X3.0317Y-3.6615
X3.25Y-4.196
X3.3878Y-4.4876
T2
X2.7326Y-4.73
X2.8113Y-4.73
X3.36Y-4.33
X3.4191Y-4.33
T3
X2.72Y-3.41
X2.77Y-3.41
X2.82Y-3.41
T4
X1.92Y-2.63
X1.92Y-2.754
X2.12Y-2.63
X2.12Y-2.754
X2.3Y-4.71
X2.31Y-4.08
X2.31Y-4.6
X2.5Y-4.71
X2.51Y-4.08
X2.51Y-4.6
X2.67Y-3.53
X2.87Y-3.53
X3.03Y-4.08
X3.04Y-4.61
X3.05Y-4.73
X3.09Y-3.61
X3.09Y-3.81
X3.1Y-3.27
X3.1Y-3.47
X3.23Y-4.08
X3.24Y-4.61
X3.25Y-4.73
X3.3Y-3.44
X3.32Y-3.87
X3.5Y-3.44
X3.52Y-3.87
T5
X1.92Y-2.94
X1.98Y-2.43
X1.9926Y-3.57
X1.9934Y-3.24
X2.0016Y-3.92
X2.0587Y-2.43
X2.091Y-3.57
X2.0919Y-3.24
X2.1Y-3.92
X2.22Y-2.94
X2.31Y-2.15
X2.31Y-2.45
X2.33Y-3.21
X2.3513Y-3.58
X2.3616Y-4.32
X2.4284Y-3.21
X2.43Y-3.58
X2.46Y-4.32
X2.63Y-3.88
X2.63Y-3.98
X2.63Y-4.08
X2.63Y-4.18
X2.63Y-4.28
X2.63Y-4.38
X2.63Y-4.48
X2.6713Y-3.24
X2.6713Y-5.49
X2.6865Y-1.918
X2.7333Y-1.782
X2.75Y-3.24
X2.75Y-5.49
X2.7653Y-1.918
X2.812Y-1.782
X2.8287Y-3.24
X2.8287Y-5.49
X2.844Y-1.918
X2.93Y-3.88
X2.93Y-3.98
X2.93Y-4.08
X2.93Y-4.18
X2.93Y-4.28
X2.93Y-4.38
X2.93Y-4.48
X3.0613Y-2.89
X3.0826Y-4.32
X3.14Y-2.89
X3.181Y-4.32
X3.22Y-2.17
X3.22Y-2.47
X3.2521Y-3.5936
X3.2521Y-3.7334
X3.3203Y-3.3
X3.3416Y-2.75
X3.3416Y-3.0079
X3.399Y-3.3
X3.44Y-2.75
X3.44Y-3.0079
X3.4778Y-3.3
X3.5521Y-3.5936
X3.5521Y-3.7334
T6
X2.64Y-3.65
X2.94Y-3.65
T7
X2.57Y-2.13
X2.57Y-2.3175
X2.57Y-2.505
X2.991Y-2.13
X2.991Y-2.3175
X2.991Y-2.505
T8
X2.6716Y-2.7825
X2.6716Y-2.94
X2.6716Y-3.0975
X2.6731Y-4.98
X2.6731Y-5.1375
X2.6731Y-5.295
X2.8684Y-2.7825
X2.8684Y-2.94
X2.8684Y-3.0975
X2.87Y-4.98
X2.87Y-5.1375
X2.87Y-5.295
T9
X2.09Y-1.94
X2.1Y-5.25
X3.4Y-1.94
X3.462Y-5.244
M30
