%TF.GenerationSoftware,KiCad,Pcbnew,7.0.10-7.0.10~ubuntu22.04.1*%
%TF.CreationDate,2024-01-09T13:34:05+01:00*%
%TF.ProjectId,pedal,70656461-6c2e-46b6-9963-61645f706362,rev?*%
%TF.SameCoordinates,Original*%
%TF.FileFunction,Drillmap*%
%TF.FilePolarity,Positive*%
%FSLAX45Y45*%
G04 Gerber Fmt 4.5, Leading zero omitted, Abs format (unit mm)*
G04 Created by KiCad (PCBNEW 7.0.10-7.0.10~ubuntu22.04.1) date 2024-01-09 13:34:05*
%MOMM*%
%LPD*%
G01*
G04 APERTURE LIST*
%ADD10C,0.100000*%
%ADD11C,0.200000*%
G04 APERTURE END LIST*
D10*
X5029200Y-14376400D02*
X8966200Y-14376400D01*
X9525000Y-13741400D02*
G75*
G03*
X8966200Y-14300200I0J-558800D01*
G01*
X4495800Y-13766800D02*
X4521200Y-13766800D01*
X9017000Y-4114800D02*
G75*
G03*
X9551700Y-4622098I508000J0D01*
G01*
X9017000Y-4038600D02*
X5029200Y-4038600D01*
X9525000Y-13741400D02*
X9575800Y-13741400D01*
X5029200Y-4089400D02*
X5029200Y-4038600D01*
X9017000Y-4114800D02*
X9017000Y-4038600D01*
X4495800Y-4622800D02*
X4495800Y-13766800D01*
X9575800Y-13741400D02*
X9575800Y-4622800D01*
X9575800Y-4622800D02*
X9551700Y-4622098D01*
X4495800Y-4622800D02*
G75*
G03*
X5029200Y-4089400I0J533400D01*
G01*
X8966200Y-14300200D02*
X8966200Y-14376400D01*
X5029200Y-14274800D02*
G75*
G03*
X4521200Y-13766800I-508000J0D01*
G01*
X5029200Y-14274800D02*
X5029200Y-14376400D01*
D11*
X4751577Y-14692884D02*
X4751577Y-14492884D01*
X4751577Y-14492884D02*
X4799196Y-14492884D01*
X4799196Y-14492884D02*
X4827767Y-14502408D01*
X4827767Y-14502408D02*
X4846815Y-14521455D01*
X4846815Y-14521455D02*
X4856339Y-14540503D01*
X4856339Y-14540503D02*
X4865863Y-14578598D01*
X4865863Y-14578598D02*
X4865863Y-14607169D01*
X4865863Y-14607169D02*
X4856339Y-14645265D01*
X4856339Y-14645265D02*
X4846815Y-14664312D01*
X4846815Y-14664312D02*
X4827767Y-14683360D01*
X4827767Y-14683360D02*
X4799196Y-14692884D01*
X4799196Y-14692884D02*
X4751577Y-14692884D01*
X4951577Y-14692884D02*
X4951577Y-14559550D01*
X4951577Y-14597646D02*
X4961101Y-14578598D01*
X4961101Y-14578598D02*
X4970624Y-14569074D01*
X4970624Y-14569074D02*
X4989672Y-14559550D01*
X4989672Y-14559550D02*
X5008720Y-14559550D01*
X5075386Y-14692884D02*
X5075386Y-14559550D01*
X5075386Y-14492884D02*
X5065863Y-14502408D01*
X5065863Y-14502408D02*
X5075386Y-14511931D01*
X5075386Y-14511931D02*
X5084910Y-14502408D01*
X5084910Y-14502408D02*
X5075386Y-14492884D01*
X5075386Y-14492884D02*
X5075386Y-14511931D01*
X5199196Y-14692884D02*
X5180148Y-14683360D01*
X5180148Y-14683360D02*
X5170624Y-14664312D01*
X5170624Y-14664312D02*
X5170624Y-14492884D01*
X5303958Y-14692884D02*
X5284910Y-14683360D01*
X5284910Y-14683360D02*
X5275386Y-14664312D01*
X5275386Y-14664312D02*
X5275386Y-14492884D01*
X5532529Y-14692884D02*
X5532529Y-14492884D01*
X5532529Y-14492884D02*
X5599196Y-14635741D01*
X5599196Y-14635741D02*
X5665862Y-14492884D01*
X5665862Y-14492884D02*
X5665862Y-14692884D01*
X5846815Y-14692884D02*
X5846815Y-14588122D01*
X5846815Y-14588122D02*
X5837291Y-14569074D01*
X5837291Y-14569074D02*
X5818243Y-14559550D01*
X5818243Y-14559550D02*
X5780148Y-14559550D01*
X5780148Y-14559550D02*
X5761101Y-14569074D01*
X5846815Y-14683360D02*
X5827767Y-14692884D01*
X5827767Y-14692884D02*
X5780148Y-14692884D01*
X5780148Y-14692884D02*
X5761101Y-14683360D01*
X5761101Y-14683360D02*
X5751577Y-14664312D01*
X5751577Y-14664312D02*
X5751577Y-14645265D01*
X5751577Y-14645265D02*
X5761101Y-14626217D01*
X5761101Y-14626217D02*
X5780148Y-14616693D01*
X5780148Y-14616693D02*
X5827767Y-14616693D01*
X5827767Y-14616693D02*
X5846815Y-14607169D01*
X5942053Y-14559550D02*
X5942053Y-14759550D01*
X5942053Y-14569074D02*
X5961101Y-14559550D01*
X5961101Y-14559550D02*
X5999196Y-14559550D01*
X5999196Y-14559550D02*
X6018243Y-14569074D01*
X6018243Y-14569074D02*
X6027767Y-14578598D01*
X6027767Y-14578598D02*
X6037291Y-14597646D01*
X6037291Y-14597646D02*
X6037291Y-14654788D01*
X6037291Y-14654788D02*
X6027767Y-14673836D01*
X6027767Y-14673836D02*
X6018243Y-14683360D01*
X6018243Y-14683360D02*
X5999196Y-14692884D01*
X5999196Y-14692884D02*
X5961101Y-14692884D01*
X5961101Y-14692884D02*
X5942053Y-14683360D01*
X6123005Y-14673836D02*
X6132529Y-14683360D01*
X6132529Y-14683360D02*
X6123005Y-14692884D01*
X6123005Y-14692884D02*
X6113482Y-14683360D01*
X6113482Y-14683360D02*
X6123005Y-14673836D01*
X6123005Y-14673836D02*
X6123005Y-14692884D01*
X6123005Y-14569074D02*
X6132529Y-14578598D01*
X6132529Y-14578598D02*
X6123005Y-14588122D01*
X6123005Y-14588122D02*
X6113482Y-14578598D01*
X6113482Y-14578598D02*
X6123005Y-14569074D01*
X6123005Y-14569074D02*
X6123005Y-14588122D01*
M02*
