%TF.GenerationSoftware,KiCad,Pcbnew,7.0.10-7.0.10~ubuntu22.04.1*%
%TF.CreationDate,2024-01-09T13:34:09+01:00*%
%TF.ProjectId,pedal,70656461-6c2e-46b6-9963-61645f706362,rev?*%
%TF.SameCoordinates,Original*%
%TF.FileFunction,Legend,Top*%
%TF.FilePolarity,Positive*%
%FSLAX46Y46*%
G04 Gerber Fmt 4.6, Leading zero omitted, Abs format (unit mm)*
G04 Created by KiCad (PCBNEW 7.0.10-7.0.10~ubuntu22.04.1) date 2024-01-09 13:34:09*
%MOMM*%
%LPD*%
G01*
G04 APERTURE LIST*
%ADD10C,0.150000*%
%ADD11C,0.100000*%
%ADD12C,0.120000*%
G04 APERTURE END LIST*
D10*
X87601466Y-127902419D02*
X87601466Y-128616704D01*
X87601466Y-128616704D02*
X87553847Y-128759561D01*
X87553847Y-128759561D02*
X87458609Y-128854800D01*
X87458609Y-128854800D02*
X87315752Y-128902419D01*
X87315752Y-128902419D02*
X87220514Y-128902419D01*
X88030038Y-127997657D02*
X88077657Y-127950038D01*
X88077657Y-127950038D02*
X88172895Y-127902419D01*
X88172895Y-127902419D02*
X88410990Y-127902419D01*
X88410990Y-127902419D02*
X88506228Y-127950038D01*
X88506228Y-127950038D02*
X88553847Y-127997657D01*
X88553847Y-127997657D02*
X88601466Y-128092895D01*
X88601466Y-128092895D02*
X88601466Y-128188133D01*
X88601466Y-128188133D02*
X88553847Y-128330990D01*
X88553847Y-128330990D02*
X87982419Y-128902419D01*
X87982419Y-128902419D02*
X88601466Y-128902419D01*
X72939619Y-45596133D02*
X73653904Y-45596133D01*
X73653904Y-45596133D02*
X73796761Y-45643752D01*
X73796761Y-45643752D02*
X73892000Y-45738990D01*
X73892000Y-45738990D02*
X73939619Y-45881847D01*
X73939619Y-45881847D02*
X73939619Y-45977085D01*
X72939619Y-44691371D02*
X72939619Y-44881847D01*
X72939619Y-44881847D02*
X72987238Y-44977085D01*
X72987238Y-44977085D02*
X73034857Y-45024704D01*
X73034857Y-45024704D02*
X73177714Y-45119942D01*
X73177714Y-45119942D02*
X73368190Y-45167561D01*
X73368190Y-45167561D02*
X73749142Y-45167561D01*
X73749142Y-45167561D02*
X73844380Y-45119942D01*
X73844380Y-45119942D02*
X73892000Y-45072323D01*
X73892000Y-45072323D02*
X73939619Y-44977085D01*
X73939619Y-44977085D02*
X73939619Y-44786609D01*
X73939619Y-44786609D02*
X73892000Y-44691371D01*
X73892000Y-44691371D02*
X73844380Y-44643752D01*
X73844380Y-44643752D02*
X73749142Y-44596133D01*
X73749142Y-44596133D02*
X73511047Y-44596133D01*
X73511047Y-44596133D02*
X73415809Y-44643752D01*
X73415809Y-44643752D02*
X73368190Y-44691371D01*
X73368190Y-44691371D02*
X73320571Y-44786609D01*
X73320571Y-44786609D02*
X73320571Y-44977085D01*
X73320571Y-44977085D02*
X73368190Y-45072323D01*
X73368190Y-45072323D02*
X73415809Y-45119942D01*
X73415809Y-45119942D02*
X73511047Y-45167561D01*
X70229505Y-93063219D02*
X70229505Y-92063219D01*
X70229505Y-92063219D02*
X70467600Y-92063219D01*
X70467600Y-92063219D02*
X70610457Y-92110838D01*
X70610457Y-92110838D02*
X70705695Y-92206076D01*
X70705695Y-92206076D02*
X70753314Y-92301314D01*
X70753314Y-92301314D02*
X70800933Y-92491790D01*
X70800933Y-92491790D02*
X70800933Y-92634647D01*
X70800933Y-92634647D02*
X70753314Y-92825123D01*
X70753314Y-92825123D02*
X70705695Y-92920361D01*
X70705695Y-92920361D02*
X70610457Y-93015600D01*
X70610457Y-93015600D02*
X70467600Y-93063219D01*
X70467600Y-93063219D02*
X70229505Y-93063219D01*
X71181886Y-92158457D02*
X71229505Y-92110838D01*
X71229505Y-92110838D02*
X71324743Y-92063219D01*
X71324743Y-92063219D02*
X71562838Y-92063219D01*
X71562838Y-92063219D02*
X71658076Y-92110838D01*
X71658076Y-92110838D02*
X71705695Y-92158457D01*
X71705695Y-92158457D02*
X71753314Y-92253695D01*
X71753314Y-92253695D02*
X71753314Y-92348933D01*
X71753314Y-92348933D02*
X71705695Y-92491790D01*
X71705695Y-92491790D02*
X71134267Y-93063219D01*
X71134267Y-93063219D02*
X71753314Y-93063219D01*
X66794095Y-91064819D02*
X66794095Y-90064819D01*
X67365523Y-91064819D02*
X66936952Y-90493390D01*
X67365523Y-90064819D02*
X66794095Y-90636247D01*
X51839905Y-73010819D02*
X51839905Y-72010819D01*
X51839905Y-72010819D02*
X52078000Y-72010819D01*
X52078000Y-72010819D02*
X52220857Y-72058438D01*
X52220857Y-72058438D02*
X52316095Y-72153676D01*
X52316095Y-72153676D02*
X52363714Y-72248914D01*
X52363714Y-72248914D02*
X52411333Y-72439390D01*
X52411333Y-72439390D02*
X52411333Y-72582247D01*
X52411333Y-72582247D02*
X52363714Y-72772723D01*
X52363714Y-72772723D02*
X52316095Y-72867961D01*
X52316095Y-72867961D02*
X52220857Y-72963200D01*
X52220857Y-72963200D02*
X52078000Y-73010819D01*
X52078000Y-73010819D02*
X51839905Y-73010819D01*
X53363714Y-73010819D02*
X52792286Y-73010819D01*
X53078000Y-73010819D02*
X53078000Y-72010819D01*
X53078000Y-72010819D02*
X52982762Y-72153676D01*
X52982762Y-72153676D02*
X52887524Y-72248914D01*
X52887524Y-72248914D02*
X52792286Y-72296533D01*
X48506095Y-73330819D02*
X48506095Y-72330819D01*
X49077523Y-73330819D02*
X48648952Y-72759390D01*
X49077523Y-72330819D02*
X48506095Y-72902247D01*
X60265333Y-78143580D02*
X60217714Y-78191200D01*
X60217714Y-78191200D02*
X60074857Y-78238819D01*
X60074857Y-78238819D02*
X59979619Y-78238819D01*
X59979619Y-78238819D02*
X59836762Y-78191200D01*
X59836762Y-78191200D02*
X59741524Y-78095961D01*
X59741524Y-78095961D02*
X59693905Y-78000723D01*
X59693905Y-78000723D02*
X59646286Y-77810247D01*
X59646286Y-77810247D02*
X59646286Y-77667390D01*
X59646286Y-77667390D02*
X59693905Y-77476914D01*
X59693905Y-77476914D02*
X59741524Y-77381676D01*
X59741524Y-77381676D02*
X59836762Y-77286438D01*
X59836762Y-77286438D02*
X59979619Y-77238819D01*
X59979619Y-77238819D02*
X60074857Y-77238819D01*
X60074857Y-77238819D02*
X60217714Y-77286438D01*
X60217714Y-77286438D02*
X60265333Y-77334057D01*
X60598667Y-77238819D02*
X61217714Y-77238819D01*
X61217714Y-77238819D02*
X60884381Y-77619771D01*
X60884381Y-77619771D02*
X61027238Y-77619771D01*
X61027238Y-77619771D02*
X61122476Y-77667390D01*
X61122476Y-77667390D02*
X61170095Y-77715009D01*
X61170095Y-77715009D02*
X61217714Y-77810247D01*
X61217714Y-77810247D02*
X61217714Y-78048342D01*
X61217714Y-78048342D02*
X61170095Y-78143580D01*
X61170095Y-78143580D02*
X61122476Y-78191200D01*
X61122476Y-78191200D02*
X61027238Y-78238819D01*
X61027238Y-78238819D02*
X60741524Y-78238819D01*
X60741524Y-78238819D02*
X60646286Y-78191200D01*
X60646286Y-78191200D02*
X60598667Y-78143580D01*
X70240233Y-117251580D02*
X70192614Y-117299200D01*
X70192614Y-117299200D02*
X70049757Y-117346819D01*
X70049757Y-117346819D02*
X69954519Y-117346819D01*
X69954519Y-117346819D02*
X69811662Y-117299200D01*
X69811662Y-117299200D02*
X69716424Y-117203961D01*
X69716424Y-117203961D02*
X69668805Y-117108723D01*
X69668805Y-117108723D02*
X69621186Y-116918247D01*
X69621186Y-116918247D02*
X69621186Y-116775390D01*
X69621186Y-116775390D02*
X69668805Y-116584914D01*
X69668805Y-116584914D02*
X69716424Y-116489676D01*
X69716424Y-116489676D02*
X69811662Y-116394438D01*
X69811662Y-116394438D02*
X69954519Y-116346819D01*
X69954519Y-116346819D02*
X70049757Y-116346819D01*
X70049757Y-116346819D02*
X70192614Y-116394438D01*
X70192614Y-116394438D02*
X70240233Y-116442057D01*
X70621186Y-116442057D02*
X70668805Y-116394438D01*
X70668805Y-116394438D02*
X70764043Y-116346819D01*
X70764043Y-116346819D02*
X71002138Y-116346819D01*
X71002138Y-116346819D02*
X71097376Y-116394438D01*
X71097376Y-116394438D02*
X71144995Y-116442057D01*
X71144995Y-116442057D02*
X71192614Y-116537295D01*
X71192614Y-116537295D02*
X71192614Y-116632533D01*
X71192614Y-116632533D02*
X71144995Y-116775390D01*
X71144995Y-116775390D02*
X70573567Y-117346819D01*
X70573567Y-117346819D02*
X71192614Y-117346819D01*
X51716933Y-78905580D02*
X51669314Y-78953200D01*
X51669314Y-78953200D02*
X51526457Y-79000819D01*
X51526457Y-79000819D02*
X51431219Y-79000819D01*
X51431219Y-79000819D02*
X51288362Y-78953200D01*
X51288362Y-78953200D02*
X51193124Y-78857961D01*
X51193124Y-78857961D02*
X51145505Y-78762723D01*
X51145505Y-78762723D02*
X51097886Y-78572247D01*
X51097886Y-78572247D02*
X51097886Y-78429390D01*
X51097886Y-78429390D02*
X51145505Y-78238914D01*
X51145505Y-78238914D02*
X51193124Y-78143676D01*
X51193124Y-78143676D02*
X51288362Y-78048438D01*
X51288362Y-78048438D02*
X51431219Y-78000819D01*
X51431219Y-78000819D02*
X51526457Y-78000819D01*
X51526457Y-78000819D02*
X51669314Y-78048438D01*
X51669314Y-78048438D02*
X51716933Y-78096057D01*
X52669314Y-79000819D02*
X52097886Y-79000819D01*
X52383600Y-79000819D02*
X52383600Y-78000819D01*
X52383600Y-78000819D02*
X52288362Y-78143676D01*
X52288362Y-78143676D02*
X52193124Y-78238914D01*
X52193124Y-78238914D02*
X52097886Y-78286533D01*
X78990819Y-94876857D02*
X78514628Y-95210190D01*
X78990819Y-95448285D02*
X77990819Y-95448285D01*
X77990819Y-95448285D02*
X77990819Y-95067333D01*
X77990819Y-95067333D02*
X78038438Y-94972095D01*
X78038438Y-94972095D02*
X78086057Y-94924476D01*
X78086057Y-94924476D02*
X78181295Y-94876857D01*
X78181295Y-94876857D02*
X78324152Y-94876857D01*
X78324152Y-94876857D02*
X78419390Y-94924476D01*
X78419390Y-94924476D02*
X78467009Y-94972095D01*
X78467009Y-94972095D02*
X78514628Y-95067333D01*
X78514628Y-95067333D02*
X78514628Y-95448285D01*
X78990819Y-93924476D02*
X78990819Y-94495904D01*
X78990819Y-94210190D02*
X77990819Y-94210190D01*
X77990819Y-94210190D02*
X78133676Y-94305428D01*
X78133676Y-94305428D02*
X78228914Y-94400666D01*
X78228914Y-94400666D02*
X78276533Y-94495904D01*
X78990819Y-92972095D02*
X78990819Y-93543523D01*
X78990819Y-93257809D02*
X77990819Y-93257809D01*
X77990819Y-93257809D02*
X78133676Y-93353047D01*
X78133676Y-93353047D02*
X78228914Y-93448285D01*
X78228914Y-93448285D02*
X78276533Y-93543523D01*
X66244819Y-82891238D02*
X65768628Y-83224571D01*
X66244819Y-83462666D02*
X65244819Y-83462666D01*
X65244819Y-83462666D02*
X65244819Y-83081714D01*
X65244819Y-83081714D02*
X65292438Y-82986476D01*
X65292438Y-82986476D02*
X65340057Y-82938857D01*
X65340057Y-82938857D02*
X65435295Y-82891238D01*
X65435295Y-82891238D02*
X65578152Y-82891238D01*
X65578152Y-82891238D02*
X65673390Y-82938857D01*
X65673390Y-82938857D02*
X65721009Y-82986476D01*
X65721009Y-82986476D02*
X65768628Y-83081714D01*
X65768628Y-83081714D02*
X65768628Y-83462666D01*
X65244819Y-82605523D02*
X66244819Y-82272190D01*
X66244819Y-82272190D02*
X65244819Y-81938857D01*
X65340057Y-81653142D02*
X65292438Y-81605523D01*
X65292438Y-81605523D02*
X65244819Y-81510285D01*
X65244819Y-81510285D02*
X65244819Y-81272190D01*
X65244819Y-81272190D02*
X65292438Y-81176952D01*
X65292438Y-81176952D02*
X65340057Y-81129333D01*
X65340057Y-81129333D02*
X65435295Y-81081714D01*
X65435295Y-81081714D02*
X65530533Y-81081714D01*
X65530533Y-81081714D02*
X65673390Y-81129333D01*
X65673390Y-81129333D02*
X66244819Y-81700761D01*
X66244819Y-81700761D02*
X66244819Y-81081714D01*
X85483142Y-66459580D02*
X85435523Y-66507200D01*
X85435523Y-66507200D02*
X85292666Y-66554819D01*
X85292666Y-66554819D02*
X85197428Y-66554819D01*
X85197428Y-66554819D02*
X85054571Y-66507200D01*
X85054571Y-66507200D02*
X84959333Y-66411961D01*
X84959333Y-66411961D02*
X84911714Y-66316723D01*
X84911714Y-66316723D02*
X84864095Y-66126247D01*
X84864095Y-66126247D02*
X84864095Y-65983390D01*
X84864095Y-65983390D02*
X84911714Y-65792914D01*
X84911714Y-65792914D02*
X84959333Y-65697676D01*
X84959333Y-65697676D02*
X85054571Y-65602438D01*
X85054571Y-65602438D02*
X85197428Y-65554819D01*
X85197428Y-65554819D02*
X85292666Y-65554819D01*
X85292666Y-65554819D02*
X85435523Y-65602438D01*
X85435523Y-65602438D02*
X85483142Y-65650057D01*
X86435523Y-66554819D02*
X85864095Y-66554819D01*
X86149809Y-66554819D02*
X86149809Y-65554819D01*
X86149809Y-65554819D02*
X86054571Y-65697676D01*
X86054571Y-65697676D02*
X85959333Y-65792914D01*
X85959333Y-65792914D02*
X85864095Y-65840533D01*
X87387904Y-66554819D02*
X86816476Y-66554819D01*
X87102190Y-66554819D02*
X87102190Y-65554819D01*
X87102190Y-65554819D02*
X87006952Y-65697676D01*
X87006952Y-65697676D02*
X86911714Y-65792914D01*
X86911714Y-65792914D02*
X86816476Y-65840533D01*
X86447333Y-98752819D02*
X86114000Y-98276628D01*
X85875905Y-98752819D02*
X85875905Y-97752819D01*
X85875905Y-97752819D02*
X86256857Y-97752819D01*
X86256857Y-97752819D02*
X86352095Y-97800438D01*
X86352095Y-97800438D02*
X86399714Y-97848057D01*
X86399714Y-97848057D02*
X86447333Y-97943295D01*
X86447333Y-97943295D02*
X86447333Y-98086152D01*
X86447333Y-98086152D02*
X86399714Y-98181390D01*
X86399714Y-98181390D02*
X86352095Y-98229009D01*
X86352095Y-98229009D02*
X86256857Y-98276628D01*
X86256857Y-98276628D02*
X85875905Y-98276628D01*
X86923524Y-98752819D02*
X87114000Y-98752819D01*
X87114000Y-98752819D02*
X87209238Y-98705200D01*
X87209238Y-98705200D02*
X87256857Y-98657580D01*
X87256857Y-98657580D02*
X87352095Y-98514723D01*
X87352095Y-98514723D02*
X87399714Y-98324247D01*
X87399714Y-98324247D02*
X87399714Y-97943295D01*
X87399714Y-97943295D02*
X87352095Y-97848057D01*
X87352095Y-97848057D02*
X87304476Y-97800438D01*
X87304476Y-97800438D02*
X87209238Y-97752819D01*
X87209238Y-97752819D02*
X87018762Y-97752819D01*
X87018762Y-97752819D02*
X86923524Y-97800438D01*
X86923524Y-97800438D02*
X86875905Y-97848057D01*
X86875905Y-97848057D02*
X86828286Y-97943295D01*
X86828286Y-97943295D02*
X86828286Y-98181390D01*
X86828286Y-98181390D02*
X86875905Y-98276628D01*
X86875905Y-98276628D02*
X86923524Y-98324247D01*
X86923524Y-98324247D02*
X87018762Y-98371866D01*
X87018762Y-98371866D02*
X87209238Y-98371866D01*
X87209238Y-98371866D02*
X87304476Y-98324247D01*
X87304476Y-98324247D02*
X87352095Y-98276628D01*
X87352095Y-98276628D02*
X87399714Y-98181390D01*
D11*
X69024667Y-74585800D02*
X69167524Y-74633419D01*
X69167524Y-74633419D02*
X69405619Y-74633419D01*
X69405619Y-74633419D02*
X69500857Y-74585800D01*
X69500857Y-74585800D02*
X69548476Y-74538180D01*
X69548476Y-74538180D02*
X69596095Y-74442942D01*
X69596095Y-74442942D02*
X69596095Y-74347704D01*
X69596095Y-74347704D02*
X69548476Y-74252466D01*
X69548476Y-74252466D02*
X69500857Y-74204847D01*
X69500857Y-74204847D02*
X69405619Y-74157228D01*
X69405619Y-74157228D02*
X69215143Y-74109609D01*
X69215143Y-74109609D02*
X69119905Y-74061990D01*
X69119905Y-74061990D02*
X69072286Y-74014371D01*
X69072286Y-74014371D02*
X69024667Y-73919133D01*
X69024667Y-73919133D02*
X69024667Y-73823895D01*
X69024667Y-73823895D02*
X69072286Y-73728657D01*
X69072286Y-73728657D02*
X69119905Y-73681038D01*
X69119905Y-73681038D02*
X69215143Y-73633419D01*
X69215143Y-73633419D02*
X69453238Y-73633419D01*
X69453238Y-73633419D02*
X69596095Y-73681038D01*
X69929429Y-73633419D02*
X70167524Y-74633419D01*
X70167524Y-74633419D02*
X70358000Y-73919133D01*
X70358000Y-73919133D02*
X70548476Y-74633419D01*
X70548476Y-74633419D02*
X70786572Y-73633419D01*
X71072286Y-73633419D02*
X71691333Y-73633419D01*
X71691333Y-73633419D02*
X71358000Y-74014371D01*
X71358000Y-74014371D02*
X71500857Y-74014371D01*
X71500857Y-74014371D02*
X71596095Y-74061990D01*
X71596095Y-74061990D02*
X71643714Y-74109609D01*
X71643714Y-74109609D02*
X71691333Y-74204847D01*
X71691333Y-74204847D02*
X71691333Y-74442942D01*
X71691333Y-74442942D02*
X71643714Y-74538180D01*
X71643714Y-74538180D02*
X71596095Y-74585800D01*
X71596095Y-74585800D02*
X71500857Y-74633419D01*
X71500857Y-74633419D02*
X71215143Y-74633419D01*
X71215143Y-74633419D02*
X71119905Y-74585800D01*
X71119905Y-74585800D02*
X71072286Y-74538180D01*
X69862795Y-57821919D02*
X70434223Y-57821919D01*
X70148509Y-58821919D02*
X70148509Y-57821919D01*
X71291366Y-58821919D02*
X70719938Y-58821919D01*
X71005652Y-58821919D02*
X71005652Y-57821919D01*
X71005652Y-57821919D02*
X70910414Y-57964776D01*
X70910414Y-57964776D02*
X70815176Y-58060014D01*
X70815176Y-58060014D02*
X70719938Y-58107633D01*
D10*
X51923333Y-94927580D02*
X51875714Y-94975200D01*
X51875714Y-94975200D02*
X51732857Y-95022819D01*
X51732857Y-95022819D02*
X51637619Y-95022819D01*
X51637619Y-95022819D02*
X51494762Y-94975200D01*
X51494762Y-94975200D02*
X51399524Y-94879961D01*
X51399524Y-94879961D02*
X51351905Y-94784723D01*
X51351905Y-94784723D02*
X51304286Y-94594247D01*
X51304286Y-94594247D02*
X51304286Y-94451390D01*
X51304286Y-94451390D02*
X51351905Y-94260914D01*
X51351905Y-94260914D02*
X51399524Y-94165676D01*
X51399524Y-94165676D02*
X51494762Y-94070438D01*
X51494762Y-94070438D02*
X51637619Y-94022819D01*
X51637619Y-94022819D02*
X51732857Y-94022819D01*
X51732857Y-94022819D02*
X51875714Y-94070438D01*
X51875714Y-94070438D02*
X51923333Y-94118057D01*
X52494762Y-94451390D02*
X52399524Y-94403771D01*
X52399524Y-94403771D02*
X52351905Y-94356152D01*
X52351905Y-94356152D02*
X52304286Y-94260914D01*
X52304286Y-94260914D02*
X52304286Y-94213295D01*
X52304286Y-94213295D02*
X52351905Y-94118057D01*
X52351905Y-94118057D02*
X52399524Y-94070438D01*
X52399524Y-94070438D02*
X52494762Y-94022819D01*
X52494762Y-94022819D02*
X52685238Y-94022819D01*
X52685238Y-94022819D02*
X52780476Y-94070438D01*
X52780476Y-94070438D02*
X52828095Y-94118057D01*
X52828095Y-94118057D02*
X52875714Y-94213295D01*
X52875714Y-94213295D02*
X52875714Y-94260914D01*
X52875714Y-94260914D02*
X52828095Y-94356152D01*
X52828095Y-94356152D02*
X52780476Y-94403771D01*
X52780476Y-94403771D02*
X52685238Y-94451390D01*
X52685238Y-94451390D02*
X52494762Y-94451390D01*
X52494762Y-94451390D02*
X52399524Y-94499009D01*
X52399524Y-94499009D02*
X52351905Y-94546628D01*
X52351905Y-94546628D02*
X52304286Y-94641866D01*
X52304286Y-94641866D02*
X52304286Y-94832342D01*
X52304286Y-94832342D02*
X52351905Y-94927580D01*
X52351905Y-94927580D02*
X52399524Y-94975200D01*
X52399524Y-94975200D02*
X52494762Y-95022819D01*
X52494762Y-95022819D02*
X52685238Y-95022819D01*
X52685238Y-95022819D02*
X52780476Y-94975200D01*
X52780476Y-94975200D02*
X52828095Y-94927580D01*
X52828095Y-94927580D02*
X52875714Y-94832342D01*
X52875714Y-94832342D02*
X52875714Y-94641866D01*
X52875714Y-94641866D02*
X52828095Y-94546628D01*
X52828095Y-94546628D02*
X52780476Y-94499009D01*
X52780476Y-94499009D02*
X52685238Y-94451390D01*
X79335333Y-104086819D02*
X79002000Y-103610628D01*
X78763905Y-104086819D02*
X78763905Y-103086819D01*
X78763905Y-103086819D02*
X79144857Y-103086819D01*
X79144857Y-103086819D02*
X79240095Y-103134438D01*
X79240095Y-103134438D02*
X79287714Y-103182057D01*
X79287714Y-103182057D02*
X79335333Y-103277295D01*
X79335333Y-103277295D02*
X79335333Y-103420152D01*
X79335333Y-103420152D02*
X79287714Y-103515390D01*
X79287714Y-103515390D02*
X79240095Y-103563009D01*
X79240095Y-103563009D02*
X79144857Y-103610628D01*
X79144857Y-103610628D02*
X78763905Y-103610628D01*
X79716286Y-103182057D02*
X79763905Y-103134438D01*
X79763905Y-103134438D02*
X79859143Y-103086819D01*
X79859143Y-103086819D02*
X80097238Y-103086819D01*
X80097238Y-103086819D02*
X80192476Y-103134438D01*
X80192476Y-103134438D02*
X80240095Y-103182057D01*
X80240095Y-103182057D02*
X80287714Y-103277295D01*
X80287714Y-103277295D02*
X80287714Y-103372533D01*
X80287714Y-103372533D02*
X80240095Y-103515390D01*
X80240095Y-103515390D02*
X79668667Y-104086819D01*
X79668667Y-104086819D02*
X80287714Y-104086819D01*
X69850095Y-95676819D02*
X69850095Y-96486342D01*
X69850095Y-96486342D02*
X69897714Y-96581580D01*
X69897714Y-96581580D02*
X69945333Y-96629200D01*
X69945333Y-96629200D02*
X70040571Y-96676819D01*
X70040571Y-96676819D02*
X70231047Y-96676819D01*
X70231047Y-96676819D02*
X70326285Y-96629200D01*
X70326285Y-96629200D02*
X70373904Y-96581580D01*
X70373904Y-96581580D02*
X70421523Y-96486342D01*
X70421523Y-96486342D02*
X70421523Y-95676819D01*
X71421523Y-96676819D02*
X70850095Y-96676819D01*
X71135809Y-96676819D02*
X71135809Y-95676819D01*
X71135809Y-95676819D02*
X71040571Y-95819676D01*
X71040571Y-95819676D02*
X70945333Y-95914914D01*
X70945333Y-95914914D02*
X70850095Y-95962533D01*
X51141333Y-70558819D02*
X50808000Y-70082628D01*
X50569905Y-70558819D02*
X50569905Y-69558819D01*
X50569905Y-69558819D02*
X50950857Y-69558819D01*
X50950857Y-69558819D02*
X51046095Y-69606438D01*
X51046095Y-69606438D02*
X51093714Y-69654057D01*
X51093714Y-69654057D02*
X51141333Y-69749295D01*
X51141333Y-69749295D02*
X51141333Y-69892152D01*
X51141333Y-69892152D02*
X51093714Y-69987390D01*
X51093714Y-69987390D02*
X51046095Y-70035009D01*
X51046095Y-70035009D02*
X50950857Y-70082628D01*
X50950857Y-70082628D02*
X50569905Y-70082628D01*
X51998476Y-69892152D02*
X51998476Y-70558819D01*
X51760381Y-69511200D02*
X51522286Y-70225485D01*
X51522286Y-70225485D02*
X52141333Y-70225485D01*
X79380233Y-106337580D02*
X79332614Y-106385200D01*
X79332614Y-106385200D02*
X79189757Y-106432819D01*
X79189757Y-106432819D02*
X79094519Y-106432819D01*
X79094519Y-106432819D02*
X78951662Y-106385200D01*
X78951662Y-106385200D02*
X78856424Y-106289961D01*
X78856424Y-106289961D02*
X78808805Y-106194723D01*
X78808805Y-106194723D02*
X78761186Y-106004247D01*
X78761186Y-106004247D02*
X78761186Y-105861390D01*
X78761186Y-105861390D02*
X78808805Y-105670914D01*
X78808805Y-105670914D02*
X78856424Y-105575676D01*
X78856424Y-105575676D02*
X78951662Y-105480438D01*
X78951662Y-105480438D02*
X79094519Y-105432819D01*
X79094519Y-105432819D02*
X79189757Y-105432819D01*
X79189757Y-105432819D02*
X79332614Y-105480438D01*
X79332614Y-105480438D02*
X79380233Y-105528057D01*
X80237376Y-105432819D02*
X80046900Y-105432819D01*
X80046900Y-105432819D02*
X79951662Y-105480438D01*
X79951662Y-105480438D02*
X79904043Y-105528057D01*
X79904043Y-105528057D02*
X79808805Y-105670914D01*
X79808805Y-105670914D02*
X79761186Y-105861390D01*
X79761186Y-105861390D02*
X79761186Y-106242342D01*
X79761186Y-106242342D02*
X79808805Y-106337580D01*
X79808805Y-106337580D02*
X79856424Y-106385200D01*
X79856424Y-106385200D02*
X79951662Y-106432819D01*
X79951662Y-106432819D02*
X80142138Y-106432819D01*
X80142138Y-106432819D02*
X80237376Y-106385200D01*
X80237376Y-106385200D02*
X80284995Y-106337580D01*
X80284995Y-106337580D02*
X80332614Y-106242342D01*
X80332614Y-106242342D02*
X80332614Y-106004247D01*
X80332614Y-106004247D02*
X80284995Y-105909009D01*
X80284995Y-105909009D02*
X80237376Y-105861390D01*
X80237376Y-105861390D02*
X80142138Y-105813771D01*
X80142138Y-105813771D02*
X79951662Y-105813771D01*
X79951662Y-105813771D02*
X79856424Y-105861390D01*
X79856424Y-105861390D02*
X79808805Y-105909009D01*
X79808805Y-105909009D02*
X79761186Y-106004247D01*
X52752666Y-43980819D02*
X52752666Y-44695104D01*
X52752666Y-44695104D02*
X52705047Y-44837961D01*
X52705047Y-44837961D02*
X52609809Y-44933200D01*
X52609809Y-44933200D02*
X52466952Y-44980819D01*
X52466952Y-44980819D02*
X52371714Y-44980819D01*
X53133619Y-43980819D02*
X53752666Y-43980819D01*
X53752666Y-43980819D02*
X53419333Y-44361771D01*
X53419333Y-44361771D02*
X53562190Y-44361771D01*
X53562190Y-44361771D02*
X53657428Y-44409390D01*
X53657428Y-44409390D02*
X53705047Y-44457009D01*
X53705047Y-44457009D02*
X53752666Y-44552247D01*
X53752666Y-44552247D02*
X53752666Y-44790342D01*
X53752666Y-44790342D02*
X53705047Y-44885580D01*
X53705047Y-44885580D02*
X53657428Y-44933200D01*
X53657428Y-44933200D02*
X53562190Y-44980819D01*
X53562190Y-44980819D02*
X53276476Y-44980819D01*
X53276476Y-44980819D02*
X53181238Y-44933200D01*
X53181238Y-44933200D02*
X53133619Y-44885580D01*
X51141333Y-67256819D02*
X50808000Y-66780628D01*
X50569905Y-67256819D02*
X50569905Y-66256819D01*
X50569905Y-66256819D02*
X50950857Y-66256819D01*
X50950857Y-66256819D02*
X51046095Y-66304438D01*
X51046095Y-66304438D02*
X51093714Y-66352057D01*
X51093714Y-66352057D02*
X51141333Y-66447295D01*
X51141333Y-66447295D02*
X51141333Y-66590152D01*
X51141333Y-66590152D02*
X51093714Y-66685390D01*
X51093714Y-66685390D02*
X51046095Y-66733009D01*
X51046095Y-66733009D02*
X50950857Y-66780628D01*
X50950857Y-66780628D02*
X50569905Y-66780628D01*
X51474667Y-66256819D02*
X52093714Y-66256819D01*
X52093714Y-66256819D02*
X51760381Y-66637771D01*
X51760381Y-66637771D02*
X51903238Y-66637771D01*
X51903238Y-66637771D02*
X51998476Y-66685390D01*
X51998476Y-66685390D02*
X52046095Y-66733009D01*
X52046095Y-66733009D02*
X52093714Y-66828247D01*
X52093714Y-66828247D02*
X52093714Y-67066342D01*
X52093714Y-67066342D02*
X52046095Y-67161580D01*
X52046095Y-67161580D02*
X51998476Y-67209200D01*
X51998476Y-67209200D02*
X51903238Y-67256819D01*
X51903238Y-67256819D02*
X51617524Y-67256819D01*
X51617524Y-67256819D02*
X51522286Y-67209200D01*
X51522286Y-67209200D02*
X51474667Y-67161580D01*
X65244819Y-139779333D02*
X65959104Y-139779333D01*
X65959104Y-139779333D02*
X66101961Y-139826952D01*
X66101961Y-139826952D02*
X66197200Y-139922190D01*
X66197200Y-139922190D02*
X66244819Y-140065047D01*
X66244819Y-140065047D02*
X66244819Y-140160285D01*
X66244819Y-138779333D02*
X66244819Y-139350761D01*
X66244819Y-139065047D02*
X65244819Y-139065047D01*
X65244819Y-139065047D02*
X65387676Y-139160285D01*
X65387676Y-139160285D02*
X65482914Y-139255523D01*
X65482914Y-139255523D02*
X65530533Y-139350761D01*
X89679542Y-76559580D02*
X89631923Y-76607200D01*
X89631923Y-76607200D02*
X89489066Y-76654819D01*
X89489066Y-76654819D02*
X89393828Y-76654819D01*
X89393828Y-76654819D02*
X89250971Y-76607200D01*
X89250971Y-76607200D02*
X89155733Y-76511961D01*
X89155733Y-76511961D02*
X89108114Y-76416723D01*
X89108114Y-76416723D02*
X89060495Y-76226247D01*
X89060495Y-76226247D02*
X89060495Y-76083390D01*
X89060495Y-76083390D02*
X89108114Y-75892914D01*
X89108114Y-75892914D02*
X89155733Y-75797676D01*
X89155733Y-75797676D02*
X89250971Y-75702438D01*
X89250971Y-75702438D02*
X89393828Y-75654819D01*
X89393828Y-75654819D02*
X89489066Y-75654819D01*
X89489066Y-75654819D02*
X89631923Y-75702438D01*
X89631923Y-75702438D02*
X89679542Y-75750057D01*
X90631923Y-76654819D02*
X90060495Y-76654819D01*
X90346209Y-76654819D02*
X90346209Y-75654819D01*
X90346209Y-75654819D02*
X90250971Y-75797676D01*
X90250971Y-75797676D02*
X90155733Y-75892914D01*
X90155733Y-75892914D02*
X90060495Y-75940533D01*
X91012876Y-75750057D02*
X91060495Y-75702438D01*
X91060495Y-75702438D02*
X91155733Y-75654819D01*
X91155733Y-75654819D02*
X91393828Y-75654819D01*
X91393828Y-75654819D02*
X91489066Y-75702438D01*
X91489066Y-75702438D02*
X91536685Y-75750057D01*
X91536685Y-75750057D02*
X91584304Y-75845295D01*
X91584304Y-75845295D02*
X91584304Y-75940533D01*
X91584304Y-75940533D02*
X91536685Y-76083390D01*
X91536685Y-76083390D02*
X90965257Y-76654819D01*
X90965257Y-76654819D02*
X91584304Y-76654819D01*
X48163009Y-62507714D02*
X48210628Y-62364857D01*
X48210628Y-62364857D02*
X48258247Y-62317238D01*
X48258247Y-62317238D02*
X48353485Y-62269619D01*
X48353485Y-62269619D02*
X48496342Y-62269619D01*
X48496342Y-62269619D02*
X48591580Y-62317238D01*
X48591580Y-62317238D02*
X48639200Y-62364857D01*
X48639200Y-62364857D02*
X48686819Y-62460095D01*
X48686819Y-62460095D02*
X48686819Y-62841047D01*
X48686819Y-62841047D02*
X47686819Y-62841047D01*
X47686819Y-62841047D02*
X47686819Y-62507714D01*
X47686819Y-62507714D02*
X47734438Y-62412476D01*
X47734438Y-62412476D02*
X47782057Y-62364857D01*
X47782057Y-62364857D02*
X47877295Y-62317238D01*
X47877295Y-62317238D02*
X47972533Y-62317238D01*
X47972533Y-62317238D02*
X48067771Y-62364857D01*
X48067771Y-62364857D02*
X48115390Y-62412476D01*
X48115390Y-62412476D02*
X48163009Y-62507714D01*
X48163009Y-62507714D02*
X48163009Y-62841047D01*
X47686819Y-61983904D02*
X47686819Y-61412476D01*
X48686819Y-61698190D02*
X47686819Y-61698190D01*
X48686819Y-60555333D02*
X48686819Y-61126761D01*
X48686819Y-60841047D02*
X47686819Y-60841047D01*
X47686819Y-60841047D02*
X47829676Y-60936285D01*
X47829676Y-60936285D02*
X47924914Y-61031523D01*
X47924914Y-61031523D02*
X47972533Y-61126761D01*
X82242819Y-59158094D02*
X81242819Y-59158094D01*
X81242819Y-59158094D02*
X81242819Y-58919999D01*
X81242819Y-58919999D02*
X81290438Y-58777142D01*
X81290438Y-58777142D02*
X81385676Y-58681904D01*
X81385676Y-58681904D02*
X81480914Y-58634285D01*
X81480914Y-58634285D02*
X81671390Y-58586666D01*
X81671390Y-58586666D02*
X81814247Y-58586666D01*
X81814247Y-58586666D02*
X82004723Y-58634285D01*
X82004723Y-58634285D02*
X82099961Y-58681904D01*
X82099961Y-58681904D02*
X82195200Y-58777142D01*
X82195200Y-58777142D02*
X82242819Y-58919999D01*
X82242819Y-58919999D02*
X82242819Y-59158094D01*
X81242819Y-57729523D02*
X81242819Y-57919999D01*
X81242819Y-57919999D02*
X81290438Y-58015237D01*
X81290438Y-58015237D02*
X81338057Y-58062856D01*
X81338057Y-58062856D02*
X81480914Y-58158094D01*
X81480914Y-58158094D02*
X81671390Y-58205713D01*
X81671390Y-58205713D02*
X82052342Y-58205713D01*
X82052342Y-58205713D02*
X82147580Y-58158094D01*
X82147580Y-58158094D02*
X82195200Y-58110475D01*
X82195200Y-58110475D02*
X82242819Y-58015237D01*
X82242819Y-58015237D02*
X82242819Y-57824761D01*
X82242819Y-57824761D02*
X82195200Y-57729523D01*
X82195200Y-57729523D02*
X82147580Y-57681904D01*
X82147580Y-57681904D02*
X82052342Y-57634285D01*
X82052342Y-57634285D02*
X81814247Y-57634285D01*
X81814247Y-57634285D02*
X81719009Y-57681904D01*
X81719009Y-57681904D02*
X81671390Y-57729523D01*
X81671390Y-57729523D02*
X81623771Y-57824761D01*
X81623771Y-57824761D02*
X81623771Y-58015237D01*
X81623771Y-58015237D02*
X81671390Y-58110475D01*
X81671390Y-58110475D02*
X81719009Y-58158094D01*
X81719009Y-58158094D02*
X81814247Y-58205713D01*
X80442819Y-62999904D02*
X79442819Y-62999904D01*
X80442819Y-62428476D02*
X79871390Y-62857047D01*
X79442819Y-62428476D02*
X80014247Y-62999904D01*
X60793333Y-120088819D02*
X60460000Y-119612628D01*
X60221905Y-120088819D02*
X60221905Y-119088819D01*
X60221905Y-119088819D02*
X60602857Y-119088819D01*
X60602857Y-119088819D02*
X60698095Y-119136438D01*
X60698095Y-119136438D02*
X60745714Y-119184057D01*
X60745714Y-119184057D02*
X60793333Y-119279295D01*
X60793333Y-119279295D02*
X60793333Y-119422152D01*
X60793333Y-119422152D02*
X60745714Y-119517390D01*
X60745714Y-119517390D02*
X60698095Y-119565009D01*
X60698095Y-119565009D02*
X60602857Y-119612628D01*
X60602857Y-119612628D02*
X60221905Y-119612628D01*
X61698095Y-119088819D02*
X61221905Y-119088819D01*
X61221905Y-119088819D02*
X61174286Y-119565009D01*
X61174286Y-119565009D02*
X61221905Y-119517390D01*
X61221905Y-119517390D02*
X61317143Y-119469771D01*
X61317143Y-119469771D02*
X61555238Y-119469771D01*
X61555238Y-119469771D02*
X61650476Y-119517390D01*
X61650476Y-119517390D02*
X61698095Y-119565009D01*
X61698095Y-119565009D02*
X61745714Y-119660247D01*
X61745714Y-119660247D02*
X61745714Y-119898342D01*
X61745714Y-119898342D02*
X61698095Y-119993580D01*
X61698095Y-119993580D02*
X61650476Y-120041200D01*
X61650476Y-120041200D02*
X61555238Y-120088819D01*
X61555238Y-120088819D02*
X61317143Y-120088819D01*
X61317143Y-120088819D02*
X61221905Y-120041200D01*
X61221905Y-120041200D02*
X61174286Y-119993580D01*
X79113142Y-117548819D02*
X78779809Y-117072628D01*
X78541714Y-117548819D02*
X78541714Y-116548819D01*
X78541714Y-116548819D02*
X78922666Y-116548819D01*
X78922666Y-116548819D02*
X79017904Y-116596438D01*
X79017904Y-116596438D02*
X79065523Y-116644057D01*
X79065523Y-116644057D02*
X79113142Y-116739295D01*
X79113142Y-116739295D02*
X79113142Y-116882152D01*
X79113142Y-116882152D02*
X79065523Y-116977390D01*
X79065523Y-116977390D02*
X79017904Y-117025009D01*
X79017904Y-117025009D02*
X78922666Y-117072628D01*
X78922666Y-117072628D02*
X78541714Y-117072628D01*
X80065523Y-117548819D02*
X79494095Y-117548819D01*
X79779809Y-117548819D02*
X79779809Y-116548819D01*
X79779809Y-116548819D02*
X79684571Y-116691676D01*
X79684571Y-116691676D02*
X79589333Y-116786914D01*
X79589333Y-116786914D02*
X79494095Y-116834533D01*
X80446476Y-116644057D02*
X80494095Y-116596438D01*
X80494095Y-116596438D02*
X80589333Y-116548819D01*
X80589333Y-116548819D02*
X80827428Y-116548819D01*
X80827428Y-116548819D02*
X80922666Y-116596438D01*
X80922666Y-116596438D02*
X80970285Y-116644057D01*
X80970285Y-116644057D02*
X81017904Y-116739295D01*
X81017904Y-116739295D02*
X81017904Y-116834533D01*
X81017904Y-116834533D02*
X80970285Y-116977390D01*
X80970285Y-116977390D02*
X80398857Y-117548819D01*
X80398857Y-117548819D02*
X81017904Y-117548819D01*
X53006666Y-128054819D02*
X53006666Y-128769104D01*
X53006666Y-128769104D02*
X52959047Y-128911961D01*
X52959047Y-128911961D02*
X52863809Y-129007200D01*
X52863809Y-129007200D02*
X52720952Y-129054819D01*
X52720952Y-129054819D02*
X52625714Y-129054819D01*
X53959047Y-128054819D02*
X53482857Y-128054819D01*
X53482857Y-128054819D02*
X53435238Y-128531009D01*
X53435238Y-128531009D02*
X53482857Y-128483390D01*
X53482857Y-128483390D02*
X53578095Y-128435771D01*
X53578095Y-128435771D02*
X53816190Y-128435771D01*
X53816190Y-128435771D02*
X53911428Y-128483390D01*
X53911428Y-128483390D02*
X53959047Y-128531009D01*
X53959047Y-128531009D02*
X54006666Y-128626247D01*
X54006666Y-128626247D02*
X54006666Y-128864342D01*
X54006666Y-128864342D02*
X53959047Y-128959580D01*
X53959047Y-128959580D02*
X53911428Y-129007200D01*
X53911428Y-129007200D02*
X53816190Y-129054819D01*
X53816190Y-129054819D02*
X53578095Y-129054819D01*
X53578095Y-129054819D02*
X53482857Y-129007200D01*
X53482857Y-129007200D02*
X53435238Y-128959580D01*
D11*
X69064667Y-130401800D02*
X69207524Y-130449419D01*
X69207524Y-130449419D02*
X69445619Y-130449419D01*
X69445619Y-130449419D02*
X69540857Y-130401800D01*
X69540857Y-130401800D02*
X69588476Y-130354180D01*
X69588476Y-130354180D02*
X69636095Y-130258942D01*
X69636095Y-130258942D02*
X69636095Y-130163704D01*
X69636095Y-130163704D02*
X69588476Y-130068466D01*
X69588476Y-130068466D02*
X69540857Y-130020847D01*
X69540857Y-130020847D02*
X69445619Y-129973228D01*
X69445619Y-129973228D02*
X69255143Y-129925609D01*
X69255143Y-129925609D02*
X69159905Y-129877990D01*
X69159905Y-129877990D02*
X69112286Y-129830371D01*
X69112286Y-129830371D02*
X69064667Y-129735133D01*
X69064667Y-129735133D02*
X69064667Y-129639895D01*
X69064667Y-129639895D02*
X69112286Y-129544657D01*
X69112286Y-129544657D02*
X69159905Y-129497038D01*
X69159905Y-129497038D02*
X69255143Y-129449419D01*
X69255143Y-129449419D02*
X69493238Y-129449419D01*
X69493238Y-129449419D02*
X69636095Y-129497038D01*
X69969429Y-129449419D02*
X70207524Y-130449419D01*
X70207524Y-130449419D02*
X70398000Y-129735133D01*
X70398000Y-129735133D02*
X70588476Y-130449419D01*
X70588476Y-130449419D02*
X70826572Y-129449419D01*
X71731333Y-130449419D02*
X71159905Y-130449419D01*
X71445619Y-130449419D02*
X71445619Y-129449419D01*
X71445619Y-129449419D02*
X71350381Y-129592276D01*
X71350381Y-129592276D02*
X71255143Y-129687514D01*
X71255143Y-129687514D02*
X71159905Y-129735133D01*
D10*
X70191333Y-90116819D02*
X69858000Y-89640628D01*
X69619905Y-90116819D02*
X69619905Y-89116819D01*
X69619905Y-89116819D02*
X70000857Y-89116819D01*
X70000857Y-89116819D02*
X70096095Y-89164438D01*
X70096095Y-89164438D02*
X70143714Y-89212057D01*
X70143714Y-89212057D02*
X70191333Y-89307295D01*
X70191333Y-89307295D02*
X70191333Y-89450152D01*
X70191333Y-89450152D02*
X70143714Y-89545390D01*
X70143714Y-89545390D02*
X70096095Y-89593009D01*
X70096095Y-89593009D02*
X70000857Y-89640628D01*
X70000857Y-89640628D02*
X69619905Y-89640628D01*
X71048476Y-89116819D02*
X70858000Y-89116819D01*
X70858000Y-89116819D02*
X70762762Y-89164438D01*
X70762762Y-89164438D02*
X70715143Y-89212057D01*
X70715143Y-89212057D02*
X70619905Y-89354914D01*
X70619905Y-89354914D02*
X70572286Y-89545390D01*
X70572286Y-89545390D02*
X70572286Y-89926342D01*
X70572286Y-89926342D02*
X70619905Y-90021580D01*
X70619905Y-90021580D02*
X70667524Y-90069200D01*
X70667524Y-90069200D02*
X70762762Y-90116819D01*
X70762762Y-90116819D02*
X70953238Y-90116819D01*
X70953238Y-90116819D02*
X71048476Y-90069200D01*
X71048476Y-90069200D02*
X71096095Y-90021580D01*
X71096095Y-90021580D02*
X71143714Y-89926342D01*
X71143714Y-89926342D02*
X71143714Y-89688247D01*
X71143714Y-89688247D02*
X71096095Y-89593009D01*
X71096095Y-89593009D02*
X71048476Y-89545390D01*
X71048476Y-89545390D02*
X70953238Y-89497771D01*
X70953238Y-89497771D02*
X70762762Y-89497771D01*
X70762762Y-89497771D02*
X70667524Y-89545390D01*
X70667524Y-89545390D02*
X70619905Y-89593009D01*
X70619905Y-89593009D02*
X70572286Y-89688247D01*
X78113142Y-70015580D02*
X78065523Y-70063200D01*
X78065523Y-70063200D02*
X77922666Y-70110819D01*
X77922666Y-70110819D02*
X77827428Y-70110819D01*
X77827428Y-70110819D02*
X77684571Y-70063200D01*
X77684571Y-70063200D02*
X77589333Y-69967961D01*
X77589333Y-69967961D02*
X77541714Y-69872723D01*
X77541714Y-69872723D02*
X77494095Y-69682247D01*
X77494095Y-69682247D02*
X77494095Y-69539390D01*
X77494095Y-69539390D02*
X77541714Y-69348914D01*
X77541714Y-69348914D02*
X77589333Y-69253676D01*
X77589333Y-69253676D02*
X77684571Y-69158438D01*
X77684571Y-69158438D02*
X77827428Y-69110819D01*
X77827428Y-69110819D02*
X77922666Y-69110819D01*
X77922666Y-69110819D02*
X78065523Y-69158438D01*
X78065523Y-69158438D02*
X78113142Y-69206057D01*
X79065523Y-70110819D02*
X78494095Y-70110819D01*
X78779809Y-70110819D02*
X78779809Y-69110819D01*
X78779809Y-69110819D02*
X78684571Y-69253676D01*
X78684571Y-69253676D02*
X78589333Y-69348914D01*
X78589333Y-69348914D02*
X78494095Y-69396533D01*
X79684571Y-69110819D02*
X79779809Y-69110819D01*
X79779809Y-69110819D02*
X79875047Y-69158438D01*
X79875047Y-69158438D02*
X79922666Y-69206057D01*
X79922666Y-69206057D02*
X79970285Y-69301295D01*
X79970285Y-69301295D02*
X80017904Y-69491771D01*
X80017904Y-69491771D02*
X80017904Y-69729866D01*
X80017904Y-69729866D02*
X79970285Y-69920342D01*
X79970285Y-69920342D02*
X79922666Y-70015580D01*
X79922666Y-70015580D02*
X79875047Y-70063200D01*
X79875047Y-70063200D02*
X79779809Y-70110819D01*
X79779809Y-70110819D02*
X79684571Y-70110819D01*
X79684571Y-70110819D02*
X79589333Y-70063200D01*
X79589333Y-70063200D02*
X79541714Y-70015580D01*
X79541714Y-70015580D02*
X79494095Y-69920342D01*
X79494095Y-69920342D02*
X79446476Y-69729866D01*
X79446476Y-69729866D02*
X79446476Y-69491771D01*
X79446476Y-69491771D02*
X79494095Y-69301295D01*
X79494095Y-69301295D02*
X79541714Y-69206057D01*
X79541714Y-69206057D02*
X79589333Y-69158438D01*
X79589333Y-69158438D02*
X79684571Y-69110819D01*
X60571142Y-117294819D02*
X60237809Y-116818628D01*
X59999714Y-117294819D02*
X59999714Y-116294819D01*
X59999714Y-116294819D02*
X60380666Y-116294819D01*
X60380666Y-116294819D02*
X60475904Y-116342438D01*
X60475904Y-116342438D02*
X60523523Y-116390057D01*
X60523523Y-116390057D02*
X60571142Y-116485295D01*
X60571142Y-116485295D02*
X60571142Y-116628152D01*
X60571142Y-116628152D02*
X60523523Y-116723390D01*
X60523523Y-116723390D02*
X60475904Y-116771009D01*
X60475904Y-116771009D02*
X60380666Y-116818628D01*
X60380666Y-116818628D02*
X59999714Y-116818628D01*
X61523523Y-117294819D02*
X60952095Y-117294819D01*
X61237809Y-117294819D02*
X61237809Y-116294819D01*
X61237809Y-116294819D02*
X61142571Y-116437676D01*
X61142571Y-116437676D02*
X61047333Y-116532914D01*
X61047333Y-116532914D02*
X60952095Y-116580533D01*
X61856857Y-116294819D02*
X62475904Y-116294819D01*
X62475904Y-116294819D02*
X62142571Y-116675771D01*
X62142571Y-116675771D02*
X62285428Y-116675771D01*
X62285428Y-116675771D02*
X62380666Y-116723390D01*
X62380666Y-116723390D02*
X62428285Y-116771009D01*
X62428285Y-116771009D02*
X62475904Y-116866247D01*
X62475904Y-116866247D02*
X62475904Y-117104342D01*
X62475904Y-117104342D02*
X62428285Y-117199580D01*
X62428285Y-117199580D02*
X62380666Y-117247200D01*
X62380666Y-117247200D02*
X62285428Y-117294819D01*
X62285428Y-117294819D02*
X61999714Y-117294819D01*
X61999714Y-117294819D02*
X61904476Y-117247200D01*
X61904476Y-117247200D02*
X61856857Y-117199580D01*
X79092819Y-86240857D02*
X78616628Y-86574190D01*
X79092819Y-86812285D02*
X78092819Y-86812285D01*
X78092819Y-86812285D02*
X78092819Y-86431333D01*
X78092819Y-86431333D02*
X78140438Y-86336095D01*
X78140438Y-86336095D02*
X78188057Y-86288476D01*
X78188057Y-86288476D02*
X78283295Y-86240857D01*
X78283295Y-86240857D02*
X78426152Y-86240857D01*
X78426152Y-86240857D02*
X78521390Y-86288476D01*
X78521390Y-86288476D02*
X78569009Y-86336095D01*
X78569009Y-86336095D02*
X78616628Y-86431333D01*
X78616628Y-86431333D02*
X78616628Y-86812285D01*
X79092819Y-85288476D02*
X79092819Y-85859904D01*
X79092819Y-85574190D02*
X78092819Y-85574190D01*
X78092819Y-85574190D02*
X78235676Y-85669428D01*
X78235676Y-85669428D02*
X78330914Y-85764666D01*
X78330914Y-85764666D02*
X78378533Y-85859904D01*
X78092819Y-84669428D02*
X78092819Y-84574190D01*
X78092819Y-84574190D02*
X78140438Y-84478952D01*
X78140438Y-84478952D02*
X78188057Y-84431333D01*
X78188057Y-84431333D02*
X78283295Y-84383714D01*
X78283295Y-84383714D02*
X78473771Y-84336095D01*
X78473771Y-84336095D02*
X78711866Y-84336095D01*
X78711866Y-84336095D02*
X78902342Y-84383714D01*
X78902342Y-84383714D02*
X78997580Y-84431333D01*
X78997580Y-84431333D02*
X79045200Y-84478952D01*
X79045200Y-84478952D02*
X79092819Y-84574190D01*
X79092819Y-84574190D02*
X79092819Y-84669428D01*
X79092819Y-84669428D02*
X79045200Y-84764666D01*
X79045200Y-84764666D02*
X78997580Y-84812285D01*
X78997580Y-84812285D02*
X78902342Y-84859904D01*
X78902342Y-84859904D02*
X78711866Y-84907523D01*
X78711866Y-84907523D02*
X78473771Y-84907523D01*
X78473771Y-84907523D02*
X78283295Y-84859904D01*
X78283295Y-84859904D02*
X78188057Y-84812285D01*
X78188057Y-84812285D02*
X78140438Y-84764666D01*
X78140438Y-84764666D02*
X78092819Y-84669428D01*
X66632419Y-49312438D02*
X66156228Y-49645771D01*
X66632419Y-49883866D02*
X65632419Y-49883866D01*
X65632419Y-49883866D02*
X65632419Y-49502914D01*
X65632419Y-49502914D02*
X65680038Y-49407676D01*
X65680038Y-49407676D02*
X65727657Y-49360057D01*
X65727657Y-49360057D02*
X65822895Y-49312438D01*
X65822895Y-49312438D02*
X65965752Y-49312438D01*
X65965752Y-49312438D02*
X66060990Y-49360057D01*
X66060990Y-49360057D02*
X66108609Y-49407676D01*
X66108609Y-49407676D02*
X66156228Y-49502914D01*
X66156228Y-49502914D02*
X66156228Y-49883866D01*
X65632419Y-49026723D02*
X66632419Y-48693390D01*
X66632419Y-48693390D02*
X65632419Y-48360057D01*
X65632419Y-48121961D02*
X65632419Y-47502914D01*
X65632419Y-47502914D02*
X66013371Y-47836247D01*
X66013371Y-47836247D02*
X66013371Y-47693390D01*
X66013371Y-47693390D02*
X66060990Y-47598152D01*
X66060990Y-47598152D02*
X66108609Y-47550533D01*
X66108609Y-47550533D02*
X66203847Y-47502914D01*
X66203847Y-47502914D02*
X66441942Y-47502914D01*
X66441942Y-47502914D02*
X66537180Y-47550533D01*
X66537180Y-47550533D02*
X66584800Y-47598152D01*
X66584800Y-47598152D02*
X66632419Y-47693390D01*
X66632419Y-47693390D02*
X66632419Y-47979104D01*
X66632419Y-47979104D02*
X66584800Y-48074342D01*
X66584800Y-48074342D02*
X66537180Y-48121961D01*
X67800200Y-87947332D02*
X67847819Y-87804475D01*
X67847819Y-87804475D02*
X67847819Y-87566380D01*
X67847819Y-87566380D02*
X67800200Y-87471142D01*
X67800200Y-87471142D02*
X67752580Y-87423523D01*
X67752580Y-87423523D02*
X67657342Y-87375904D01*
X67657342Y-87375904D02*
X67562104Y-87375904D01*
X67562104Y-87375904D02*
X67466866Y-87423523D01*
X67466866Y-87423523D02*
X67419247Y-87471142D01*
X67419247Y-87471142D02*
X67371628Y-87566380D01*
X67371628Y-87566380D02*
X67324009Y-87756856D01*
X67324009Y-87756856D02*
X67276390Y-87852094D01*
X67276390Y-87852094D02*
X67228771Y-87899713D01*
X67228771Y-87899713D02*
X67133533Y-87947332D01*
X67133533Y-87947332D02*
X67038295Y-87947332D01*
X67038295Y-87947332D02*
X66943057Y-87899713D01*
X66943057Y-87899713D02*
X66895438Y-87852094D01*
X66895438Y-87852094D02*
X66847819Y-87756856D01*
X66847819Y-87756856D02*
X66847819Y-87518761D01*
X66847819Y-87518761D02*
X66895438Y-87375904D01*
X66847819Y-87042570D02*
X67847819Y-86804475D01*
X67847819Y-86804475D02*
X67133533Y-86613999D01*
X67133533Y-86613999D02*
X67847819Y-86423523D01*
X67847819Y-86423523D02*
X66847819Y-86185428D01*
X66943057Y-85852094D02*
X66895438Y-85804475D01*
X66895438Y-85804475D02*
X66847819Y-85709237D01*
X66847819Y-85709237D02*
X66847819Y-85471142D01*
X66847819Y-85471142D02*
X66895438Y-85375904D01*
X66895438Y-85375904D02*
X66943057Y-85328285D01*
X66943057Y-85328285D02*
X67038295Y-85280666D01*
X67038295Y-85280666D02*
X67133533Y-85280666D01*
X67133533Y-85280666D02*
X67276390Y-85328285D01*
X67276390Y-85328285D02*
X67847819Y-85899713D01*
X67847819Y-85899713D02*
X67847819Y-85280666D01*
X85927333Y-107091580D02*
X85879714Y-107139200D01*
X85879714Y-107139200D02*
X85736857Y-107186819D01*
X85736857Y-107186819D02*
X85641619Y-107186819D01*
X85641619Y-107186819D02*
X85498762Y-107139200D01*
X85498762Y-107139200D02*
X85403524Y-107043961D01*
X85403524Y-107043961D02*
X85355905Y-106948723D01*
X85355905Y-106948723D02*
X85308286Y-106758247D01*
X85308286Y-106758247D02*
X85308286Y-106615390D01*
X85308286Y-106615390D02*
X85355905Y-106424914D01*
X85355905Y-106424914D02*
X85403524Y-106329676D01*
X85403524Y-106329676D02*
X85498762Y-106234438D01*
X85498762Y-106234438D02*
X85641619Y-106186819D01*
X85641619Y-106186819D02*
X85736857Y-106186819D01*
X85736857Y-106186819D02*
X85879714Y-106234438D01*
X85879714Y-106234438D02*
X85927333Y-106282057D01*
X86403524Y-107186819D02*
X86594000Y-107186819D01*
X86594000Y-107186819D02*
X86689238Y-107139200D01*
X86689238Y-107139200D02*
X86736857Y-107091580D01*
X86736857Y-107091580D02*
X86832095Y-106948723D01*
X86832095Y-106948723D02*
X86879714Y-106758247D01*
X86879714Y-106758247D02*
X86879714Y-106377295D01*
X86879714Y-106377295D02*
X86832095Y-106282057D01*
X86832095Y-106282057D02*
X86784476Y-106234438D01*
X86784476Y-106234438D02*
X86689238Y-106186819D01*
X86689238Y-106186819D02*
X86498762Y-106186819D01*
X86498762Y-106186819D02*
X86403524Y-106234438D01*
X86403524Y-106234438D02*
X86355905Y-106282057D01*
X86355905Y-106282057D02*
X86308286Y-106377295D01*
X86308286Y-106377295D02*
X86308286Y-106615390D01*
X86308286Y-106615390D02*
X86355905Y-106710628D01*
X86355905Y-106710628D02*
X86403524Y-106758247D01*
X86403524Y-106758247D02*
X86498762Y-106805866D01*
X86498762Y-106805866D02*
X86689238Y-106805866D01*
X86689238Y-106805866D02*
X86784476Y-106758247D01*
X86784476Y-106758247D02*
X86832095Y-106710628D01*
X86832095Y-106710628D02*
X86879714Y-106615390D01*
X86193333Y-87678819D02*
X85860000Y-87202628D01*
X85621905Y-87678819D02*
X85621905Y-86678819D01*
X85621905Y-86678819D02*
X86002857Y-86678819D01*
X86002857Y-86678819D02*
X86098095Y-86726438D01*
X86098095Y-86726438D02*
X86145714Y-86774057D01*
X86145714Y-86774057D02*
X86193333Y-86869295D01*
X86193333Y-86869295D02*
X86193333Y-87012152D01*
X86193333Y-87012152D02*
X86145714Y-87107390D01*
X86145714Y-87107390D02*
X86098095Y-87155009D01*
X86098095Y-87155009D02*
X86002857Y-87202628D01*
X86002857Y-87202628D02*
X85621905Y-87202628D01*
X86764762Y-87107390D02*
X86669524Y-87059771D01*
X86669524Y-87059771D02*
X86621905Y-87012152D01*
X86621905Y-87012152D02*
X86574286Y-86916914D01*
X86574286Y-86916914D02*
X86574286Y-86869295D01*
X86574286Y-86869295D02*
X86621905Y-86774057D01*
X86621905Y-86774057D02*
X86669524Y-86726438D01*
X86669524Y-86726438D02*
X86764762Y-86678819D01*
X86764762Y-86678819D02*
X86955238Y-86678819D01*
X86955238Y-86678819D02*
X87050476Y-86726438D01*
X87050476Y-86726438D02*
X87098095Y-86774057D01*
X87098095Y-86774057D02*
X87145714Y-86869295D01*
X87145714Y-86869295D02*
X87145714Y-86916914D01*
X87145714Y-86916914D02*
X87098095Y-87012152D01*
X87098095Y-87012152D02*
X87050476Y-87059771D01*
X87050476Y-87059771D02*
X86955238Y-87107390D01*
X86955238Y-87107390D02*
X86764762Y-87107390D01*
X86764762Y-87107390D02*
X86669524Y-87155009D01*
X86669524Y-87155009D02*
X86621905Y-87202628D01*
X86621905Y-87202628D02*
X86574286Y-87297866D01*
X86574286Y-87297866D02*
X86574286Y-87488342D01*
X86574286Y-87488342D02*
X86621905Y-87583580D01*
X86621905Y-87583580D02*
X86669524Y-87631200D01*
X86669524Y-87631200D02*
X86764762Y-87678819D01*
X86764762Y-87678819D02*
X86955238Y-87678819D01*
X86955238Y-87678819D02*
X87050476Y-87631200D01*
X87050476Y-87631200D02*
X87098095Y-87583580D01*
X87098095Y-87583580D02*
X87145714Y-87488342D01*
X87145714Y-87488342D02*
X87145714Y-87297866D01*
X87145714Y-87297866D02*
X87098095Y-87202628D01*
X87098095Y-87202628D02*
X87050476Y-87155009D01*
X87050476Y-87155009D02*
X86955238Y-87107390D01*
X85875905Y-91640819D02*
X85875905Y-90640819D01*
X85875905Y-90640819D02*
X86114000Y-90640819D01*
X86114000Y-90640819D02*
X86256857Y-90688438D01*
X86256857Y-90688438D02*
X86352095Y-90783676D01*
X86352095Y-90783676D02*
X86399714Y-90878914D01*
X86399714Y-90878914D02*
X86447333Y-91069390D01*
X86447333Y-91069390D02*
X86447333Y-91212247D01*
X86447333Y-91212247D02*
X86399714Y-91402723D01*
X86399714Y-91402723D02*
X86352095Y-91497961D01*
X86352095Y-91497961D02*
X86256857Y-91593200D01*
X86256857Y-91593200D02*
X86114000Y-91640819D01*
X86114000Y-91640819D02*
X85875905Y-91640819D01*
X86780667Y-90640819D02*
X87399714Y-90640819D01*
X87399714Y-90640819D02*
X87066381Y-91021771D01*
X87066381Y-91021771D02*
X87209238Y-91021771D01*
X87209238Y-91021771D02*
X87304476Y-91069390D01*
X87304476Y-91069390D02*
X87352095Y-91117009D01*
X87352095Y-91117009D02*
X87399714Y-91212247D01*
X87399714Y-91212247D02*
X87399714Y-91450342D01*
X87399714Y-91450342D02*
X87352095Y-91545580D01*
X87352095Y-91545580D02*
X87304476Y-91593200D01*
X87304476Y-91593200D02*
X87209238Y-91640819D01*
X87209238Y-91640819D02*
X86923524Y-91640819D01*
X86923524Y-91640819D02*
X86828286Y-91593200D01*
X86828286Y-91593200D02*
X86780667Y-91545580D01*
X82342095Y-89932819D02*
X82342095Y-88932819D01*
X82913523Y-89932819D02*
X82484952Y-89361390D01*
X82913523Y-88932819D02*
X82342095Y-89504247D01*
X61067333Y-106337580D02*
X61019714Y-106385200D01*
X61019714Y-106385200D02*
X60876857Y-106432819D01*
X60876857Y-106432819D02*
X60781619Y-106432819D01*
X60781619Y-106432819D02*
X60638762Y-106385200D01*
X60638762Y-106385200D02*
X60543524Y-106289961D01*
X60543524Y-106289961D02*
X60495905Y-106194723D01*
X60495905Y-106194723D02*
X60448286Y-106004247D01*
X60448286Y-106004247D02*
X60448286Y-105861390D01*
X60448286Y-105861390D02*
X60495905Y-105670914D01*
X60495905Y-105670914D02*
X60543524Y-105575676D01*
X60543524Y-105575676D02*
X60638762Y-105480438D01*
X60638762Y-105480438D02*
X60781619Y-105432819D01*
X60781619Y-105432819D02*
X60876857Y-105432819D01*
X60876857Y-105432819D02*
X61019714Y-105480438D01*
X61019714Y-105480438D02*
X61067333Y-105528057D01*
X61972095Y-105432819D02*
X61495905Y-105432819D01*
X61495905Y-105432819D02*
X61448286Y-105909009D01*
X61448286Y-105909009D02*
X61495905Y-105861390D01*
X61495905Y-105861390D02*
X61591143Y-105813771D01*
X61591143Y-105813771D02*
X61829238Y-105813771D01*
X61829238Y-105813771D02*
X61924476Y-105861390D01*
X61924476Y-105861390D02*
X61972095Y-105909009D01*
X61972095Y-105909009D02*
X62019714Y-106004247D01*
X62019714Y-106004247D02*
X62019714Y-106242342D01*
X62019714Y-106242342D02*
X61972095Y-106337580D01*
X61972095Y-106337580D02*
X61924476Y-106385200D01*
X61924476Y-106385200D02*
X61829238Y-106432819D01*
X61829238Y-106432819D02*
X61591143Y-106432819D01*
X61591143Y-106432819D02*
X61495905Y-106385200D01*
X61495905Y-106385200D02*
X61448286Y-106337580D01*
X79843333Y-120596819D02*
X79510000Y-120120628D01*
X79271905Y-120596819D02*
X79271905Y-119596819D01*
X79271905Y-119596819D02*
X79652857Y-119596819D01*
X79652857Y-119596819D02*
X79748095Y-119644438D01*
X79748095Y-119644438D02*
X79795714Y-119692057D01*
X79795714Y-119692057D02*
X79843333Y-119787295D01*
X79843333Y-119787295D02*
X79843333Y-119930152D01*
X79843333Y-119930152D02*
X79795714Y-120025390D01*
X79795714Y-120025390D02*
X79748095Y-120073009D01*
X79748095Y-120073009D02*
X79652857Y-120120628D01*
X79652857Y-120120628D02*
X79271905Y-120120628D01*
X80176667Y-119596819D02*
X80843333Y-119596819D01*
X80843333Y-119596819D02*
X80414762Y-120596819D01*
X85875905Y-95196819D02*
X85875905Y-94196819D01*
X85875905Y-94196819D02*
X86114000Y-94196819D01*
X86114000Y-94196819D02*
X86256857Y-94244438D01*
X86256857Y-94244438D02*
X86352095Y-94339676D01*
X86352095Y-94339676D02*
X86399714Y-94434914D01*
X86399714Y-94434914D02*
X86447333Y-94625390D01*
X86447333Y-94625390D02*
X86447333Y-94768247D01*
X86447333Y-94768247D02*
X86399714Y-94958723D01*
X86399714Y-94958723D02*
X86352095Y-95053961D01*
X86352095Y-95053961D02*
X86256857Y-95149200D01*
X86256857Y-95149200D02*
X86114000Y-95196819D01*
X86114000Y-95196819D02*
X85875905Y-95196819D01*
X87304476Y-94530152D02*
X87304476Y-95196819D01*
X87066381Y-94149200D02*
X86828286Y-94863485D01*
X86828286Y-94863485D02*
X87447333Y-94863485D01*
X82342095Y-93482819D02*
X82342095Y-92482819D01*
X82913523Y-93482819D02*
X82484952Y-92911390D01*
X82913523Y-92482819D02*
X82342095Y-93054247D01*
X60555333Y-87541580D02*
X60507714Y-87589200D01*
X60507714Y-87589200D02*
X60364857Y-87636819D01*
X60364857Y-87636819D02*
X60269619Y-87636819D01*
X60269619Y-87636819D02*
X60126762Y-87589200D01*
X60126762Y-87589200D02*
X60031524Y-87493961D01*
X60031524Y-87493961D02*
X59983905Y-87398723D01*
X59983905Y-87398723D02*
X59936286Y-87208247D01*
X59936286Y-87208247D02*
X59936286Y-87065390D01*
X59936286Y-87065390D02*
X59983905Y-86874914D01*
X59983905Y-86874914D02*
X60031524Y-86779676D01*
X60031524Y-86779676D02*
X60126762Y-86684438D01*
X60126762Y-86684438D02*
X60269619Y-86636819D01*
X60269619Y-86636819D02*
X60364857Y-86636819D01*
X60364857Y-86636819D02*
X60507714Y-86684438D01*
X60507714Y-86684438D02*
X60555333Y-86732057D01*
X61412476Y-86970152D02*
X61412476Y-87636819D01*
X61174381Y-86589200D02*
X60936286Y-87303485D01*
X60936286Y-87303485D02*
X61555333Y-87303485D01*
X51694233Y-87287580D02*
X51646614Y-87335200D01*
X51646614Y-87335200D02*
X51503757Y-87382819D01*
X51503757Y-87382819D02*
X51408519Y-87382819D01*
X51408519Y-87382819D02*
X51265662Y-87335200D01*
X51265662Y-87335200D02*
X51170424Y-87239961D01*
X51170424Y-87239961D02*
X51122805Y-87144723D01*
X51122805Y-87144723D02*
X51075186Y-86954247D01*
X51075186Y-86954247D02*
X51075186Y-86811390D01*
X51075186Y-86811390D02*
X51122805Y-86620914D01*
X51122805Y-86620914D02*
X51170424Y-86525676D01*
X51170424Y-86525676D02*
X51265662Y-86430438D01*
X51265662Y-86430438D02*
X51408519Y-86382819D01*
X51408519Y-86382819D02*
X51503757Y-86382819D01*
X51503757Y-86382819D02*
X51646614Y-86430438D01*
X51646614Y-86430438D02*
X51694233Y-86478057D01*
X52027567Y-86382819D02*
X52694233Y-86382819D01*
X52694233Y-86382819D02*
X52265662Y-87382819D01*
X61047333Y-104086819D02*
X60714000Y-103610628D01*
X60475905Y-104086819D02*
X60475905Y-103086819D01*
X60475905Y-103086819D02*
X60856857Y-103086819D01*
X60856857Y-103086819D02*
X60952095Y-103134438D01*
X60952095Y-103134438D02*
X60999714Y-103182057D01*
X60999714Y-103182057D02*
X61047333Y-103277295D01*
X61047333Y-103277295D02*
X61047333Y-103420152D01*
X61047333Y-103420152D02*
X60999714Y-103515390D01*
X60999714Y-103515390D02*
X60952095Y-103563009D01*
X60952095Y-103563009D02*
X60856857Y-103610628D01*
X60856857Y-103610628D02*
X60475905Y-103610628D01*
X61999714Y-104086819D02*
X61428286Y-104086819D01*
X61714000Y-104086819D02*
X61714000Y-103086819D01*
X61714000Y-103086819D02*
X61618762Y-103229676D01*
X61618762Y-103229676D02*
X61523524Y-103324914D01*
X61523524Y-103324914D02*
X61428286Y-103372533D01*
X59128819Y-58650094D02*
X58128819Y-58650094D01*
X58128819Y-58650094D02*
X58128819Y-58411999D01*
X58128819Y-58411999D02*
X58176438Y-58269142D01*
X58176438Y-58269142D02*
X58271676Y-58173904D01*
X58271676Y-58173904D02*
X58366914Y-58126285D01*
X58366914Y-58126285D02*
X58557390Y-58078666D01*
X58557390Y-58078666D02*
X58700247Y-58078666D01*
X58700247Y-58078666D02*
X58890723Y-58126285D01*
X58890723Y-58126285D02*
X58985961Y-58173904D01*
X58985961Y-58173904D02*
X59081200Y-58269142D01*
X59081200Y-58269142D02*
X59128819Y-58411999D01*
X59128819Y-58411999D02*
X59128819Y-58650094D01*
X58128819Y-57173904D02*
X58128819Y-57650094D01*
X58128819Y-57650094D02*
X58605009Y-57697713D01*
X58605009Y-57697713D02*
X58557390Y-57650094D01*
X58557390Y-57650094D02*
X58509771Y-57554856D01*
X58509771Y-57554856D02*
X58509771Y-57316761D01*
X58509771Y-57316761D02*
X58557390Y-57221523D01*
X58557390Y-57221523D02*
X58605009Y-57173904D01*
X58605009Y-57173904D02*
X58700247Y-57126285D01*
X58700247Y-57126285D02*
X58938342Y-57126285D01*
X58938342Y-57126285D02*
X59033580Y-57173904D01*
X59033580Y-57173904D02*
X59081200Y-57221523D01*
X59081200Y-57221523D02*
X59128819Y-57316761D01*
X59128819Y-57316761D02*
X59128819Y-57554856D01*
X59128819Y-57554856D02*
X59081200Y-57650094D01*
X59081200Y-57650094D02*
X59033580Y-57697713D01*
X57328819Y-62491904D02*
X56328819Y-62491904D01*
X57328819Y-61920476D02*
X56757390Y-62349047D01*
X56328819Y-61920476D02*
X56900247Y-62491904D01*
X86026666Y-43980819D02*
X86026666Y-44695104D01*
X86026666Y-44695104D02*
X85979047Y-44837961D01*
X85979047Y-44837961D02*
X85883809Y-44933200D01*
X85883809Y-44933200D02*
X85740952Y-44980819D01*
X85740952Y-44980819D02*
X85645714Y-44980819D01*
X86931428Y-44314152D02*
X86931428Y-44980819D01*
X86693333Y-43933200D02*
X86455238Y-44647485D01*
X86455238Y-44647485D02*
X87074285Y-44647485D01*
X82729919Y-84415238D02*
X82253728Y-84748571D01*
X82729919Y-84986666D02*
X81729919Y-84986666D01*
X81729919Y-84986666D02*
X81729919Y-84605714D01*
X81729919Y-84605714D02*
X81777538Y-84510476D01*
X81777538Y-84510476D02*
X81825157Y-84462857D01*
X81825157Y-84462857D02*
X81920395Y-84415238D01*
X81920395Y-84415238D02*
X82063252Y-84415238D01*
X82063252Y-84415238D02*
X82158490Y-84462857D01*
X82158490Y-84462857D02*
X82206109Y-84510476D01*
X82206109Y-84510476D02*
X82253728Y-84605714D01*
X82253728Y-84605714D02*
X82253728Y-84986666D01*
X81729919Y-84129523D02*
X82729919Y-83796190D01*
X82729919Y-83796190D02*
X81729919Y-83462857D01*
X82729919Y-82605714D02*
X82729919Y-83177142D01*
X82729919Y-82891428D02*
X81729919Y-82891428D01*
X81729919Y-82891428D02*
X81872776Y-82986666D01*
X81872776Y-82986666D02*
X81968014Y-83081904D01*
X81968014Y-83081904D02*
X82015633Y-83177142D01*
D12*
%TO.C,J6*%
X70424800Y-46322800D02*
X68364800Y-46322800D01*
X71424800Y-44202800D02*
X72484800Y-44202800D01*
X72484800Y-44202800D02*
X72484800Y-45262800D01*
X70424800Y-44202800D02*
X70424800Y-46322800D01*
X68364800Y-44202800D02*
X68364800Y-46322800D01*
X70424800Y-44202800D02*
X68364800Y-44202800D01*
%TO.C,D2*%
X68926000Y-91240000D02*
X68926000Y-94180000D01*
X68146000Y-91240000D02*
X73586000Y-91240000D01*
X69166000Y-91240000D02*
X69166000Y-94180000D01*
X73586000Y-91240000D02*
X73586000Y-91370000D01*
X69046000Y-91240000D02*
X69046000Y-94180000D01*
X68146000Y-94180000D02*
X73586000Y-94180000D01*
X73586000Y-94180000D02*
X73586000Y-94050000D01*
X68146000Y-94050000D02*
X68146000Y-94180000D01*
X68146000Y-91370000D02*
X68146000Y-91240000D01*
%TO.C,D1*%
X54698000Y-73556000D02*
X50458000Y-73556000D01*
X51178000Y-73556000D02*
X51178000Y-75796000D01*
X51058000Y-73556000D02*
X51058000Y-75796000D01*
X54698000Y-75796000D02*
X54698000Y-73556000D01*
X51298000Y-73556000D02*
X51298000Y-75796000D01*
X49808000Y-74676000D02*
X50458000Y-74676000D01*
X50458000Y-73556000D02*
X50458000Y-75796000D01*
X50458000Y-75796000D02*
X54698000Y-75796000D01*
X55348000Y-74676000D02*
X54698000Y-74676000D01*
%TO.C,C3*%
X61513000Y-82574000D02*
X61513000Y-83882000D01*
X62393000Y-79835000D02*
X62393000Y-80494000D01*
X62673000Y-80215000D02*
X62673000Y-80494000D01*
X62633000Y-80151000D02*
X62633000Y-80494000D01*
X60912000Y-82574000D02*
X60912000Y-84070000D01*
X61713000Y-79287000D02*
X61713000Y-80494000D01*
X60432000Y-78954000D02*
X60432000Y-84114000D01*
X61593000Y-82574000D02*
X61593000Y-83844000D01*
X62273000Y-82574000D02*
X62273000Y-83360000D01*
X61873000Y-82574000D02*
X61873000Y-83683000D01*
X61153000Y-82574000D02*
X61153000Y-84014000D01*
X61913000Y-82574000D02*
X61913000Y-83656000D01*
X62593000Y-80091000D02*
X62593000Y-80494000D01*
X60512000Y-78955000D02*
X60512000Y-84113000D01*
X62033000Y-79499000D02*
X62033000Y-80494000D01*
X62993000Y-81016000D02*
X62993000Y-82052000D01*
X61233000Y-79079000D02*
X61233000Y-80494000D01*
X61753000Y-79310000D02*
X61753000Y-80494000D01*
X61553000Y-82574000D02*
X61553000Y-83863000D01*
X62353000Y-82574000D02*
X62353000Y-83277000D01*
X62073000Y-82574000D02*
X62073000Y-83538000D01*
X62673000Y-82574000D02*
X62673000Y-82853000D01*
X62713000Y-82574000D02*
X62713000Y-82785000D01*
X62233000Y-82574000D02*
X62233000Y-83398000D01*
X60992000Y-82574000D02*
X60992000Y-84054000D01*
X60912000Y-78998000D02*
X60912000Y-80494000D01*
X61153000Y-79054000D02*
X61153000Y-80494000D01*
X61353000Y-79120000D02*
X61353000Y-80494000D01*
X61112000Y-82574000D02*
X61112000Y-84025000D01*
X62953000Y-80857000D02*
X62953000Y-82211000D01*
X61833000Y-79359000D02*
X61833000Y-80494000D01*
X61193000Y-82574000D02*
X61193000Y-84002000D01*
X62313000Y-79749000D02*
X62313000Y-80494000D01*
X62593000Y-82574000D02*
X62593000Y-82977000D01*
X62153000Y-79597000D02*
X62153000Y-80494000D01*
X61873000Y-79385000D02*
X61873000Y-80494000D01*
X61553000Y-79205000D02*
X61553000Y-80494000D01*
X60792000Y-82574000D02*
X60792000Y-84090000D01*
X62633000Y-82574000D02*
X62633000Y-82917000D01*
X61032000Y-79023000D02*
X61032000Y-80494000D01*
X62793000Y-80436000D02*
X62793000Y-82632000D01*
X62353000Y-79791000D02*
X62353000Y-80494000D01*
X60672000Y-82574000D02*
X60672000Y-84103000D01*
X60952000Y-82574000D02*
X60952000Y-84062000D01*
X60872000Y-78991000D02*
X60872000Y-80494000D01*
X60592000Y-78958000D02*
X60592000Y-84110000D01*
X61953000Y-79439000D02*
X61953000Y-80494000D01*
X61673000Y-82574000D02*
X61673000Y-83802000D01*
X61433000Y-79152000D02*
X61433000Y-80494000D01*
X61072000Y-82574000D02*
X61072000Y-84035000D01*
X60952000Y-79006000D02*
X60952000Y-80494000D01*
X60472000Y-78954000D02*
X60472000Y-84114000D01*
X61473000Y-79169000D02*
X61473000Y-80494000D01*
X62433000Y-82574000D02*
X62433000Y-83187000D01*
X61072000Y-79033000D02*
X61072000Y-80494000D01*
X60752000Y-78973000D02*
X60752000Y-80494000D01*
X61793000Y-79334000D02*
X61793000Y-80494000D01*
X62033000Y-82574000D02*
X62033000Y-83569000D01*
X62273000Y-79708000D02*
X62273000Y-80494000D01*
X60832000Y-82574000D02*
X60832000Y-84084000D01*
X61273000Y-79092000D02*
X61273000Y-80494000D01*
X60992000Y-79014000D02*
X60992000Y-80494000D01*
X60832000Y-78984000D02*
X60832000Y-80494000D01*
X61833000Y-82574000D02*
X61833000Y-83709000D01*
X61393000Y-82574000D02*
X61393000Y-83932000D01*
X60552000Y-78956000D02*
X60552000Y-84112000D01*
X60632000Y-78961000D02*
X60632000Y-84107000D01*
X60672000Y-78965000D02*
X60672000Y-80494000D01*
X61032000Y-82574000D02*
X61032000Y-84045000D01*
X62313000Y-82574000D02*
X62313000Y-83319000D01*
X61633000Y-79244000D02*
X61633000Y-80494000D01*
X61993000Y-79469000D02*
X61993000Y-80494000D01*
X61473000Y-82574000D02*
X61473000Y-83899000D01*
X62433000Y-79881000D02*
X62433000Y-80494000D01*
X60792000Y-78978000D02*
X60792000Y-80494000D01*
X62153000Y-82574000D02*
X62153000Y-83471000D01*
X61273000Y-82574000D02*
X61273000Y-83976000D01*
X61993000Y-82574000D02*
X61993000Y-83599000D01*
X61713000Y-82574000D02*
X61713000Y-83781000D01*
X62193000Y-82574000D02*
X62193000Y-83435000D01*
X61233000Y-82574000D02*
X61233000Y-83989000D01*
X61753000Y-82574000D02*
X61753000Y-83758000D01*
X61393000Y-79136000D02*
X61393000Y-80494000D01*
X57627225Y-80059000D02*
X58127225Y-80059000D01*
X62473000Y-82574000D02*
X62473000Y-83139000D01*
X62913000Y-80729000D02*
X62913000Y-82339000D01*
X62713000Y-80283000D02*
X62713000Y-80494000D01*
X61313000Y-82574000D02*
X61313000Y-83962000D01*
X60712000Y-82574000D02*
X60712000Y-84099000D01*
X63033000Y-81250000D02*
X63033000Y-81818000D01*
X61313000Y-79106000D02*
X61313000Y-80494000D01*
X62833000Y-80523000D02*
X62833000Y-82545000D01*
X61433000Y-82574000D02*
X61433000Y-83916000D01*
X62073000Y-79530000D02*
X62073000Y-80494000D01*
X62553000Y-80034000D02*
X62553000Y-80494000D01*
X62753000Y-80356000D02*
X62753000Y-82712000D01*
X61913000Y-79412000D02*
X61913000Y-80494000D01*
X61793000Y-82574000D02*
X61793000Y-83734000D01*
X61353000Y-82574000D02*
X61353000Y-83948000D01*
X57877225Y-79809000D02*
X57877225Y-80309000D01*
X61513000Y-79186000D02*
X61513000Y-80494000D01*
X62113000Y-79563000D02*
X62113000Y-80494000D01*
X61112000Y-79043000D02*
X61112000Y-80494000D01*
X61953000Y-82574000D02*
X61953000Y-83629000D01*
X60752000Y-82574000D02*
X60752000Y-84095000D01*
X61633000Y-82574000D02*
X61633000Y-83824000D01*
X61673000Y-79266000D02*
X61673000Y-80494000D01*
X62513000Y-79980000D02*
X62513000Y-80494000D01*
X61593000Y-79224000D02*
X61593000Y-80494000D01*
X62513000Y-82574000D02*
X62513000Y-83088000D01*
X62873000Y-80619000D02*
X62873000Y-82449000D01*
X62113000Y-82574000D02*
X62113000Y-83505000D01*
X60712000Y-78969000D02*
X60712000Y-80494000D01*
X62553000Y-82574000D02*
X62553000Y-83034000D01*
X62193000Y-79633000D02*
X62193000Y-80494000D01*
X60872000Y-82574000D02*
X60872000Y-84077000D01*
X62473000Y-79929000D02*
X62473000Y-80494000D01*
X61193000Y-79066000D02*
X61193000Y-80494000D01*
X62393000Y-82574000D02*
X62393000Y-83233000D01*
X62233000Y-79670000D02*
X62233000Y-80494000D01*
X63052000Y-81534000D02*
G75*
G03*
X57812000Y-81534000I-2620000J0D01*
G01*
X57812000Y-81534000D02*
G75*
G03*
X63052000Y-81534000I2620000J0D01*
G01*
%TO.C,C2*%
X70726900Y-120982000D02*
X70726900Y-122198000D01*
X72007900Y-118791000D02*
X72007900Y-119302000D01*
X71847900Y-118626000D02*
X71847900Y-119302000D01*
X72167900Y-120982000D02*
X72167900Y-121284000D01*
X71967900Y-118746000D02*
X71967900Y-119302000D01*
X71887900Y-118664000D02*
X71887900Y-119302000D01*
X71847900Y-120982000D02*
X71847900Y-121658000D01*
X70686900Y-120982000D02*
X70686900Y-122204000D01*
X71327900Y-120982000D02*
X71327900Y-122012000D01*
X71006900Y-120982000D02*
X71006900Y-122136000D01*
X70846900Y-118108000D02*
X70846900Y-119302000D01*
X72447900Y-119605000D02*
X72447900Y-120679000D01*
X72487900Y-119772000D02*
X72487900Y-120512000D01*
X70486900Y-118063000D02*
X70486900Y-122221000D01*
X70606900Y-118071000D02*
X70606900Y-119302000D01*
X71167900Y-118202000D02*
X71167900Y-119302000D01*
X72287900Y-119202000D02*
X72287900Y-121082000D01*
X71927900Y-118704000D02*
X71927900Y-119302000D01*
X71647900Y-118462000D02*
X71647900Y-119302000D01*
X71086900Y-118174000D02*
X71086900Y-119302000D01*
X71167900Y-120982000D02*
X71167900Y-122082000D01*
X71127900Y-118188000D02*
X71127900Y-119302000D01*
X70526900Y-118065000D02*
X70526900Y-122219000D01*
X70446900Y-118062000D02*
X70446900Y-122222000D01*
X70646900Y-118075000D02*
X70646900Y-119302000D01*
X71367900Y-118291000D02*
X71367900Y-119302000D01*
X71887900Y-120982000D02*
X71887900Y-121620000D01*
X71327900Y-118272000D02*
X71327900Y-119302000D01*
X70886900Y-120982000D02*
X70886900Y-122167000D01*
X71487900Y-120982000D02*
X71487900Y-121927000D01*
X72087900Y-118888000D02*
X72087900Y-119302000D01*
X71567900Y-118407000D02*
X71567900Y-119302000D01*
X71607900Y-120982000D02*
X71607900Y-121850000D01*
X70766900Y-120982000D02*
X70766900Y-122192000D01*
X70966900Y-120982000D02*
X70966900Y-122147000D01*
X71447900Y-120982000D02*
X71447900Y-121950000D01*
X70926900Y-120982000D02*
X70926900Y-122158000D01*
X71046900Y-120982000D02*
X71046900Y-122124000D01*
X71927900Y-120982000D02*
X71927900Y-121580000D01*
X71127900Y-120982000D02*
X71127900Y-122096000D01*
X71247900Y-120982000D02*
X71247900Y-122049000D01*
X72127900Y-120982000D02*
X72127900Y-121342000D01*
X72047900Y-118838000D02*
X72047900Y-119302000D01*
X71807900Y-118590000D02*
X71807900Y-119302000D01*
X71767900Y-120982000D02*
X71767900Y-121729000D01*
X72087900Y-120982000D02*
X72087900Y-121396000D01*
X72247900Y-119129000D02*
X72247900Y-121155000D01*
X71727900Y-118523000D02*
X71727900Y-119302000D01*
X71527900Y-120982000D02*
X71527900Y-121902000D01*
X71527900Y-118382000D02*
X71527900Y-119302000D01*
X72127900Y-118942000D02*
X72127900Y-119302000D01*
X71407900Y-118312000D02*
X71407900Y-119302000D01*
X71287900Y-118253000D02*
X71287900Y-119302000D01*
X71567900Y-120982000D02*
X71567900Y-121877000D01*
X71207900Y-118218000D02*
X71207900Y-119302000D01*
X72047900Y-120982000D02*
X72047900Y-121446000D01*
X70846900Y-120982000D02*
X70846900Y-122176000D01*
X71647900Y-120982000D02*
X71647900Y-121822000D01*
X68137099Y-118947000D02*
X68537099Y-118947000D01*
X70726900Y-118086000D02*
X70726900Y-119302000D01*
X72367900Y-119374000D02*
X72367900Y-120910000D01*
X71046900Y-118160000D02*
X71046900Y-119302000D01*
X68337099Y-118747000D02*
X68337099Y-119147000D01*
X71367900Y-120982000D02*
X71367900Y-121993000D01*
X71447900Y-118334000D02*
X71447900Y-119302000D01*
X70806900Y-118100000D02*
X70806900Y-119302000D01*
X71967900Y-120982000D02*
X71967900Y-121538000D01*
X71487900Y-118357000D02*
X71487900Y-119302000D01*
X71767900Y-118555000D02*
X71767900Y-119302000D01*
X71207900Y-120982000D02*
X71207900Y-122066000D01*
X71727900Y-120982000D02*
X71727900Y-121761000D01*
X71006900Y-118148000D02*
X71006900Y-119302000D01*
X70806900Y-120982000D02*
X70806900Y-122184000D01*
X71247900Y-118235000D02*
X71247900Y-119302000D01*
X70566900Y-118068000D02*
X70566900Y-122216000D01*
X71086900Y-120982000D02*
X71086900Y-122110000D01*
X71407900Y-120982000D02*
X71407900Y-121972000D01*
X71687900Y-120982000D02*
X71687900Y-121792000D01*
X72207900Y-120982000D02*
X72207900Y-121222000D01*
X72207900Y-119062000D02*
X72207900Y-119302000D01*
X71287900Y-120982000D02*
X71287900Y-122031000D01*
X70406900Y-118062000D02*
X70406900Y-122222000D01*
X71607900Y-118434000D02*
X71607900Y-119302000D01*
X72407900Y-119478000D02*
X72407900Y-120806000D01*
X70646900Y-120982000D02*
X70646900Y-122209000D01*
X71807900Y-120982000D02*
X71807900Y-121694000D01*
X72327900Y-119283000D02*
X72327900Y-121001000D01*
X70606900Y-120982000D02*
X70606900Y-122213000D01*
X70926900Y-118126000D02*
X70926900Y-119302000D01*
X72007900Y-120982000D02*
X72007900Y-121493000D01*
X70766900Y-118092000D02*
X70766900Y-119302000D01*
X72167900Y-119000000D02*
X72167900Y-119302000D01*
X70886900Y-118117000D02*
X70886900Y-119302000D01*
X71687900Y-118492000D02*
X71687900Y-119302000D01*
X70966900Y-118137000D02*
X70966900Y-119302000D01*
X70686900Y-118080000D02*
X70686900Y-119302000D01*
X72526900Y-120142000D02*
G75*
G03*
X68286900Y-120142000I-2120000J0D01*
G01*
X68286900Y-120142000D02*
G75*
G03*
X72526900Y-120142000I2120000J0D01*
G01*
%TO.C,C1*%
X52964600Y-83336000D02*
X52964600Y-84644000D01*
X53844600Y-80597000D02*
X53844600Y-81256000D01*
X54124600Y-80977000D02*
X54124600Y-81256000D01*
X54084600Y-80913000D02*
X54084600Y-81256000D01*
X52363600Y-83336000D02*
X52363600Y-84832000D01*
X53164600Y-80049000D02*
X53164600Y-81256000D01*
X51883600Y-79716000D02*
X51883600Y-84876000D01*
X53044600Y-83336000D02*
X53044600Y-84606000D01*
X53724600Y-83336000D02*
X53724600Y-84122000D01*
X53324600Y-83336000D02*
X53324600Y-84445000D01*
X52604600Y-83336000D02*
X52604600Y-84776000D01*
X53364600Y-83336000D02*
X53364600Y-84418000D01*
X54044600Y-80853000D02*
X54044600Y-81256000D01*
X51963600Y-79717000D02*
X51963600Y-84875000D01*
X53484600Y-80261000D02*
X53484600Y-81256000D01*
X54444600Y-81778000D02*
X54444600Y-82814000D01*
X52684600Y-79841000D02*
X52684600Y-81256000D01*
X53204600Y-80072000D02*
X53204600Y-81256000D01*
X53004600Y-83336000D02*
X53004600Y-84625000D01*
X53804600Y-83336000D02*
X53804600Y-84039000D01*
X53524600Y-83336000D02*
X53524600Y-84300000D01*
X54124600Y-83336000D02*
X54124600Y-83615000D01*
X54164600Y-83336000D02*
X54164600Y-83547000D01*
X53684600Y-83336000D02*
X53684600Y-84160000D01*
X52443600Y-83336000D02*
X52443600Y-84816000D01*
X52363600Y-79760000D02*
X52363600Y-81256000D01*
X52604600Y-79816000D02*
X52604600Y-81256000D01*
X52804600Y-79882000D02*
X52804600Y-81256000D01*
X52563600Y-83336000D02*
X52563600Y-84787000D01*
X54404600Y-81619000D02*
X54404600Y-82973000D01*
X53284600Y-80121000D02*
X53284600Y-81256000D01*
X52644600Y-83336000D02*
X52644600Y-84764000D01*
X53764600Y-80511000D02*
X53764600Y-81256000D01*
X54044600Y-83336000D02*
X54044600Y-83739000D01*
X53604600Y-80359000D02*
X53604600Y-81256000D01*
X53324600Y-80147000D02*
X53324600Y-81256000D01*
X53004600Y-79967000D02*
X53004600Y-81256000D01*
X52243600Y-83336000D02*
X52243600Y-84852000D01*
X54084600Y-83336000D02*
X54084600Y-83679000D01*
X52483600Y-79785000D02*
X52483600Y-81256000D01*
X54244600Y-81198000D02*
X54244600Y-83394000D01*
X53804600Y-80553000D02*
X53804600Y-81256000D01*
X52123600Y-83336000D02*
X52123600Y-84865000D01*
X52403600Y-83336000D02*
X52403600Y-84824000D01*
X52323600Y-79753000D02*
X52323600Y-81256000D01*
X52043600Y-79720000D02*
X52043600Y-84872000D01*
X53404600Y-80201000D02*
X53404600Y-81256000D01*
X53124600Y-83336000D02*
X53124600Y-84564000D01*
X52884600Y-79914000D02*
X52884600Y-81256000D01*
X52523600Y-83336000D02*
X52523600Y-84797000D01*
X52403600Y-79768000D02*
X52403600Y-81256000D01*
X51923600Y-79716000D02*
X51923600Y-84876000D01*
X52924600Y-79931000D02*
X52924600Y-81256000D01*
X53884600Y-83336000D02*
X53884600Y-83949000D01*
X52523600Y-79795000D02*
X52523600Y-81256000D01*
X52203600Y-79735000D02*
X52203600Y-81256000D01*
X53244600Y-80096000D02*
X53244600Y-81256000D01*
X53484600Y-83336000D02*
X53484600Y-84331000D01*
X53724600Y-80470000D02*
X53724600Y-81256000D01*
X52283600Y-83336000D02*
X52283600Y-84846000D01*
X52724600Y-79854000D02*
X52724600Y-81256000D01*
X52443600Y-79776000D02*
X52443600Y-81256000D01*
X52283600Y-79746000D02*
X52283600Y-81256000D01*
X53284600Y-83336000D02*
X53284600Y-84471000D01*
X52844600Y-83336000D02*
X52844600Y-84694000D01*
X52003600Y-79718000D02*
X52003600Y-84874000D01*
X52083600Y-79723000D02*
X52083600Y-84869000D01*
X52123600Y-79727000D02*
X52123600Y-81256000D01*
X52483600Y-83336000D02*
X52483600Y-84807000D01*
X53764600Y-83336000D02*
X53764600Y-84081000D01*
X53084600Y-80006000D02*
X53084600Y-81256000D01*
X53444600Y-80231000D02*
X53444600Y-81256000D01*
X52924600Y-83336000D02*
X52924600Y-84661000D01*
X53884600Y-80643000D02*
X53884600Y-81256000D01*
X52243600Y-79740000D02*
X52243600Y-81256000D01*
X53604600Y-83336000D02*
X53604600Y-84233000D01*
X52724600Y-83336000D02*
X52724600Y-84738000D01*
X53444600Y-83336000D02*
X53444600Y-84361000D01*
X53164600Y-83336000D02*
X53164600Y-84543000D01*
X53644600Y-83336000D02*
X53644600Y-84197000D01*
X52684600Y-83336000D02*
X52684600Y-84751000D01*
X53204600Y-83336000D02*
X53204600Y-84520000D01*
X52844600Y-79898000D02*
X52844600Y-81256000D01*
X49078825Y-80821000D02*
X49578825Y-80821000D01*
X53924600Y-83336000D02*
X53924600Y-83901000D01*
X54364600Y-81491000D02*
X54364600Y-83101000D01*
X54164600Y-81045000D02*
X54164600Y-81256000D01*
X52764600Y-83336000D02*
X52764600Y-84724000D01*
X52163600Y-83336000D02*
X52163600Y-84861000D01*
X54484600Y-82012000D02*
X54484600Y-82580000D01*
X52764600Y-79868000D02*
X52764600Y-81256000D01*
X54284600Y-81285000D02*
X54284600Y-83307000D01*
X52884600Y-83336000D02*
X52884600Y-84678000D01*
X53524600Y-80292000D02*
X53524600Y-81256000D01*
X54004600Y-80796000D02*
X54004600Y-81256000D01*
X54204600Y-81118000D02*
X54204600Y-83474000D01*
X53364600Y-80174000D02*
X53364600Y-81256000D01*
X53244600Y-83336000D02*
X53244600Y-84496000D01*
X52804600Y-83336000D02*
X52804600Y-84710000D01*
X49328825Y-80571000D02*
X49328825Y-81071000D01*
X52964600Y-79948000D02*
X52964600Y-81256000D01*
X53564600Y-80325000D02*
X53564600Y-81256000D01*
X52563600Y-79805000D02*
X52563600Y-81256000D01*
X53404600Y-83336000D02*
X53404600Y-84391000D01*
X52203600Y-83336000D02*
X52203600Y-84857000D01*
X53084600Y-83336000D02*
X53084600Y-84586000D01*
X53124600Y-80028000D02*
X53124600Y-81256000D01*
X53964600Y-80742000D02*
X53964600Y-81256000D01*
X53044600Y-79986000D02*
X53044600Y-81256000D01*
X53964600Y-83336000D02*
X53964600Y-83850000D01*
X54324600Y-81381000D02*
X54324600Y-83211000D01*
X53564600Y-83336000D02*
X53564600Y-84267000D01*
X52163600Y-79731000D02*
X52163600Y-81256000D01*
X54004600Y-83336000D02*
X54004600Y-83796000D01*
X53644600Y-80395000D02*
X53644600Y-81256000D01*
X52323600Y-83336000D02*
X52323600Y-84839000D01*
X53924600Y-80691000D02*
X53924600Y-81256000D01*
X52644600Y-79828000D02*
X52644600Y-81256000D01*
X53844600Y-83336000D02*
X53844600Y-83995000D01*
X53684600Y-80432000D02*
X53684600Y-81256000D01*
X54503600Y-82296000D02*
G75*
G03*
X49263600Y-82296000I-2620000J0D01*
G01*
X49263600Y-82296000D02*
G75*
G03*
X54503600Y-82296000I2620000J0D01*
G01*
%TO.C,R11*%
X77566000Y-96154000D02*
X77566000Y-92314000D01*
X79406000Y-96154000D02*
X79406000Y-92314000D01*
%TO.C,RV2*%
X66790000Y-83356000D02*
X66790000Y-82296000D01*
X67850000Y-83356000D02*
X66790000Y-83356000D01*
X68850000Y-83356000D02*
X72910000Y-83356000D01*
X68850000Y-83356000D02*
X68850000Y-81236000D01*
X72910000Y-83356000D02*
X72910000Y-81236000D01*
X68850000Y-81236000D02*
X72910000Y-81236000D01*
%TO.C,C11*%
X83321225Y-68375000D02*
X83821225Y-68375000D01*
X83571225Y-68125000D02*
X83571225Y-68625000D01*
X86126000Y-67270000D02*
X86126000Y-72430000D01*
X86166000Y-67270000D02*
X86166000Y-72430000D01*
X86206000Y-67271000D02*
X86206000Y-72429000D01*
X86246000Y-67272000D02*
X86246000Y-72428000D01*
X86286000Y-67274000D02*
X86286000Y-72426000D01*
X86326000Y-67277000D02*
X86326000Y-72423000D01*
X86366000Y-67281000D02*
X86366000Y-68810000D01*
X86366000Y-70890000D02*
X86366000Y-72419000D01*
X86406000Y-67285000D02*
X86406000Y-68810000D01*
X86406000Y-70890000D02*
X86406000Y-72415000D01*
X86446000Y-67289000D02*
X86446000Y-68810000D01*
X86446000Y-70890000D02*
X86446000Y-72411000D01*
X86486000Y-67294000D02*
X86486000Y-68810000D01*
X86486000Y-70890000D02*
X86486000Y-72406000D01*
X86526000Y-67300000D02*
X86526000Y-68810000D01*
X86526000Y-70890000D02*
X86526000Y-72400000D01*
X86566000Y-67307000D02*
X86566000Y-68810000D01*
X86566000Y-70890000D02*
X86566000Y-72393000D01*
X86606000Y-67314000D02*
X86606000Y-68810000D01*
X86606000Y-70890000D02*
X86606000Y-72386000D01*
X86646000Y-67322000D02*
X86646000Y-68810000D01*
X86646000Y-70890000D02*
X86646000Y-72378000D01*
X86686000Y-67330000D02*
X86686000Y-68810000D01*
X86686000Y-70890000D02*
X86686000Y-72370000D01*
X86726000Y-67339000D02*
X86726000Y-68810000D01*
X86726000Y-70890000D02*
X86726000Y-72361000D01*
X86766000Y-67349000D02*
X86766000Y-68810000D01*
X86766000Y-70890000D02*
X86766000Y-72351000D01*
X86806000Y-67359000D02*
X86806000Y-68810000D01*
X86806000Y-70890000D02*
X86806000Y-72341000D01*
X86847000Y-67370000D02*
X86847000Y-68810000D01*
X86847000Y-70890000D02*
X86847000Y-72330000D01*
X86887000Y-67382000D02*
X86887000Y-68810000D01*
X86887000Y-70890000D02*
X86887000Y-72318000D01*
X86927000Y-67395000D02*
X86927000Y-68810000D01*
X86927000Y-70890000D02*
X86927000Y-72305000D01*
X86967000Y-67408000D02*
X86967000Y-68810000D01*
X86967000Y-70890000D02*
X86967000Y-72292000D01*
X87007000Y-67422000D02*
X87007000Y-68810000D01*
X87007000Y-70890000D02*
X87007000Y-72278000D01*
X87047000Y-67436000D02*
X87047000Y-68810000D01*
X87047000Y-70890000D02*
X87047000Y-72264000D01*
X87087000Y-67452000D02*
X87087000Y-68810000D01*
X87087000Y-70890000D02*
X87087000Y-72248000D01*
X87127000Y-67468000D02*
X87127000Y-68810000D01*
X87127000Y-70890000D02*
X87127000Y-72232000D01*
X87167000Y-67485000D02*
X87167000Y-68810000D01*
X87167000Y-70890000D02*
X87167000Y-72215000D01*
X87207000Y-67502000D02*
X87207000Y-68810000D01*
X87207000Y-70890000D02*
X87207000Y-72198000D01*
X87247000Y-67521000D02*
X87247000Y-68810000D01*
X87247000Y-70890000D02*
X87247000Y-72179000D01*
X87287000Y-67540000D02*
X87287000Y-68810000D01*
X87287000Y-70890000D02*
X87287000Y-72160000D01*
X87327000Y-67560000D02*
X87327000Y-68810000D01*
X87327000Y-70890000D02*
X87327000Y-72140000D01*
X87367000Y-67582000D02*
X87367000Y-68810000D01*
X87367000Y-70890000D02*
X87367000Y-72118000D01*
X87407000Y-67603000D02*
X87407000Y-68810000D01*
X87407000Y-70890000D02*
X87407000Y-72097000D01*
X87447000Y-67626000D02*
X87447000Y-68810000D01*
X87447000Y-70890000D02*
X87447000Y-72074000D01*
X87487000Y-67650000D02*
X87487000Y-68810000D01*
X87487000Y-70890000D02*
X87487000Y-72050000D01*
X87527000Y-67675000D02*
X87527000Y-68810000D01*
X87527000Y-70890000D02*
X87527000Y-72025000D01*
X87567000Y-67701000D02*
X87567000Y-68810000D01*
X87567000Y-70890000D02*
X87567000Y-71999000D01*
X87607000Y-67728000D02*
X87607000Y-68810000D01*
X87607000Y-70890000D02*
X87607000Y-71972000D01*
X87647000Y-67755000D02*
X87647000Y-68810000D01*
X87647000Y-70890000D02*
X87647000Y-71945000D01*
X87687000Y-67785000D02*
X87687000Y-68810000D01*
X87687000Y-70890000D02*
X87687000Y-71915000D01*
X87727000Y-67815000D02*
X87727000Y-68810000D01*
X87727000Y-70890000D02*
X87727000Y-71885000D01*
X87767000Y-67846000D02*
X87767000Y-68810000D01*
X87767000Y-70890000D02*
X87767000Y-71854000D01*
X87807000Y-67879000D02*
X87807000Y-68810000D01*
X87807000Y-70890000D02*
X87807000Y-71821000D01*
X87847000Y-67913000D02*
X87847000Y-68810000D01*
X87847000Y-70890000D02*
X87847000Y-71787000D01*
X87887000Y-67949000D02*
X87887000Y-68810000D01*
X87887000Y-70890000D02*
X87887000Y-71751000D01*
X87927000Y-67986000D02*
X87927000Y-68810000D01*
X87927000Y-70890000D02*
X87927000Y-71714000D01*
X87967000Y-68024000D02*
X87967000Y-68810000D01*
X87967000Y-70890000D02*
X87967000Y-71676000D01*
X88007000Y-68065000D02*
X88007000Y-68810000D01*
X88007000Y-70890000D02*
X88007000Y-71635000D01*
X88047000Y-68107000D02*
X88047000Y-68810000D01*
X88047000Y-70890000D02*
X88047000Y-71593000D01*
X88087000Y-68151000D02*
X88087000Y-68810000D01*
X88087000Y-70890000D02*
X88087000Y-71549000D01*
X88127000Y-68197000D02*
X88127000Y-68810000D01*
X88127000Y-70890000D02*
X88127000Y-71503000D01*
X88167000Y-68245000D02*
X88167000Y-68810000D01*
X88167000Y-70890000D02*
X88167000Y-71455000D01*
X88207000Y-68296000D02*
X88207000Y-68810000D01*
X88207000Y-70890000D02*
X88207000Y-71404000D01*
X88247000Y-68350000D02*
X88247000Y-68810000D01*
X88247000Y-70890000D02*
X88247000Y-71350000D01*
X88287000Y-68407000D02*
X88287000Y-68810000D01*
X88287000Y-70890000D02*
X88287000Y-71293000D01*
X88327000Y-68467000D02*
X88327000Y-68810000D01*
X88327000Y-70890000D02*
X88327000Y-71233000D01*
X88367000Y-68531000D02*
X88367000Y-68810000D01*
X88367000Y-70890000D02*
X88367000Y-71169000D01*
X88407000Y-68599000D02*
X88407000Y-68810000D01*
X88407000Y-70890000D02*
X88407000Y-71101000D01*
X88447000Y-68672000D02*
X88447000Y-71028000D01*
X88487000Y-68752000D02*
X88487000Y-70948000D01*
X88527000Y-68839000D02*
X88527000Y-70861000D01*
X88567000Y-68935000D02*
X88567000Y-70765000D01*
X88607000Y-69045000D02*
X88607000Y-70655000D01*
X88647000Y-69173000D02*
X88647000Y-70527000D01*
X88687000Y-69332000D02*
X88687000Y-70368000D01*
X88727000Y-69566000D02*
X88727000Y-70134000D01*
X88746000Y-69850000D02*
G75*
G03*
X83506000Y-69850000I-2620000J0D01*
G01*
X83506000Y-69850000D02*
G75*
G03*
X88746000Y-69850000I2620000J0D01*
G01*
%TO.C,R9*%
X84948000Y-97378000D02*
X88788000Y-97378000D01*
X84948000Y-99218000D02*
X88788000Y-99218000D01*
%TO.C,C8*%
X47947789Y-97393000D02*
X48697789Y-97393000D01*
X48322789Y-97018000D02*
X48322789Y-97768000D01*
X52090000Y-95738000D02*
X52090000Y-103398000D01*
X52130000Y-95738000D02*
X52130000Y-103398000D01*
X52170000Y-95738000D02*
X52170000Y-103398000D01*
X52210000Y-95739000D02*
X52210000Y-103397000D01*
X52250000Y-95741000D02*
X52250000Y-103395000D01*
X52290000Y-95743000D02*
X52290000Y-103393000D01*
X52330000Y-95745000D02*
X52330000Y-98528000D01*
X52330000Y-100608000D02*
X52330000Y-103391000D01*
X52370000Y-95748000D02*
X52370000Y-98528000D01*
X52370000Y-100608000D02*
X52370000Y-103388000D01*
X52410000Y-95751000D02*
X52410000Y-98528000D01*
X52410000Y-100608000D02*
X52410000Y-103385000D01*
X52450000Y-95754000D02*
X52450000Y-98528000D01*
X52450000Y-100608000D02*
X52450000Y-103382000D01*
X52490000Y-95758000D02*
X52490000Y-98528000D01*
X52490000Y-100608000D02*
X52490000Y-103378000D01*
X52530000Y-95763000D02*
X52530000Y-98528000D01*
X52530000Y-100608000D02*
X52530000Y-103373000D01*
X52570000Y-95767000D02*
X52570000Y-98528000D01*
X52570000Y-100608000D02*
X52570000Y-103369000D01*
X52610000Y-95773000D02*
X52610000Y-98528000D01*
X52610000Y-100608000D02*
X52610000Y-103363000D01*
X52650000Y-95778000D02*
X52650000Y-98528000D01*
X52650000Y-100608000D02*
X52650000Y-103358000D01*
X52690000Y-95784000D02*
X52690000Y-98528000D01*
X52690000Y-100608000D02*
X52690000Y-103352000D01*
X52730000Y-95791000D02*
X52730000Y-98528000D01*
X52730000Y-100608000D02*
X52730000Y-103345000D01*
X52770000Y-95798000D02*
X52770000Y-98528000D01*
X52770000Y-100608000D02*
X52770000Y-103338000D01*
X52811000Y-95805000D02*
X52811000Y-98528000D01*
X52811000Y-100608000D02*
X52811000Y-103331000D01*
X52851000Y-95813000D02*
X52851000Y-98528000D01*
X52851000Y-100608000D02*
X52851000Y-103323000D01*
X52891000Y-95821000D02*
X52891000Y-98528000D01*
X52891000Y-100608000D02*
X52891000Y-103315000D01*
X52931000Y-95830000D02*
X52931000Y-98528000D01*
X52931000Y-100608000D02*
X52931000Y-103306000D01*
X52971000Y-95839000D02*
X52971000Y-98528000D01*
X52971000Y-100608000D02*
X52971000Y-103297000D01*
X53011000Y-95848000D02*
X53011000Y-98528000D01*
X53011000Y-100608000D02*
X53011000Y-103288000D01*
X53051000Y-95858000D02*
X53051000Y-98528000D01*
X53051000Y-100608000D02*
X53051000Y-103278000D01*
X53091000Y-95869000D02*
X53091000Y-98528000D01*
X53091000Y-100608000D02*
X53091000Y-103267000D01*
X53131000Y-95880000D02*
X53131000Y-98528000D01*
X53131000Y-100608000D02*
X53131000Y-103256000D01*
X53171000Y-95891000D02*
X53171000Y-98528000D01*
X53171000Y-100608000D02*
X53171000Y-103245000D01*
X53211000Y-95903000D02*
X53211000Y-98528000D01*
X53211000Y-100608000D02*
X53211000Y-103233000D01*
X53251000Y-95915000D02*
X53251000Y-98528000D01*
X53251000Y-100608000D02*
X53251000Y-103221000D01*
X53291000Y-95928000D02*
X53291000Y-98528000D01*
X53291000Y-100608000D02*
X53291000Y-103208000D01*
X53331000Y-95942000D02*
X53331000Y-98528000D01*
X53331000Y-100608000D02*
X53331000Y-103194000D01*
X53371000Y-95955000D02*
X53371000Y-98528000D01*
X53371000Y-100608000D02*
X53371000Y-103181000D01*
X53411000Y-95970000D02*
X53411000Y-98528000D01*
X53411000Y-100608000D02*
X53411000Y-103166000D01*
X53451000Y-95984000D02*
X53451000Y-98528000D01*
X53451000Y-100608000D02*
X53451000Y-103152000D01*
X53491000Y-96000000D02*
X53491000Y-98528000D01*
X53491000Y-100608000D02*
X53491000Y-103136000D01*
X53531000Y-96015000D02*
X53531000Y-98528000D01*
X53531000Y-100608000D02*
X53531000Y-103121000D01*
X53571000Y-96032000D02*
X53571000Y-98528000D01*
X53571000Y-100608000D02*
X53571000Y-103104000D01*
X53611000Y-96048000D02*
X53611000Y-98528000D01*
X53611000Y-100608000D02*
X53611000Y-103088000D01*
X53651000Y-96066000D02*
X53651000Y-98528000D01*
X53651000Y-100608000D02*
X53651000Y-103070000D01*
X53691000Y-96084000D02*
X53691000Y-98528000D01*
X53691000Y-100608000D02*
X53691000Y-103052000D01*
X53731000Y-96102000D02*
X53731000Y-98528000D01*
X53731000Y-100608000D02*
X53731000Y-103034000D01*
X53771000Y-96121000D02*
X53771000Y-98528000D01*
X53771000Y-100608000D02*
X53771000Y-103015000D01*
X53811000Y-96141000D02*
X53811000Y-98528000D01*
X53811000Y-100608000D02*
X53811000Y-102995000D01*
X53851000Y-96161000D02*
X53851000Y-98528000D01*
X53851000Y-100608000D02*
X53851000Y-102975000D01*
X53891000Y-96182000D02*
X53891000Y-98528000D01*
X53891000Y-100608000D02*
X53891000Y-102954000D01*
X53931000Y-96203000D02*
X53931000Y-98528000D01*
X53931000Y-100608000D02*
X53931000Y-102933000D01*
X53971000Y-96225000D02*
X53971000Y-98528000D01*
X53971000Y-100608000D02*
X53971000Y-102911000D01*
X54011000Y-96247000D02*
X54011000Y-98528000D01*
X54011000Y-100608000D02*
X54011000Y-102889000D01*
X54051000Y-96271000D02*
X54051000Y-98528000D01*
X54051000Y-100608000D02*
X54051000Y-102865000D01*
X54091000Y-96294000D02*
X54091000Y-98528000D01*
X54091000Y-100608000D02*
X54091000Y-102842000D01*
X54131000Y-96319000D02*
X54131000Y-98528000D01*
X54131000Y-100608000D02*
X54131000Y-102817000D01*
X54171000Y-96344000D02*
X54171000Y-98528000D01*
X54171000Y-100608000D02*
X54171000Y-102792000D01*
X54211000Y-96370000D02*
X54211000Y-98528000D01*
X54211000Y-100608000D02*
X54211000Y-102766000D01*
X54251000Y-96396000D02*
X54251000Y-98528000D01*
X54251000Y-100608000D02*
X54251000Y-102740000D01*
X54291000Y-96424000D02*
X54291000Y-98528000D01*
X54291000Y-100608000D02*
X54291000Y-102712000D01*
X54331000Y-96452000D02*
X54331000Y-98528000D01*
X54331000Y-100608000D02*
X54331000Y-102684000D01*
X54371000Y-96480000D02*
X54371000Y-98528000D01*
X54371000Y-100608000D02*
X54371000Y-102656000D01*
X54411000Y-96510000D02*
X54411000Y-102626000D01*
X54451000Y-96540000D02*
X54451000Y-102596000D01*
X54491000Y-96572000D02*
X54491000Y-102564000D01*
X54531000Y-96604000D02*
X54531000Y-102532000D01*
X54571000Y-96637000D02*
X54571000Y-102499000D01*
X54611000Y-96670000D02*
X54611000Y-102466000D01*
X54651000Y-96705000D02*
X54651000Y-102431000D01*
X54691000Y-96741000D02*
X54691000Y-102395000D01*
X54731000Y-96778000D02*
X54731000Y-102358000D01*
X54771000Y-96816000D02*
X54771000Y-102320000D01*
X54811000Y-96855000D02*
X54811000Y-102281000D01*
X54851000Y-96895000D02*
X54851000Y-102241000D01*
X54891000Y-96936000D02*
X54891000Y-102200000D01*
X54931000Y-96979000D02*
X54931000Y-102157000D01*
X54971000Y-97022000D02*
X54971000Y-102114000D01*
X55011000Y-97068000D02*
X55011000Y-102068000D01*
X55051000Y-97114000D02*
X55051000Y-102022000D01*
X55091000Y-97163000D02*
X55091000Y-101973000D01*
X55131000Y-97213000D02*
X55131000Y-101923000D01*
X55171000Y-97264000D02*
X55171000Y-101872000D01*
X55211000Y-97318000D02*
X55211000Y-101818000D01*
X55251000Y-97373000D02*
X55251000Y-101763000D01*
X55291000Y-97431000D02*
X55291000Y-101705000D01*
X55331000Y-97491000D02*
X55331000Y-101645000D01*
X55371000Y-97554000D02*
X55371000Y-101582000D01*
X55411000Y-97619000D02*
X55411000Y-101517000D01*
X55451000Y-97687000D02*
X55451000Y-101449000D01*
X55491000Y-97759000D02*
X55491000Y-101377000D01*
X55531000Y-97835000D02*
X55531000Y-101301000D01*
X55571000Y-97914000D02*
X55571000Y-101222000D01*
X55611000Y-97999000D02*
X55611000Y-101137000D01*
X55651000Y-98090000D02*
X55651000Y-101046000D01*
X55691000Y-98187000D02*
X55691000Y-100949000D01*
X55731000Y-98293000D02*
X55731000Y-100843000D01*
X55771000Y-98410000D02*
X55771000Y-100726000D01*
X55811000Y-98540000D02*
X55811000Y-100596000D01*
X55851000Y-98691000D02*
X55851000Y-100445000D01*
X55891000Y-98875000D02*
X55891000Y-100261000D01*
X55931000Y-99127000D02*
X55931000Y-100009000D01*
X55960000Y-99568000D02*
G75*
G03*
X48220000Y-99568000I-3870000J0D01*
G01*
X48220000Y-99568000D02*
G75*
G03*
X55960000Y-99568000I3870000J0D01*
G01*
%TO.C,R2*%
X77582000Y-102712000D02*
X81422000Y-102712000D01*
X77582000Y-104552000D02*
X81422000Y-104552000D01*
%TO.C,U1*%
X67962000Y-97222000D02*
X67962000Y-115122000D01*
X67962000Y-115122000D02*
X73262000Y-115122000D01*
X69612000Y-97222000D02*
X67962000Y-97222000D01*
X73262000Y-97222000D02*
X71612000Y-97222000D01*
X73262000Y-115122000D02*
X73262000Y-97222000D01*
X69612000Y-97222000D02*
G75*
G03*
X71612000Y-97222000I1000000J0D01*
G01*
%TO.C,R4*%
X49388000Y-69032000D02*
X53228000Y-69032000D01*
X49388000Y-70872000D02*
X53228000Y-70872000D01*
%TO.C,C6*%
X76742125Y-108253000D02*
X77242125Y-108253000D01*
X76992125Y-108003000D02*
X76992125Y-108503000D01*
X79546900Y-107148000D02*
X79546900Y-112308000D01*
X79586900Y-107148000D02*
X79586900Y-112308000D01*
X79626900Y-107149000D02*
X79626900Y-112307000D01*
X79666900Y-107150000D02*
X79666900Y-112306000D01*
X79706900Y-107152000D02*
X79706900Y-112304000D01*
X79746900Y-107155000D02*
X79746900Y-112301000D01*
X79786900Y-107159000D02*
X79786900Y-108688000D01*
X79786900Y-110768000D02*
X79786900Y-112297000D01*
X79826900Y-107163000D02*
X79826900Y-108688000D01*
X79826900Y-110768000D02*
X79826900Y-112293000D01*
X79866900Y-107167000D02*
X79866900Y-108688000D01*
X79866900Y-110768000D02*
X79866900Y-112289000D01*
X79906900Y-107172000D02*
X79906900Y-108688000D01*
X79906900Y-110768000D02*
X79906900Y-112284000D01*
X79946900Y-107178000D02*
X79946900Y-108688000D01*
X79946900Y-110768000D02*
X79946900Y-112278000D01*
X79986900Y-107185000D02*
X79986900Y-108688000D01*
X79986900Y-110768000D02*
X79986900Y-112271000D01*
X80026900Y-107192000D02*
X80026900Y-108688000D01*
X80026900Y-110768000D02*
X80026900Y-112264000D01*
X80066900Y-107200000D02*
X80066900Y-108688000D01*
X80066900Y-110768000D02*
X80066900Y-112256000D01*
X80106900Y-107208000D02*
X80106900Y-108688000D01*
X80106900Y-110768000D02*
X80106900Y-112248000D01*
X80146900Y-107217000D02*
X80146900Y-108688000D01*
X80146900Y-110768000D02*
X80146900Y-112239000D01*
X80186900Y-107227000D02*
X80186900Y-108688000D01*
X80186900Y-110768000D02*
X80186900Y-112229000D01*
X80226900Y-107237000D02*
X80226900Y-108688000D01*
X80226900Y-110768000D02*
X80226900Y-112219000D01*
X80267900Y-107248000D02*
X80267900Y-108688000D01*
X80267900Y-110768000D02*
X80267900Y-112208000D01*
X80307900Y-107260000D02*
X80307900Y-108688000D01*
X80307900Y-110768000D02*
X80307900Y-112196000D01*
X80347900Y-107273000D02*
X80347900Y-108688000D01*
X80347900Y-110768000D02*
X80347900Y-112183000D01*
X80387900Y-107286000D02*
X80387900Y-108688000D01*
X80387900Y-110768000D02*
X80387900Y-112170000D01*
X80427900Y-107300000D02*
X80427900Y-108688000D01*
X80427900Y-110768000D02*
X80427900Y-112156000D01*
X80467900Y-107314000D02*
X80467900Y-108688000D01*
X80467900Y-110768000D02*
X80467900Y-112142000D01*
X80507900Y-107330000D02*
X80507900Y-108688000D01*
X80507900Y-110768000D02*
X80507900Y-112126000D01*
X80547900Y-107346000D02*
X80547900Y-108688000D01*
X80547900Y-110768000D02*
X80547900Y-112110000D01*
X80587900Y-107363000D02*
X80587900Y-108688000D01*
X80587900Y-110768000D02*
X80587900Y-112093000D01*
X80627900Y-107380000D02*
X80627900Y-108688000D01*
X80627900Y-110768000D02*
X80627900Y-112076000D01*
X80667900Y-107399000D02*
X80667900Y-108688000D01*
X80667900Y-110768000D02*
X80667900Y-112057000D01*
X80707900Y-107418000D02*
X80707900Y-108688000D01*
X80707900Y-110768000D02*
X80707900Y-112038000D01*
X80747900Y-107438000D02*
X80747900Y-108688000D01*
X80747900Y-110768000D02*
X80747900Y-112018000D01*
X80787900Y-107460000D02*
X80787900Y-108688000D01*
X80787900Y-110768000D02*
X80787900Y-111996000D01*
X80827900Y-107481000D02*
X80827900Y-108688000D01*
X80827900Y-110768000D02*
X80827900Y-111975000D01*
X80867900Y-107504000D02*
X80867900Y-108688000D01*
X80867900Y-110768000D02*
X80867900Y-111952000D01*
X80907900Y-107528000D02*
X80907900Y-108688000D01*
X80907900Y-110768000D02*
X80907900Y-111928000D01*
X80947900Y-107553000D02*
X80947900Y-108688000D01*
X80947900Y-110768000D02*
X80947900Y-111903000D01*
X80987900Y-107579000D02*
X80987900Y-108688000D01*
X80987900Y-110768000D02*
X80987900Y-111877000D01*
X81027900Y-107606000D02*
X81027900Y-108688000D01*
X81027900Y-110768000D02*
X81027900Y-111850000D01*
X81067900Y-107633000D02*
X81067900Y-108688000D01*
X81067900Y-110768000D02*
X81067900Y-111823000D01*
X81107900Y-107663000D02*
X81107900Y-108688000D01*
X81107900Y-110768000D02*
X81107900Y-111793000D01*
X81147900Y-107693000D02*
X81147900Y-108688000D01*
X81147900Y-110768000D02*
X81147900Y-111763000D01*
X81187900Y-107724000D02*
X81187900Y-108688000D01*
X81187900Y-110768000D02*
X81187900Y-111732000D01*
X81227900Y-107757000D02*
X81227900Y-108688000D01*
X81227900Y-110768000D02*
X81227900Y-111699000D01*
X81267900Y-107791000D02*
X81267900Y-108688000D01*
X81267900Y-110768000D02*
X81267900Y-111665000D01*
X81307900Y-107827000D02*
X81307900Y-108688000D01*
X81307900Y-110768000D02*
X81307900Y-111629000D01*
X81347900Y-107864000D02*
X81347900Y-108688000D01*
X81347900Y-110768000D02*
X81347900Y-111592000D01*
X81387900Y-107902000D02*
X81387900Y-108688000D01*
X81387900Y-110768000D02*
X81387900Y-111554000D01*
X81427900Y-107943000D02*
X81427900Y-108688000D01*
X81427900Y-110768000D02*
X81427900Y-111513000D01*
X81467900Y-107985000D02*
X81467900Y-108688000D01*
X81467900Y-110768000D02*
X81467900Y-111471000D01*
X81507900Y-108029000D02*
X81507900Y-108688000D01*
X81507900Y-110768000D02*
X81507900Y-111427000D01*
X81547900Y-108075000D02*
X81547900Y-108688000D01*
X81547900Y-110768000D02*
X81547900Y-111381000D01*
X81587900Y-108123000D02*
X81587900Y-108688000D01*
X81587900Y-110768000D02*
X81587900Y-111333000D01*
X81627900Y-108174000D02*
X81627900Y-108688000D01*
X81627900Y-110768000D02*
X81627900Y-111282000D01*
X81667900Y-108228000D02*
X81667900Y-108688000D01*
X81667900Y-110768000D02*
X81667900Y-111228000D01*
X81707900Y-108285000D02*
X81707900Y-108688000D01*
X81707900Y-110768000D02*
X81707900Y-111171000D01*
X81747900Y-108345000D02*
X81747900Y-108688000D01*
X81747900Y-110768000D02*
X81747900Y-111111000D01*
X81787900Y-108409000D02*
X81787900Y-108688000D01*
X81787900Y-110768000D02*
X81787900Y-111047000D01*
X81827900Y-108477000D02*
X81827900Y-108688000D01*
X81827900Y-110768000D02*
X81827900Y-110979000D01*
X81867900Y-108550000D02*
X81867900Y-110906000D01*
X81907900Y-108630000D02*
X81907900Y-110826000D01*
X81947900Y-108717000D02*
X81947900Y-110739000D01*
X81987900Y-108813000D02*
X81987900Y-110643000D01*
X82027900Y-108923000D02*
X82027900Y-110533000D01*
X82067900Y-109051000D02*
X82067900Y-110405000D01*
X82107900Y-109210000D02*
X82107900Y-110246000D01*
X82147900Y-109444000D02*
X82147900Y-110012000D01*
X82166900Y-109728000D02*
G75*
G03*
X76926900Y-109728000I-2620000J0D01*
G01*
X76926900Y-109728000D02*
G75*
G03*
X82166900Y-109728000I2620000J0D01*
G01*
%TO.C,R3*%
X49388000Y-65882000D02*
X53228000Y-65882000D01*
X49388000Y-67722000D02*
X53228000Y-67722000D01*
%TO.C,J1*%
X66790000Y-140506000D02*
X66790000Y-139446000D01*
X67850000Y-140506000D02*
X66790000Y-140506000D01*
X68850000Y-140506000D02*
X72910000Y-140506000D01*
X68850000Y-140506000D02*
X68850000Y-138386000D01*
X72910000Y-140506000D02*
X72910000Y-138386000D01*
X68850000Y-138386000D02*
X72910000Y-138386000D01*
%TO.C,C12*%
X83321225Y-74925000D02*
X83821225Y-74925000D01*
X83571225Y-74675000D02*
X83571225Y-75175000D01*
X86126000Y-73820000D02*
X86126000Y-78980000D01*
X86166000Y-73820000D02*
X86166000Y-78980000D01*
X86206000Y-73821000D02*
X86206000Y-78979000D01*
X86246000Y-73822000D02*
X86246000Y-78978000D01*
X86286000Y-73824000D02*
X86286000Y-78976000D01*
X86326000Y-73827000D02*
X86326000Y-78973000D01*
X86366000Y-73831000D02*
X86366000Y-75360000D01*
X86366000Y-77440000D02*
X86366000Y-78969000D01*
X86406000Y-73835000D02*
X86406000Y-75360000D01*
X86406000Y-77440000D02*
X86406000Y-78965000D01*
X86446000Y-73839000D02*
X86446000Y-75360000D01*
X86446000Y-77440000D02*
X86446000Y-78961000D01*
X86486000Y-73844000D02*
X86486000Y-75360000D01*
X86486000Y-77440000D02*
X86486000Y-78956000D01*
X86526000Y-73850000D02*
X86526000Y-75360000D01*
X86526000Y-77440000D02*
X86526000Y-78950000D01*
X86566000Y-73857000D02*
X86566000Y-75360000D01*
X86566000Y-77440000D02*
X86566000Y-78943000D01*
X86606000Y-73864000D02*
X86606000Y-75360000D01*
X86606000Y-77440000D02*
X86606000Y-78936000D01*
X86646000Y-73872000D02*
X86646000Y-75360000D01*
X86646000Y-77440000D02*
X86646000Y-78928000D01*
X86686000Y-73880000D02*
X86686000Y-75360000D01*
X86686000Y-77440000D02*
X86686000Y-78920000D01*
X86726000Y-73889000D02*
X86726000Y-75360000D01*
X86726000Y-77440000D02*
X86726000Y-78911000D01*
X86766000Y-73899000D02*
X86766000Y-75360000D01*
X86766000Y-77440000D02*
X86766000Y-78901000D01*
X86806000Y-73909000D02*
X86806000Y-75360000D01*
X86806000Y-77440000D02*
X86806000Y-78891000D01*
X86847000Y-73920000D02*
X86847000Y-75360000D01*
X86847000Y-77440000D02*
X86847000Y-78880000D01*
X86887000Y-73932000D02*
X86887000Y-75360000D01*
X86887000Y-77440000D02*
X86887000Y-78868000D01*
X86927000Y-73945000D02*
X86927000Y-75360000D01*
X86927000Y-77440000D02*
X86927000Y-78855000D01*
X86967000Y-73958000D02*
X86967000Y-75360000D01*
X86967000Y-77440000D02*
X86967000Y-78842000D01*
X87007000Y-73972000D02*
X87007000Y-75360000D01*
X87007000Y-77440000D02*
X87007000Y-78828000D01*
X87047000Y-73986000D02*
X87047000Y-75360000D01*
X87047000Y-77440000D02*
X87047000Y-78814000D01*
X87087000Y-74002000D02*
X87087000Y-75360000D01*
X87087000Y-77440000D02*
X87087000Y-78798000D01*
X87127000Y-74018000D02*
X87127000Y-75360000D01*
X87127000Y-77440000D02*
X87127000Y-78782000D01*
X87167000Y-74035000D02*
X87167000Y-75360000D01*
X87167000Y-77440000D02*
X87167000Y-78765000D01*
X87207000Y-74052000D02*
X87207000Y-75360000D01*
X87207000Y-77440000D02*
X87207000Y-78748000D01*
X87247000Y-74071000D02*
X87247000Y-75360000D01*
X87247000Y-77440000D02*
X87247000Y-78729000D01*
X87287000Y-74090000D02*
X87287000Y-75360000D01*
X87287000Y-77440000D02*
X87287000Y-78710000D01*
X87327000Y-74110000D02*
X87327000Y-75360000D01*
X87327000Y-77440000D02*
X87327000Y-78690000D01*
X87367000Y-74132000D02*
X87367000Y-75360000D01*
X87367000Y-77440000D02*
X87367000Y-78668000D01*
X87407000Y-74153000D02*
X87407000Y-75360000D01*
X87407000Y-77440000D02*
X87407000Y-78647000D01*
X87447000Y-74176000D02*
X87447000Y-75360000D01*
X87447000Y-77440000D02*
X87447000Y-78624000D01*
X87487000Y-74200000D02*
X87487000Y-75360000D01*
X87487000Y-77440000D02*
X87487000Y-78600000D01*
X87527000Y-74225000D02*
X87527000Y-75360000D01*
X87527000Y-77440000D02*
X87527000Y-78575000D01*
X87567000Y-74251000D02*
X87567000Y-75360000D01*
X87567000Y-77440000D02*
X87567000Y-78549000D01*
X87607000Y-74278000D02*
X87607000Y-75360000D01*
X87607000Y-77440000D02*
X87607000Y-78522000D01*
X87647000Y-74305000D02*
X87647000Y-75360000D01*
X87647000Y-77440000D02*
X87647000Y-78495000D01*
X87687000Y-74335000D02*
X87687000Y-75360000D01*
X87687000Y-77440000D02*
X87687000Y-78465000D01*
X87727000Y-74365000D02*
X87727000Y-75360000D01*
X87727000Y-77440000D02*
X87727000Y-78435000D01*
X87767000Y-74396000D02*
X87767000Y-75360000D01*
X87767000Y-77440000D02*
X87767000Y-78404000D01*
X87807000Y-74429000D02*
X87807000Y-75360000D01*
X87807000Y-77440000D02*
X87807000Y-78371000D01*
X87847000Y-74463000D02*
X87847000Y-75360000D01*
X87847000Y-77440000D02*
X87847000Y-78337000D01*
X87887000Y-74499000D02*
X87887000Y-75360000D01*
X87887000Y-77440000D02*
X87887000Y-78301000D01*
X87927000Y-74536000D02*
X87927000Y-75360000D01*
X87927000Y-77440000D02*
X87927000Y-78264000D01*
X87967000Y-74574000D02*
X87967000Y-75360000D01*
X87967000Y-77440000D02*
X87967000Y-78226000D01*
X88007000Y-74615000D02*
X88007000Y-75360000D01*
X88007000Y-77440000D02*
X88007000Y-78185000D01*
X88047000Y-74657000D02*
X88047000Y-75360000D01*
X88047000Y-77440000D02*
X88047000Y-78143000D01*
X88087000Y-74701000D02*
X88087000Y-75360000D01*
X88087000Y-77440000D02*
X88087000Y-78099000D01*
X88127000Y-74747000D02*
X88127000Y-75360000D01*
X88127000Y-77440000D02*
X88127000Y-78053000D01*
X88167000Y-74795000D02*
X88167000Y-75360000D01*
X88167000Y-77440000D02*
X88167000Y-78005000D01*
X88207000Y-74846000D02*
X88207000Y-75360000D01*
X88207000Y-77440000D02*
X88207000Y-77954000D01*
X88247000Y-74900000D02*
X88247000Y-75360000D01*
X88247000Y-77440000D02*
X88247000Y-77900000D01*
X88287000Y-74957000D02*
X88287000Y-75360000D01*
X88287000Y-77440000D02*
X88287000Y-77843000D01*
X88327000Y-75017000D02*
X88327000Y-75360000D01*
X88327000Y-77440000D02*
X88327000Y-77783000D01*
X88367000Y-75081000D02*
X88367000Y-75360000D01*
X88367000Y-77440000D02*
X88367000Y-77719000D01*
X88407000Y-75149000D02*
X88407000Y-75360000D01*
X88407000Y-77440000D02*
X88407000Y-77651000D01*
X88447000Y-75222000D02*
X88447000Y-77578000D01*
X88487000Y-75302000D02*
X88487000Y-77498000D01*
X88527000Y-75389000D02*
X88527000Y-77411000D01*
X88567000Y-75485000D02*
X88567000Y-77315000D01*
X88607000Y-75595000D02*
X88607000Y-77205000D01*
X88647000Y-75723000D02*
X88647000Y-77077000D01*
X88687000Y-75882000D02*
X88687000Y-76918000D01*
X88727000Y-76116000D02*
X88727000Y-76684000D01*
X88746000Y-76400000D02*
G75*
G03*
X83506000Y-76400000I-2620000J0D01*
G01*
X83506000Y-76400000D02*
G75*
G03*
X88746000Y-76400000I2620000J0D01*
G01*
%TO.C,BT1*%
X49232000Y-62782000D02*
X49232000Y-61722000D01*
X50292000Y-62782000D02*
X49232000Y-62782000D01*
X51292000Y-62782000D02*
X53352000Y-62782000D01*
X51292000Y-62782000D02*
X51292000Y-60662000D01*
X53352000Y-62782000D02*
X53352000Y-60662000D01*
X51292000Y-60662000D02*
X53352000Y-60662000D01*
%TO.C,D6*%
X81788000Y-61698000D02*
X81788000Y-61048000D01*
X80668000Y-61048000D02*
X82908000Y-61048000D01*
X82908000Y-61048000D02*
X82908000Y-56808000D01*
X80668000Y-60448000D02*
X82908000Y-60448000D01*
X80668000Y-60328000D02*
X82908000Y-60328000D01*
X80668000Y-60208000D02*
X82908000Y-60208000D01*
X80668000Y-56808000D02*
X80668000Y-61048000D01*
X82908000Y-56808000D02*
X80668000Y-56808000D01*
X81788000Y-56158000D02*
X81788000Y-56808000D01*
%TO.C,R5*%
X59040000Y-118714000D02*
X62880000Y-118714000D01*
X59040000Y-120554000D02*
X62880000Y-120554000D01*
%TO.C,R12*%
X77836000Y-116174000D02*
X81676000Y-116174000D01*
X77836000Y-118014000D02*
X81676000Y-118014000D01*
%TO.C,R6*%
X68438000Y-88742000D02*
X72278000Y-88742000D01*
X68438000Y-90582000D02*
X72278000Y-90582000D01*
%TO.C,C10*%
X75951225Y-71931000D02*
X76451225Y-71931000D01*
X76201225Y-71681000D02*
X76201225Y-72181000D01*
X78756000Y-70826000D02*
X78756000Y-72366000D01*
X78756000Y-74446000D02*
X78756000Y-75986000D01*
X78796000Y-70826000D02*
X78796000Y-72366000D01*
X78796000Y-74446000D02*
X78796000Y-75986000D01*
X78836000Y-70827000D02*
X78836000Y-72366000D01*
X78836000Y-74446000D02*
X78836000Y-75985000D01*
X78876000Y-70828000D02*
X78876000Y-72366000D01*
X78876000Y-74446000D02*
X78876000Y-75984000D01*
X78916000Y-70830000D02*
X78916000Y-72366000D01*
X78916000Y-74446000D02*
X78916000Y-75982000D01*
X78956000Y-70833000D02*
X78956000Y-72366000D01*
X78956000Y-74446000D02*
X78956000Y-75979000D01*
X78996000Y-70837000D02*
X78996000Y-72366000D01*
X78996000Y-74446000D02*
X78996000Y-75975000D01*
X79036000Y-70841000D02*
X79036000Y-72366000D01*
X79036000Y-74446000D02*
X79036000Y-75971000D01*
X79076000Y-70845000D02*
X79076000Y-72366000D01*
X79076000Y-74446000D02*
X79076000Y-75967000D01*
X79116000Y-70850000D02*
X79116000Y-72366000D01*
X79116000Y-74446000D02*
X79116000Y-75962000D01*
X79156000Y-70856000D02*
X79156000Y-72366000D01*
X79156000Y-74446000D02*
X79156000Y-75956000D01*
X79196000Y-70863000D02*
X79196000Y-72366000D01*
X79196000Y-74446000D02*
X79196000Y-75949000D01*
X79236000Y-70870000D02*
X79236000Y-72366000D01*
X79236000Y-74446000D02*
X79236000Y-75942000D01*
X79276000Y-70878000D02*
X79276000Y-72366000D01*
X79276000Y-74446000D02*
X79276000Y-75934000D01*
X79316000Y-70886000D02*
X79316000Y-72366000D01*
X79316000Y-74446000D02*
X79316000Y-75926000D01*
X79356000Y-70895000D02*
X79356000Y-72366000D01*
X79356000Y-74446000D02*
X79356000Y-75917000D01*
X79396000Y-70905000D02*
X79396000Y-72366000D01*
X79396000Y-74446000D02*
X79396000Y-75907000D01*
X79436000Y-70915000D02*
X79436000Y-72366000D01*
X79436000Y-74446000D02*
X79436000Y-75897000D01*
X79477000Y-70926000D02*
X79477000Y-72366000D01*
X79477000Y-74446000D02*
X79477000Y-75886000D01*
X79517000Y-70938000D02*
X79517000Y-72366000D01*
X79517000Y-74446000D02*
X79517000Y-75874000D01*
X79557000Y-70951000D02*
X79557000Y-72366000D01*
X79557000Y-74446000D02*
X79557000Y-75861000D01*
X79597000Y-70964000D02*
X79597000Y-72366000D01*
X79597000Y-74446000D02*
X79597000Y-75848000D01*
X79637000Y-70978000D02*
X79637000Y-72366000D01*
X79637000Y-74446000D02*
X79637000Y-75834000D01*
X79677000Y-70992000D02*
X79677000Y-72366000D01*
X79677000Y-74446000D02*
X79677000Y-75820000D01*
X79717000Y-71008000D02*
X79717000Y-72366000D01*
X79717000Y-74446000D02*
X79717000Y-75804000D01*
X79757000Y-71024000D02*
X79757000Y-72366000D01*
X79757000Y-74446000D02*
X79757000Y-75788000D01*
X79797000Y-71041000D02*
X79797000Y-72366000D01*
X79797000Y-74446000D02*
X79797000Y-75771000D01*
X79837000Y-71058000D02*
X79837000Y-72366000D01*
X79837000Y-74446000D02*
X79837000Y-75754000D01*
X79877000Y-71077000D02*
X79877000Y-72366000D01*
X79877000Y-74446000D02*
X79877000Y-75735000D01*
X79917000Y-71096000D02*
X79917000Y-72366000D01*
X79917000Y-74446000D02*
X79917000Y-75716000D01*
X79957000Y-71116000D02*
X79957000Y-72366000D01*
X79957000Y-74446000D02*
X79957000Y-75696000D01*
X79997000Y-71138000D02*
X79997000Y-72366000D01*
X79997000Y-74446000D02*
X79997000Y-75674000D01*
X80037000Y-71159000D02*
X80037000Y-72366000D01*
X80037000Y-74446000D02*
X80037000Y-75653000D01*
X80077000Y-71182000D02*
X80077000Y-72366000D01*
X80077000Y-74446000D02*
X80077000Y-75630000D01*
X80117000Y-71206000D02*
X80117000Y-72366000D01*
X80117000Y-74446000D02*
X80117000Y-75606000D01*
X80157000Y-71231000D02*
X80157000Y-72366000D01*
X80157000Y-74446000D02*
X80157000Y-75581000D01*
X80197000Y-71257000D02*
X80197000Y-72366000D01*
X80197000Y-74446000D02*
X80197000Y-75555000D01*
X80237000Y-71284000D02*
X80237000Y-72366000D01*
X80237000Y-74446000D02*
X80237000Y-75528000D01*
X80277000Y-71311000D02*
X80277000Y-72366000D01*
X80277000Y-74446000D02*
X80277000Y-75501000D01*
X80317000Y-71341000D02*
X80317000Y-72366000D01*
X80317000Y-74446000D02*
X80317000Y-75471000D01*
X80357000Y-71371000D02*
X80357000Y-72366000D01*
X80357000Y-74446000D02*
X80357000Y-75441000D01*
X80397000Y-71402000D02*
X80397000Y-72366000D01*
X80397000Y-74446000D02*
X80397000Y-75410000D01*
X80437000Y-71435000D02*
X80437000Y-72366000D01*
X80437000Y-74446000D02*
X80437000Y-75377000D01*
X80477000Y-71469000D02*
X80477000Y-72366000D01*
X80477000Y-74446000D02*
X80477000Y-75343000D01*
X80517000Y-71505000D02*
X80517000Y-72366000D01*
X80517000Y-74446000D02*
X80517000Y-75307000D01*
X80557000Y-71542000D02*
X80557000Y-72366000D01*
X80557000Y-74446000D02*
X80557000Y-75270000D01*
X80597000Y-71580000D02*
X80597000Y-72366000D01*
X80597000Y-74446000D02*
X80597000Y-75232000D01*
X80637000Y-71621000D02*
X80637000Y-72366000D01*
X80637000Y-74446000D02*
X80637000Y-75191000D01*
X80677000Y-71663000D02*
X80677000Y-72366000D01*
X80677000Y-74446000D02*
X80677000Y-75149000D01*
X80717000Y-71707000D02*
X80717000Y-72366000D01*
X80717000Y-74446000D02*
X80717000Y-75105000D01*
X80757000Y-71753000D02*
X80757000Y-72366000D01*
X80757000Y-74446000D02*
X80757000Y-75059000D01*
X80797000Y-71801000D02*
X80797000Y-75011000D01*
X80837000Y-71852000D02*
X80837000Y-74960000D01*
X80877000Y-71906000D02*
X80877000Y-74906000D01*
X80917000Y-71963000D02*
X80917000Y-74849000D01*
X80957000Y-72023000D02*
X80957000Y-74789000D01*
X80997000Y-72087000D02*
X80997000Y-74725000D01*
X81037000Y-72155000D02*
X81037000Y-74657000D01*
X81077000Y-72228000D02*
X81077000Y-74584000D01*
X81117000Y-72308000D02*
X81117000Y-74504000D01*
X81157000Y-72395000D02*
X81157000Y-74417000D01*
X81197000Y-72491000D02*
X81197000Y-74321000D01*
X81237000Y-72601000D02*
X81237000Y-74211000D01*
X81277000Y-72729000D02*
X81277000Y-74083000D01*
X81317000Y-72888000D02*
X81317000Y-73924000D01*
X81357000Y-73122000D02*
X81357000Y-73690000D01*
X81376000Y-73406000D02*
G75*
G03*
X76136000Y-73406000I-2620000J0D01*
G01*
X76136000Y-73406000D02*
G75*
G03*
X81376000Y-73406000I2620000J0D01*
G01*
%TO.C,R13*%
X59294000Y-115920000D02*
X63134000Y-115920000D01*
X59294000Y-117760000D02*
X63134000Y-117760000D01*
%TO.C,R10*%
X77820000Y-87518000D02*
X77820000Y-83678000D01*
X79660000Y-87518000D02*
X79660000Y-83678000D01*
%TO.C,RV3*%
X67177600Y-49777200D02*
X67177600Y-48717200D01*
X68237600Y-49777200D02*
X67177600Y-49777200D01*
X69237600Y-49777200D02*
X73297600Y-49777200D01*
X69237600Y-49777200D02*
X69237600Y-47657200D01*
X73297600Y-49777200D02*
X73297600Y-47657200D01*
X69237600Y-47657200D02*
X73297600Y-47657200D01*
%TO.C,SW2*%
X68328000Y-87724000D02*
X68328000Y-86614000D01*
X69088000Y-87724000D02*
X68328000Y-87724000D01*
X69848000Y-87724000D02*
X72323000Y-87724000D01*
X69848000Y-87724000D02*
X69848000Y-87177471D01*
X72323000Y-87724000D02*
X72323000Y-86921530D01*
X72323000Y-86306470D02*
X72323000Y-85504000D01*
X69848000Y-86050529D02*
X69848000Y-85504000D01*
X69848000Y-85504000D02*
X72323000Y-85504000D01*
%TO.C,C9*%
X83824199Y-108787000D02*
X84224199Y-108787000D01*
X84024199Y-108587000D02*
X84024199Y-108987000D01*
X86094000Y-107902000D02*
X86094000Y-109142000D01*
X86094000Y-110822000D02*
X86094000Y-112062000D01*
X86134000Y-107902000D02*
X86134000Y-109142000D01*
X86134000Y-110822000D02*
X86134000Y-112062000D01*
X86174000Y-107903000D02*
X86174000Y-109142000D01*
X86174000Y-110822000D02*
X86174000Y-112061000D01*
X86214000Y-107905000D02*
X86214000Y-109142000D01*
X86214000Y-110822000D02*
X86214000Y-112059000D01*
X86254000Y-107908000D02*
X86254000Y-109142000D01*
X86254000Y-110822000D02*
X86254000Y-112056000D01*
X86294000Y-107911000D02*
X86294000Y-109142000D01*
X86294000Y-110822000D02*
X86294000Y-112053000D01*
X86334000Y-107915000D02*
X86334000Y-109142000D01*
X86334000Y-110822000D02*
X86334000Y-112049000D01*
X86374000Y-107920000D02*
X86374000Y-109142000D01*
X86374000Y-110822000D02*
X86374000Y-112044000D01*
X86414000Y-107926000D02*
X86414000Y-109142000D01*
X86414000Y-110822000D02*
X86414000Y-112038000D01*
X86454000Y-107932000D02*
X86454000Y-109142000D01*
X86454000Y-110822000D02*
X86454000Y-112032000D01*
X86494000Y-107940000D02*
X86494000Y-109142000D01*
X86494000Y-110822000D02*
X86494000Y-112024000D01*
X86534000Y-107948000D02*
X86534000Y-109142000D01*
X86534000Y-110822000D02*
X86534000Y-112016000D01*
X86574000Y-107957000D02*
X86574000Y-109142000D01*
X86574000Y-110822000D02*
X86574000Y-112007000D01*
X86614000Y-107966000D02*
X86614000Y-109142000D01*
X86614000Y-110822000D02*
X86614000Y-111998000D01*
X86654000Y-107977000D02*
X86654000Y-109142000D01*
X86654000Y-110822000D02*
X86654000Y-111987000D01*
X86694000Y-107988000D02*
X86694000Y-109142000D01*
X86694000Y-110822000D02*
X86694000Y-111976000D01*
X86734000Y-108000000D02*
X86734000Y-109142000D01*
X86734000Y-110822000D02*
X86734000Y-111964000D01*
X86774000Y-108014000D02*
X86774000Y-109142000D01*
X86774000Y-110822000D02*
X86774000Y-111950000D01*
X86815000Y-108028000D02*
X86815000Y-109142000D01*
X86815000Y-110822000D02*
X86815000Y-111936000D01*
X86855000Y-108042000D02*
X86855000Y-109142000D01*
X86855000Y-110822000D02*
X86855000Y-111922000D01*
X86895000Y-108058000D02*
X86895000Y-109142000D01*
X86895000Y-110822000D02*
X86895000Y-111906000D01*
X86935000Y-108075000D02*
X86935000Y-109142000D01*
X86935000Y-110822000D02*
X86935000Y-111889000D01*
X86975000Y-108093000D02*
X86975000Y-109142000D01*
X86975000Y-110822000D02*
X86975000Y-111871000D01*
X87015000Y-108112000D02*
X87015000Y-109142000D01*
X87015000Y-110822000D02*
X87015000Y-111852000D01*
X87055000Y-108131000D02*
X87055000Y-109142000D01*
X87055000Y-110822000D02*
X87055000Y-111833000D01*
X87095000Y-108152000D02*
X87095000Y-109142000D01*
X87095000Y-110822000D02*
X87095000Y-111812000D01*
X87135000Y-108174000D02*
X87135000Y-109142000D01*
X87135000Y-110822000D02*
X87135000Y-111790000D01*
X87175000Y-108197000D02*
X87175000Y-109142000D01*
X87175000Y-110822000D02*
X87175000Y-111767000D01*
X87215000Y-108222000D02*
X87215000Y-109142000D01*
X87215000Y-110822000D02*
X87215000Y-111742000D01*
X87255000Y-108247000D02*
X87255000Y-109142000D01*
X87255000Y-110822000D02*
X87255000Y-111717000D01*
X87295000Y-108274000D02*
X87295000Y-109142000D01*
X87295000Y-110822000D02*
X87295000Y-111690000D01*
X87335000Y-108302000D02*
X87335000Y-109142000D01*
X87335000Y-110822000D02*
X87335000Y-111662000D01*
X87375000Y-108332000D02*
X87375000Y-109142000D01*
X87375000Y-110822000D02*
X87375000Y-111632000D01*
X87415000Y-108363000D02*
X87415000Y-109142000D01*
X87415000Y-110822000D02*
X87415000Y-111601000D01*
X87455000Y-108395000D02*
X87455000Y-109142000D01*
X87455000Y-110822000D02*
X87455000Y-111569000D01*
X87495000Y-108430000D02*
X87495000Y-109142000D01*
X87495000Y-110822000D02*
X87495000Y-111534000D01*
X87535000Y-108466000D02*
X87535000Y-109142000D01*
X87535000Y-110822000D02*
X87535000Y-111498000D01*
X87575000Y-108504000D02*
X87575000Y-109142000D01*
X87575000Y-110822000D02*
X87575000Y-111460000D01*
X87615000Y-108544000D02*
X87615000Y-109142000D01*
X87615000Y-110822000D02*
X87615000Y-111420000D01*
X87655000Y-108586000D02*
X87655000Y-109142000D01*
X87655000Y-110822000D02*
X87655000Y-111378000D01*
X87695000Y-108631000D02*
X87695000Y-111333000D01*
X87735000Y-108678000D02*
X87735000Y-111286000D01*
X87775000Y-108728000D02*
X87775000Y-111236000D01*
X87815000Y-108782000D02*
X87815000Y-111182000D01*
X87855000Y-108840000D02*
X87855000Y-111124000D01*
X87895000Y-108902000D02*
X87895000Y-111062000D01*
X87935000Y-108969000D02*
X87935000Y-110995000D01*
X87975000Y-109042000D02*
X87975000Y-110922000D01*
X88015000Y-109123000D02*
X88015000Y-110841000D01*
X88055000Y-109214000D02*
X88055000Y-110750000D01*
X88095000Y-109318000D02*
X88095000Y-110646000D01*
X88135000Y-109445000D02*
X88135000Y-110519000D01*
X88175000Y-109612000D02*
X88175000Y-110352000D01*
X88214000Y-109982000D02*
G75*
G03*
X83974000Y-109982000I-2120000J0D01*
G01*
X83974000Y-109982000D02*
G75*
G03*
X88214000Y-109982000I2120000J0D01*
G01*
%TO.C,R8*%
X84440000Y-86456000D02*
X88280000Y-86456000D01*
X84440000Y-88296000D02*
X88280000Y-88296000D01*
%TO.C,D3*%
X83644000Y-91278000D02*
X84294000Y-91278000D01*
X84294000Y-90158000D02*
X84294000Y-92398000D01*
X84294000Y-92398000D02*
X88534000Y-92398000D01*
X84894000Y-90158000D02*
X84894000Y-92398000D01*
X85014000Y-90158000D02*
X85014000Y-92398000D01*
X85134000Y-90158000D02*
X85134000Y-92398000D01*
X88534000Y-90158000D02*
X84294000Y-90158000D01*
X88534000Y-92398000D02*
X88534000Y-90158000D01*
X89184000Y-91278000D02*
X88534000Y-91278000D01*
%TO.C,C5*%
X58429225Y-108253000D02*
X58929225Y-108253000D01*
X58679225Y-108003000D02*
X58679225Y-108503000D01*
X61234000Y-107148000D02*
X61234000Y-112308000D01*
X61274000Y-107148000D02*
X61274000Y-112308000D01*
X61314000Y-107149000D02*
X61314000Y-112307000D01*
X61354000Y-107150000D02*
X61354000Y-112306000D01*
X61394000Y-107152000D02*
X61394000Y-112304000D01*
X61434000Y-107155000D02*
X61434000Y-112301000D01*
X61474000Y-107159000D02*
X61474000Y-108688000D01*
X61474000Y-110768000D02*
X61474000Y-112297000D01*
X61514000Y-107163000D02*
X61514000Y-108688000D01*
X61514000Y-110768000D02*
X61514000Y-112293000D01*
X61554000Y-107167000D02*
X61554000Y-108688000D01*
X61554000Y-110768000D02*
X61554000Y-112289000D01*
X61594000Y-107172000D02*
X61594000Y-108688000D01*
X61594000Y-110768000D02*
X61594000Y-112284000D01*
X61634000Y-107178000D02*
X61634000Y-108688000D01*
X61634000Y-110768000D02*
X61634000Y-112278000D01*
X61674000Y-107185000D02*
X61674000Y-108688000D01*
X61674000Y-110768000D02*
X61674000Y-112271000D01*
X61714000Y-107192000D02*
X61714000Y-108688000D01*
X61714000Y-110768000D02*
X61714000Y-112264000D01*
X61754000Y-107200000D02*
X61754000Y-108688000D01*
X61754000Y-110768000D02*
X61754000Y-112256000D01*
X61794000Y-107208000D02*
X61794000Y-108688000D01*
X61794000Y-110768000D02*
X61794000Y-112248000D01*
X61834000Y-107217000D02*
X61834000Y-108688000D01*
X61834000Y-110768000D02*
X61834000Y-112239000D01*
X61874000Y-107227000D02*
X61874000Y-108688000D01*
X61874000Y-110768000D02*
X61874000Y-112229000D01*
X61914000Y-107237000D02*
X61914000Y-108688000D01*
X61914000Y-110768000D02*
X61914000Y-112219000D01*
X61955000Y-107248000D02*
X61955000Y-108688000D01*
X61955000Y-110768000D02*
X61955000Y-112208000D01*
X61995000Y-107260000D02*
X61995000Y-108688000D01*
X61995000Y-110768000D02*
X61995000Y-112196000D01*
X62035000Y-107273000D02*
X62035000Y-108688000D01*
X62035000Y-110768000D02*
X62035000Y-112183000D01*
X62075000Y-107286000D02*
X62075000Y-108688000D01*
X62075000Y-110768000D02*
X62075000Y-112170000D01*
X62115000Y-107300000D02*
X62115000Y-108688000D01*
X62115000Y-110768000D02*
X62115000Y-112156000D01*
X62155000Y-107314000D02*
X62155000Y-108688000D01*
X62155000Y-110768000D02*
X62155000Y-112142000D01*
X62195000Y-107330000D02*
X62195000Y-108688000D01*
X62195000Y-110768000D02*
X62195000Y-112126000D01*
X62235000Y-107346000D02*
X62235000Y-108688000D01*
X62235000Y-110768000D02*
X62235000Y-112110000D01*
X62275000Y-107363000D02*
X62275000Y-108688000D01*
X62275000Y-110768000D02*
X62275000Y-112093000D01*
X62315000Y-107380000D02*
X62315000Y-108688000D01*
X62315000Y-110768000D02*
X62315000Y-112076000D01*
X62355000Y-107399000D02*
X62355000Y-108688000D01*
X62355000Y-110768000D02*
X62355000Y-112057000D01*
X62395000Y-107418000D02*
X62395000Y-108688000D01*
X62395000Y-110768000D02*
X62395000Y-112038000D01*
X62435000Y-107438000D02*
X62435000Y-108688000D01*
X62435000Y-110768000D02*
X62435000Y-112018000D01*
X62475000Y-107460000D02*
X62475000Y-108688000D01*
X62475000Y-110768000D02*
X62475000Y-111996000D01*
X62515000Y-107481000D02*
X62515000Y-108688000D01*
X62515000Y-110768000D02*
X62515000Y-111975000D01*
X62555000Y-107504000D02*
X62555000Y-108688000D01*
X62555000Y-110768000D02*
X62555000Y-111952000D01*
X62595000Y-107528000D02*
X62595000Y-108688000D01*
X62595000Y-110768000D02*
X62595000Y-111928000D01*
X62635000Y-107553000D02*
X62635000Y-108688000D01*
X62635000Y-110768000D02*
X62635000Y-111903000D01*
X62675000Y-107579000D02*
X62675000Y-108688000D01*
X62675000Y-110768000D02*
X62675000Y-111877000D01*
X62715000Y-107606000D02*
X62715000Y-108688000D01*
X62715000Y-110768000D02*
X62715000Y-111850000D01*
X62755000Y-107633000D02*
X62755000Y-108688000D01*
X62755000Y-110768000D02*
X62755000Y-111823000D01*
X62795000Y-107663000D02*
X62795000Y-108688000D01*
X62795000Y-110768000D02*
X62795000Y-111793000D01*
X62835000Y-107693000D02*
X62835000Y-108688000D01*
X62835000Y-110768000D02*
X62835000Y-111763000D01*
X62875000Y-107724000D02*
X62875000Y-108688000D01*
X62875000Y-110768000D02*
X62875000Y-111732000D01*
X62915000Y-107757000D02*
X62915000Y-108688000D01*
X62915000Y-110768000D02*
X62915000Y-111699000D01*
X62955000Y-107791000D02*
X62955000Y-108688000D01*
X62955000Y-110768000D02*
X62955000Y-111665000D01*
X62995000Y-107827000D02*
X62995000Y-108688000D01*
X62995000Y-110768000D02*
X62995000Y-111629000D01*
X63035000Y-107864000D02*
X63035000Y-108688000D01*
X63035000Y-110768000D02*
X63035000Y-111592000D01*
X63075000Y-107902000D02*
X63075000Y-108688000D01*
X63075000Y-110768000D02*
X63075000Y-111554000D01*
X63115000Y-107943000D02*
X63115000Y-108688000D01*
X63115000Y-110768000D02*
X63115000Y-111513000D01*
X63155000Y-107985000D02*
X63155000Y-108688000D01*
X63155000Y-110768000D02*
X63155000Y-111471000D01*
X63195000Y-108029000D02*
X63195000Y-108688000D01*
X63195000Y-110768000D02*
X63195000Y-111427000D01*
X63235000Y-108075000D02*
X63235000Y-108688000D01*
X63235000Y-110768000D02*
X63235000Y-111381000D01*
X63275000Y-108123000D02*
X63275000Y-108688000D01*
X63275000Y-110768000D02*
X63275000Y-111333000D01*
X63315000Y-108174000D02*
X63315000Y-108688000D01*
X63315000Y-110768000D02*
X63315000Y-111282000D01*
X63355000Y-108228000D02*
X63355000Y-108688000D01*
X63355000Y-110768000D02*
X63355000Y-111228000D01*
X63395000Y-108285000D02*
X63395000Y-108688000D01*
X63395000Y-110768000D02*
X63395000Y-111171000D01*
X63435000Y-108345000D02*
X63435000Y-108688000D01*
X63435000Y-110768000D02*
X63435000Y-111111000D01*
X63475000Y-108409000D02*
X63475000Y-108688000D01*
X63475000Y-110768000D02*
X63475000Y-111047000D01*
X63515000Y-108477000D02*
X63515000Y-108688000D01*
X63515000Y-110768000D02*
X63515000Y-110979000D01*
X63555000Y-108550000D02*
X63555000Y-110906000D01*
X63595000Y-108630000D02*
X63595000Y-110826000D01*
X63635000Y-108717000D02*
X63635000Y-110739000D01*
X63675000Y-108813000D02*
X63675000Y-110643000D01*
X63715000Y-108923000D02*
X63715000Y-110533000D01*
X63755000Y-109051000D02*
X63755000Y-110405000D01*
X63795000Y-109210000D02*
X63795000Y-110246000D01*
X63835000Y-109444000D02*
X63835000Y-110012000D01*
X63854000Y-109728000D02*
G75*
G03*
X58614000Y-109728000I-2620000J0D01*
G01*
X58614000Y-109728000D02*
G75*
G03*
X63854000Y-109728000I2620000J0D01*
G01*
%TO.C,R7*%
X78090000Y-119222000D02*
X81930000Y-119222000D01*
X78090000Y-121062000D02*
X81930000Y-121062000D01*
%TO.C,D4*%
X83644000Y-94828000D02*
X84294000Y-94828000D01*
X84294000Y-93708000D02*
X84294000Y-95948000D01*
X84294000Y-95948000D02*
X88534000Y-95948000D01*
X84894000Y-93708000D02*
X84894000Y-95948000D01*
X85014000Y-93708000D02*
X85014000Y-95948000D01*
X85134000Y-93708000D02*
X85134000Y-95948000D01*
X88534000Y-93708000D02*
X84294000Y-93708000D01*
X88534000Y-95948000D02*
X88534000Y-93708000D01*
X89184000Y-94828000D02*
X88534000Y-94828000D01*
%TO.C,C4*%
X57917225Y-89457000D02*
X58417225Y-89457000D01*
X58167225Y-89207000D02*
X58167225Y-89707000D01*
X60722000Y-88352000D02*
X60722000Y-89892000D01*
X60722000Y-91972000D02*
X60722000Y-93512000D01*
X60762000Y-88352000D02*
X60762000Y-89892000D01*
X60762000Y-91972000D02*
X60762000Y-93512000D01*
X60802000Y-88353000D02*
X60802000Y-89892000D01*
X60802000Y-91972000D02*
X60802000Y-93511000D01*
X60842000Y-88354000D02*
X60842000Y-89892000D01*
X60842000Y-91972000D02*
X60842000Y-93510000D01*
X60882000Y-88356000D02*
X60882000Y-89892000D01*
X60882000Y-91972000D02*
X60882000Y-93508000D01*
X60922000Y-88359000D02*
X60922000Y-89892000D01*
X60922000Y-91972000D02*
X60922000Y-93505000D01*
X60962000Y-88363000D02*
X60962000Y-89892000D01*
X60962000Y-91972000D02*
X60962000Y-93501000D01*
X61002000Y-88367000D02*
X61002000Y-89892000D01*
X61002000Y-91972000D02*
X61002000Y-93497000D01*
X61042000Y-88371000D02*
X61042000Y-89892000D01*
X61042000Y-91972000D02*
X61042000Y-93493000D01*
X61082000Y-88376000D02*
X61082000Y-89892000D01*
X61082000Y-91972000D02*
X61082000Y-93488000D01*
X61122000Y-88382000D02*
X61122000Y-89892000D01*
X61122000Y-91972000D02*
X61122000Y-93482000D01*
X61162000Y-88389000D02*
X61162000Y-89892000D01*
X61162000Y-91972000D02*
X61162000Y-93475000D01*
X61202000Y-88396000D02*
X61202000Y-89892000D01*
X61202000Y-91972000D02*
X61202000Y-93468000D01*
X61242000Y-88404000D02*
X61242000Y-89892000D01*
X61242000Y-91972000D02*
X61242000Y-93460000D01*
X61282000Y-88412000D02*
X61282000Y-89892000D01*
X61282000Y-91972000D02*
X61282000Y-93452000D01*
X61322000Y-88421000D02*
X61322000Y-89892000D01*
X61322000Y-91972000D02*
X61322000Y-93443000D01*
X61362000Y-88431000D02*
X61362000Y-89892000D01*
X61362000Y-91972000D02*
X61362000Y-93433000D01*
X61402000Y-88441000D02*
X61402000Y-89892000D01*
X61402000Y-91972000D02*
X61402000Y-93423000D01*
X61443000Y-88452000D02*
X61443000Y-89892000D01*
X61443000Y-91972000D02*
X61443000Y-93412000D01*
X61483000Y-88464000D02*
X61483000Y-89892000D01*
X61483000Y-91972000D02*
X61483000Y-93400000D01*
X61523000Y-88477000D02*
X61523000Y-89892000D01*
X61523000Y-91972000D02*
X61523000Y-93387000D01*
X61563000Y-88490000D02*
X61563000Y-89892000D01*
X61563000Y-91972000D02*
X61563000Y-93374000D01*
X61603000Y-88504000D02*
X61603000Y-89892000D01*
X61603000Y-91972000D02*
X61603000Y-93360000D01*
X61643000Y-88518000D02*
X61643000Y-89892000D01*
X61643000Y-91972000D02*
X61643000Y-93346000D01*
X61683000Y-88534000D02*
X61683000Y-89892000D01*
X61683000Y-91972000D02*
X61683000Y-93330000D01*
X61723000Y-88550000D02*
X61723000Y-89892000D01*
X61723000Y-91972000D02*
X61723000Y-93314000D01*
X61763000Y-88567000D02*
X61763000Y-89892000D01*
X61763000Y-91972000D02*
X61763000Y-93297000D01*
X61803000Y-88584000D02*
X61803000Y-89892000D01*
X61803000Y-91972000D02*
X61803000Y-93280000D01*
X61843000Y-88603000D02*
X61843000Y-89892000D01*
X61843000Y-91972000D02*
X61843000Y-93261000D01*
X61883000Y-88622000D02*
X61883000Y-89892000D01*
X61883000Y-91972000D02*
X61883000Y-93242000D01*
X61923000Y-88642000D02*
X61923000Y-89892000D01*
X61923000Y-91972000D02*
X61923000Y-93222000D01*
X61963000Y-88664000D02*
X61963000Y-89892000D01*
X61963000Y-91972000D02*
X61963000Y-93200000D01*
X62003000Y-88685000D02*
X62003000Y-89892000D01*
X62003000Y-91972000D02*
X62003000Y-93179000D01*
X62043000Y-88708000D02*
X62043000Y-89892000D01*
X62043000Y-91972000D02*
X62043000Y-93156000D01*
X62083000Y-88732000D02*
X62083000Y-89892000D01*
X62083000Y-91972000D02*
X62083000Y-93132000D01*
X62123000Y-88757000D02*
X62123000Y-89892000D01*
X62123000Y-91972000D02*
X62123000Y-93107000D01*
X62163000Y-88783000D02*
X62163000Y-89892000D01*
X62163000Y-91972000D02*
X62163000Y-93081000D01*
X62203000Y-88810000D02*
X62203000Y-89892000D01*
X62203000Y-91972000D02*
X62203000Y-93054000D01*
X62243000Y-88837000D02*
X62243000Y-89892000D01*
X62243000Y-91972000D02*
X62243000Y-93027000D01*
X62283000Y-88867000D02*
X62283000Y-89892000D01*
X62283000Y-91972000D02*
X62283000Y-92997000D01*
X62323000Y-88897000D02*
X62323000Y-89892000D01*
X62323000Y-91972000D02*
X62323000Y-92967000D01*
X62363000Y-88928000D02*
X62363000Y-89892000D01*
X62363000Y-91972000D02*
X62363000Y-92936000D01*
X62403000Y-88961000D02*
X62403000Y-89892000D01*
X62403000Y-91972000D02*
X62403000Y-92903000D01*
X62443000Y-88995000D02*
X62443000Y-89892000D01*
X62443000Y-91972000D02*
X62443000Y-92869000D01*
X62483000Y-89031000D02*
X62483000Y-89892000D01*
X62483000Y-91972000D02*
X62483000Y-92833000D01*
X62523000Y-89068000D02*
X62523000Y-89892000D01*
X62523000Y-91972000D02*
X62523000Y-92796000D01*
X62563000Y-89106000D02*
X62563000Y-89892000D01*
X62563000Y-91972000D02*
X62563000Y-92758000D01*
X62603000Y-89147000D02*
X62603000Y-89892000D01*
X62603000Y-91972000D02*
X62603000Y-92717000D01*
X62643000Y-89189000D02*
X62643000Y-89892000D01*
X62643000Y-91972000D02*
X62643000Y-92675000D01*
X62683000Y-89233000D02*
X62683000Y-89892000D01*
X62683000Y-91972000D02*
X62683000Y-92631000D01*
X62723000Y-89279000D02*
X62723000Y-89892000D01*
X62723000Y-91972000D02*
X62723000Y-92585000D01*
X62763000Y-89327000D02*
X62763000Y-92537000D01*
X62803000Y-89378000D02*
X62803000Y-92486000D01*
X62843000Y-89432000D02*
X62843000Y-92432000D01*
X62883000Y-89489000D02*
X62883000Y-92375000D01*
X62923000Y-89549000D02*
X62923000Y-92315000D01*
X62963000Y-89613000D02*
X62963000Y-92251000D01*
X63003000Y-89681000D02*
X63003000Y-92183000D01*
X63043000Y-89754000D02*
X63043000Y-92110000D01*
X63083000Y-89834000D02*
X63083000Y-92030000D01*
X63123000Y-89921000D02*
X63123000Y-91943000D01*
X63163000Y-90017000D02*
X63163000Y-91847000D01*
X63203000Y-90127000D02*
X63203000Y-91737000D01*
X63243000Y-90255000D02*
X63243000Y-91609000D01*
X63283000Y-90414000D02*
X63283000Y-91450000D01*
X63323000Y-90648000D02*
X63323000Y-91216000D01*
X63342000Y-90932000D02*
G75*
G03*
X58102000Y-90932000I-2620000J0D01*
G01*
X58102000Y-90932000D02*
G75*
G03*
X63342000Y-90932000I2620000J0D01*
G01*
%TO.C,C7*%
X49056125Y-89203000D02*
X49556125Y-89203000D01*
X49306125Y-88953000D02*
X49306125Y-89453000D01*
X51860900Y-88098000D02*
X51860900Y-93258000D01*
X51900900Y-88098000D02*
X51900900Y-93258000D01*
X51940900Y-88099000D02*
X51940900Y-93257000D01*
X51980900Y-88100000D02*
X51980900Y-93256000D01*
X52020900Y-88102000D02*
X52020900Y-93254000D01*
X52060900Y-88105000D02*
X52060900Y-93251000D01*
X52100900Y-88109000D02*
X52100900Y-89638000D01*
X52100900Y-91718000D02*
X52100900Y-93247000D01*
X52140900Y-88113000D02*
X52140900Y-89638000D01*
X52140900Y-91718000D02*
X52140900Y-93243000D01*
X52180900Y-88117000D02*
X52180900Y-89638000D01*
X52180900Y-91718000D02*
X52180900Y-93239000D01*
X52220900Y-88122000D02*
X52220900Y-89638000D01*
X52220900Y-91718000D02*
X52220900Y-93234000D01*
X52260900Y-88128000D02*
X52260900Y-89638000D01*
X52260900Y-91718000D02*
X52260900Y-93228000D01*
X52300900Y-88135000D02*
X52300900Y-89638000D01*
X52300900Y-91718000D02*
X52300900Y-93221000D01*
X52340900Y-88142000D02*
X52340900Y-89638000D01*
X52340900Y-91718000D02*
X52340900Y-93214000D01*
X52380900Y-88150000D02*
X52380900Y-89638000D01*
X52380900Y-91718000D02*
X52380900Y-93206000D01*
X52420900Y-88158000D02*
X52420900Y-89638000D01*
X52420900Y-91718000D02*
X52420900Y-93198000D01*
X52460900Y-88167000D02*
X52460900Y-89638000D01*
X52460900Y-91718000D02*
X52460900Y-93189000D01*
X52500900Y-88177000D02*
X52500900Y-89638000D01*
X52500900Y-91718000D02*
X52500900Y-93179000D01*
X52540900Y-88187000D02*
X52540900Y-89638000D01*
X52540900Y-91718000D02*
X52540900Y-93169000D01*
X52581900Y-88198000D02*
X52581900Y-89638000D01*
X52581900Y-91718000D02*
X52581900Y-93158000D01*
X52621900Y-88210000D02*
X52621900Y-89638000D01*
X52621900Y-91718000D02*
X52621900Y-93146000D01*
X52661900Y-88223000D02*
X52661900Y-89638000D01*
X52661900Y-91718000D02*
X52661900Y-93133000D01*
X52701900Y-88236000D02*
X52701900Y-89638000D01*
X52701900Y-91718000D02*
X52701900Y-93120000D01*
X52741900Y-88250000D02*
X52741900Y-89638000D01*
X52741900Y-91718000D02*
X52741900Y-93106000D01*
X52781900Y-88264000D02*
X52781900Y-89638000D01*
X52781900Y-91718000D02*
X52781900Y-93092000D01*
X52821900Y-88280000D02*
X52821900Y-89638000D01*
X52821900Y-91718000D02*
X52821900Y-93076000D01*
X52861900Y-88296000D02*
X52861900Y-89638000D01*
X52861900Y-91718000D02*
X52861900Y-93060000D01*
X52901900Y-88313000D02*
X52901900Y-89638000D01*
X52901900Y-91718000D02*
X52901900Y-93043000D01*
X52941900Y-88330000D02*
X52941900Y-89638000D01*
X52941900Y-91718000D02*
X52941900Y-93026000D01*
X52981900Y-88349000D02*
X52981900Y-89638000D01*
X52981900Y-91718000D02*
X52981900Y-93007000D01*
X53021900Y-88368000D02*
X53021900Y-89638000D01*
X53021900Y-91718000D02*
X53021900Y-92988000D01*
X53061900Y-88388000D02*
X53061900Y-89638000D01*
X53061900Y-91718000D02*
X53061900Y-92968000D01*
X53101900Y-88410000D02*
X53101900Y-89638000D01*
X53101900Y-91718000D02*
X53101900Y-92946000D01*
X53141900Y-88431000D02*
X53141900Y-89638000D01*
X53141900Y-91718000D02*
X53141900Y-92925000D01*
X53181900Y-88454000D02*
X53181900Y-89638000D01*
X53181900Y-91718000D02*
X53181900Y-92902000D01*
X53221900Y-88478000D02*
X53221900Y-89638000D01*
X53221900Y-91718000D02*
X53221900Y-92878000D01*
X53261900Y-88503000D02*
X53261900Y-89638000D01*
X53261900Y-91718000D02*
X53261900Y-92853000D01*
X53301900Y-88529000D02*
X53301900Y-89638000D01*
X53301900Y-91718000D02*
X53301900Y-92827000D01*
X53341900Y-88556000D02*
X53341900Y-89638000D01*
X53341900Y-91718000D02*
X53341900Y-92800000D01*
X53381900Y-88583000D02*
X53381900Y-89638000D01*
X53381900Y-91718000D02*
X53381900Y-92773000D01*
X53421900Y-88613000D02*
X53421900Y-89638000D01*
X53421900Y-91718000D02*
X53421900Y-92743000D01*
X53461900Y-88643000D02*
X53461900Y-89638000D01*
X53461900Y-91718000D02*
X53461900Y-92713000D01*
X53501900Y-88674000D02*
X53501900Y-89638000D01*
X53501900Y-91718000D02*
X53501900Y-92682000D01*
X53541900Y-88707000D02*
X53541900Y-89638000D01*
X53541900Y-91718000D02*
X53541900Y-92649000D01*
X53581900Y-88741000D02*
X53581900Y-89638000D01*
X53581900Y-91718000D02*
X53581900Y-92615000D01*
X53621900Y-88777000D02*
X53621900Y-89638000D01*
X53621900Y-91718000D02*
X53621900Y-92579000D01*
X53661900Y-88814000D02*
X53661900Y-89638000D01*
X53661900Y-91718000D02*
X53661900Y-92542000D01*
X53701900Y-88852000D02*
X53701900Y-89638000D01*
X53701900Y-91718000D02*
X53701900Y-92504000D01*
X53741900Y-88893000D02*
X53741900Y-89638000D01*
X53741900Y-91718000D02*
X53741900Y-92463000D01*
X53781900Y-88935000D02*
X53781900Y-89638000D01*
X53781900Y-91718000D02*
X53781900Y-92421000D01*
X53821900Y-88979000D02*
X53821900Y-89638000D01*
X53821900Y-91718000D02*
X53821900Y-92377000D01*
X53861900Y-89025000D02*
X53861900Y-89638000D01*
X53861900Y-91718000D02*
X53861900Y-92331000D01*
X53901900Y-89073000D02*
X53901900Y-89638000D01*
X53901900Y-91718000D02*
X53901900Y-92283000D01*
X53941900Y-89124000D02*
X53941900Y-89638000D01*
X53941900Y-91718000D02*
X53941900Y-92232000D01*
X53981900Y-89178000D02*
X53981900Y-89638000D01*
X53981900Y-91718000D02*
X53981900Y-92178000D01*
X54021900Y-89235000D02*
X54021900Y-89638000D01*
X54021900Y-91718000D02*
X54021900Y-92121000D01*
X54061900Y-89295000D02*
X54061900Y-89638000D01*
X54061900Y-91718000D02*
X54061900Y-92061000D01*
X54101900Y-89359000D02*
X54101900Y-89638000D01*
X54101900Y-91718000D02*
X54101900Y-91997000D01*
X54141900Y-89427000D02*
X54141900Y-89638000D01*
X54141900Y-91718000D02*
X54141900Y-91929000D01*
X54181900Y-89500000D02*
X54181900Y-91856000D01*
X54221900Y-89580000D02*
X54221900Y-91776000D01*
X54261900Y-89667000D02*
X54261900Y-91689000D01*
X54301900Y-89763000D02*
X54301900Y-91593000D01*
X54341900Y-89873000D02*
X54341900Y-91483000D01*
X54381900Y-90001000D02*
X54381900Y-91355000D01*
X54421900Y-90160000D02*
X54421900Y-91196000D01*
X54461900Y-90394000D02*
X54461900Y-90962000D01*
X54480900Y-90678000D02*
G75*
G03*
X49240900Y-90678000I-2620000J0D01*
G01*
X49240900Y-90678000D02*
G75*
G03*
X54480900Y-90678000I2620000J0D01*
G01*
%TO.C,R1*%
X59294000Y-102712000D02*
X63134000Y-102712000D01*
X59294000Y-104552000D02*
X63134000Y-104552000D01*
%TO.C,D5*%
X58674000Y-61190000D02*
X58674000Y-60540000D01*
X57554000Y-60540000D02*
X59794000Y-60540000D01*
X59794000Y-60540000D02*
X59794000Y-56300000D01*
X57554000Y-59940000D02*
X59794000Y-59940000D01*
X57554000Y-59820000D02*
X59794000Y-59820000D01*
X57554000Y-59700000D02*
X59794000Y-59700000D01*
X57554000Y-56300000D02*
X57554000Y-60540000D01*
X59794000Y-56300000D02*
X57554000Y-56300000D01*
X58674000Y-55650000D02*
X58674000Y-56300000D01*
%TO.C,RV1*%
X83275100Y-84880000D02*
X83275100Y-83820000D01*
X84335100Y-84880000D02*
X83275100Y-84880000D01*
X85335100Y-84880000D02*
X89395100Y-84880000D01*
X85335100Y-84880000D02*
X85335100Y-82760000D01*
X89395100Y-84880000D02*
X89395100Y-82760000D01*
X85335100Y-82760000D02*
X89395100Y-82760000D01*
%TD*%
M02*
