%TF.GenerationSoftware,KiCad,Pcbnew,7.0.10-7.0.10~ubuntu22.04.1*%
%TF.CreationDate,2024-01-09T13:34:05+01:00*%
%TF.ProjectId,pedal,70656461-6c2e-46b6-9963-61645f706362,rev?*%
%TF.SameCoordinates,Original*%
%TF.FileFunction,Drillmap*%
%TF.FilePolarity,Positive*%
%FSLAX45Y45*%
G04 Gerber Fmt 4.5, Leading zero omitted, Abs format (unit mm)*
G04 Created by KiCad (PCBNEW 7.0.10-7.0.10~ubuntu22.04.1) date 2024-01-09 13:34:05*
%MOMM*%
%LPD*%
G01*
G04 APERTURE LIST*
%ADD10C,0.100000*%
%ADD11C,0.200000*%
%ADD12C,0.110000*%
%ADD13C,0.127000*%
%ADD14C,0.130000*%
%ADD15C,0.430000*%
G04 APERTURE END LIST*
D10*
X5029200Y-14376400D02*
X8966200Y-14376400D01*
X9525000Y-13741400D02*
G75*
G03*
X8966200Y-14300200I0J-558800D01*
G01*
X4495800Y-13766800D02*
X4521200Y-13766800D01*
X9017000Y-4114800D02*
G75*
G03*
X9551700Y-4622098I508000J0D01*
G01*
X9017000Y-4038600D02*
X5029200Y-4038600D01*
X9525000Y-13741400D02*
X9575800Y-13741400D01*
X5029200Y-4089400D02*
X5029200Y-4038600D01*
X9017000Y-4114800D02*
X9017000Y-4038600D01*
X4495800Y-4622800D02*
X4495800Y-13766800D01*
X9575800Y-13741400D02*
X9575800Y-4622800D01*
X9575800Y-4622800D02*
X9551700Y-4622098D01*
X4495800Y-4622800D02*
G75*
G03*
X5029200Y-4089400I0J533400D01*
G01*
X8966200Y-14300200D02*
X8966200Y-14376400D01*
X5029200Y-14274800D02*
G75*
G03*
X4521200Y-13766800I-508000J0D01*
G01*
X5029200Y-14274800D02*
X5029200Y-14376400D01*
D11*
D10*
X4811080Y-7828600D02*
X4851080Y-7868600D01*
X4851080Y-7828600D02*
X4811080Y-7868600D01*
X5673030Y-7165260D02*
X5713030Y-7205260D01*
X5713030Y-7165260D02*
X5673030Y-7205260D01*
X5761040Y-7884480D02*
X5801040Y-7924480D01*
X5801040Y-7884480D02*
X5761040Y-7924480D01*
X5800450Y-11329870D02*
X5840450Y-11369870D01*
X5840450Y-11329870D02*
X5800450Y-11369870D01*
X6142040Y-6782120D02*
X6182040Y-6822120D01*
X6182040Y-6782120D02*
X6142040Y-6822120D01*
X6284280Y-9774240D02*
X6324280Y-9814240D01*
X6324280Y-9774240D02*
X6284280Y-9814240D01*
X6343440Y-11378550D02*
X6383440Y-11418550D01*
X6383440Y-11378550D02*
X6343440Y-11418550D01*
X6350320Y-10658160D02*
X6390320Y-10698160D01*
X6390320Y-10658160D02*
X6350320Y-10698160D01*
X6375210Y-10044870D02*
X6415210Y-10084870D01*
X6415210Y-10044870D02*
X6375210Y-10084870D01*
X6457000Y-9073200D02*
X6497000Y-9113200D01*
X6497000Y-9073200D02*
X6457000Y-9113200D01*
X6909120Y-10871520D02*
X6949120Y-10911520D01*
X6949120Y-10871520D02*
X6909120Y-10911520D01*
X6948450Y-10475330D02*
X6988450Y-10515330D01*
X6988450Y-10475330D02*
X6948450Y-10515330D01*
X7110920Y-10462020D02*
X7150920Y-10502020D01*
X7150920Y-10462020D02*
X7110920Y-10502020D01*
X7119620Y-9525040D02*
X7159620Y-9565040D01*
X7159620Y-9525040D02*
X7119620Y-9565040D01*
X7178360Y-6634800D02*
X7218360Y-6674800D01*
X7218360Y-6634800D02*
X7178360Y-6674800D01*
X7414950Y-11690040D02*
X7454950Y-11730040D01*
X7454950Y-11690040D02*
X7414950Y-11730040D01*
X7615240Y-9891080D02*
X7655240Y-9931080D01*
X7655240Y-9891080D02*
X7615240Y-9931080D01*
X7680450Y-9280320D02*
X7720450Y-9320320D01*
X7720450Y-9280320D02*
X7680450Y-9320320D01*
X8235000Y-10637840D02*
X8275000Y-10677840D01*
X8275000Y-10637840D02*
X8235000Y-10677840D01*
X8585060Y-11378550D02*
X8625060Y-11418550D01*
X8625060Y-11378550D02*
X8585060Y-11418550D01*
X6970690Y-12014200D02*
G75*
G03*
X6910690Y-12014200I-30000J0D01*
G01*
X6910690Y-12014200D02*
G75*
G03*
X6970690Y-12014200I30000J0D01*
G01*
X7170690Y-12014200D02*
G75*
G03*
X7110690Y-12014200I-30000J0D01*
G01*
X7110690Y-12014200D02*
G75*
G03*
X7170690Y-12014200I30000J0D01*
G01*
X8564400Y-10998200D02*
G75*
G03*
X8504400Y-10998200I-30000J0D01*
G01*
X8504400Y-10998200D02*
G75*
G03*
X8564400Y-10998200I30000J0D01*
G01*
X8714400Y-10998200D02*
G75*
G03*
X8654400Y-10998200I-30000J0D01*
G01*
X8654400Y-10998200D02*
G75*
G03*
X8714400Y-10998200I30000J0D01*
G01*
X6908800Y-8628900D02*
X6908800Y-8693900D01*
X6876300Y-8661400D02*
X6941300Y-8661400D01*
X7035800Y-8628900D02*
X7035800Y-8693900D01*
X7003300Y-8661400D02*
X7068300Y-8661400D01*
X7162800Y-8628900D02*
X7162800Y-8693900D01*
X7130300Y-8661400D02*
X7195300Y-8661400D01*
X4901549Y-6704949D02*
X4901549Y-6655451D01*
X4852051Y-6655451D01*
X4852051Y-6704949D01*
X4901549Y-6704949D01*
X4901549Y-7019949D02*
X4901549Y-6970451D01*
X4852051Y-6970451D01*
X4852051Y-7019949D01*
X4901549Y-7019949D01*
X5409549Y-6704949D02*
X5409549Y-6655451D01*
X5360051Y-6655451D01*
X5360051Y-6704949D01*
X5409549Y-6704949D01*
X5409549Y-7019949D02*
X5409549Y-6970451D01*
X5360051Y-6970451D01*
X5360051Y-7019949D01*
X5409549Y-7019949D01*
X5866749Y-11988149D02*
X5866749Y-11938651D01*
X5817251Y-11938651D01*
X5817251Y-11988149D01*
X5866749Y-11988149D01*
X5892149Y-10387949D02*
X5892149Y-10338451D01*
X5842651Y-10338451D01*
X5842651Y-10387949D01*
X5892149Y-10387949D01*
X5892149Y-11708749D02*
X5892149Y-11659251D01*
X5842651Y-11659251D01*
X5842651Y-11708749D01*
X5892149Y-11708749D01*
X6374749Y-11988149D02*
X6374749Y-11938651D01*
X6325251Y-11938651D01*
X6325251Y-11988149D01*
X6374749Y-11988149D01*
X6400149Y-10387949D02*
X6400149Y-10338451D01*
X6350651Y-10338451D01*
X6350651Y-10387949D01*
X6400149Y-10387949D01*
X6400149Y-11708749D02*
X6400149Y-11659251D01*
X6350651Y-11659251D01*
X6350651Y-11708749D01*
X6400149Y-11708749D01*
X6806549Y-8990949D02*
X6806549Y-8941451D01*
X6757051Y-8941451D01*
X6757051Y-8990949D01*
X6806549Y-8990949D01*
X7314549Y-8990949D02*
X7314549Y-8941451D01*
X7265051Y-8941451D01*
X7265051Y-8990949D01*
X7314549Y-8990949D01*
X7720949Y-10387949D02*
X7720949Y-10338451D01*
X7671451Y-10338451D01*
X7671451Y-10387949D01*
X7720949Y-10387949D01*
X7746349Y-11734149D02*
X7746349Y-11684651D01*
X7696851Y-11684651D01*
X7696851Y-11734149D01*
X7746349Y-11734149D01*
X7771749Y-12038949D02*
X7771749Y-11989451D01*
X7722251Y-11989451D01*
X7722251Y-12038949D01*
X7771749Y-12038949D01*
X7873349Y-9194149D02*
X7873349Y-9144651D01*
X7823851Y-9144651D01*
X7823851Y-9194149D01*
X7873349Y-9194149D01*
X7873349Y-9702149D02*
X7873349Y-9652651D01*
X7823851Y-9652651D01*
X7823851Y-9702149D01*
X7873349Y-9702149D01*
X7898749Y-8330549D02*
X7898749Y-8281051D01*
X7849251Y-8281051D01*
X7849251Y-8330549D01*
X7898749Y-8330549D01*
X7898749Y-8838549D02*
X7898749Y-8789051D01*
X7849251Y-8789051D01*
X7849251Y-8838549D01*
X7898749Y-8838549D01*
X8228949Y-10387949D02*
X8228949Y-10338451D01*
X8179451Y-10338451D01*
X8179451Y-10387949D01*
X8228949Y-10387949D01*
X8254349Y-11734149D02*
X8254349Y-11684651D01*
X8204851Y-11684651D01*
X8204851Y-11734149D01*
X8254349Y-11734149D01*
X8279749Y-12038949D02*
X8279749Y-11989451D01*
X8230251Y-11989451D01*
X8230251Y-12038949D01*
X8279749Y-12038949D01*
X8406749Y-8762349D02*
X8406749Y-8712851D01*
X8357251Y-8712851D01*
X8357251Y-8762349D01*
X8406749Y-8762349D01*
X8457549Y-9854549D02*
X8457549Y-9805051D01*
X8408051Y-9805051D01*
X8408051Y-9854549D01*
X8457549Y-9854549D01*
X8914749Y-8762349D02*
X8914749Y-8712851D01*
X8865251Y-8712851D01*
X8865251Y-8762349D01*
X8914749Y-8762349D01*
X8965549Y-9854549D02*
X8965549Y-9805051D01*
X8916051Y-9805051D01*
X8916051Y-9854549D01*
X8965549Y-9854549D01*
X4876800Y-7507600D02*
X4916800Y-7467600D01*
X4876800Y-7427600D01*
X4836800Y-7467600D01*
X4876800Y-7507600D01*
X5029200Y-6212200D02*
X5069200Y-6172200D01*
X5029200Y-6132200D01*
X4989200Y-6172200D01*
X5029200Y-6212200D01*
X5061090Y-9107800D02*
X5101090Y-9067800D01*
X5061090Y-9027800D01*
X5021090Y-9067800D01*
X5061090Y-9107800D01*
X5063360Y-8269600D02*
X5103360Y-8229600D01*
X5063360Y-8189600D01*
X5023360Y-8229600D01*
X5063360Y-8269600D01*
X5084000Y-9996800D02*
X5124000Y-9956800D01*
X5084000Y-9916800D01*
X5044000Y-9956800D01*
X5084000Y-9996800D01*
X5229200Y-6212200D02*
X5269200Y-6172200D01*
X5229200Y-6132200D01*
X5189200Y-6172200D01*
X5229200Y-6212200D01*
X5311090Y-9107800D02*
X5351090Y-9067800D01*
X5311090Y-9027800D01*
X5271090Y-9067800D01*
X5311090Y-9107800D01*
X5313360Y-8269600D02*
X5353360Y-8229600D01*
X5313360Y-8189600D01*
X5273360Y-8229600D01*
X5313360Y-8269600D01*
X5334000Y-9996800D02*
X5374000Y-9956800D01*
X5334000Y-9916800D01*
X5294000Y-9956800D01*
X5334000Y-9996800D01*
X5638800Y-7507600D02*
X5678800Y-7467600D01*
X5638800Y-7427600D01*
X5598800Y-7467600D01*
X5638800Y-7507600D01*
X5867400Y-5501000D02*
X5907400Y-5461000D01*
X5867400Y-5421000D01*
X5827400Y-5461000D01*
X5867400Y-5501000D01*
X5867400Y-6263000D02*
X5907400Y-6223000D01*
X5867400Y-6183000D01*
X5827400Y-6223000D01*
X5867400Y-6263000D01*
X5918200Y-8193400D02*
X5958200Y-8153400D01*
X5918200Y-8113400D01*
X5878200Y-8153400D01*
X5918200Y-8193400D01*
X5972200Y-9133200D02*
X6012200Y-9093200D01*
X5972200Y-9053200D01*
X5932200Y-9093200D01*
X5972200Y-9133200D01*
X5998400Y-11012800D02*
X6038400Y-10972800D01*
X5998400Y-10932800D01*
X5958400Y-10972800D01*
X5998400Y-11012800D01*
X6168200Y-8193400D02*
X6208200Y-8153400D01*
X6168200Y-8113400D01*
X6128200Y-8153400D01*
X6168200Y-8193400D01*
X6172200Y-9133200D02*
X6212200Y-9093200D01*
X6172200Y-9053200D01*
X6132200Y-9093200D01*
X6172200Y-9133200D01*
X6248400Y-11012800D02*
X6288400Y-10972800D01*
X6248400Y-10932800D01*
X6208400Y-10972800D01*
X6248400Y-11012800D01*
X6680200Y-9895200D02*
X6720200Y-9855200D01*
X6680200Y-9815200D01*
X6640200Y-9855200D01*
X6680200Y-9895200D01*
X6680200Y-10149200D02*
X6720200Y-10109200D01*
X6680200Y-10069200D01*
X6640200Y-10109200D01*
X6680200Y-10149200D01*
X6680200Y-10403200D02*
X6720200Y-10363200D01*
X6680200Y-10323200D01*
X6640200Y-10363200D01*
X6680200Y-10403200D01*
X6680200Y-10657200D02*
X6720200Y-10617200D01*
X6680200Y-10577200D01*
X6640200Y-10617200D01*
X6680200Y-10657200D01*
X6680200Y-10911200D02*
X6720200Y-10871200D01*
X6680200Y-10831200D01*
X6640200Y-10871200D01*
X6680200Y-10911200D01*
X6680200Y-11165200D02*
X6720200Y-11125200D01*
X6680200Y-11085200D01*
X6640200Y-11125200D01*
X6680200Y-11165200D01*
X6680200Y-11419200D02*
X6720200Y-11379200D01*
X6680200Y-11339200D01*
X6640200Y-11379200D01*
X6680200Y-11419200D01*
X6785000Y-8269600D02*
X6825000Y-8229600D01*
X6785000Y-8189600D01*
X6745000Y-8229600D01*
X6785000Y-8269600D01*
X6785000Y-13984600D02*
X6825000Y-13944600D01*
X6785000Y-13904600D01*
X6745000Y-13944600D01*
X6785000Y-13984600D01*
X6823760Y-4911720D02*
X6863760Y-4871720D01*
X6823760Y-4831720D01*
X6783760Y-4871720D01*
X6823760Y-4911720D01*
X6942480Y-4566280D02*
X6982480Y-4526280D01*
X6942480Y-4486280D01*
X6902480Y-4526280D01*
X6942480Y-4566280D01*
X6985000Y-8269600D02*
X7025000Y-8229600D01*
X6985000Y-8189600D01*
X6945000Y-8229600D01*
X6985000Y-8269600D01*
X6985000Y-13984600D02*
X7025000Y-13944600D01*
X6985000Y-13904600D01*
X6945000Y-13944600D01*
X6985000Y-13984600D01*
X7023760Y-4911720D02*
X7063760Y-4871720D01*
X7023760Y-4831720D01*
X6983760Y-4871720D01*
X7023760Y-4911720D01*
X7142480Y-4566280D02*
X7182480Y-4526280D01*
X7142480Y-4486280D01*
X7102480Y-4526280D01*
X7142480Y-4566280D01*
X7185000Y-8269600D02*
X7225000Y-8229600D01*
X7185000Y-8189600D01*
X7145000Y-8229600D01*
X7185000Y-8269600D01*
X7185000Y-13984600D02*
X7225000Y-13944600D01*
X7185000Y-13904600D01*
X7145000Y-13944600D01*
X7185000Y-13984600D01*
X7223760Y-4911720D02*
X7263760Y-4871720D01*
X7223760Y-4831720D01*
X7183760Y-4871720D01*
X7223760Y-4911720D01*
X7442200Y-9895200D02*
X7482200Y-9855200D01*
X7442200Y-9815200D01*
X7402200Y-9855200D01*
X7442200Y-9895200D01*
X7442200Y-10149200D02*
X7482200Y-10109200D01*
X7442200Y-10069200D01*
X7402200Y-10109200D01*
X7442200Y-10149200D01*
X7442200Y-10403200D02*
X7482200Y-10363200D01*
X7442200Y-10323200D01*
X7402200Y-10363200D01*
X7442200Y-10403200D01*
X7442200Y-10657200D02*
X7482200Y-10617200D01*
X7442200Y-10577200D01*
X7402200Y-10617200D01*
X7442200Y-10657200D01*
X7442200Y-10911200D02*
X7482200Y-10871200D01*
X7442200Y-10831200D01*
X7402200Y-10871200D01*
X7442200Y-10911200D01*
X7442200Y-11165200D02*
X7482200Y-11125200D01*
X7442200Y-11085200D01*
X7402200Y-11125200D01*
X7442200Y-11165200D01*
X7442200Y-11419200D02*
X7482200Y-11379200D01*
X7442200Y-11339200D01*
X7402200Y-11379200D01*
X7442200Y-11419200D01*
X7775600Y-7380600D02*
X7815600Y-7340600D01*
X7775600Y-7300600D01*
X7735600Y-7340600D01*
X7775600Y-7380600D01*
X7829690Y-11012800D02*
X7869690Y-10972800D01*
X7829690Y-10932800D01*
X7789690Y-10972800D01*
X7829690Y-11012800D01*
X7975600Y-7380600D02*
X8015600Y-7340600D01*
X7975600Y-7300600D01*
X7935600Y-7340600D01*
X7975600Y-7380600D01*
X8079690Y-11012800D02*
X8119690Y-10972800D01*
X8079690Y-10932800D01*
X8039690Y-10972800D01*
X8079690Y-11012800D01*
X8178800Y-5551800D02*
X8218800Y-5511800D01*
X8178800Y-5471800D01*
X8138800Y-5511800D01*
X8178800Y-5551800D01*
X8178800Y-6313800D02*
X8218800Y-6273800D01*
X8178800Y-6233800D01*
X8138800Y-6273800D01*
X8178800Y-6313800D01*
X8260400Y-9167800D02*
X8300400Y-9127800D01*
X8260400Y-9087800D01*
X8220400Y-9127800D01*
X8260400Y-9167800D01*
X8260400Y-9522800D02*
X8300400Y-9482800D01*
X8260400Y-9442800D01*
X8220400Y-9482800D01*
X8260400Y-9522800D01*
X8433510Y-8422000D02*
X8473510Y-8382000D01*
X8433510Y-8342000D01*
X8393510Y-8382000D01*
X8433510Y-8422000D01*
X8487600Y-7025000D02*
X8527600Y-6985000D01*
X8487600Y-6945000D01*
X8447600Y-6985000D01*
X8487600Y-7025000D01*
X8487600Y-7680000D02*
X8527600Y-7640000D01*
X8487600Y-7600000D01*
X8447600Y-7640000D01*
X8487600Y-7680000D01*
X8633510Y-8422000D02*
X8673510Y-8382000D01*
X8633510Y-8342000D01*
X8593510Y-8382000D01*
X8633510Y-8422000D01*
X8737600Y-7025000D02*
X8777600Y-6985000D01*
X8737600Y-6945000D01*
X8697600Y-6985000D01*
X8737600Y-7025000D01*
X8737600Y-7680000D02*
X8777600Y-7640000D01*
X8737600Y-7600000D01*
X8697600Y-7640000D01*
X8737600Y-7680000D01*
X8833510Y-8422000D02*
X8873510Y-8382000D01*
X8833510Y-8342000D01*
X8793510Y-8382000D01*
X8833510Y-8422000D01*
X9022400Y-9167800D02*
X9062400Y-9127800D01*
X9022400Y-9087800D01*
X8982400Y-9127800D01*
X9022400Y-9167800D01*
X9022400Y-9522800D02*
X9062400Y-9482800D01*
X9022400Y-9442800D01*
X8982400Y-9482800D01*
X9022400Y-9522800D01*
D12*
X6650600Y-9216000D02*
X6760600Y-9326000D01*
X6760600Y-9216000D02*
X6650600Y-9326000D01*
X6760600Y-9271000D02*
G75*
G03*
X6650600Y-9271000I-55000J0D01*
G01*
X6650600Y-9271000D02*
G75*
G03*
X6760600Y-9271000I55000J0D01*
G01*
X7412600Y-9216000D02*
X7522600Y-9326000D01*
X7522600Y-9216000D02*
X7412600Y-9326000D01*
X7522600Y-9271000D02*
G75*
G03*
X7412600Y-9271000I-55000J0D01*
G01*
X7412600Y-9271000D02*
G75*
G03*
X7522600Y-9271000I55000J0D01*
G01*
D13*
X6464300Y-5346700D02*
X6591300Y-5473700D01*
X6591300Y-5346700D02*
X6464300Y-5473700D01*
X6527800Y-5346700D02*
X6527800Y-5473700D01*
X6464300Y-5410200D02*
X6591300Y-5410200D01*
X6464300Y-5822950D02*
X6591300Y-5949950D01*
X6591300Y-5822950D02*
X6464300Y-5949950D01*
X6527800Y-5822950D02*
X6527800Y-5949950D01*
X6464300Y-5886450D02*
X6591300Y-5886450D01*
X6464300Y-6299200D02*
X6591300Y-6426200D01*
X6591300Y-6299200D02*
X6464300Y-6426200D01*
X6527800Y-6299200D02*
X6527800Y-6426200D01*
X6464300Y-6362700D02*
X6591300Y-6362700D01*
X7533640Y-5346700D02*
X7660640Y-5473700D01*
X7660640Y-5346700D02*
X7533640Y-5473700D01*
X7597140Y-5346700D02*
X7597140Y-5473700D01*
X7533640Y-5410200D02*
X7660640Y-5410200D01*
X7533640Y-5822950D02*
X7660640Y-5949950D01*
X7660640Y-5822950D02*
X7533640Y-5949950D01*
X7597140Y-5822950D02*
X7597140Y-5949950D01*
X7533640Y-5886450D02*
X7660640Y-5886450D01*
X7533640Y-6299200D02*
X7660640Y-6426200D01*
X7660640Y-6299200D02*
X7533640Y-6426200D01*
X7597140Y-6299200D02*
X7597140Y-6426200D01*
X7533640Y-6362700D02*
X7660640Y-6362700D01*
D14*
X6720800Y-7002600D02*
X6850800Y-7132600D01*
X6850800Y-7002600D02*
X6720800Y-7132600D01*
X6831762Y-7113562D02*
X6831762Y-7021638D01*
X6739838Y-7021638D01*
X6739838Y-7113562D01*
X6831762Y-7113562D01*
X6720800Y-7402600D02*
X6850800Y-7532600D01*
X6850800Y-7402600D02*
X6720800Y-7532600D01*
X6831762Y-7513562D02*
X6831762Y-7421638D01*
X6739838Y-7421638D01*
X6739838Y-7513562D01*
X6831762Y-7513562D01*
X6720800Y-7802600D02*
X6850800Y-7932600D01*
X6850800Y-7802600D02*
X6720800Y-7932600D01*
X6831762Y-7913562D02*
X6831762Y-7821638D01*
X6739838Y-7821638D01*
X6739838Y-7913562D01*
X6831762Y-7913562D01*
X6724800Y-12584200D02*
X6854800Y-12714200D01*
X6854800Y-12584200D02*
X6724800Y-12714200D01*
X6835762Y-12695162D02*
X6835762Y-12603238D01*
X6743838Y-12603238D01*
X6743838Y-12695162D01*
X6835762Y-12695162D01*
X6724800Y-12984200D02*
X6854800Y-13114200D01*
X6854800Y-12984200D02*
X6724800Y-13114200D01*
X6835762Y-13095162D02*
X6835762Y-13003238D01*
X6743838Y-13003238D01*
X6743838Y-13095162D01*
X6835762Y-13095162D01*
X6724800Y-13384200D02*
X6854800Y-13514200D01*
X6854800Y-13384200D02*
X6724800Y-13514200D01*
X6835762Y-13495162D02*
X6835762Y-13403238D01*
X6743838Y-13403238D01*
X6743838Y-13495162D01*
X6835762Y-13495162D01*
X7220800Y-7002600D02*
X7350800Y-7132600D01*
X7350800Y-7002600D02*
X7220800Y-7132600D01*
X7331762Y-7113562D02*
X7331762Y-7021638D01*
X7239838Y-7021638D01*
X7239838Y-7113562D01*
X7331762Y-7113562D01*
X7220800Y-7402600D02*
X7350800Y-7532600D01*
X7350800Y-7402600D02*
X7220800Y-7532600D01*
X7331762Y-7513562D02*
X7331762Y-7421638D01*
X7239838Y-7421638D01*
X7239838Y-7513562D01*
X7331762Y-7513562D01*
X7220800Y-7802600D02*
X7350800Y-7932600D01*
X7350800Y-7802600D02*
X7220800Y-7932600D01*
X7331762Y-7913562D02*
X7331762Y-7821638D01*
X7239838Y-7821638D01*
X7239838Y-7913562D01*
X7331762Y-7913562D01*
X7224800Y-12584200D02*
X7354800Y-12714200D01*
X7354800Y-12584200D02*
X7224800Y-12714200D01*
X7335762Y-12695162D02*
X7335762Y-12603238D01*
X7243838Y-12603238D01*
X7243838Y-12695162D01*
X7335762Y-12695162D01*
X7224800Y-12984200D02*
X7354800Y-13114200D01*
X7354800Y-12984200D02*
X7224800Y-13114200D01*
X7335762Y-13095162D02*
X7335762Y-13003238D01*
X7243838Y-13003238D01*
X7243838Y-13095162D01*
X7335762Y-13095162D01*
X7224800Y-13384200D02*
X7354800Y-13514200D01*
X7354800Y-13384200D02*
X7224800Y-13514200D01*
X7335762Y-13495162D02*
X7335762Y-13403238D01*
X7243838Y-13403238D01*
X7243838Y-13495162D01*
X7335762Y-13495162D01*
D15*
X5093600Y-4712600D02*
X5523600Y-5142600D01*
X5523600Y-4712600D02*
X5093600Y-5142600D01*
X5308600Y-5142600D02*
X5523600Y-4927600D01*
X5308600Y-4712600D01*
X5093600Y-4927600D01*
X5308600Y-5142600D01*
X5119000Y-13120000D02*
X5549000Y-13550000D01*
X5549000Y-13120000D02*
X5119000Y-13550000D01*
X5334000Y-13550000D02*
X5549000Y-13335000D01*
X5334000Y-13120000D01*
X5119000Y-13335000D01*
X5334000Y-13550000D01*
X8421000Y-4712600D02*
X8851000Y-5142600D01*
X8851000Y-4712600D02*
X8421000Y-5142600D01*
X8636000Y-5142600D02*
X8851000Y-4927600D01*
X8636000Y-4712600D01*
X8421000Y-4927600D01*
X8636000Y-5142600D01*
X8578480Y-13104760D02*
X9008480Y-13534760D01*
X9008480Y-13104760D02*
X8578480Y-13534760D01*
X8793480Y-13534760D02*
X9008480Y-13319760D01*
X8793480Y-13104760D01*
X8578480Y-13319760D01*
X8793480Y-13534760D01*
D11*
X4751577Y-14692884D02*
X4751577Y-14492884D01*
X4751577Y-14492884D02*
X4799196Y-14492884D01*
X4799196Y-14492884D02*
X4827767Y-14502408D01*
X4827767Y-14502408D02*
X4846815Y-14521455D01*
X4846815Y-14521455D02*
X4856339Y-14540503D01*
X4856339Y-14540503D02*
X4865863Y-14578598D01*
X4865863Y-14578598D02*
X4865863Y-14607169D01*
X4865863Y-14607169D02*
X4856339Y-14645265D01*
X4856339Y-14645265D02*
X4846815Y-14664312D01*
X4846815Y-14664312D02*
X4827767Y-14683360D01*
X4827767Y-14683360D02*
X4799196Y-14692884D01*
X4799196Y-14692884D02*
X4751577Y-14692884D01*
X4951577Y-14692884D02*
X4951577Y-14559550D01*
X4951577Y-14597646D02*
X4961101Y-14578598D01*
X4961101Y-14578598D02*
X4970624Y-14569074D01*
X4970624Y-14569074D02*
X4989672Y-14559550D01*
X4989672Y-14559550D02*
X5008720Y-14559550D01*
X5075386Y-14692884D02*
X5075386Y-14559550D01*
X5075386Y-14492884D02*
X5065863Y-14502408D01*
X5065863Y-14502408D02*
X5075386Y-14511931D01*
X5075386Y-14511931D02*
X5084910Y-14502408D01*
X5084910Y-14502408D02*
X5075386Y-14492884D01*
X5075386Y-14492884D02*
X5075386Y-14511931D01*
X5199196Y-14692884D02*
X5180148Y-14683360D01*
X5180148Y-14683360D02*
X5170624Y-14664312D01*
X5170624Y-14664312D02*
X5170624Y-14492884D01*
X5303958Y-14692884D02*
X5284910Y-14683360D01*
X5284910Y-14683360D02*
X5275386Y-14664312D01*
X5275386Y-14664312D02*
X5275386Y-14492884D01*
X5532529Y-14692884D02*
X5532529Y-14492884D01*
X5532529Y-14492884D02*
X5599196Y-14635741D01*
X5599196Y-14635741D02*
X5665862Y-14492884D01*
X5665862Y-14492884D02*
X5665862Y-14692884D01*
X5846815Y-14692884D02*
X5846815Y-14588122D01*
X5846815Y-14588122D02*
X5837291Y-14569074D01*
X5837291Y-14569074D02*
X5818243Y-14559550D01*
X5818243Y-14559550D02*
X5780148Y-14559550D01*
X5780148Y-14559550D02*
X5761101Y-14569074D01*
X5846815Y-14683360D02*
X5827767Y-14692884D01*
X5827767Y-14692884D02*
X5780148Y-14692884D01*
X5780148Y-14692884D02*
X5761101Y-14683360D01*
X5761101Y-14683360D02*
X5751577Y-14664312D01*
X5751577Y-14664312D02*
X5751577Y-14645265D01*
X5751577Y-14645265D02*
X5761101Y-14626217D01*
X5761101Y-14626217D02*
X5780148Y-14616693D01*
X5780148Y-14616693D02*
X5827767Y-14616693D01*
X5827767Y-14616693D02*
X5846815Y-14607169D01*
X5942053Y-14559550D02*
X5942053Y-14759550D01*
X5942053Y-14569074D02*
X5961101Y-14559550D01*
X5961101Y-14559550D02*
X5999196Y-14559550D01*
X5999196Y-14559550D02*
X6018243Y-14569074D01*
X6018243Y-14569074D02*
X6027767Y-14578598D01*
X6027767Y-14578598D02*
X6037291Y-14597646D01*
X6037291Y-14597646D02*
X6037291Y-14654788D01*
X6037291Y-14654788D02*
X6027767Y-14673836D01*
X6027767Y-14673836D02*
X6018243Y-14683360D01*
X6018243Y-14683360D02*
X5999196Y-14692884D01*
X5999196Y-14692884D02*
X5961101Y-14692884D01*
X5961101Y-14692884D02*
X5942053Y-14683360D01*
X6123005Y-14673836D02*
X6132529Y-14683360D01*
X6132529Y-14683360D02*
X6123005Y-14692884D01*
X6123005Y-14692884D02*
X6113482Y-14683360D01*
X6113482Y-14683360D02*
X6123005Y-14673836D01*
X6123005Y-14673836D02*
X6123005Y-14692884D01*
X6123005Y-14569074D02*
X6132529Y-14578598D01*
X6132529Y-14578598D02*
X6123005Y-14588122D01*
X6123005Y-14588122D02*
X6113482Y-14578598D01*
X6113482Y-14578598D02*
X6123005Y-14569074D01*
X6123005Y-14569074D02*
X6123005Y-14588122D01*
D10*
X4450800Y-15001400D02*
X4490800Y-15041400D01*
X4490800Y-15001400D02*
X4450800Y-15041400D01*
D11*
X4789672Y-14912884D02*
X4808720Y-14912884D01*
X4808720Y-14912884D02*
X4827767Y-14922408D01*
X4827767Y-14922408D02*
X4837291Y-14931931D01*
X4837291Y-14931931D02*
X4846815Y-14950979D01*
X4846815Y-14950979D02*
X4856339Y-14989074D01*
X4856339Y-14989074D02*
X4856339Y-15036693D01*
X4856339Y-15036693D02*
X4846815Y-15074788D01*
X4846815Y-15074788D02*
X4837291Y-15093836D01*
X4837291Y-15093836D02*
X4827767Y-15103360D01*
X4827767Y-15103360D02*
X4808720Y-15112884D01*
X4808720Y-15112884D02*
X4789672Y-15112884D01*
X4789672Y-15112884D02*
X4770624Y-15103360D01*
X4770624Y-15103360D02*
X4761101Y-15093836D01*
X4761101Y-15093836D02*
X4751577Y-15074788D01*
X4751577Y-15074788D02*
X4742053Y-15036693D01*
X4742053Y-15036693D02*
X4742053Y-14989074D01*
X4742053Y-14989074D02*
X4751577Y-14950979D01*
X4751577Y-14950979D02*
X4761101Y-14931931D01*
X4761101Y-14931931D02*
X4770624Y-14922408D01*
X4770624Y-14922408D02*
X4789672Y-14912884D01*
X4942053Y-15093836D02*
X4951577Y-15103360D01*
X4951577Y-15103360D02*
X4942053Y-15112884D01*
X4942053Y-15112884D02*
X4932529Y-15103360D01*
X4932529Y-15103360D02*
X4942053Y-15093836D01*
X4942053Y-15093836D02*
X4942053Y-15112884D01*
X5123005Y-14979550D02*
X5123005Y-15112884D01*
X5075386Y-14903360D02*
X5027767Y-15046217D01*
X5027767Y-15046217D02*
X5151577Y-15046217D01*
X5265863Y-14912884D02*
X5284910Y-14912884D01*
X5284910Y-14912884D02*
X5303958Y-14922408D01*
X5303958Y-14922408D02*
X5313482Y-14931931D01*
X5313482Y-14931931D02*
X5323005Y-14950979D01*
X5323005Y-14950979D02*
X5332529Y-14989074D01*
X5332529Y-14989074D02*
X5332529Y-15036693D01*
X5332529Y-15036693D02*
X5323005Y-15074788D01*
X5323005Y-15074788D02*
X5313482Y-15093836D01*
X5313482Y-15093836D02*
X5303958Y-15103360D01*
X5303958Y-15103360D02*
X5284910Y-15112884D01*
X5284910Y-15112884D02*
X5265863Y-15112884D01*
X5265863Y-15112884D02*
X5246815Y-15103360D01*
X5246815Y-15103360D02*
X5237291Y-15093836D01*
X5237291Y-15093836D02*
X5227767Y-15074788D01*
X5227767Y-15074788D02*
X5218244Y-15036693D01*
X5218244Y-15036693D02*
X5218244Y-14989074D01*
X5218244Y-14989074D02*
X5227767Y-14950979D01*
X5227767Y-14950979D02*
X5237291Y-14931931D01*
X5237291Y-14931931D02*
X5246815Y-14922408D01*
X5246815Y-14922408D02*
X5265863Y-14912884D01*
X5456339Y-14912884D02*
X5475386Y-14912884D01*
X5475386Y-14912884D02*
X5494434Y-14922408D01*
X5494434Y-14922408D02*
X5503958Y-14931931D01*
X5503958Y-14931931D02*
X5513482Y-14950979D01*
X5513482Y-14950979D02*
X5523005Y-14989074D01*
X5523005Y-14989074D02*
X5523005Y-15036693D01*
X5523005Y-15036693D02*
X5513482Y-15074788D01*
X5513482Y-15074788D02*
X5503958Y-15093836D01*
X5503958Y-15093836D02*
X5494434Y-15103360D01*
X5494434Y-15103360D02*
X5475386Y-15112884D01*
X5475386Y-15112884D02*
X5456339Y-15112884D01*
X5456339Y-15112884D02*
X5437291Y-15103360D01*
X5437291Y-15103360D02*
X5427767Y-15093836D01*
X5427767Y-15093836D02*
X5418244Y-15074788D01*
X5418244Y-15074788D02*
X5408720Y-15036693D01*
X5408720Y-15036693D02*
X5408720Y-14989074D01*
X5408720Y-14989074D02*
X5418244Y-14950979D01*
X5418244Y-14950979D02*
X5427767Y-14931931D01*
X5427767Y-14931931D02*
X5437291Y-14922408D01*
X5437291Y-14922408D02*
X5456339Y-14912884D01*
X5608720Y-15112884D02*
X5608720Y-14979550D01*
X5608720Y-14998598D02*
X5618243Y-14989074D01*
X5618243Y-14989074D02*
X5637291Y-14979550D01*
X5637291Y-14979550D02*
X5665863Y-14979550D01*
X5665863Y-14979550D02*
X5684910Y-14989074D01*
X5684910Y-14989074D02*
X5694434Y-15008122D01*
X5694434Y-15008122D02*
X5694434Y-15112884D01*
X5694434Y-15008122D02*
X5703958Y-14989074D01*
X5703958Y-14989074D02*
X5723005Y-14979550D01*
X5723005Y-14979550D02*
X5751577Y-14979550D01*
X5751577Y-14979550D02*
X5770624Y-14989074D01*
X5770624Y-14989074D02*
X5780148Y-15008122D01*
X5780148Y-15008122D02*
X5780148Y-15112884D01*
X5875386Y-15112884D02*
X5875386Y-14979550D01*
X5875386Y-14998598D02*
X5884910Y-14989074D01*
X5884910Y-14989074D02*
X5903958Y-14979550D01*
X5903958Y-14979550D02*
X5932529Y-14979550D01*
X5932529Y-14979550D02*
X5951577Y-14989074D01*
X5951577Y-14989074D02*
X5961101Y-15008122D01*
X5961101Y-15008122D02*
X5961101Y-15112884D01*
X5961101Y-15008122D02*
X5970624Y-14989074D01*
X5970624Y-14989074D02*
X5989672Y-14979550D01*
X5989672Y-14979550D02*
X6018243Y-14979550D01*
X6018243Y-14979550D02*
X6037291Y-14989074D01*
X6037291Y-14989074D02*
X6046815Y-15008122D01*
X6046815Y-15008122D02*
X6046815Y-15112884D01*
X6437291Y-14903360D02*
X6265863Y-15160503D01*
X6694434Y-14912884D02*
X6713482Y-14912884D01*
X6713482Y-14912884D02*
X6732529Y-14922408D01*
X6732529Y-14922408D02*
X6742053Y-14931931D01*
X6742053Y-14931931D02*
X6751577Y-14950979D01*
X6751577Y-14950979D02*
X6761101Y-14989074D01*
X6761101Y-14989074D02*
X6761101Y-15036693D01*
X6761101Y-15036693D02*
X6751577Y-15074788D01*
X6751577Y-15074788D02*
X6742053Y-15093836D01*
X6742053Y-15093836D02*
X6732529Y-15103360D01*
X6732529Y-15103360D02*
X6713482Y-15112884D01*
X6713482Y-15112884D02*
X6694434Y-15112884D01*
X6694434Y-15112884D02*
X6675386Y-15103360D01*
X6675386Y-15103360D02*
X6665863Y-15093836D01*
X6665863Y-15093836D02*
X6656339Y-15074788D01*
X6656339Y-15074788D02*
X6646815Y-15036693D01*
X6646815Y-15036693D02*
X6646815Y-14989074D01*
X6646815Y-14989074D02*
X6656339Y-14950979D01*
X6656339Y-14950979D02*
X6665863Y-14931931D01*
X6665863Y-14931931D02*
X6675386Y-14922408D01*
X6675386Y-14922408D02*
X6694434Y-14912884D01*
X6846815Y-15093836D02*
X6856339Y-15103360D01*
X6856339Y-15103360D02*
X6846815Y-15112884D01*
X6846815Y-15112884D02*
X6837291Y-15103360D01*
X6837291Y-15103360D02*
X6846815Y-15093836D01*
X6846815Y-15093836D02*
X6846815Y-15112884D01*
X6980148Y-14912884D02*
X6999196Y-14912884D01*
X6999196Y-14912884D02*
X7018244Y-14922408D01*
X7018244Y-14922408D02*
X7027767Y-14931931D01*
X7027767Y-14931931D02*
X7037291Y-14950979D01*
X7037291Y-14950979D02*
X7046815Y-14989074D01*
X7046815Y-14989074D02*
X7046815Y-15036693D01*
X7046815Y-15036693D02*
X7037291Y-15074788D01*
X7037291Y-15074788D02*
X7027767Y-15093836D01*
X7027767Y-15093836D02*
X7018244Y-15103360D01*
X7018244Y-15103360D02*
X6999196Y-15112884D01*
X6999196Y-15112884D02*
X6980148Y-15112884D01*
X6980148Y-15112884D02*
X6961101Y-15103360D01*
X6961101Y-15103360D02*
X6951577Y-15093836D01*
X6951577Y-15093836D02*
X6942053Y-15074788D01*
X6942053Y-15074788D02*
X6932529Y-15036693D01*
X6932529Y-15036693D02*
X6932529Y-14989074D01*
X6932529Y-14989074D02*
X6942053Y-14950979D01*
X6942053Y-14950979D02*
X6951577Y-14931931D01*
X6951577Y-14931931D02*
X6961101Y-14922408D01*
X6961101Y-14922408D02*
X6980148Y-14912884D01*
X7237291Y-15112884D02*
X7123006Y-15112884D01*
X7180148Y-15112884D02*
X7180148Y-14912884D01*
X7180148Y-14912884D02*
X7161101Y-14941455D01*
X7161101Y-14941455D02*
X7142053Y-14960503D01*
X7142053Y-14960503D02*
X7123006Y-14970027D01*
X7418244Y-14912884D02*
X7323006Y-14912884D01*
X7323006Y-14912884D02*
X7313482Y-15008122D01*
X7313482Y-15008122D02*
X7323006Y-14998598D01*
X7323006Y-14998598D02*
X7342053Y-14989074D01*
X7342053Y-14989074D02*
X7389672Y-14989074D01*
X7389672Y-14989074D02*
X7408720Y-14998598D01*
X7408720Y-14998598D02*
X7418244Y-15008122D01*
X7418244Y-15008122D02*
X7427767Y-15027169D01*
X7427767Y-15027169D02*
X7427767Y-15074788D01*
X7427767Y-15074788D02*
X7418244Y-15093836D01*
X7418244Y-15093836D02*
X7408720Y-15103360D01*
X7408720Y-15103360D02*
X7389672Y-15112884D01*
X7389672Y-15112884D02*
X7342053Y-15112884D01*
X7342053Y-15112884D02*
X7323006Y-15103360D01*
X7323006Y-15103360D02*
X7313482Y-15093836D01*
X7494434Y-14912884D02*
X7627767Y-14912884D01*
X7627767Y-14912884D02*
X7542053Y-15112884D01*
X7694434Y-14912884D02*
X7694434Y-14950979D01*
X7770625Y-14912884D02*
X7770625Y-14950979D01*
X8065863Y-15189074D02*
X8056339Y-15179550D01*
X8056339Y-15179550D02*
X8037291Y-15150979D01*
X8037291Y-15150979D02*
X8027768Y-15131931D01*
X8027768Y-15131931D02*
X8018244Y-15103360D01*
X8018244Y-15103360D02*
X8008720Y-15055741D01*
X8008720Y-15055741D02*
X8008720Y-15017646D01*
X8008720Y-15017646D02*
X8018244Y-14970027D01*
X8018244Y-14970027D02*
X8027768Y-14941455D01*
X8027768Y-14941455D02*
X8037291Y-14922408D01*
X8037291Y-14922408D02*
X8056339Y-14893836D01*
X8056339Y-14893836D02*
X8065863Y-14884312D01*
X8132529Y-14931931D02*
X8142053Y-14922408D01*
X8142053Y-14922408D02*
X8161101Y-14912884D01*
X8161101Y-14912884D02*
X8208720Y-14912884D01*
X8208720Y-14912884D02*
X8227768Y-14922408D01*
X8227768Y-14922408D02*
X8237291Y-14931931D01*
X8237291Y-14931931D02*
X8246815Y-14950979D01*
X8246815Y-14950979D02*
X8246815Y-14970027D01*
X8246815Y-14970027D02*
X8237291Y-14998598D01*
X8237291Y-14998598D02*
X8123006Y-15112884D01*
X8123006Y-15112884D02*
X8246815Y-15112884D01*
X8370625Y-14912884D02*
X8389672Y-14912884D01*
X8389672Y-14912884D02*
X8408720Y-14922408D01*
X8408720Y-14922408D02*
X8418244Y-14931931D01*
X8418244Y-14931931D02*
X8427768Y-14950979D01*
X8427768Y-14950979D02*
X8437291Y-14989074D01*
X8437291Y-14989074D02*
X8437291Y-15036693D01*
X8437291Y-15036693D02*
X8427768Y-15074788D01*
X8427768Y-15074788D02*
X8418244Y-15093836D01*
X8418244Y-15093836D02*
X8408720Y-15103360D01*
X8408720Y-15103360D02*
X8389672Y-15112884D01*
X8389672Y-15112884D02*
X8370625Y-15112884D01*
X8370625Y-15112884D02*
X8351577Y-15103360D01*
X8351577Y-15103360D02*
X8342053Y-15093836D01*
X8342053Y-15093836D02*
X8332529Y-15074788D01*
X8332529Y-15074788D02*
X8323006Y-15036693D01*
X8323006Y-15036693D02*
X8323006Y-14989074D01*
X8323006Y-14989074D02*
X8332529Y-14950979D01*
X8332529Y-14950979D02*
X8342053Y-14931931D01*
X8342053Y-14931931D02*
X8351577Y-14922408D01*
X8351577Y-14922408D02*
X8370625Y-14912884D01*
X8675387Y-15112884D02*
X8675387Y-14912884D01*
X8761101Y-15112884D02*
X8761101Y-15008122D01*
X8761101Y-15008122D02*
X8751577Y-14989074D01*
X8751577Y-14989074D02*
X8732530Y-14979550D01*
X8732530Y-14979550D02*
X8703958Y-14979550D01*
X8703958Y-14979550D02*
X8684911Y-14989074D01*
X8684911Y-14989074D02*
X8675387Y-14998598D01*
X8884911Y-15112884D02*
X8865863Y-15103360D01*
X8865863Y-15103360D02*
X8856339Y-15093836D01*
X8856339Y-15093836D02*
X8846815Y-15074788D01*
X8846815Y-15074788D02*
X8846815Y-15017646D01*
X8846815Y-15017646D02*
X8856339Y-14998598D01*
X8856339Y-14998598D02*
X8865863Y-14989074D01*
X8865863Y-14989074D02*
X8884911Y-14979550D01*
X8884911Y-14979550D02*
X8913482Y-14979550D01*
X8913482Y-14979550D02*
X8932530Y-14989074D01*
X8932530Y-14989074D02*
X8942053Y-14998598D01*
X8942053Y-14998598D02*
X8951577Y-15017646D01*
X8951577Y-15017646D02*
X8951577Y-15074788D01*
X8951577Y-15074788D02*
X8942053Y-15093836D01*
X8942053Y-15093836D02*
X8932530Y-15103360D01*
X8932530Y-15103360D02*
X8913482Y-15112884D01*
X8913482Y-15112884D02*
X8884911Y-15112884D01*
X9065863Y-15112884D02*
X9046815Y-15103360D01*
X9046815Y-15103360D02*
X9037292Y-15084312D01*
X9037292Y-15084312D02*
X9037292Y-14912884D01*
X9218244Y-15103360D02*
X9199196Y-15112884D01*
X9199196Y-15112884D02*
X9161101Y-15112884D01*
X9161101Y-15112884D02*
X9142053Y-15103360D01*
X9142053Y-15103360D02*
X9132530Y-15084312D01*
X9132530Y-15084312D02*
X9132530Y-15008122D01*
X9132530Y-15008122D02*
X9142053Y-14989074D01*
X9142053Y-14989074D02*
X9161101Y-14979550D01*
X9161101Y-14979550D02*
X9199196Y-14979550D01*
X9199196Y-14979550D02*
X9218244Y-14989074D01*
X9218244Y-14989074D02*
X9227768Y-15008122D01*
X9227768Y-15008122D02*
X9227768Y-15027169D01*
X9227768Y-15027169D02*
X9132530Y-15046217D01*
X9303958Y-15103360D02*
X9323006Y-15112884D01*
X9323006Y-15112884D02*
X9361101Y-15112884D01*
X9361101Y-15112884D02*
X9380149Y-15103360D01*
X9380149Y-15103360D02*
X9389673Y-15084312D01*
X9389673Y-15084312D02*
X9389673Y-15074788D01*
X9389673Y-15074788D02*
X9380149Y-15055741D01*
X9380149Y-15055741D02*
X9361101Y-15046217D01*
X9361101Y-15046217D02*
X9332530Y-15046217D01*
X9332530Y-15046217D02*
X9313482Y-15036693D01*
X9313482Y-15036693D02*
X9303958Y-15017646D01*
X9303958Y-15017646D02*
X9303958Y-15008122D01*
X9303958Y-15008122D02*
X9313482Y-14989074D01*
X9313482Y-14989074D02*
X9332530Y-14979550D01*
X9332530Y-14979550D02*
X9361101Y-14979550D01*
X9361101Y-14979550D02*
X9380149Y-14989074D01*
X9456339Y-15189074D02*
X9465863Y-15179550D01*
X9465863Y-15179550D02*
X9484911Y-15150979D01*
X9484911Y-15150979D02*
X9494434Y-15131931D01*
X9494434Y-15131931D02*
X9503958Y-15103360D01*
X9503958Y-15103360D02*
X9513482Y-15055741D01*
X9513482Y-15055741D02*
X9513482Y-15017646D01*
X9513482Y-15017646D02*
X9503958Y-14970027D01*
X9503958Y-14970027D02*
X9494434Y-14941455D01*
X9494434Y-14941455D02*
X9484911Y-14922408D01*
X9484911Y-14922408D02*
X9465863Y-14893836D01*
X9465863Y-14893836D02*
X9456339Y-14884312D01*
D10*
X4490800Y-15285400D02*
G75*
G03*
X4430800Y-15285400I-30000J0D01*
G01*
X4430800Y-15285400D02*
G75*
G03*
X4490800Y-15285400I30000J0D01*
G01*
D11*
X4789672Y-15176884D02*
X4808720Y-15176884D01*
X4808720Y-15176884D02*
X4827767Y-15186408D01*
X4827767Y-15186408D02*
X4837291Y-15195931D01*
X4837291Y-15195931D02*
X4846815Y-15214979D01*
X4846815Y-15214979D02*
X4856339Y-15253074D01*
X4856339Y-15253074D02*
X4856339Y-15300693D01*
X4856339Y-15300693D02*
X4846815Y-15338788D01*
X4846815Y-15338788D02*
X4837291Y-15357836D01*
X4837291Y-15357836D02*
X4827767Y-15367360D01*
X4827767Y-15367360D02*
X4808720Y-15376884D01*
X4808720Y-15376884D02*
X4789672Y-15376884D01*
X4789672Y-15376884D02*
X4770624Y-15367360D01*
X4770624Y-15367360D02*
X4761101Y-15357836D01*
X4761101Y-15357836D02*
X4751577Y-15338788D01*
X4751577Y-15338788D02*
X4742053Y-15300693D01*
X4742053Y-15300693D02*
X4742053Y-15253074D01*
X4742053Y-15253074D02*
X4751577Y-15214979D01*
X4751577Y-15214979D02*
X4761101Y-15195931D01*
X4761101Y-15195931D02*
X4770624Y-15186408D01*
X4770624Y-15186408D02*
X4789672Y-15176884D01*
X4942053Y-15357836D02*
X4951577Y-15367360D01*
X4951577Y-15367360D02*
X4942053Y-15376884D01*
X4942053Y-15376884D02*
X4932529Y-15367360D01*
X4932529Y-15367360D02*
X4942053Y-15357836D01*
X4942053Y-15357836D02*
X4942053Y-15376884D01*
X5123005Y-15176884D02*
X5084910Y-15176884D01*
X5084910Y-15176884D02*
X5065863Y-15186408D01*
X5065863Y-15186408D02*
X5056339Y-15195931D01*
X5056339Y-15195931D02*
X5037291Y-15224503D01*
X5037291Y-15224503D02*
X5027767Y-15262598D01*
X5027767Y-15262598D02*
X5027767Y-15338788D01*
X5027767Y-15338788D02*
X5037291Y-15357836D01*
X5037291Y-15357836D02*
X5046815Y-15367360D01*
X5046815Y-15367360D02*
X5065863Y-15376884D01*
X5065863Y-15376884D02*
X5103958Y-15376884D01*
X5103958Y-15376884D02*
X5123005Y-15367360D01*
X5123005Y-15367360D02*
X5132529Y-15357836D01*
X5132529Y-15357836D02*
X5142053Y-15338788D01*
X5142053Y-15338788D02*
X5142053Y-15291169D01*
X5142053Y-15291169D02*
X5132529Y-15272122D01*
X5132529Y-15272122D02*
X5123005Y-15262598D01*
X5123005Y-15262598D02*
X5103958Y-15253074D01*
X5103958Y-15253074D02*
X5065863Y-15253074D01*
X5065863Y-15253074D02*
X5046815Y-15262598D01*
X5046815Y-15262598D02*
X5037291Y-15272122D01*
X5037291Y-15272122D02*
X5027767Y-15291169D01*
X5265863Y-15176884D02*
X5284910Y-15176884D01*
X5284910Y-15176884D02*
X5303958Y-15186408D01*
X5303958Y-15186408D02*
X5313482Y-15195931D01*
X5313482Y-15195931D02*
X5323005Y-15214979D01*
X5323005Y-15214979D02*
X5332529Y-15253074D01*
X5332529Y-15253074D02*
X5332529Y-15300693D01*
X5332529Y-15300693D02*
X5323005Y-15338788D01*
X5323005Y-15338788D02*
X5313482Y-15357836D01*
X5313482Y-15357836D02*
X5303958Y-15367360D01*
X5303958Y-15367360D02*
X5284910Y-15376884D01*
X5284910Y-15376884D02*
X5265863Y-15376884D01*
X5265863Y-15376884D02*
X5246815Y-15367360D01*
X5246815Y-15367360D02*
X5237291Y-15357836D01*
X5237291Y-15357836D02*
X5227767Y-15338788D01*
X5227767Y-15338788D02*
X5218244Y-15300693D01*
X5218244Y-15300693D02*
X5218244Y-15253074D01*
X5218244Y-15253074D02*
X5227767Y-15214979D01*
X5227767Y-15214979D02*
X5237291Y-15195931D01*
X5237291Y-15195931D02*
X5246815Y-15186408D01*
X5246815Y-15186408D02*
X5265863Y-15176884D01*
X5456339Y-15176884D02*
X5475386Y-15176884D01*
X5475386Y-15176884D02*
X5494434Y-15186408D01*
X5494434Y-15186408D02*
X5503958Y-15195931D01*
X5503958Y-15195931D02*
X5513482Y-15214979D01*
X5513482Y-15214979D02*
X5523005Y-15253074D01*
X5523005Y-15253074D02*
X5523005Y-15300693D01*
X5523005Y-15300693D02*
X5513482Y-15338788D01*
X5513482Y-15338788D02*
X5503958Y-15357836D01*
X5503958Y-15357836D02*
X5494434Y-15367360D01*
X5494434Y-15367360D02*
X5475386Y-15376884D01*
X5475386Y-15376884D02*
X5456339Y-15376884D01*
X5456339Y-15376884D02*
X5437291Y-15367360D01*
X5437291Y-15367360D02*
X5427767Y-15357836D01*
X5427767Y-15357836D02*
X5418244Y-15338788D01*
X5418244Y-15338788D02*
X5408720Y-15300693D01*
X5408720Y-15300693D02*
X5408720Y-15253074D01*
X5408720Y-15253074D02*
X5418244Y-15214979D01*
X5418244Y-15214979D02*
X5427767Y-15195931D01*
X5427767Y-15195931D02*
X5437291Y-15186408D01*
X5437291Y-15186408D02*
X5456339Y-15176884D01*
X5608720Y-15376884D02*
X5608720Y-15243550D01*
X5608720Y-15262598D02*
X5618243Y-15253074D01*
X5618243Y-15253074D02*
X5637291Y-15243550D01*
X5637291Y-15243550D02*
X5665863Y-15243550D01*
X5665863Y-15243550D02*
X5684910Y-15253074D01*
X5684910Y-15253074D02*
X5694434Y-15272122D01*
X5694434Y-15272122D02*
X5694434Y-15376884D01*
X5694434Y-15272122D02*
X5703958Y-15253074D01*
X5703958Y-15253074D02*
X5723005Y-15243550D01*
X5723005Y-15243550D02*
X5751577Y-15243550D01*
X5751577Y-15243550D02*
X5770624Y-15253074D01*
X5770624Y-15253074D02*
X5780148Y-15272122D01*
X5780148Y-15272122D02*
X5780148Y-15376884D01*
X5875386Y-15376884D02*
X5875386Y-15243550D01*
X5875386Y-15262598D02*
X5884910Y-15253074D01*
X5884910Y-15253074D02*
X5903958Y-15243550D01*
X5903958Y-15243550D02*
X5932529Y-15243550D01*
X5932529Y-15243550D02*
X5951577Y-15253074D01*
X5951577Y-15253074D02*
X5961101Y-15272122D01*
X5961101Y-15272122D02*
X5961101Y-15376884D01*
X5961101Y-15272122D02*
X5970624Y-15253074D01*
X5970624Y-15253074D02*
X5989672Y-15243550D01*
X5989672Y-15243550D02*
X6018243Y-15243550D01*
X6018243Y-15243550D02*
X6037291Y-15253074D01*
X6037291Y-15253074D02*
X6046815Y-15272122D01*
X6046815Y-15272122D02*
X6046815Y-15376884D01*
X6437291Y-15167360D02*
X6265863Y-15424503D01*
X6694434Y-15176884D02*
X6713482Y-15176884D01*
X6713482Y-15176884D02*
X6732529Y-15186408D01*
X6732529Y-15186408D02*
X6742053Y-15195931D01*
X6742053Y-15195931D02*
X6751577Y-15214979D01*
X6751577Y-15214979D02*
X6761101Y-15253074D01*
X6761101Y-15253074D02*
X6761101Y-15300693D01*
X6761101Y-15300693D02*
X6751577Y-15338788D01*
X6751577Y-15338788D02*
X6742053Y-15357836D01*
X6742053Y-15357836D02*
X6732529Y-15367360D01*
X6732529Y-15367360D02*
X6713482Y-15376884D01*
X6713482Y-15376884D02*
X6694434Y-15376884D01*
X6694434Y-15376884D02*
X6675386Y-15367360D01*
X6675386Y-15367360D02*
X6665863Y-15357836D01*
X6665863Y-15357836D02*
X6656339Y-15338788D01*
X6656339Y-15338788D02*
X6646815Y-15300693D01*
X6646815Y-15300693D02*
X6646815Y-15253074D01*
X6646815Y-15253074D02*
X6656339Y-15214979D01*
X6656339Y-15214979D02*
X6665863Y-15195931D01*
X6665863Y-15195931D02*
X6675386Y-15186408D01*
X6675386Y-15186408D02*
X6694434Y-15176884D01*
X6846815Y-15357836D02*
X6856339Y-15367360D01*
X6856339Y-15367360D02*
X6846815Y-15376884D01*
X6846815Y-15376884D02*
X6837291Y-15367360D01*
X6837291Y-15367360D02*
X6846815Y-15357836D01*
X6846815Y-15357836D02*
X6846815Y-15376884D01*
X6980148Y-15176884D02*
X6999196Y-15176884D01*
X6999196Y-15176884D02*
X7018244Y-15186408D01*
X7018244Y-15186408D02*
X7027767Y-15195931D01*
X7027767Y-15195931D02*
X7037291Y-15214979D01*
X7037291Y-15214979D02*
X7046815Y-15253074D01*
X7046815Y-15253074D02*
X7046815Y-15300693D01*
X7046815Y-15300693D02*
X7037291Y-15338788D01*
X7037291Y-15338788D02*
X7027767Y-15357836D01*
X7027767Y-15357836D02*
X7018244Y-15367360D01*
X7018244Y-15367360D02*
X6999196Y-15376884D01*
X6999196Y-15376884D02*
X6980148Y-15376884D01*
X6980148Y-15376884D02*
X6961101Y-15367360D01*
X6961101Y-15367360D02*
X6951577Y-15357836D01*
X6951577Y-15357836D02*
X6942053Y-15338788D01*
X6942053Y-15338788D02*
X6932529Y-15300693D01*
X6932529Y-15300693D02*
X6932529Y-15253074D01*
X6932529Y-15253074D02*
X6942053Y-15214979D01*
X6942053Y-15214979D02*
X6951577Y-15195931D01*
X6951577Y-15195931D02*
X6961101Y-15186408D01*
X6961101Y-15186408D02*
X6980148Y-15176884D01*
X7123006Y-15195931D02*
X7132529Y-15186408D01*
X7132529Y-15186408D02*
X7151577Y-15176884D01*
X7151577Y-15176884D02*
X7199196Y-15176884D01*
X7199196Y-15176884D02*
X7218244Y-15186408D01*
X7218244Y-15186408D02*
X7227767Y-15195931D01*
X7227767Y-15195931D02*
X7237291Y-15214979D01*
X7237291Y-15214979D02*
X7237291Y-15234027D01*
X7237291Y-15234027D02*
X7227767Y-15262598D01*
X7227767Y-15262598D02*
X7113482Y-15376884D01*
X7113482Y-15376884D02*
X7237291Y-15376884D01*
X7303958Y-15176884D02*
X7427767Y-15176884D01*
X7427767Y-15176884D02*
X7361101Y-15253074D01*
X7361101Y-15253074D02*
X7389672Y-15253074D01*
X7389672Y-15253074D02*
X7408720Y-15262598D01*
X7408720Y-15262598D02*
X7418244Y-15272122D01*
X7418244Y-15272122D02*
X7427767Y-15291169D01*
X7427767Y-15291169D02*
X7427767Y-15338788D01*
X7427767Y-15338788D02*
X7418244Y-15357836D01*
X7418244Y-15357836D02*
X7408720Y-15367360D01*
X7408720Y-15367360D02*
X7389672Y-15376884D01*
X7389672Y-15376884D02*
X7332529Y-15376884D01*
X7332529Y-15376884D02*
X7313482Y-15367360D01*
X7313482Y-15367360D02*
X7303958Y-15357836D01*
X7599196Y-15176884D02*
X7561101Y-15176884D01*
X7561101Y-15176884D02*
X7542053Y-15186408D01*
X7542053Y-15186408D02*
X7532529Y-15195931D01*
X7532529Y-15195931D02*
X7513482Y-15224503D01*
X7513482Y-15224503D02*
X7503958Y-15262598D01*
X7503958Y-15262598D02*
X7503958Y-15338788D01*
X7503958Y-15338788D02*
X7513482Y-15357836D01*
X7513482Y-15357836D02*
X7523006Y-15367360D01*
X7523006Y-15367360D02*
X7542053Y-15376884D01*
X7542053Y-15376884D02*
X7580148Y-15376884D01*
X7580148Y-15376884D02*
X7599196Y-15367360D01*
X7599196Y-15367360D02*
X7608720Y-15357836D01*
X7608720Y-15357836D02*
X7618244Y-15338788D01*
X7618244Y-15338788D02*
X7618244Y-15291169D01*
X7618244Y-15291169D02*
X7608720Y-15272122D01*
X7608720Y-15272122D02*
X7599196Y-15262598D01*
X7599196Y-15262598D02*
X7580148Y-15253074D01*
X7580148Y-15253074D02*
X7542053Y-15253074D01*
X7542053Y-15253074D02*
X7523006Y-15262598D01*
X7523006Y-15262598D02*
X7513482Y-15272122D01*
X7513482Y-15272122D02*
X7503958Y-15291169D01*
X7694434Y-15176884D02*
X7694434Y-15214979D01*
X7770625Y-15176884D02*
X7770625Y-15214979D01*
X8065863Y-15453074D02*
X8056339Y-15443550D01*
X8056339Y-15443550D02*
X8037291Y-15414979D01*
X8037291Y-15414979D02*
X8027768Y-15395931D01*
X8027768Y-15395931D02*
X8018244Y-15367360D01*
X8018244Y-15367360D02*
X8008720Y-15319741D01*
X8008720Y-15319741D02*
X8008720Y-15281646D01*
X8008720Y-15281646D02*
X8018244Y-15234027D01*
X8018244Y-15234027D02*
X8027768Y-15205455D01*
X8027768Y-15205455D02*
X8037291Y-15186408D01*
X8037291Y-15186408D02*
X8056339Y-15157836D01*
X8056339Y-15157836D02*
X8065863Y-15148312D01*
X8227768Y-15243550D02*
X8227768Y-15376884D01*
X8180148Y-15167360D02*
X8132529Y-15310217D01*
X8132529Y-15310217D02*
X8256339Y-15310217D01*
X8484911Y-15376884D02*
X8484911Y-15176884D01*
X8570625Y-15376884D02*
X8570625Y-15272122D01*
X8570625Y-15272122D02*
X8561101Y-15253074D01*
X8561101Y-15253074D02*
X8542053Y-15243550D01*
X8542053Y-15243550D02*
X8513482Y-15243550D01*
X8513482Y-15243550D02*
X8494434Y-15253074D01*
X8494434Y-15253074D02*
X8484911Y-15262598D01*
X8694434Y-15376884D02*
X8675387Y-15367360D01*
X8675387Y-15367360D02*
X8665863Y-15357836D01*
X8665863Y-15357836D02*
X8656339Y-15338788D01*
X8656339Y-15338788D02*
X8656339Y-15281646D01*
X8656339Y-15281646D02*
X8665863Y-15262598D01*
X8665863Y-15262598D02*
X8675387Y-15253074D01*
X8675387Y-15253074D02*
X8694434Y-15243550D01*
X8694434Y-15243550D02*
X8723006Y-15243550D01*
X8723006Y-15243550D02*
X8742053Y-15253074D01*
X8742053Y-15253074D02*
X8751577Y-15262598D01*
X8751577Y-15262598D02*
X8761101Y-15281646D01*
X8761101Y-15281646D02*
X8761101Y-15338788D01*
X8761101Y-15338788D02*
X8751577Y-15357836D01*
X8751577Y-15357836D02*
X8742053Y-15367360D01*
X8742053Y-15367360D02*
X8723006Y-15376884D01*
X8723006Y-15376884D02*
X8694434Y-15376884D01*
X8875387Y-15376884D02*
X8856339Y-15367360D01*
X8856339Y-15367360D02*
X8846815Y-15348312D01*
X8846815Y-15348312D02*
X8846815Y-15176884D01*
X9027768Y-15367360D02*
X9008720Y-15376884D01*
X9008720Y-15376884D02*
X8970625Y-15376884D01*
X8970625Y-15376884D02*
X8951577Y-15367360D01*
X8951577Y-15367360D02*
X8942053Y-15348312D01*
X8942053Y-15348312D02*
X8942053Y-15272122D01*
X8942053Y-15272122D02*
X8951577Y-15253074D01*
X8951577Y-15253074D02*
X8970625Y-15243550D01*
X8970625Y-15243550D02*
X9008720Y-15243550D01*
X9008720Y-15243550D02*
X9027768Y-15253074D01*
X9027768Y-15253074D02*
X9037292Y-15272122D01*
X9037292Y-15272122D02*
X9037292Y-15291169D01*
X9037292Y-15291169D02*
X8942053Y-15310217D01*
X9113482Y-15367360D02*
X9132530Y-15376884D01*
X9132530Y-15376884D02*
X9170625Y-15376884D01*
X9170625Y-15376884D02*
X9189673Y-15367360D01*
X9189673Y-15367360D02*
X9199196Y-15348312D01*
X9199196Y-15348312D02*
X9199196Y-15338788D01*
X9199196Y-15338788D02*
X9189673Y-15319741D01*
X9189673Y-15319741D02*
X9170625Y-15310217D01*
X9170625Y-15310217D02*
X9142053Y-15310217D01*
X9142053Y-15310217D02*
X9123006Y-15300693D01*
X9123006Y-15300693D02*
X9113482Y-15281646D01*
X9113482Y-15281646D02*
X9113482Y-15272122D01*
X9113482Y-15272122D02*
X9123006Y-15253074D01*
X9123006Y-15253074D02*
X9142053Y-15243550D01*
X9142053Y-15243550D02*
X9170625Y-15243550D01*
X9170625Y-15243550D02*
X9189673Y-15253074D01*
X9265863Y-15453074D02*
X9275387Y-15443550D01*
X9275387Y-15443550D02*
X9294434Y-15414979D01*
X9294434Y-15414979D02*
X9303958Y-15395931D01*
X9303958Y-15395931D02*
X9313482Y-15367360D01*
X9313482Y-15367360D02*
X9323006Y-15319741D01*
X9323006Y-15319741D02*
X9323006Y-15281646D01*
X9323006Y-15281646D02*
X9313482Y-15234027D01*
X9313482Y-15234027D02*
X9303958Y-15205455D01*
X9303958Y-15205455D02*
X9294434Y-15186408D01*
X9294434Y-15186408D02*
X9275387Y-15157836D01*
X9275387Y-15157836D02*
X9265863Y-15148312D01*
D10*
X4458300Y-15516900D02*
X4458300Y-15581900D01*
X4425800Y-15549400D02*
X4490800Y-15549400D01*
D11*
X4789672Y-15440884D02*
X4808720Y-15440884D01*
X4808720Y-15440884D02*
X4827767Y-15450408D01*
X4827767Y-15450408D02*
X4837291Y-15459931D01*
X4837291Y-15459931D02*
X4846815Y-15478979D01*
X4846815Y-15478979D02*
X4856339Y-15517074D01*
X4856339Y-15517074D02*
X4856339Y-15564693D01*
X4856339Y-15564693D02*
X4846815Y-15602788D01*
X4846815Y-15602788D02*
X4837291Y-15621836D01*
X4837291Y-15621836D02*
X4827767Y-15631360D01*
X4827767Y-15631360D02*
X4808720Y-15640884D01*
X4808720Y-15640884D02*
X4789672Y-15640884D01*
X4789672Y-15640884D02*
X4770624Y-15631360D01*
X4770624Y-15631360D02*
X4761101Y-15621836D01*
X4761101Y-15621836D02*
X4751577Y-15602788D01*
X4751577Y-15602788D02*
X4742053Y-15564693D01*
X4742053Y-15564693D02*
X4742053Y-15517074D01*
X4742053Y-15517074D02*
X4751577Y-15478979D01*
X4751577Y-15478979D02*
X4761101Y-15459931D01*
X4761101Y-15459931D02*
X4770624Y-15450408D01*
X4770624Y-15450408D02*
X4789672Y-15440884D01*
X4942053Y-15621836D02*
X4951577Y-15631360D01*
X4951577Y-15631360D02*
X4942053Y-15640884D01*
X4942053Y-15640884D02*
X4932529Y-15631360D01*
X4932529Y-15631360D02*
X4942053Y-15621836D01*
X4942053Y-15621836D02*
X4942053Y-15640884D01*
X5123005Y-15440884D02*
X5084910Y-15440884D01*
X5084910Y-15440884D02*
X5065863Y-15450408D01*
X5065863Y-15450408D02*
X5056339Y-15459931D01*
X5056339Y-15459931D02*
X5037291Y-15488503D01*
X5037291Y-15488503D02*
X5027767Y-15526598D01*
X5027767Y-15526598D02*
X5027767Y-15602788D01*
X5027767Y-15602788D02*
X5037291Y-15621836D01*
X5037291Y-15621836D02*
X5046815Y-15631360D01*
X5046815Y-15631360D02*
X5065863Y-15640884D01*
X5065863Y-15640884D02*
X5103958Y-15640884D01*
X5103958Y-15640884D02*
X5123005Y-15631360D01*
X5123005Y-15631360D02*
X5132529Y-15621836D01*
X5132529Y-15621836D02*
X5142053Y-15602788D01*
X5142053Y-15602788D02*
X5142053Y-15555169D01*
X5142053Y-15555169D02*
X5132529Y-15536122D01*
X5132529Y-15536122D02*
X5123005Y-15526598D01*
X5123005Y-15526598D02*
X5103958Y-15517074D01*
X5103958Y-15517074D02*
X5065863Y-15517074D01*
X5065863Y-15517074D02*
X5046815Y-15526598D01*
X5046815Y-15526598D02*
X5037291Y-15536122D01*
X5037291Y-15536122D02*
X5027767Y-15555169D01*
X5323005Y-15440884D02*
X5227767Y-15440884D01*
X5227767Y-15440884D02*
X5218244Y-15536122D01*
X5218244Y-15536122D02*
X5227767Y-15526598D01*
X5227767Y-15526598D02*
X5246815Y-15517074D01*
X5246815Y-15517074D02*
X5294434Y-15517074D01*
X5294434Y-15517074D02*
X5313482Y-15526598D01*
X5313482Y-15526598D02*
X5323005Y-15536122D01*
X5323005Y-15536122D02*
X5332529Y-15555169D01*
X5332529Y-15555169D02*
X5332529Y-15602788D01*
X5332529Y-15602788D02*
X5323005Y-15621836D01*
X5323005Y-15621836D02*
X5313482Y-15631360D01*
X5313482Y-15631360D02*
X5294434Y-15640884D01*
X5294434Y-15640884D02*
X5246815Y-15640884D01*
X5246815Y-15640884D02*
X5227767Y-15631360D01*
X5227767Y-15631360D02*
X5218244Y-15621836D01*
X5456339Y-15440884D02*
X5475386Y-15440884D01*
X5475386Y-15440884D02*
X5494434Y-15450408D01*
X5494434Y-15450408D02*
X5503958Y-15459931D01*
X5503958Y-15459931D02*
X5513482Y-15478979D01*
X5513482Y-15478979D02*
X5523005Y-15517074D01*
X5523005Y-15517074D02*
X5523005Y-15564693D01*
X5523005Y-15564693D02*
X5513482Y-15602788D01*
X5513482Y-15602788D02*
X5503958Y-15621836D01*
X5503958Y-15621836D02*
X5494434Y-15631360D01*
X5494434Y-15631360D02*
X5475386Y-15640884D01*
X5475386Y-15640884D02*
X5456339Y-15640884D01*
X5456339Y-15640884D02*
X5437291Y-15631360D01*
X5437291Y-15631360D02*
X5427767Y-15621836D01*
X5427767Y-15621836D02*
X5418244Y-15602788D01*
X5418244Y-15602788D02*
X5408720Y-15564693D01*
X5408720Y-15564693D02*
X5408720Y-15517074D01*
X5408720Y-15517074D02*
X5418244Y-15478979D01*
X5418244Y-15478979D02*
X5427767Y-15459931D01*
X5427767Y-15459931D02*
X5437291Y-15450408D01*
X5437291Y-15450408D02*
X5456339Y-15440884D01*
X5608720Y-15640884D02*
X5608720Y-15507550D01*
X5608720Y-15526598D02*
X5618243Y-15517074D01*
X5618243Y-15517074D02*
X5637291Y-15507550D01*
X5637291Y-15507550D02*
X5665863Y-15507550D01*
X5665863Y-15507550D02*
X5684910Y-15517074D01*
X5684910Y-15517074D02*
X5694434Y-15536122D01*
X5694434Y-15536122D02*
X5694434Y-15640884D01*
X5694434Y-15536122D02*
X5703958Y-15517074D01*
X5703958Y-15517074D02*
X5723005Y-15507550D01*
X5723005Y-15507550D02*
X5751577Y-15507550D01*
X5751577Y-15507550D02*
X5770624Y-15517074D01*
X5770624Y-15517074D02*
X5780148Y-15536122D01*
X5780148Y-15536122D02*
X5780148Y-15640884D01*
X5875386Y-15640884D02*
X5875386Y-15507550D01*
X5875386Y-15526598D02*
X5884910Y-15517074D01*
X5884910Y-15517074D02*
X5903958Y-15507550D01*
X5903958Y-15507550D02*
X5932529Y-15507550D01*
X5932529Y-15507550D02*
X5951577Y-15517074D01*
X5951577Y-15517074D02*
X5961101Y-15536122D01*
X5961101Y-15536122D02*
X5961101Y-15640884D01*
X5961101Y-15536122D02*
X5970624Y-15517074D01*
X5970624Y-15517074D02*
X5989672Y-15507550D01*
X5989672Y-15507550D02*
X6018243Y-15507550D01*
X6018243Y-15507550D02*
X6037291Y-15517074D01*
X6037291Y-15517074D02*
X6046815Y-15536122D01*
X6046815Y-15536122D02*
X6046815Y-15640884D01*
X6437291Y-15431360D02*
X6265863Y-15688503D01*
X6694434Y-15440884D02*
X6713482Y-15440884D01*
X6713482Y-15440884D02*
X6732529Y-15450408D01*
X6732529Y-15450408D02*
X6742053Y-15459931D01*
X6742053Y-15459931D02*
X6751577Y-15478979D01*
X6751577Y-15478979D02*
X6761101Y-15517074D01*
X6761101Y-15517074D02*
X6761101Y-15564693D01*
X6761101Y-15564693D02*
X6751577Y-15602788D01*
X6751577Y-15602788D02*
X6742053Y-15621836D01*
X6742053Y-15621836D02*
X6732529Y-15631360D01*
X6732529Y-15631360D02*
X6713482Y-15640884D01*
X6713482Y-15640884D02*
X6694434Y-15640884D01*
X6694434Y-15640884D02*
X6675386Y-15631360D01*
X6675386Y-15631360D02*
X6665863Y-15621836D01*
X6665863Y-15621836D02*
X6656339Y-15602788D01*
X6656339Y-15602788D02*
X6646815Y-15564693D01*
X6646815Y-15564693D02*
X6646815Y-15517074D01*
X6646815Y-15517074D02*
X6656339Y-15478979D01*
X6656339Y-15478979D02*
X6665863Y-15459931D01*
X6665863Y-15459931D02*
X6675386Y-15450408D01*
X6675386Y-15450408D02*
X6694434Y-15440884D01*
X6846815Y-15621836D02*
X6856339Y-15631360D01*
X6856339Y-15631360D02*
X6846815Y-15640884D01*
X6846815Y-15640884D02*
X6837291Y-15631360D01*
X6837291Y-15631360D02*
X6846815Y-15621836D01*
X6846815Y-15621836D02*
X6846815Y-15640884D01*
X6980148Y-15440884D02*
X6999196Y-15440884D01*
X6999196Y-15440884D02*
X7018244Y-15450408D01*
X7018244Y-15450408D02*
X7027767Y-15459931D01*
X7027767Y-15459931D02*
X7037291Y-15478979D01*
X7037291Y-15478979D02*
X7046815Y-15517074D01*
X7046815Y-15517074D02*
X7046815Y-15564693D01*
X7046815Y-15564693D02*
X7037291Y-15602788D01*
X7037291Y-15602788D02*
X7027767Y-15621836D01*
X7027767Y-15621836D02*
X7018244Y-15631360D01*
X7018244Y-15631360D02*
X6999196Y-15640884D01*
X6999196Y-15640884D02*
X6980148Y-15640884D01*
X6980148Y-15640884D02*
X6961101Y-15631360D01*
X6961101Y-15631360D02*
X6951577Y-15621836D01*
X6951577Y-15621836D02*
X6942053Y-15602788D01*
X6942053Y-15602788D02*
X6932529Y-15564693D01*
X6932529Y-15564693D02*
X6932529Y-15517074D01*
X6932529Y-15517074D02*
X6942053Y-15478979D01*
X6942053Y-15478979D02*
X6951577Y-15459931D01*
X6951577Y-15459931D02*
X6961101Y-15450408D01*
X6961101Y-15450408D02*
X6980148Y-15440884D01*
X7123006Y-15459931D02*
X7132529Y-15450408D01*
X7132529Y-15450408D02*
X7151577Y-15440884D01*
X7151577Y-15440884D02*
X7199196Y-15440884D01*
X7199196Y-15440884D02*
X7218244Y-15450408D01*
X7218244Y-15450408D02*
X7227767Y-15459931D01*
X7227767Y-15459931D02*
X7237291Y-15478979D01*
X7237291Y-15478979D02*
X7237291Y-15498027D01*
X7237291Y-15498027D02*
X7227767Y-15526598D01*
X7227767Y-15526598D02*
X7113482Y-15640884D01*
X7113482Y-15640884D02*
X7237291Y-15640884D01*
X7418244Y-15440884D02*
X7323006Y-15440884D01*
X7323006Y-15440884D02*
X7313482Y-15536122D01*
X7313482Y-15536122D02*
X7323006Y-15526598D01*
X7323006Y-15526598D02*
X7342053Y-15517074D01*
X7342053Y-15517074D02*
X7389672Y-15517074D01*
X7389672Y-15517074D02*
X7408720Y-15526598D01*
X7408720Y-15526598D02*
X7418244Y-15536122D01*
X7418244Y-15536122D02*
X7427767Y-15555169D01*
X7427767Y-15555169D02*
X7427767Y-15602788D01*
X7427767Y-15602788D02*
X7418244Y-15621836D01*
X7418244Y-15621836D02*
X7408720Y-15631360D01*
X7408720Y-15631360D02*
X7389672Y-15640884D01*
X7389672Y-15640884D02*
X7342053Y-15640884D01*
X7342053Y-15640884D02*
X7323006Y-15631360D01*
X7323006Y-15631360D02*
X7313482Y-15621836D01*
X7599196Y-15440884D02*
X7561101Y-15440884D01*
X7561101Y-15440884D02*
X7542053Y-15450408D01*
X7542053Y-15450408D02*
X7532529Y-15459931D01*
X7532529Y-15459931D02*
X7513482Y-15488503D01*
X7513482Y-15488503D02*
X7503958Y-15526598D01*
X7503958Y-15526598D02*
X7503958Y-15602788D01*
X7503958Y-15602788D02*
X7513482Y-15621836D01*
X7513482Y-15621836D02*
X7523006Y-15631360D01*
X7523006Y-15631360D02*
X7542053Y-15640884D01*
X7542053Y-15640884D02*
X7580148Y-15640884D01*
X7580148Y-15640884D02*
X7599196Y-15631360D01*
X7599196Y-15631360D02*
X7608720Y-15621836D01*
X7608720Y-15621836D02*
X7618244Y-15602788D01*
X7618244Y-15602788D02*
X7618244Y-15555169D01*
X7618244Y-15555169D02*
X7608720Y-15536122D01*
X7608720Y-15536122D02*
X7599196Y-15526598D01*
X7599196Y-15526598D02*
X7580148Y-15517074D01*
X7580148Y-15517074D02*
X7542053Y-15517074D01*
X7542053Y-15517074D02*
X7523006Y-15526598D01*
X7523006Y-15526598D02*
X7513482Y-15536122D01*
X7513482Y-15536122D02*
X7503958Y-15555169D01*
X7694434Y-15440884D02*
X7694434Y-15478979D01*
X7770625Y-15440884D02*
X7770625Y-15478979D01*
X8065863Y-15717074D02*
X8056339Y-15707550D01*
X8056339Y-15707550D02*
X8037291Y-15678979D01*
X8037291Y-15678979D02*
X8027768Y-15659931D01*
X8027768Y-15659931D02*
X8018244Y-15631360D01*
X8018244Y-15631360D02*
X8008720Y-15583741D01*
X8008720Y-15583741D02*
X8008720Y-15545646D01*
X8008720Y-15545646D02*
X8018244Y-15498027D01*
X8018244Y-15498027D02*
X8027768Y-15469455D01*
X8027768Y-15469455D02*
X8037291Y-15450408D01*
X8037291Y-15450408D02*
X8056339Y-15421836D01*
X8056339Y-15421836D02*
X8065863Y-15412312D01*
X8123006Y-15440884D02*
X8246815Y-15440884D01*
X8246815Y-15440884D02*
X8180148Y-15517074D01*
X8180148Y-15517074D02*
X8208720Y-15517074D01*
X8208720Y-15517074D02*
X8227768Y-15526598D01*
X8227768Y-15526598D02*
X8237291Y-15536122D01*
X8237291Y-15536122D02*
X8246815Y-15555169D01*
X8246815Y-15555169D02*
X8246815Y-15602788D01*
X8246815Y-15602788D02*
X8237291Y-15621836D01*
X8237291Y-15621836D02*
X8227768Y-15631360D01*
X8227768Y-15631360D02*
X8208720Y-15640884D01*
X8208720Y-15640884D02*
X8151577Y-15640884D01*
X8151577Y-15640884D02*
X8132529Y-15631360D01*
X8132529Y-15631360D02*
X8123006Y-15621836D01*
X8484911Y-15640884D02*
X8484911Y-15440884D01*
X8570625Y-15640884D02*
X8570625Y-15536122D01*
X8570625Y-15536122D02*
X8561101Y-15517074D01*
X8561101Y-15517074D02*
X8542053Y-15507550D01*
X8542053Y-15507550D02*
X8513482Y-15507550D01*
X8513482Y-15507550D02*
X8494434Y-15517074D01*
X8494434Y-15517074D02*
X8484911Y-15526598D01*
X8694434Y-15640884D02*
X8675387Y-15631360D01*
X8675387Y-15631360D02*
X8665863Y-15621836D01*
X8665863Y-15621836D02*
X8656339Y-15602788D01*
X8656339Y-15602788D02*
X8656339Y-15545646D01*
X8656339Y-15545646D02*
X8665863Y-15526598D01*
X8665863Y-15526598D02*
X8675387Y-15517074D01*
X8675387Y-15517074D02*
X8694434Y-15507550D01*
X8694434Y-15507550D02*
X8723006Y-15507550D01*
X8723006Y-15507550D02*
X8742053Y-15517074D01*
X8742053Y-15517074D02*
X8751577Y-15526598D01*
X8751577Y-15526598D02*
X8761101Y-15545646D01*
X8761101Y-15545646D02*
X8761101Y-15602788D01*
X8761101Y-15602788D02*
X8751577Y-15621836D01*
X8751577Y-15621836D02*
X8742053Y-15631360D01*
X8742053Y-15631360D02*
X8723006Y-15640884D01*
X8723006Y-15640884D02*
X8694434Y-15640884D01*
X8875387Y-15640884D02*
X8856339Y-15631360D01*
X8856339Y-15631360D02*
X8846815Y-15612312D01*
X8846815Y-15612312D02*
X8846815Y-15440884D01*
X9027768Y-15631360D02*
X9008720Y-15640884D01*
X9008720Y-15640884D02*
X8970625Y-15640884D01*
X8970625Y-15640884D02*
X8951577Y-15631360D01*
X8951577Y-15631360D02*
X8942053Y-15612312D01*
X8942053Y-15612312D02*
X8942053Y-15536122D01*
X8942053Y-15536122D02*
X8951577Y-15517074D01*
X8951577Y-15517074D02*
X8970625Y-15507550D01*
X8970625Y-15507550D02*
X9008720Y-15507550D01*
X9008720Y-15507550D02*
X9027768Y-15517074D01*
X9027768Y-15517074D02*
X9037292Y-15536122D01*
X9037292Y-15536122D02*
X9037292Y-15555169D01*
X9037292Y-15555169D02*
X8942053Y-15574217D01*
X9113482Y-15631360D02*
X9132530Y-15640884D01*
X9132530Y-15640884D02*
X9170625Y-15640884D01*
X9170625Y-15640884D02*
X9189673Y-15631360D01*
X9189673Y-15631360D02*
X9199196Y-15612312D01*
X9199196Y-15612312D02*
X9199196Y-15602788D01*
X9199196Y-15602788D02*
X9189673Y-15583741D01*
X9189673Y-15583741D02*
X9170625Y-15574217D01*
X9170625Y-15574217D02*
X9142053Y-15574217D01*
X9142053Y-15574217D02*
X9123006Y-15564693D01*
X9123006Y-15564693D02*
X9113482Y-15545646D01*
X9113482Y-15545646D02*
X9113482Y-15536122D01*
X9113482Y-15536122D02*
X9123006Y-15517074D01*
X9123006Y-15517074D02*
X9142053Y-15507550D01*
X9142053Y-15507550D02*
X9170625Y-15507550D01*
X9170625Y-15507550D02*
X9189673Y-15517074D01*
X9265863Y-15717074D02*
X9275387Y-15707550D01*
X9275387Y-15707550D02*
X9294434Y-15678979D01*
X9294434Y-15678979D02*
X9303958Y-15659931D01*
X9303958Y-15659931D02*
X9313482Y-15631360D01*
X9313482Y-15631360D02*
X9323006Y-15583741D01*
X9323006Y-15583741D02*
X9323006Y-15545646D01*
X9323006Y-15545646D02*
X9313482Y-15498027D01*
X9313482Y-15498027D02*
X9303958Y-15469455D01*
X9303958Y-15469455D02*
X9294434Y-15450408D01*
X9294434Y-15450408D02*
X9275387Y-15421836D01*
X9275387Y-15421836D02*
X9265863Y-15412312D01*
D10*
X4480549Y-15838149D02*
X4480549Y-15788651D01*
X4431051Y-15788651D01*
X4431051Y-15838149D01*
X4480549Y-15838149D01*
D11*
X4789672Y-15704884D02*
X4808720Y-15704884D01*
X4808720Y-15704884D02*
X4827767Y-15714408D01*
X4827767Y-15714408D02*
X4837291Y-15723931D01*
X4837291Y-15723931D02*
X4846815Y-15742979D01*
X4846815Y-15742979D02*
X4856339Y-15781074D01*
X4856339Y-15781074D02*
X4856339Y-15828693D01*
X4856339Y-15828693D02*
X4846815Y-15866788D01*
X4846815Y-15866788D02*
X4837291Y-15885836D01*
X4837291Y-15885836D02*
X4827767Y-15895360D01*
X4827767Y-15895360D02*
X4808720Y-15904884D01*
X4808720Y-15904884D02*
X4789672Y-15904884D01*
X4789672Y-15904884D02*
X4770624Y-15895360D01*
X4770624Y-15895360D02*
X4761101Y-15885836D01*
X4761101Y-15885836D02*
X4751577Y-15866788D01*
X4751577Y-15866788D02*
X4742053Y-15828693D01*
X4742053Y-15828693D02*
X4742053Y-15781074D01*
X4742053Y-15781074D02*
X4751577Y-15742979D01*
X4751577Y-15742979D02*
X4761101Y-15723931D01*
X4761101Y-15723931D02*
X4770624Y-15714408D01*
X4770624Y-15714408D02*
X4789672Y-15704884D01*
X4942053Y-15885836D02*
X4951577Y-15895360D01*
X4951577Y-15895360D02*
X4942053Y-15904884D01*
X4942053Y-15904884D02*
X4932529Y-15895360D01*
X4932529Y-15895360D02*
X4942053Y-15885836D01*
X4942053Y-15885836D02*
X4942053Y-15904884D01*
X5018244Y-15704884D02*
X5151577Y-15704884D01*
X5151577Y-15704884D02*
X5065863Y-15904884D01*
X5265863Y-15704884D02*
X5284910Y-15704884D01*
X5284910Y-15704884D02*
X5303958Y-15714408D01*
X5303958Y-15714408D02*
X5313482Y-15723931D01*
X5313482Y-15723931D02*
X5323005Y-15742979D01*
X5323005Y-15742979D02*
X5332529Y-15781074D01*
X5332529Y-15781074D02*
X5332529Y-15828693D01*
X5332529Y-15828693D02*
X5323005Y-15866788D01*
X5323005Y-15866788D02*
X5313482Y-15885836D01*
X5313482Y-15885836D02*
X5303958Y-15895360D01*
X5303958Y-15895360D02*
X5284910Y-15904884D01*
X5284910Y-15904884D02*
X5265863Y-15904884D01*
X5265863Y-15904884D02*
X5246815Y-15895360D01*
X5246815Y-15895360D02*
X5237291Y-15885836D01*
X5237291Y-15885836D02*
X5227767Y-15866788D01*
X5227767Y-15866788D02*
X5218244Y-15828693D01*
X5218244Y-15828693D02*
X5218244Y-15781074D01*
X5218244Y-15781074D02*
X5227767Y-15742979D01*
X5227767Y-15742979D02*
X5237291Y-15723931D01*
X5237291Y-15723931D02*
X5246815Y-15714408D01*
X5246815Y-15714408D02*
X5265863Y-15704884D01*
X5456339Y-15704884D02*
X5475386Y-15704884D01*
X5475386Y-15704884D02*
X5494434Y-15714408D01*
X5494434Y-15714408D02*
X5503958Y-15723931D01*
X5503958Y-15723931D02*
X5513482Y-15742979D01*
X5513482Y-15742979D02*
X5523005Y-15781074D01*
X5523005Y-15781074D02*
X5523005Y-15828693D01*
X5523005Y-15828693D02*
X5513482Y-15866788D01*
X5513482Y-15866788D02*
X5503958Y-15885836D01*
X5503958Y-15885836D02*
X5494434Y-15895360D01*
X5494434Y-15895360D02*
X5475386Y-15904884D01*
X5475386Y-15904884D02*
X5456339Y-15904884D01*
X5456339Y-15904884D02*
X5437291Y-15895360D01*
X5437291Y-15895360D02*
X5427767Y-15885836D01*
X5427767Y-15885836D02*
X5418244Y-15866788D01*
X5418244Y-15866788D02*
X5408720Y-15828693D01*
X5408720Y-15828693D02*
X5408720Y-15781074D01*
X5408720Y-15781074D02*
X5418244Y-15742979D01*
X5418244Y-15742979D02*
X5427767Y-15723931D01*
X5427767Y-15723931D02*
X5437291Y-15714408D01*
X5437291Y-15714408D02*
X5456339Y-15704884D01*
X5608720Y-15904884D02*
X5608720Y-15771550D01*
X5608720Y-15790598D02*
X5618243Y-15781074D01*
X5618243Y-15781074D02*
X5637291Y-15771550D01*
X5637291Y-15771550D02*
X5665863Y-15771550D01*
X5665863Y-15771550D02*
X5684910Y-15781074D01*
X5684910Y-15781074D02*
X5694434Y-15800122D01*
X5694434Y-15800122D02*
X5694434Y-15904884D01*
X5694434Y-15800122D02*
X5703958Y-15781074D01*
X5703958Y-15781074D02*
X5723005Y-15771550D01*
X5723005Y-15771550D02*
X5751577Y-15771550D01*
X5751577Y-15771550D02*
X5770624Y-15781074D01*
X5770624Y-15781074D02*
X5780148Y-15800122D01*
X5780148Y-15800122D02*
X5780148Y-15904884D01*
X5875386Y-15904884D02*
X5875386Y-15771550D01*
X5875386Y-15790598D02*
X5884910Y-15781074D01*
X5884910Y-15781074D02*
X5903958Y-15771550D01*
X5903958Y-15771550D02*
X5932529Y-15771550D01*
X5932529Y-15771550D02*
X5951577Y-15781074D01*
X5951577Y-15781074D02*
X5961101Y-15800122D01*
X5961101Y-15800122D02*
X5961101Y-15904884D01*
X5961101Y-15800122D02*
X5970624Y-15781074D01*
X5970624Y-15781074D02*
X5989672Y-15771550D01*
X5989672Y-15771550D02*
X6018243Y-15771550D01*
X6018243Y-15771550D02*
X6037291Y-15781074D01*
X6037291Y-15781074D02*
X6046815Y-15800122D01*
X6046815Y-15800122D02*
X6046815Y-15904884D01*
X6437291Y-15695360D02*
X6265863Y-15952503D01*
X6694434Y-15704884D02*
X6713482Y-15704884D01*
X6713482Y-15704884D02*
X6732529Y-15714408D01*
X6732529Y-15714408D02*
X6742053Y-15723931D01*
X6742053Y-15723931D02*
X6751577Y-15742979D01*
X6751577Y-15742979D02*
X6761101Y-15781074D01*
X6761101Y-15781074D02*
X6761101Y-15828693D01*
X6761101Y-15828693D02*
X6751577Y-15866788D01*
X6751577Y-15866788D02*
X6742053Y-15885836D01*
X6742053Y-15885836D02*
X6732529Y-15895360D01*
X6732529Y-15895360D02*
X6713482Y-15904884D01*
X6713482Y-15904884D02*
X6694434Y-15904884D01*
X6694434Y-15904884D02*
X6675386Y-15895360D01*
X6675386Y-15895360D02*
X6665863Y-15885836D01*
X6665863Y-15885836D02*
X6656339Y-15866788D01*
X6656339Y-15866788D02*
X6646815Y-15828693D01*
X6646815Y-15828693D02*
X6646815Y-15781074D01*
X6646815Y-15781074D02*
X6656339Y-15742979D01*
X6656339Y-15742979D02*
X6665863Y-15723931D01*
X6665863Y-15723931D02*
X6675386Y-15714408D01*
X6675386Y-15714408D02*
X6694434Y-15704884D01*
X6846815Y-15885836D02*
X6856339Y-15895360D01*
X6856339Y-15895360D02*
X6846815Y-15904884D01*
X6846815Y-15904884D02*
X6837291Y-15895360D01*
X6837291Y-15895360D02*
X6846815Y-15885836D01*
X6846815Y-15885836D02*
X6846815Y-15904884D01*
X6980148Y-15704884D02*
X6999196Y-15704884D01*
X6999196Y-15704884D02*
X7018244Y-15714408D01*
X7018244Y-15714408D02*
X7027767Y-15723931D01*
X7027767Y-15723931D02*
X7037291Y-15742979D01*
X7037291Y-15742979D02*
X7046815Y-15781074D01*
X7046815Y-15781074D02*
X7046815Y-15828693D01*
X7046815Y-15828693D02*
X7037291Y-15866788D01*
X7037291Y-15866788D02*
X7027767Y-15885836D01*
X7027767Y-15885836D02*
X7018244Y-15895360D01*
X7018244Y-15895360D02*
X6999196Y-15904884D01*
X6999196Y-15904884D02*
X6980148Y-15904884D01*
X6980148Y-15904884D02*
X6961101Y-15895360D01*
X6961101Y-15895360D02*
X6951577Y-15885836D01*
X6951577Y-15885836D02*
X6942053Y-15866788D01*
X6942053Y-15866788D02*
X6932529Y-15828693D01*
X6932529Y-15828693D02*
X6932529Y-15781074D01*
X6932529Y-15781074D02*
X6942053Y-15742979D01*
X6942053Y-15742979D02*
X6951577Y-15723931D01*
X6951577Y-15723931D02*
X6961101Y-15714408D01*
X6961101Y-15714408D02*
X6980148Y-15704884D01*
X7123006Y-15723931D02*
X7132529Y-15714408D01*
X7132529Y-15714408D02*
X7151577Y-15704884D01*
X7151577Y-15704884D02*
X7199196Y-15704884D01*
X7199196Y-15704884D02*
X7218244Y-15714408D01*
X7218244Y-15714408D02*
X7227767Y-15723931D01*
X7227767Y-15723931D02*
X7237291Y-15742979D01*
X7237291Y-15742979D02*
X7237291Y-15762027D01*
X7237291Y-15762027D02*
X7227767Y-15790598D01*
X7227767Y-15790598D02*
X7113482Y-15904884D01*
X7113482Y-15904884D02*
X7237291Y-15904884D01*
X7303958Y-15704884D02*
X7437291Y-15704884D01*
X7437291Y-15704884D02*
X7351577Y-15904884D01*
X7599196Y-15704884D02*
X7561101Y-15704884D01*
X7561101Y-15704884D02*
X7542053Y-15714408D01*
X7542053Y-15714408D02*
X7532529Y-15723931D01*
X7532529Y-15723931D02*
X7513482Y-15752503D01*
X7513482Y-15752503D02*
X7503958Y-15790598D01*
X7503958Y-15790598D02*
X7503958Y-15866788D01*
X7503958Y-15866788D02*
X7513482Y-15885836D01*
X7513482Y-15885836D02*
X7523006Y-15895360D01*
X7523006Y-15895360D02*
X7542053Y-15904884D01*
X7542053Y-15904884D02*
X7580148Y-15904884D01*
X7580148Y-15904884D02*
X7599196Y-15895360D01*
X7599196Y-15895360D02*
X7608720Y-15885836D01*
X7608720Y-15885836D02*
X7618244Y-15866788D01*
X7618244Y-15866788D02*
X7618244Y-15819169D01*
X7618244Y-15819169D02*
X7608720Y-15800122D01*
X7608720Y-15800122D02*
X7599196Y-15790598D01*
X7599196Y-15790598D02*
X7580148Y-15781074D01*
X7580148Y-15781074D02*
X7542053Y-15781074D01*
X7542053Y-15781074D02*
X7523006Y-15790598D01*
X7523006Y-15790598D02*
X7513482Y-15800122D01*
X7513482Y-15800122D02*
X7503958Y-15819169D01*
X7694434Y-15704884D02*
X7694434Y-15742979D01*
X7770625Y-15704884D02*
X7770625Y-15742979D01*
X8065863Y-15981074D02*
X8056339Y-15971550D01*
X8056339Y-15971550D02*
X8037291Y-15942979D01*
X8037291Y-15942979D02*
X8027768Y-15923931D01*
X8027768Y-15923931D02*
X8018244Y-15895360D01*
X8018244Y-15895360D02*
X8008720Y-15847741D01*
X8008720Y-15847741D02*
X8008720Y-15809646D01*
X8008720Y-15809646D02*
X8018244Y-15762027D01*
X8018244Y-15762027D02*
X8027768Y-15733455D01*
X8027768Y-15733455D02*
X8037291Y-15714408D01*
X8037291Y-15714408D02*
X8056339Y-15685836D01*
X8056339Y-15685836D02*
X8065863Y-15676312D01*
X8132529Y-15723931D02*
X8142053Y-15714408D01*
X8142053Y-15714408D02*
X8161101Y-15704884D01*
X8161101Y-15704884D02*
X8208720Y-15704884D01*
X8208720Y-15704884D02*
X8227768Y-15714408D01*
X8227768Y-15714408D02*
X8237291Y-15723931D01*
X8237291Y-15723931D02*
X8246815Y-15742979D01*
X8246815Y-15742979D02*
X8246815Y-15762027D01*
X8246815Y-15762027D02*
X8237291Y-15790598D01*
X8237291Y-15790598D02*
X8123006Y-15904884D01*
X8123006Y-15904884D02*
X8246815Y-15904884D01*
X8418244Y-15704884D02*
X8380148Y-15704884D01*
X8380148Y-15704884D02*
X8361101Y-15714408D01*
X8361101Y-15714408D02*
X8351577Y-15723931D01*
X8351577Y-15723931D02*
X8332529Y-15752503D01*
X8332529Y-15752503D02*
X8323006Y-15790598D01*
X8323006Y-15790598D02*
X8323006Y-15866788D01*
X8323006Y-15866788D02*
X8332529Y-15885836D01*
X8332529Y-15885836D02*
X8342053Y-15895360D01*
X8342053Y-15895360D02*
X8361101Y-15904884D01*
X8361101Y-15904884D02*
X8399196Y-15904884D01*
X8399196Y-15904884D02*
X8418244Y-15895360D01*
X8418244Y-15895360D02*
X8427768Y-15885836D01*
X8427768Y-15885836D02*
X8437291Y-15866788D01*
X8437291Y-15866788D02*
X8437291Y-15819169D01*
X8437291Y-15819169D02*
X8427768Y-15800122D01*
X8427768Y-15800122D02*
X8418244Y-15790598D01*
X8418244Y-15790598D02*
X8399196Y-15781074D01*
X8399196Y-15781074D02*
X8361101Y-15781074D01*
X8361101Y-15781074D02*
X8342053Y-15790598D01*
X8342053Y-15790598D02*
X8332529Y-15800122D01*
X8332529Y-15800122D02*
X8323006Y-15819169D01*
X8675387Y-15904884D02*
X8675387Y-15704884D01*
X8761101Y-15904884D02*
X8761101Y-15800122D01*
X8761101Y-15800122D02*
X8751577Y-15781074D01*
X8751577Y-15781074D02*
X8732530Y-15771550D01*
X8732530Y-15771550D02*
X8703958Y-15771550D01*
X8703958Y-15771550D02*
X8684911Y-15781074D01*
X8684911Y-15781074D02*
X8675387Y-15790598D01*
X8884911Y-15904884D02*
X8865863Y-15895360D01*
X8865863Y-15895360D02*
X8856339Y-15885836D01*
X8856339Y-15885836D02*
X8846815Y-15866788D01*
X8846815Y-15866788D02*
X8846815Y-15809646D01*
X8846815Y-15809646D02*
X8856339Y-15790598D01*
X8856339Y-15790598D02*
X8865863Y-15781074D01*
X8865863Y-15781074D02*
X8884911Y-15771550D01*
X8884911Y-15771550D02*
X8913482Y-15771550D01*
X8913482Y-15771550D02*
X8932530Y-15781074D01*
X8932530Y-15781074D02*
X8942053Y-15790598D01*
X8942053Y-15790598D02*
X8951577Y-15809646D01*
X8951577Y-15809646D02*
X8951577Y-15866788D01*
X8951577Y-15866788D02*
X8942053Y-15885836D01*
X8942053Y-15885836D02*
X8932530Y-15895360D01*
X8932530Y-15895360D02*
X8913482Y-15904884D01*
X8913482Y-15904884D02*
X8884911Y-15904884D01*
X9065863Y-15904884D02*
X9046815Y-15895360D01*
X9046815Y-15895360D02*
X9037292Y-15876312D01*
X9037292Y-15876312D02*
X9037292Y-15704884D01*
X9218244Y-15895360D02*
X9199196Y-15904884D01*
X9199196Y-15904884D02*
X9161101Y-15904884D01*
X9161101Y-15904884D02*
X9142053Y-15895360D01*
X9142053Y-15895360D02*
X9132530Y-15876312D01*
X9132530Y-15876312D02*
X9132530Y-15800122D01*
X9132530Y-15800122D02*
X9142053Y-15781074D01*
X9142053Y-15781074D02*
X9161101Y-15771550D01*
X9161101Y-15771550D02*
X9199196Y-15771550D01*
X9199196Y-15771550D02*
X9218244Y-15781074D01*
X9218244Y-15781074D02*
X9227768Y-15800122D01*
X9227768Y-15800122D02*
X9227768Y-15819169D01*
X9227768Y-15819169D02*
X9132530Y-15838217D01*
X9303958Y-15895360D02*
X9323006Y-15904884D01*
X9323006Y-15904884D02*
X9361101Y-15904884D01*
X9361101Y-15904884D02*
X9380149Y-15895360D01*
X9380149Y-15895360D02*
X9389673Y-15876312D01*
X9389673Y-15876312D02*
X9389673Y-15866788D01*
X9389673Y-15866788D02*
X9380149Y-15847741D01*
X9380149Y-15847741D02*
X9361101Y-15838217D01*
X9361101Y-15838217D02*
X9332530Y-15838217D01*
X9332530Y-15838217D02*
X9313482Y-15828693D01*
X9313482Y-15828693D02*
X9303958Y-15809646D01*
X9303958Y-15809646D02*
X9303958Y-15800122D01*
X9303958Y-15800122D02*
X9313482Y-15781074D01*
X9313482Y-15781074D02*
X9332530Y-15771550D01*
X9332530Y-15771550D02*
X9361101Y-15771550D01*
X9361101Y-15771550D02*
X9380149Y-15781074D01*
X9456339Y-15981074D02*
X9465863Y-15971550D01*
X9465863Y-15971550D02*
X9484911Y-15942979D01*
X9484911Y-15942979D02*
X9494434Y-15923931D01*
X9494434Y-15923931D02*
X9503958Y-15895360D01*
X9503958Y-15895360D02*
X9513482Y-15847741D01*
X9513482Y-15847741D02*
X9513482Y-15809646D01*
X9513482Y-15809646D02*
X9503958Y-15762027D01*
X9503958Y-15762027D02*
X9494434Y-15733455D01*
X9494434Y-15733455D02*
X9484911Y-15714408D01*
X9484911Y-15714408D02*
X9465863Y-15685836D01*
X9465863Y-15685836D02*
X9456339Y-15676312D01*
D10*
X4450800Y-16117400D02*
X4490800Y-16077400D01*
X4450800Y-16037400D01*
X4410800Y-16077400D01*
X4450800Y-16117400D01*
D11*
X4789672Y-15968884D02*
X4808720Y-15968884D01*
X4808720Y-15968884D02*
X4827767Y-15978408D01*
X4827767Y-15978408D02*
X4837291Y-15987931D01*
X4837291Y-15987931D02*
X4846815Y-16006979D01*
X4846815Y-16006979D02*
X4856339Y-16045074D01*
X4856339Y-16045074D02*
X4856339Y-16092693D01*
X4856339Y-16092693D02*
X4846815Y-16130788D01*
X4846815Y-16130788D02*
X4837291Y-16149836D01*
X4837291Y-16149836D02*
X4827767Y-16159360D01*
X4827767Y-16159360D02*
X4808720Y-16168884D01*
X4808720Y-16168884D02*
X4789672Y-16168884D01*
X4789672Y-16168884D02*
X4770624Y-16159360D01*
X4770624Y-16159360D02*
X4761101Y-16149836D01*
X4761101Y-16149836D02*
X4751577Y-16130788D01*
X4751577Y-16130788D02*
X4742053Y-16092693D01*
X4742053Y-16092693D02*
X4742053Y-16045074D01*
X4742053Y-16045074D02*
X4751577Y-16006979D01*
X4751577Y-16006979D02*
X4761101Y-15987931D01*
X4761101Y-15987931D02*
X4770624Y-15978408D01*
X4770624Y-15978408D02*
X4789672Y-15968884D01*
X4942053Y-16149836D02*
X4951577Y-16159360D01*
X4951577Y-16159360D02*
X4942053Y-16168884D01*
X4942053Y-16168884D02*
X4932529Y-16159360D01*
X4932529Y-16159360D02*
X4942053Y-16149836D01*
X4942053Y-16149836D02*
X4942053Y-16168884D01*
X5065863Y-16054598D02*
X5046815Y-16045074D01*
X5046815Y-16045074D02*
X5037291Y-16035550D01*
X5037291Y-16035550D02*
X5027767Y-16016503D01*
X5027767Y-16016503D02*
X5027767Y-16006979D01*
X5027767Y-16006979D02*
X5037291Y-15987931D01*
X5037291Y-15987931D02*
X5046815Y-15978408D01*
X5046815Y-15978408D02*
X5065863Y-15968884D01*
X5065863Y-15968884D02*
X5103958Y-15968884D01*
X5103958Y-15968884D02*
X5123005Y-15978408D01*
X5123005Y-15978408D02*
X5132529Y-15987931D01*
X5132529Y-15987931D02*
X5142053Y-16006979D01*
X5142053Y-16006979D02*
X5142053Y-16016503D01*
X5142053Y-16016503D02*
X5132529Y-16035550D01*
X5132529Y-16035550D02*
X5123005Y-16045074D01*
X5123005Y-16045074D02*
X5103958Y-16054598D01*
X5103958Y-16054598D02*
X5065863Y-16054598D01*
X5065863Y-16054598D02*
X5046815Y-16064122D01*
X5046815Y-16064122D02*
X5037291Y-16073646D01*
X5037291Y-16073646D02*
X5027767Y-16092693D01*
X5027767Y-16092693D02*
X5027767Y-16130788D01*
X5027767Y-16130788D02*
X5037291Y-16149836D01*
X5037291Y-16149836D02*
X5046815Y-16159360D01*
X5046815Y-16159360D02*
X5065863Y-16168884D01*
X5065863Y-16168884D02*
X5103958Y-16168884D01*
X5103958Y-16168884D02*
X5123005Y-16159360D01*
X5123005Y-16159360D02*
X5132529Y-16149836D01*
X5132529Y-16149836D02*
X5142053Y-16130788D01*
X5142053Y-16130788D02*
X5142053Y-16092693D01*
X5142053Y-16092693D02*
X5132529Y-16073646D01*
X5132529Y-16073646D02*
X5123005Y-16064122D01*
X5123005Y-16064122D02*
X5103958Y-16054598D01*
X5265863Y-15968884D02*
X5284910Y-15968884D01*
X5284910Y-15968884D02*
X5303958Y-15978408D01*
X5303958Y-15978408D02*
X5313482Y-15987931D01*
X5313482Y-15987931D02*
X5323005Y-16006979D01*
X5323005Y-16006979D02*
X5332529Y-16045074D01*
X5332529Y-16045074D02*
X5332529Y-16092693D01*
X5332529Y-16092693D02*
X5323005Y-16130788D01*
X5323005Y-16130788D02*
X5313482Y-16149836D01*
X5313482Y-16149836D02*
X5303958Y-16159360D01*
X5303958Y-16159360D02*
X5284910Y-16168884D01*
X5284910Y-16168884D02*
X5265863Y-16168884D01*
X5265863Y-16168884D02*
X5246815Y-16159360D01*
X5246815Y-16159360D02*
X5237291Y-16149836D01*
X5237291Y-16149836D02*
X5227767Y-16130788D01*
X5227767Y-16130788D02*
X5218244Y-16092693D01*
X5218244Y-16092693D02*
X5218244Y-16045074D01*
X5218244Y-16045074D02*
X5227767Y-16006979D01*
X5227767Y-16006979D02*
X5237291Y-15987931D01*
X5237291Y-15987931D02*
X5246815Y-15978408D01*
X5246815Y-15978408D02*
X5265863Y-15968884D01*
X5456339Y-15968884D02*
X5475386Y-15968884D01*
X5475386Y-15968884D02*
X5494434Y-15978408D01*
X5494434Y-15978408D02*
X5503958Y-15987931D01*
X5503958Y-15987931D02*
X5513482Y-16006979D01*
X5513482Y-16006979D02*
X5523005Y-16045074D01*
X5523005Y-16045074D02*
X5523005Y-16092693D01*
X5523005Y-16092693D02*
X5513482Y-16130788D01*
X5513482Y-16130788D02*
X5503958Y-16149836D01*
X5503958Y-16149836D02*
X5494434Y-16159360D01*
X5494434Y-16159360D02*
X5475386Y-16168884D01*
X5475386Y-16168884D02*
X5456339Y-16168884D01*
X5456339Y-16168884D02*
X5437291Y-16159360D01*
X5437291Y-16159360D02*
X5427767Y-16149836D01*
X5427767Y-16149836D02*
X5418244Y-16130788D01*
X5418244Y-16130788D02*
X5408720Y-16092693D01*
X5408720Y-16092693D02*
X5408720Y-16045074D01*
X5408720Y-16045074D02*
X5418244Y-16006979D01*
X5418244Y-16006979D02*
X5427767Y-15987931D01*
X5427767Y-15987931D02*
X5437291Y-15978408D01*
X5437291Y-15978408D02*
X5456339Y-15968884D01*
X5608720Y-16168884D02*
X5608720Y-16035550D01*
X5608720Y-16054598D02*
X5618243Y-16045074D01*
X5618243Y-16045074D02*
X5637291Y-16035550D01*
X5637291Y-16035550D02*
X5665863Y-16035550D01*
X5665863Y-16035550D02*
X5684910Y-16045074D01*
X5684910Y-16045074D02*
X5694434Y-16064122D01*
X5694434Y-16064122D02*
X5694434Y-16168884D01*
X5694434Y-16064122D02*
X5703958Y-16045074D01*
X5703958Y-16045074D02*
X5723005Y-16035550D01*
X5723005Y-16035550D02*
X5751577Y-16035550D01*
X5751577Y-16035550D02*
X5770624Y-16045074D01*
X5770624Y-16045074D02*
X5780148Y-16064122D01*
X5780148Y-16064122D02*
X5780148Y-16168884D01*
X5875386Y-16168884D02*
X5875386Y-16035550D01*
X5875386Y-16054598D02*
X5884910Y-16045074D01*
X5884910Y-16045074D02*
X5903958Y-16035550D01*
X5903958Y-16035550D02*
X5932529Y-16035550D01*
X5932529Y-16035550D02*
X5951577Y-16045074D01*
X5951577Y-16045074D02*
X5961101Y-16064122D01*
X5961101Y-16064122D02*
X5961101Y-16168884D01*
X5961101Y-16064122D02*
X5970624Y-16045074D01*
X5970624Y-16045074D02*
X5989672Y-16035550D01*
X5989672Y-16035550D02*
X6018243Y-16035550D01*
X6018243Y-16035550D02*
X6037291Y-16045074D01*
X6037291Y-16045074D02*
X6046815Y-16064122D01*
X6046815Y-16064122D02*
X6046815Y-16168884D01*
X6437291Y-15959360D02*
X6265863Y-16216503D01*
X6694434Y-15968884D02*
X6713482Y-15968884D01*
X6713482Y-15968884D02*
X6732529Y-15978408D01*
X6732529Y-15978408D02*
X6742053Y-15987931D01*
X6742053Y-15987931D02*
X6751577Y-16006979D01*
X6751577Y-16006979D02*
X6761101Y-16045074D01*
X6761101Y-16045074D02*
X6761101Y-16092693D01*
X6761101Y-16092693D02*
X6751577Y-16130788D01*
X6751577Y-16130788D02*
X6742053Y-16149836D01*
X6742053Y-16149836D02*
X6732529Y-16159360D01*
X6732529Y-16159360D02*
X6713482Y-16168884D01*
X6713482Y-16168884D02*
X6694434Y-16168884D01*
X6694434Y-16168884D02*
X6675386Y-16159360D01*
X6675386Y-16159360D02*
X6665863Y-16149836D01*
X6665863Y-16149836D02*
X6656339Y-16130788D01*
X6656339Y-16130788D02*
X6646815Y-16092693D01*
X6646815Y-16092693D02*
X6646815Y-16045074D01*
X6646815Y-16045074D02*
X6656339Y-16006979D01*
X6656339Y-16006979D02*
X6665863Y-15987931D01*
X6665863Y-15987931D02*
X6675386Y-15978408D01*
X6675386Y-15978408D02*
X6694434Y-15968884D01*
X6846815Y-16149836D02*
X6856339Y-16159360D01*
X6856339Y-16159360D02*
X6846815Y-16168884D01*
X6846815Y-16168884D02*
X6837291Y-16159360D01*
X6837291Y-16159360D02*
X6846815Y-16149836D01*
X6846815Y-16149836D02*
X6846815Y-16168884D01*
X6980148Y-15968884D02*
X6999196Y-15968884D01*
X6999196Y-15968884D02*
X7018244Y-15978408D01*
X7018244Y-15978408D02*
X7027767Y-15987931D01*
X7027767Y-15987931D02*
X7037291Y-16006979D01*
X7037291Y-16006979D02*
X7046815Y-16045074D01*
X7046815Y-16045074D02*
X7046815Y-16092693D01*
X7046815Y-16092693D02*
X7037291Y-16130788D01*
X7037291Y-16130788D02*
X7027767Y-16149836D01*
X7027767Y-16149836D02*
X7018244Y-16159360D01*
X7018244Y-16159360D02*
X6999196Y-16168884D01*
X6999196Y-16168884D02*
X6980148Y-16168884D01*
X6980148Y-16168884D02*
X6961101Y-16159360D01*
X6961101Y-16159360D02*
X6951577Y-16149836D01*
X6951577Y-16149836D02*
X6942053Y-16130788D01*
X6942053Y-16130788D02*
X6932529Y-16092693D01*
X6932529Y-16092693D02*
X6932529Y-16045074D01*
X6932529Y-16045074D02*
X6942053Y-16006979D01*
X6942053Y-16006979D02*
X6951577Y-15987931D01*
X6951577Y-15987931D02*
X6961101Y-15978408D01*
X6961101Y-15978408D02*
X6980148Y-15968884D01*
X7113482Y-15968884D02*
X7237291Y-15968884D01*
X7237291Y-15968884D02*
X7170625Y-16045074D01*
X7170625Y-16045074D02*
X7199196Y-16045074D01*
X7199196Y-16045074D02*
X7218244Y-16054598D01*
X7218244Y-16054598D02*
X7227767Y-16064122D01*
X7227767Y-16064122D02*
X7237291Y-16083169D01*
X7237291Y-16083169D02*
X7237291Y-16130788D01*
X7237291Y-16130788D02*
X7227767Y-16149836D01*
X7227767Y-16149836D02*
X7218244Y-16159360D01*
X7218244Y-16159360D02*
X7199196Y-16168884D01*
X7199196Y-16168884D02*
X7142053Y-16168884D01*
X7142053Y-16168884D02*
X7123006Y-16159360D01*
X7123006Y-16159360D02*
X7113482Y-16149836D01*
X7427767Y-16168884D02*
X7313482Y-16168884D01*
X7370625Y-16168884D02*
X7370625Y-15968884D01*
X7370625Y-15968884D02*
X7351577Y-15997455D01*
X7351577Y-15997455D02*
X7332529Y-16016503D01*
X7332529Y-16016503D02*
X7313482Y-16026027D01*
X7608720Y-15968884D02*
X7513482Y-15968884D01*
X7513482Y-15968884D02*
X7503958Y-16064122D01*
X7503958Y-16064122D02*
X7513482Y-16054598D01*
X7513482Y-16054598D02*
X7532529Y-16045074D01*
X7532529Y-16045074D02*
X7580148Y-16045074D01*
X7580148Y-16045074D02*
X7599196Y-16054598D01*
X7599196Y-16054598D02*
X7608720Y-16064122D01*
X7608720Y-16064122D02*
X7618244Y-16083169D01*
X7618244Y-16083169D02*
X7618244Y-16130788D01*
X7618244Y-16130788D02*
X7608720Y-16149836D01*
X7608720Y-16149836D02*
X7599196Y-16159360D01*
X7599196Y-16159360D02*
X7580148Y-16168884D01*
X7580148Y-16168884D02*
X7532529Y-16168884D01*
X7532529Y-16168884D02*
X7513482Y-16159360D01*
X7513482Y-16159360D02*
X7503958Y-16149836D01*
X7694434Y-15968884D02*
X7694434Y-16006979D01*
X7770625Y-15968884D02*
X7770625Y-16006979D01*
X8065863Y-16245074D02*
X8056339Y-16235550D01*
X8056339Y-16235550D02*
X8037291Y-16206979D01*
X8037291Y-16206979D02*
X8027768Y-16187931D01*
X8027768Y-16187931D02*
X8018244Y-16159360D01*
X8018244Y-16159360D02*
X8008720Y-16111741D01*
X8008720Y-16111741D02*
X8008720Y-16073646D01*
X8008720Y-16073646D02*
X8018244Y-16026027D01*
X8018244Y-16026027D02*
X8027768Y-15997455D01*
X8027768Y-15997455D02*
X8037291Y-15978408D01*
X8037291Y-15978408D02*
X8056339Y-15949836D01*
X8056339Y-15949836D02*
X8065863Y-15940312D01*
X8227768Y-15968884D02*
X8189672Y-15968884D01*
X8189672Y-15968884D02*
X8170625Y-15978408D01*
X8170625Y-15978408D02*
X8161101Y-15987931D01*
X8161101Y-15987931D02*
X8142053Y-16016503D01*
X8142053Y-16016503D02*
X8132529Y-16054598D01*
X8132529Y-16054598D02*
X8132529Y-16130788D01*
X8132529Y-16130788D02*
X8142053Y-16149836D01*
X8142053Y-16149836D02*
X8151577Y-16159360D01*
X8151577Y-16159360D02*
X8170625Y-16168884D01*
X8170625Y-16168884D02*
X8208720Y-16168884D01*
X8208720Y-16168884D02*
X8227768Y-16159360D01*
X8227768Y-16159360D02*
X8237291Y-16149836D01*
X8237291Y-16149836D02*
X8246815Y-16130788D01*
X8246815Y-16130788D02*
X8246815Y-16083169D01*
X8246815Y-16083169D02*
X8237291Y-16064122D01*
X8237291Y-16064122D02*
X8227768Y-16054598D01*
X8227768Y-16054598D02*
X8208720Y-16045074D01*
X8208720Y-16045074D02*
X8170625Y-16045074D01*
X8170625Y-16045074D02*
X8151577Y-16054598D01*
X8151577Y-16054598D02*
X8142053Y-16064122D01*
X8142053Y-16064122D02*
X8132529Y-16083169D01*
X8370625Y-15968884D02*
X8389672Y-15968884D01*
X8389672Y-15968884D02*
X8408720Y-15978408D01*
X8408720Y-15978408D02*
X8418244Y-15987931D01*
X8418244Y-15987931D02*
X8427768Y-16006979D01*
X8427768Y-16006979D02*
X8437291Y-16045074D01*
X8437291Y-16045074D02*
X8437291Y-16092693D01*
X8437291Y-16092693D02*
X8427768Y-16130788D01*
X8427768Y-16130788D02*
X8418244Y-16149836D01*
X8418244Y-16149836D02*
X8408720Y-16159360D01*
X8408720Y-16159360D02*
X8389672Y-16168884D01*
X8389672Y-16168884D02*
X8370625Y-16168884D01*
X8370625Y-16168884D02*
X8351577Y-16159360D01*
X8351577Y-16159360D02*
X8342053Y-16149836D01*
X8342053Y-16149836D02*
X8332529Y-16130788D01*
X8332529Y-16130788D02*
X8323006Y-16092693D01*
X8323006Y-16092693D02*
X8323006Y-16045074D01*
X8323006Y-16045074D02*
X8332529Y-16006979D01*
X8332529Y-16006979D02*
X8342053Y-15987931D01*
X8342053Y-15987931D02*
X8351577Y-15978408D01*
X8351577Y-15978408D02*
X8370625Y-15968884D01*
X8675387Y-16168884D02*
X8675387Y-15968884D01*
X8761101Y-16168884D02*
X8761101Y-16064122D01*
X8761101Y-16064122D02*
X8751577Y-16045074D01*
X8751577Y-16045074D02*
X8732530Y-16035550D01*
X8732530Y-16035550D02*
X8703958Y-16035550D01*
X8703958Y-16035550D02*
X8684911Y-16045074D01*
X8684911Y-16045074D02*
X8675387Y-16054598D01*
X8884911Y-16168884D02*
X8865863Y-16159360D01*
X8865863Y-16159360D02*
X8856339Y-16149836D01*
X8856339Y-16149836D02*
X8846815Y-16130788D01*
X8846815Y-16130788D02*
X8846815Y-16073646D01*
X8846815Y-16073646D02*
X8856339Y-16054598D01*
X8856339Y-16054598D02*
X8865863Y-16045074D01*
X8865863Y-16045074D02*
X8884911Y-16035550D01*
X8884911Y-16035550D02*
X8913482Y-16035550D01*
X8913482Y-16035550D02*
X8932530Y-16045074D01*
X8932530Y-16045074D02*
X8942053Y-16054598D01*
X8942053Y-16054598D02*
X8951577Y-16073646D01*
X8951577Y-16073646D02*
X8951577Y-16130788D01*
X8951577Y-16130788D02*
X8942053Y-16149836D01*
X8942053Y-16149836D02*
X8932530Y-16159360D01*
X8932530Y-16159360D02*
X8913482Y-16168884D01*
X8913482Y-16168884D02*
X8884911Y-16168884D01*
X9065863Y-16168884D02*
X9046815Y-16159360D01*
X9046815Y-16159360D02*
X9037292Y-16140312D01*
X9037292Y-16140312D02*
X9037292Y-15968884D01*
X9218244Y-16159360D02*
X9199196Y-16168884D01*
X9199196Y-16168884D02*
X9161101Y-16168884D01*
X9161101Y-16168884D02*
X9142053Y-16159360D01*
X9142053Y-16159360D02*
X9132530Y-16140312D01*
X9132530Y-16140312D02*
X9132530Y-16064122D01*
X9132530Y-16064122D02*
X9142053Y-16045074D01*
X9142053Y-16045074D02*
X9161101Y-16035550D01*
X9161101Y-16035550D02*
X9199196Y-16035550D01*
X9199196Y-16035550D02*
X9218244Y-16045074D01*
X9218244Y-16045074D02*
X9227768Y-16064122D01*
X9227768Y-16064122D02*
X9227768Y-16083169D01*
X9227768Y-16083169D02*
X9132530Y-16102217D01*
X9303958Y-16159360D02*
X9323006Y-16168884D01*
X9323006Y-16168884D02*
X9361101Y-16168884D01*
X9361101Y-16168884D02*
X9380149Y-16159360D01*
X9380149Y-16159360D02*
X9389673Y-16140312D01*
X9389673Y-16140312D02*
X9389673Y-16130788D01*
X9389673Y-16130788D02*
X9380149Y-16111741D01*
X9380149Y-16111741D02*
X9361101Y-16102217D01*
X9361101Y-16102217D02*
X9332530Y-16102217D01*
X9332530Y-16102217D02*
X9313482Y-16092693D01*
X9313482Y-16092693D02*
X9303958Y-16073646D01*
X9303958Y-16073646D02*
X9303958Y-16064122D01*
X9303958Y-16064122D02*
X9313482Y-16045074D01*
X9313482Y-16045074D02*
X9332530Y-16035550D01*
X9332530Y-16035550D02*
X9361101Y-16035550D01*
X9361101Y-16035550D02*
X9380149Y-16045074D01*
X9456339Y-16245074D02*
X9465863Y-16235550D01*
X9465863Y-16235550D02*
X9484911Y-16206979D01*
X9484911Y-16206979D02*
X9494434Y-16187931D01*
X9494434Y-16187931D02*
X9503958Y-16159360D01*
X9503958Y-16159360D02*
X9513482Y-16111741D01*
X9513482Y-16111741D02*
X9513482Y-16073646D01*
X9513482Y-16073646D02*
X9503958Y-16026027D01*
X9503958Y-16026027D02*
X9494434Y-15997455D01*
X9494434Y-15997455D02*
X9484911Y-15978408D01*
X9484911Y-15978408D02*
X9465863Y-15949836D01*
X9465863Y-15949836D02*
X9456339Y-15940312D01*
D12*
X4380800Y-16286400D02*
X4490800Y-16396400D01*
X4490800Y-16286400D02*
X4380800Y-16396400D01*
X4490800Y-16341400D02*
G75*
G03*
X4380800Y-16341400I-55000J0D01*
G01*
X4380800Y-16341400D02*
G75*
G03*
X4490800Y-16341400I55000J0D01*
G01*
D11*
X4856339Y-16432884D02*
X4742053Y-16432884D01*
X4799196Y-16432884D02*
X4799196Y-16232884D01*
X4799196Y-16232884D02*
X4780148Y-16261455D01*
X4780148Y-16261455D02*
X4761101Y-16280503D01*
X4761101Y-16280503D02*
X4742053Y-16290027D01*
X4942053Y-16413836D02*
X4951577Y-16423360D01*
X4951577Y-16423360D02*
X4942053Y-16432884D01*
X4942053Y-16432884D02*
X4932529Y-16423360D01*
X4932529Y-16423360D02*
X4942053Y-16413836D01*
X4942053Y-16413836D02*
X4942053Y-16432884D01*
X5142053Y-16432884D02*
X5027767Y-16432884D01*
X5084910Y-16432884D02*
X5084910Y-16232884D01*
X5084910Y-16232884D02*
X5065863Y-16261455D01*
X5065863Y-16261455D02*
X5046815Y-16280503D01*
X5046815Y-16280503D02*
X5027767Y-16290027D01*
X5265863Y-16232884D02*
X5284910Y-16232884D01*
X5284910Y-16232884D02*
X5303958Y-16242408D01*
X5303958Y-16242408D02*
X5313482Y-16251931D01*
X5313482Y-16251931D02*
X5323005Y-16270979D01*
X5323005Y-16270979D02*
X5332529Y-16309074D01*
X5332529Y-16309074D02*
X5332529Y-16356693D01*
X5332529Y-16356693D02*
X5323005Y-16394788D01*
X5323005Y-16394788D02*
X5313482Y-16413836D01*
X5313482Y-16413836D02*
X5303958Y-16423360D01*
X5303958Y-16423360D02*
X5284910Y-16432884D01*
X5284910Y-16432884D02*
X5265863Y-16432884D01*
X5265863Y-16432884D02*
X5246815Y-16423360D01*
X5246815Y-16423360D02*
X5237291Y-16413836D01*
X5237291Y-16413836D02*
X5227767Y-16394788D01*
X5227767Y-16394788D02*
X5218244Y-16356693D01*
X5218244Y-16356693D02*
X5218244Y-16309074D01*
X5218244Y-16309074D02*
X5227767Y-16270979D01*
X5227767Y-16270979D02*
X5237291Y-16251931D01*
X5237291Y-16251931D02*
X5246815Y-16242408D01*
X5246815Y-16242408D02*
X5265863Y-16232884D01*
X5456339Y-16232884D02*
X5475386Y-16232884D01*
X5475386Y-16232884D02*
X5494434Y-16242408D01*
X5494434Y-16242408D02*
X5503958Y-16251931D01*
X5503958Y-16251931D02*
X5513482Y-16270979D01*
X5513482Y-16270979D02*
X5523005Y-16309074D01*
X5523005Y-16309074D02*
X5523005Y-16356693D01*
X5523005Y-16356693D02*
X5513482Y-16394788D01*
X5513482Y-16394788D02*
X5503958Y-16413836D01*
X5503958Y-16413836D02*
X5494434Y-16423360D01*
X5494434Y-16423360D02*
X5475386Y-16432884D01*
X5475386Y-16432884D02*
X5456339Y-16432884D01*
X5456339Y-16432884D02*
X5437291Y-16423360D01*
X5437291Y-16423360D02*
X5427767Y-16413836D01*
X5427767Y-16413836D02*
X5418244Y-16394788D01*
X5418244Y-16394788D02*
X5408720Y-16356693D01*
X5408720Y-16356693D02*
X5408720Y-16309074D01*
X5408720Y-16309074D02*
X5418244Y-16270979D01*
X5418244Y-16270979D02*
X5427767Y-16251931D01*
X5427767Y-16251931D02*
X5437291Y-16242408D01*
X5437291Y-16242408D02*
X5456339Y-16232884D01*
X5608720Y-16432884D02*
X5608720Y-16299550D01*
X5608720Y-16318598D02*
X5618243Y-16309074D01*
X5618243Y-16309074D02*
X5637291Y-16299550D01*
X5637291Y-16299550D02*
X5665863Y-16299550D01*
X5665863Y-16299550D02*
X5684910Y-16309074D01*
X5684910Y-16309074D02*
X5694434Y-16328122D01*
X5694434Y-16328122D02*
X5694434Y-16432884D01*
X5694434Y-16328122D02*
X5703958Y-16309074D01*
X5703958Y-16309074D02*
X5723005Y-16299550D01*
X5723005Y-16299550D02*
X5751577Y-16299550D01*
X5751577Y-16299550D02*
X5770624Y-16309074D01*
X5770624Y-16309074D02*
X5780148Y-16328122D01*
X5780148Y-16328122D02*
X5780148Y-16432884D01*
X5875386Y-16432884D02*
X5875386Y-16299550D01*
X5875386Y-16318598D02*
X5884910Y-16309074D01*
X5884910Y-16309074D02*
X5903958Y-16299550D01*
X5903958Y-16299550D02*
X5932529Y-16299550D01*
X5932529Y-16299550D02*
X5951577Y-16309074D01*
X5951577Y-16309074D02*
X5961101Y-16328122D01*
X5961101Y-16328122D02*
X5961101Y-16432884D01*
X5961101Y-16328122D02*
X5970624Y-16309074D01*
X5970624Y-16309074D02*
X5989672Y-16299550D01*
X5989672Y-16299550D02*
X6018243Y-16299550D01*
X6018243Y-16299550D02*
X6037291Y-16309074D01*
X6037291Y-16309074D02*
X6046815Y-16328122D01*
X6046815Y-16328122D02*
X6046815Y-16432884D01*
X6437291Y-16223360D02*
X6265863Y-16480503D01*
X6694434Y-16232884D02*
X6713482Y-16232884D01*
X6713482Y-16232884D02*
X6732529Y-16242408D01*
X6732529Y-16242408D02*
X6742053Y-16251931D01*
X6742053Y-16251931D02*
X6751577Y-16270979D01*
X6751577Y-16270979D02*
X6761101Y-16309074D01*
X6761101Y-16309074D02*
X6761101Y-16356693D01*
X6761101Y-16356693D02*
X6751577Y-16394788D01*
X6751577Y-16394788D02*
X6742053Y-16413836D01*
X6742053Y-16413836D02*
X6732529Y-16423360D01*
X6732529Y-16423360D02*
X6713482Y-16432884D01*
X6713482Y-16432884D02*
X6694434Y-16432884D01*
X6694434Y-16432884D02*
X6675386Y-16423360D01*
X6675386Y-16423360D02*
X6665863Y-16413836D01*
X6665863Y-16413836D02*
X6656339Y-16394788D01*
X6656339Y-16394788D02*
X6646815Y-16356693D01*
X6646815Y-16356693D02*
X6646815Y-16309074D01*
X6646815Y-16309074D02*
X6656339Y-16270979D01*
X6656339Y-16270979D02*
X6665863Y-16251931D01*
X6665863Y-16251931D02*
X6675386Y-16242408D01*
X6675386Y-16242408D02*
X6694434Y-16232884D01*
X6846815Y-16413836D02*
X6856339Y-16423360D01*
X6856339Y-16423360D02*
X6846815Y-16432884D01*
X6846815Y-16432884D02*
X6837291Y-16423360D01*
X6837291Y-16423360D02*
X6846815Y-16413836D01*
X6846815Y-16413836D02*
X6846815Y-16432884D01*
X6980148Y-16232884D02*
X6999196Y-16232884D01*
X6999196Y-16232884D02*
X7018244Y-16242408D01*
X7018244Y-16242408D02*
X7027767Y-16251931D01*
X7027767Y-16251931D02*
X7037291Y-16270979D01*
X7037291Y-16270979D02*
X7046815Y-16309074D01*
X7046815Y-16309074D02*
X7046815Y-16356693D01*
X7046815Y-16356693D02*
X7037291Y-16394788D01*
X7037291Y-16394788D02*
X7027767Y-16413836D01*
X7027767Y-16413836D02*
X7018244Y-16423360D01*
X7018244Y-16423360D02*
X6999196Y-16432884D01*
X6999196Y-16432884D02*
X6980148Y-16432884D01*
X6980148Y-16432884D02*
X6961101Y-16423360D01*
X6961101Y-16423360D02*
X6951577Y-16413836D01*
X6951577Y-16413836D02*
X6942053Y-16394788D01*
X6942053Y-16394788D02*
X6932529Y-16356693D01*
X6932529Y-16356693D02*
X6932529Y-16309074D01*
X6932529Y-16309074D02*
X6942053Y-16270979D01*
X6942053Y-16270979D02*
X6951577Y-16251931D01*
X6951577Y-16251931D02*
X6961101Y-16242408D01*
X6961101Y-16242408D02*
X6980148Y-16232884D01*
X7218244Y-16299550D02*
X7218244Y-16432884D01*
X7170625Y-16223360D02*
X7123006Y-16366217D01*
X7123006Y-16366217D02*
X7246815Y-16366217D01*
X7303958Y-16232884D02*
X7427767Y-16232884D01*
X7427767Y-16232884D02*
X7361101Y-16309074D01*
X7361101Y-16309074D02*
X7389672Y-16309074D01*
X7389672Y-16309074D02*
X7408720Y-16318598D01*
X7408720Y-16318598D02*
X7418244Y-16328122D01*
X7418244Y-16328122D02*
X7427767Y-16347169D01*
X7427767Y-16347169D02*
X7427767Y-16394788D01*
X7427767Y-16394788D02*
X7418244Y-16413836D01*
X7418244Y-16413836D02*
X7408720Y-16423360D01*
X7408720Y-16423360D02*
X7389672Y-16432884D01*
X7389672Y-16432884D02*
X7332529Y-16432884D01*
X7332529Y-16432884D02*
X7313482Y-16423360D01*
X7313482Y-16423360D02*
X7303958Y-16413836D01*
X7494434Y-16232884D02*
X7618244Y-16232884D01*
X7618244Y-16232884D02*
X7551577Y-16309074D01*
X7551577Y-16309074D02*
X7580148Y-16309074D01*
X7580148Y-16309074D02*
X7599196Y-16318598D01*
X7599196Y-16318598D02*
X7608720Y-16328122D01*
X7608720Y-16328122D02*
X7618244Y-16347169D01*
X7618244Y-16347169D02*
X7618244Y-16394788D01*
X7618244Y-16394788D02*
X7608720Y-16413836D01*
X7608720Y-16413836D02*
X7599196Y-16423360D01*
X7599196Y-16423360D02*
X7580148Y-16432884D01*
X7580148Y-16432884D02*
X7523006Y-16432884D01*
X7523006Y-16432884D02*
X7503958Y-16423360D01*
X7503958Y-16423360D02*
X7494434Y-16413836D01*
X7694434Y-16232884D02*
X7694434Y-16270979D01*
X7770625Y-16232884D02*
X7770625Y-16270979D01*
X8065863Y-16509074D02*
X8056339Y-16499550D01*
X8056339Y-16499550D02*
X8037291Y-16470979D01*
X8037291Y-16470979D02*
X8027768Y-16451931D01*
X8027768Y-16451931D02*
X8018244Y-16423360D01*
X8018244Y-16423360D02*
X8008720Y-16375741D01*
X8008720Y-16375741D02*
X8008720Y-16337646D01*
X8008720Y-16337646D02*
X8018244Y-16290027D01*
X8018244Y-16290027D02*
X8027768Y-16261455D01*
X8027768Y-16261455D02*
X8037291Y-16242408D01*
X8037291Y-16242408D02*
X8056339Y-16213836D01*
X8056339Y-16213836D02*
X8065863Y-16204312D01*
X8132529Y-16251931D02*
X8142053Y-16242408D01*
X8142053Y-16242408D02*
X8161101Y-16232884D01*
X8161101Y-16232884D02*
X8208720Y-16232884D01*
X8208720Y-16232884D02*
X8227768Y-16242408D01*
X8227768Y-16242408D02*
X8237291Y-16251931D01*
X8237291Y-16251931D02*
X8246815Y-16270979D01*
X8246815Y-16270979D02*
X8246815Y-16290027D01*
X8246815Y-16290027D02*
X8237291Y-16318598D01*
X8237291Y-16318598D02*
X8123006Y-16432884D01*
X8123006Y-16432884D02*
X8246815Y-16432884D01*
X8484911Y-16432884D02*
X8484911Y-16232884D01*
X8570625Y-16432884D02*
X8570625Y-16328122D01*
X8570625Y-16328122D02*
X8561101Y-16309074D01*
X8561101Y-16309074D02*
X8542053Y-16299550D01*
X8542053Y-16299550D02*
X8513482Y-16299550D01*
X8513482Y-16299550D02*
X8494434Y-16309074D01*
X8494434Y-16309074D02*
X8484911Y-16318598D01*
X8694434Y-16432884D02*
X8675387Y-16423360D01*
X8675387Y-16423360D02*
X8665863Y-16413836D01*
X8665863Y-16413836D02*
X8656339Y-16394788D01*
X8656339Y-16394788D02*
X8656339Y-16337646D01*
X8656339Y-16337646D02*
X8665863Y-16318598D01*
X8665863Y-16318598D02*
X8675387Y-16309074D01*
X8675387Y-16309074D02*
X8694434Y-16299550D01*
X8694434Y-16299550D02*
X8723006Y-16299550D01*
X8723006Y-16299550D02*
X8742053Y-16309074D01*
X8742053Y-16309074D02*
X8751577Y-16318598D01*
X8751577Y-16318598D02*
X8761101Y-16337646D01*
X8761101Y-16337646D02*
X8761101Y-16394788D01*
X8761101Y-16394788D02*
X8751577Y-16413836D01*
X8751577Y-16413836D02*
X8742053Y-16423360D01*
X8742053Y-16423360D02*
X8723006Y-16432884D01*
X8723006Y-16432884D02*
X8694434Y-16432884D01*
X8875387Y-16432884D02*
X8856339Y-16423360D01*
X8856339Y-16423360D02*
X8846815Y-16404312D01*
X8846815Y-16404312D02*
X8846815Y-16232884D01*
X9027768Y-16423360D02*
X9008720Y-16432884D01*
X9008720Y-16432884D02*
X8970625Y-16432884D01*
X8970625Y-16432884D02*
X8951577Y-16423360D01*
X8951577Y-16423360D02*
X8942053Y-16404312D01*
X8942053Y-16404312D02*
X8942053Y-16328122D01*
X8942053Y-16328122D02*
X8951577Y-16309074D01*
X8951577Y-16309074D02*
X8970625Y-16299550D01*
X8970625Y-16299550D02*
X9008720Y-16299550D01*
X9008720Y-16299550D02*
X9027768Y-16309074D01*
X9027768Y-16309074D02*
X9037292Y-16328122D01*
X9037292Y-16328122D02*
X9037292Y-16347169D01*
X9037292Y-16347169D02*
X8942053Y-16366217D01*
X9113482Y-16423360D02*
X9132530Y-16432884D01*
X9132530Y-16432884D02*
X9170625Y-16432884D01*
X9170625Y-16432884D02*
X9189673Y-16423360D01*
X9189673Y-16423360D02*
X9199196Y-16404312D01*
X9199196Y-16404312D02*
X9199196Y-16394788D01*
X9199196Y-16394788D02*
X9189673Y-16375741D01*
X9189673Y-16375741D02*
X9170625Y-16366217D01*
X9170625Y-16366217D02*
X9142053Y-16366217D01*
X9142053Y-16366217D02*
X9123006Y-16356693D01*
X9123006Y-16356693D02*
X9113482Y-16337646D01*
X9113482Y-16337646D02*
X9113482Y-16328122D01*
X9113482Y-16328122D02*
X9123006Y-16309074D01*
X9123006Y-16309074D02*
X9142053Y-16299550D01*
X9142053Y-16299550D02*
X9170625Y-16299550D01*
X9170625Y-16299550D02*
X9189673Y-16309074D01*
X9265863Y-16509074D02*
X9275387Y-16499550D01*
X9275387Y-16499550D02*
X9294434Y-16470979D01*
X9294434Y-16470979D02*
X9303958Y-16451931D01*
X9303958Y-16451931D02*
X9313482Y-16423360D01*
X9313482Y-16423360D02*
X9323006Y-16375741D01*
X9323006Y-16375741D02*
X9323006Y-16337646D01*
X9323006Y-16337646D02*
X9313482Y-16290027D01*
X9313482Y-16290027D02*
X9303958Y-16261455D01*
X9303958Y-16261455D02*
X9294434Y-16242408D01*
X9294434Y-16242408D02*
X9275387Y-16213836D01*
X9275387Y-16213836D02*
X9265863Y-16204312D01*
D13*
X4363800Y-16541900D02*
X4490800Y-16668900D01*
X4490800Y-16541900D02*
X4363800Y-16668900D01*
X4427300Y-16541900D02*
X4427300Y-16668900D01*
X4363800Y-16605400D02*
X4490800Y-16605400D01*
D11*
X4856339Y-16696884D02*
X4742053Y-16696884D01*
X4799196Y-16696884D02*
X4799196Y-16496884D01*
X4799196Y-16496884D02*
X4780148Y-16525455D01*
X4780148Y-16525455D02*
X4761101Y-16544503D01*
X4761101Y-16544503D02*
X4742053Y-16554027D01*
X4942053Y-16677836D02*
X4951577Y-16687360D01*
X4951577Y-16687360D02*
X4942053Y-16696884D01*
X4942053Y-16696884D02*
X4932529Y-16687360D01*
X4932529Y-16687360D02*
X4942053Y-16677836D01*
X4942053Y-16677836D02*
X4942053Y-16696884D01*
X5027767Y-16515931D02*
X5037291Y-16506408D01*
X5037291Y-16506408D02*
X5056339Y-16496884D01*
X5056339Y-16496884D02*
X5103958Y-16496884D01*
X5103958Y-16496884D02*
X5123005Y-16506408D01*
X5123005Y-16506408D02*
X5132529Y-16515931D01*
X5132529Y-16515931D02*
X5142053Y-16534979D01*
X5142053Y-16534979D02*
X5142053Y-16554027D01*
X5142053Y-16554027D02*
X5132529Y-16582598D01*
X5132529Y-16582598D02*
X5018244Y-16696884D01*
X5018244Y-16696884D02*
X5142053Y-16696884D01*
X5208720Y-16496884D02*
X5342053Y-16496884D01*
X5342053Y-16496884D02*
X5256339Y-16696884D01*
X5456339Y-16496884D02*
X5475386Y-16496884D01*
X5475386Y-16496884D02*
X5494434Y-16506408D01*
X5494434Y-16506408D02*
X5503958Y-16515931D01*
X5503958Y-16515931D02*
X5513482Y-16534979D01*
X5513482Y-16534979D02*
X5523005Y-16573074D01*
X5523005Y-16573074D02*
X5523005Y-16620693D01*
X5523005Y-16620693D02*
X5513482Y-16658788D01*
X5513482Y-16658788D02*
X5503958Y-16677836D01*
X5503958Y-16677836D02*
X5494434Y-16687360D01*
X5494434Y-16687360D02*
X5475386Y-16696884D01*
X5475386Y-16696884D02*
X5456339Y-16696884D01*
X5456339Y-16696884D02*
X5437291Y-16687360D01*
X5437291Y-16687360D02*
X5427767Y-16677836D01*
X5427767Y-16677836D02*
X5418244Y-16658788D01*
X5418244Y-16658788D02*
X5408720Y-16620693D01*
X5408720Y-16620693D02*
X5408720Y-16573074D01*
X5408720Y-16573074D02*
X5418244Y-16534979D01*
X5418244Y-16534979D02*
X5427767Y-16515931D01*
X5427767Y-16515931D02*
X5437291Y-16506408D01*
X5437291Y-16506408D02*
X5456339Y-16496884D01*
X5608720Y-16696884D02*
X5608720Y-16563550D01*
X5608720Y-16582598D02*
X5618243Y-16573074D01*
X5618243Y-16573074D02*
X5637291Y-16563550D01*
X5637291Y-16563550D02*
X5665863Y-16563550D01*
X5665863Y-16563550D02*
X5684910Y-16573074D01*
X5684910Y-16573074D02*
X5694434Y-16592122D01*
X5694434Y-16592122D02*
X5694434Y-16696884D01*
X5694434Y-16592122D02*
X5703958Y-16573074D01*
X5703958Y-16573074D02*
X5723005Y-16563550D01*
X5723005Y-16563550D02*
X5751577Y-16563550D01*
X5751577Y-16563550D02*
X5770624Y-16573074D01*
X5770624Y-16573074D02*
X5780148Y-16592122D01*
X5780148Y-16592122D02*
X5780148Y-16696884D01*
X5875386Y-16696884D02*
X5875386Y-16563550D01*
X5875386Y-16582598D02*
X5884910Y-16573074D01*
X5884910Y-16573074D02*
X5903958Y-16563550D01*
X5903958Y-16563550D02*
X5932529Y-16563550D01*
X5932529Y-16563550D02*
X5951577Y-16573074D01*
X5951577Y-16573074D02*
X5961101Y-16592122D01*
X5961101Y-16592122D02*
X5961101Y-16696884D01*
X5961101Y-16592122D02*
X5970624Y-16573074D01*
X5970624Y-16573074D02*
X5989672Y-16563550D01*
X5989672Y-16563550D02*
X6018243Y-16563550D01*
X6018243Y-16563550D02*
X6037291Y-16573074D01*
X6037291Y-16573074D02*
X6046815Y-16592122D01*
X6046815Y-16592122D02*
X6046815Y-16696884D01*
X6437291Y-16487360D02*
X6265863Y-16744503D01*
X6694434Y-16496884D02*
X6713482Y-16496884D01*
X6713482Y-16496884D02*
X6732529Y-16506408D01*
X6732529Y-16506408D02*
X6742053Y-16515931D01*
X6742053Y-16515931D02*
X6751577Y-16534979D01*
X6751577Y-16534979D02*
X6761101Y-16573074D01*
X6761101Y-16573074D02*
X6761101Y-16620693D01*
X6761101Y-16620693D02*
X6751577Y-16658788D01*
X6751577Y-16658788D02*
X6742053Y-16677836D01*
X6742053Y-16677836D02*
X6732529Y-16687360D01*
X6732529Y-16687360D02*
X6713482Y-16696884D01*
X6713482Y-16696884D02*
X6694434Y-16696884D01*
X6694434Y-16696884D02*
X6675386Y-16687360D01*
X6675386Y-16687360D02*
X6665863Y-16677836D01*
X6665863Y-16677836D02*
X6656339Y-16658788D01*
X6656339Y-16658788D02*
X6646815Y-16620693D01*
X6646815Y-16620693D02*
X6646815Y-16573074D01*
X6646815Y-16573074D02*
X6656339Y-16534979D01*
X6656339Y-16534979D02*
X6665863Y-16515931D01*
X6665863Y-16515931D02*
X6675386Y-16506408D01*
X6675386Y-16506408D02*
X6694434Y-16496884D01*
X6846815Y-16677836D02*
X6856339Y-16687360D01*
X6856339Y-16687360D02*
X6846815Y-16696884D01*
X6846815Y-16696884D02*
X6837291Y-16687360D01*
X6837291Y-16687360D02*
X6846815Y-16677836D01*
X6846815Y-16677836D02*
X6846815Y-16696884D01*
X6980148Y-16496884D02*
X6999196Y-16496884D01*
X6999196Y-16496884D02*
X7018244Y-16506408D01*
X7018244Y-16506408D02*
X7027767Y-16515931D01*
X7027767Y-16515931D02*
X7037291Y-16534979D01*
X7037291Y-16534979D02*
X7046815Y-16573074D01*
X7046815Y-16573074D02*
X7046815Y-16620693D01*
X7046815Y-16620693D02*
X7037291Y-16658788D01*
X7037291Y-16658788D02*
X7027767Y-16677836D01*
X7027767Y-16677836D02*
X7018244Y-16687360D01*
X7018244Y-16687360D02*
X6999196Y-16696884D01*
X6999196Y-16696884D02*
X6980148Y-16696884D01*
X6980148Y-16696884D02*
X6961101Y-16687360D01*
X6961101Y-16687360D02*
X6951577Y-16677836D01*
X6951577Y-16677836D02*
X6942053Y-16658788D01*
X6942053Y-16658788D02*
X6932529Y-16620693D01*
X6932529Y-16620693D02*
X6932529Y-16573074D01*
X6932529Y-16573074D02*
X6942053Y-16534979D01*
X6942053Y-16534979D02*
X6951577Y-16515931D01*
X6951577Y-16515931D02*
X6961101Y-16506408D01*
X6961101Y-16506408D02*
X6980148Y-16496884D01*
X7227767Y-16496884D02*
X7132529Y-16496884D01*
X7132529Y-16496884D02*
X7123006Y-16592122D01*
X7123006Y-16592122D02*
X7132529Y-16582598D01*
X7132529Y-16582598D02*
X7151577Y-16573074D01*
X7151577Y-16573074D02*
X7199196Y-16573074D01*
X7199196Y-16573074D02*
X7218244Y-16582598D01*
X7218244Y-16582598D02*
X7227767Y-16592122D01*
X7227767Y-16592122D02*
X7237291Y-16611169D01*
X7237291Y-16611169D02*
X7237291Y-16658788D01*
X7237291Y-16658788D02*
X7227767Y-16677836D01*
X7227767Y-16677836D02*
X7218244Y-16687360D01*
X7218244Y-16687360D02*
X7199196Y-16696884D01*
X7199196Y-16696884D02*
X7151577Y-16696884D01*
X7151577Y-16696884D02*
X7132529Y-16687360D01*
X7132529Y-16687360D02*
X7123006Y-16677836D01*
X7361101Y-16496884D02*
X7380148Y-16496884D01*
X7380148Y-16496884D02*
X7399196Y-16506408D01*
X7399196Y-16506408D02*
X7408720Y-16515931D01*
X7408720Y-16515931D02*
X7418244Y-16534979D01*
X7418244Y-16534979D02*
X7427767Y-16573074D01*
X7427767Y-16573074D02*
X7427767Y-16620693D01*
X7427767Y-16620693D02*
X7418244Y-16658788D01*
X7418244Y-16658788D02*
X7408720Y-16677836D01*
X7408720Y-16677836D02*
X7399196Y-16687360D01*
X7399196Y-16687360D02*
X7380148Y-16696884D01*
X7380148Y-16696884D02*
X7361101Y-16696884D01*
X7361101Y-16696884D02*
X7342053Y-16687360D01*
X7342053Y-16687360D02*
X7332529Y-16677836D01*
X7332529Y-16677836D02*
X7323006Y-16658788D01*
X7323006Y-16658788D02*
X7313482Y-16620693D01*
X7313482Y-16620693D02*
X7313482Y-16573074D01*
X7313482Y-16573074D02*
X7323006Y-16534979D01*
X7323006Y-16534979D02*
X7332529Y-16515931D01*
X7332529Y-16515931D02*
X7342053Y-16506408D01*
X7342053Y-16506408D02*
X7361101Y-16496884D01*
X7551577Y-16496884D02*
X7570625Y-16496884D01*
X7570625Y-16496884D02*
X7589672Y-16506408D01*
X7589672Y-16506408D02*
X7599196Y-16515931D01*
X7599196Y-16515931D02*
X7608720Y-16534979D01*
X7608720Y-16534979D02*
X7618244Y-16573074D01*
X7618244Y-16573074D02*
X7618244Y-16620693D01*
X7618244Y-16620693D02*
X7608720Y-16658788D01*
X7608720Y-16658788D02*
X7599196Y-16677836D01*
X7599196Y-16677836D02*
X7589672Y-16687360D01*
X7589672Y-16687360D02*
X7570625Y-16696884D01*
X7570625Y-16696884D02*
X7551577Y-16696884D01*
X7551577Y-16696884D02*
X7532529Y-16687360D01*
X7532529Y-16687360D02*
X7523006Y-16677836D01*
X7523006Y-16677836D02*
X7513482Y-16658788D01*
X7513482Y-16658788D02*
X7503958Y-16620693D01*
X7503958Y-16620693D02*
X7503958Y-16573074D01*
X7503958Y-16573074D02*
X7513482Y-16534979D01*
X7513482Y-16534979D02*
X7523006Y-16515931D01*
X7523006Y-16515931D02*
X7532529Y-16506408D01*
X7532529Y-16506408D02*
X7551577Y-16496884D01*
X7694434Y-16496884D02*
X7694434Y-16534979D01*
X7770625Y-16496884D02*
X7770625Y-16534979D01*
X8065863Y-16773074D02*
X8056339Y-16763550D01*
X8056339Y-16763550D02*
X8037291Y-16734979D01*
X8037291Y-16734979D02*
X8027768Y-16715931D01*
X8027768Y-16715931D02*
X8018244Y-16687360D01*
X8018244Y-16687360D02*
X8008720Y-16639741D01*
X8008720Y-16639741D02*
X8008720Y-16601646D01*
X8008720Y-16601646D02*
X8018244Y-16554027D01*
X8018244Y-16554027D02*
X8027768Y-16525455D01*
X8027768Y-16525455D02*
X8037291Y-16506408D01*
X8037291Y-16506408D02*
X8056339Y-16477836D01*
X8056339Y-16477836D02*
X8065863Y-16468312D01*
X8227768Y-16496884D02*
X8189672Y-16496884D01*
X8189672Y-16496884D02*
X8170625Y-16506408D01*
X8170625Y-16506408D02*
X8161101Y-16515931D01*
X8161101Y-16515931D02*
X8142053Y-16544503D01*
X8142053Y-16544503D02*
X8132529Y-16582598D01*
X8132529Y-16582598D02*
X8132529Y-16658788D01*
X8132529Y-16658788D02*
X8142053Y-16677836D01*
X8142053Y-16677836D02*
X8151577Y-16687360D01*
X8151577Y-16687360D02*
X8170625Y-16696884D01*
X8170625Y-16696884D02*
X8208720Y-16696884D01*
X8208720Y-16696884D02*
X8227768Y-16687360D01*
X8227768Y-16687360D02*
X8237291Y-16677836D01*
X8237291Y-16677836D02*
X8246815Y-16658788D01*
X8246815Y-16658788D02*
X8246815Y-16611169D01*
X8246815Y-16611169D02*
X8237291Y-16592122D01*
X8237291Y-16592122D02*
X8227768Y-16582598D01*
X8227768Y-16582598D02*
X8208720Y-16573074D01*
X8208720Y-16573074D02*
X8170625Y-16573074D01*
X8170625Y-16573074D02*
X8151577Y-16582598D01*
X8151577Y-16582598D02*
X8142053Y-16592122D01*
X8142053Y-16592122D02*
X8132529Y-16611169D01*
X8484911Y-16696884D02*
X8484911Y-16496884D01*
X8570625Y-16696884D02*
X8570625Y-16592122D01*
X8570625Y-16592122D02*
X8561101Y-16573074D01*
X8561101Y-16573074D02*
X8542053Y-16563550D01*
X8542053Y-16563550D02*
X8513482Y-16563550D01*
X8513482Y-16563550D02*
X8494434Y-16573074D01*
X8494434Y-16573074D02*
X8484911Y-16582598D01*
X8694434Y-16696884D02*
X8675387Y-16687360D01*
X8675387Y-16687360D02*
X8665863Y-16677836D01*
X8665863Y-16677836D02*
X8656339Y-16658788D01*
X8656339Y-16658788D02*
X8656339Y-16601646D01*
X8656339Y-16601646D02*
X8665863Y-16582598D01*
X8665863Y-16582598D02*
X8675387Y-16573074D01*
X8675387Y-16573074D02*
X8694434Y-16563550D01*
X8694434Y-16563550D02*
X8723006Y-16563550D01*
X8723006Y-16563550D02*
X8742053Y-16573074D01*
X8742053Y-16573074D02*
X8751577Y-16582598D01*
X8751577Y-16582598D02*
X8761101Y-16601646D01*
X8761101Y-16601646D02*
X8761101Y-16658788D01*
X8761101Y-16658788D02*
X8751577Y-16677836D01*
X8751577Y-16677836D02*
X8742053Y-16687360D01*
X8742053Y-16687360D02*
X8723006Y-16696884D01*
X8723006Y-16696884D02*
X8694434Y-16696884D01*
X8875387Y-16696884D02*
X8856339Y-16687360D01*
X8856339Y-16687360D02*
X8846815Y-16668312D01*
X8846815Y-16668312D02*
X8846815Y-16496884D01*
X9027768Y-16687360D02*
X9008720Y-16696884D01*
X9008720Y-16696884D02*
X8970625Y-16696884D01*
X8970625Y-16696884D02*
X8951577Y-16687360D01*
X8951577Y-16687360D02*
X8942053Y-16668312D01*
X8942053Y-16668312D02*
X8942053Y-16592122D01*
X8942053Y-16592122D02*
X8951577Y-16573074D01*
X8951577Y-16573074D02*
X8970625Y-16563550D01*
X8970625Y-16563550D02*
X9008720Y-16563550D01*
X9008720Y-16563550D02*
X9027768Y-16573074D01*
X9027768Y-16573074D02*
X9037292Y-16592122D01*
X9037292Y-16592122D02*
X9037292Y-16611169D01*
X9037292Y-16611169D02*
X8942053Y-16630217D01*
X9113482Y-16687360D02*
X9132530Y-16696884D01*
X9132530Y-16696884D02*
X9170625Y-16696884D01*
X9170625Y-16696884D02*
X9189673Y-16687360D01*
X9189673Y-16687360D02*
X9199196Y-16668312D01*
X9199196Y-16668312D02*
X9199196Y-16658788D01*
X9199196Y-16658788D02*
X9189673Y-16639741D01*
X9189673Y-16639741D02*
X9170625Y-16630217D01*
X9170625Y-16630217D02*
X9142053Y-16630217D01*
X9142053Y-16630217D02*
X9123006Y-16620693D01*
X9123006Y-16620693D02*
X9113482Y-16601646D01*
X9113482Y-16601646D02*
X9113482Y-16592122D01*
X9113482Y-16592122D02*
X9123006Y-16573074D01*
X9123006Y-16573074D02*
X9142053Y-16563550D01*
X9142053Y-16563550D02*
X9170625Y-16563550D01*
X9170625Y-16563550D02*
X9189673Y-16573074D01*
X9265863Y-16773074D02*
X9275387Y-16763550D01*
X9275387Y-16763550D02*
X9294434Y-16734979D01*
X9294434Y-16734979D02*
X9303958Y-16715931D01*
X9303958Y-16715931D02*
X9313482Y-16687360D01*
X9313482Y-16687360D02*
X9323006Y-16639741D01*
X9323006Y-16639741D02*
X9323006Y-16601646D01*
X9323006Y-16601646D02*
X9313482Y-16554027D01*
X9313482Y-16554027D02*
X9303958Y-16525455D01*
X9303958Y-16525455D02*
X9294434Y-16506408D01*
X9294434Y-16506408D02*
X9275387Y-16477836D01*
X9275387Y-16477836D02*
X9265863Y-16468312D01*
D14*
X4360800Y-16804400D02*
X4490800Y-16934400D01*
X4490800Y-16804400D02*
X4360800Y-16934400D01*
X4471762Y-16915362D02*
X4471762Y-16823438D01*
X4379838Y-16823438D01*
X4379838Y-16915362D01*
X4471762Y-16915362D01*
D11*
X4856339Y-16960884D02*
X4742053Y-16960884D01*
X4799196Y-16960884D02*
X4799196Y-16760884D01*
X4799196Y-16760884D02*
X4780148Y-16789455D01*
X4780148Y-16789455D02*
X4761101Y-16808503D01*
X4761101Y-16808503D02*
X4742053Y-16818027D01*
X4942053Y-16941836D02*
X4951577Y-16951360D01*
X4951577Y-16951360D02*
X4942053Y-16960884D01*
X4942053Y-16960884D02*
X4932529Y-16951360D01*
X4932529Y-16951360D02*
X4942053Y-16941836D01*
X4942053Y-16941836D02*
X4942053Y-16960884D01*
X5018244Y-16760884D02*
X5142053Y-16760884D01*
X5142053Y-16760884D02*
X5075386Y-16837074D01*
X5075386Y-16837074D02*
X5103958Y-16837074D01*
X5103958Y-16837074D02*
X5123005Y-16846598D01*
X5123005Y-16846598D02*
X5132529Y-16856122D01*
X5132529Y-16856122D02*
X5142053Y-16875170D01*
X5142053Y-16875170D02*
X5142053Y-16922789D01*
X5142053Y-16922789D02*
X5132529Y-16941836D01*
X5132529Y-16941836D02*
X5123005Y-16951360D01*
X5123005Y-16951360D02*
X5103958Y-16960884D01*
X5103958Y-16960884D02*
X5046815Y-16960884D01*
X5046815Y-16960884D02*
X5027767Y-16951360D01*
X5027767Y-16951360D02*
X5018244Y-16941836D01*
X5265863Y-16760884D02*
X5284910Y-16760884D01*
X5284910Y-16760884D02*
X5303958Y-16770408D01*
X5303958Y-16770408D02*
X5313482Y-16779931D01*
X5313482Y-16779931D02*
X5323005Y-16798979D01*
X5323005Y-16798979D02*
X5332529Y-16837074D01*
X5332529Y-16837074D02*
X5332529Y-16884693D01*
X5332529Y-16884693D02*
X5323005Y-16922789D01*
X5323005Y-16922789D02*
X5313482Y-16941836D01*
X5313482Y-16941836D02*
X5303958Y-16951360D01*
X5303958Y-16951360D02*
X5284910Y-16960884D01*
X5284910Y-16960884D02*
X5265863Y-16960884D01*
X5265863Y-16960884D02*
X5246815Y-16951360D01*
X5246815Y-16951360D02*
X5237291Y-16941836D01*
X5237291Y-16941836D02*
X5227767Y-16922789D01*
X5227767Y-16922789D02*
X5218244Y-16884693D01*
X5218244Y-16884693D02*
X5218244Y-16837074D01*
X5218244Y-16837074D02*
X5227767Y-16798979D01*
X5227767Y-16798979D02*
X5237291Y-16779931D01*
X5237291Y-16779931D02*
X5246815Y-16770408D01*
X5246815Y-16770408D02*
X5265863Y-16760884D01*
X5456339Y-16760884D02*
X5475386Y-16760884D01*
X5475386Y-16760884D02*
X5494434Y-16770408D01*
X5494434Y-16770408D02*
X5503958Y-16779931D01*
X5503958Y-16779931D02*
X5513482Y-16798979D01*
X5513482Y-16798979D02*
X5523005Y-16837074D01*
X5523005Y-16837074D02*
X5523005Y-16884693D01*
X5523005Y-16884693D02*
X5513482Y-16922789D01*
X5513482Y-16922789D02*
X5503958Y-16941836D01*
X5503958Y-16941836D02*
X5494434Y-16951360D01*
X5494434Y-16951360D02*
X5475386Y-16960884D01*
X5475386Y-16960884D02*
X5456339Y-16960884D01*
X5456339Y-16960884D02*
X5437291Y-16951360D01*
X5437291Y-16951360D02*
X5427767Y-16941836D01*
X5427767Y-16941836D02*
X5418244Y-16922789D01*
X5418244Y-16922789D02*
X5408720Y-16884693D01*
X5408720Y-16884693D02*
X5408720Y-16837074D01*
X5408720Y-16837074D02*
X5418244Y-16798979D01*
X5418244Y-16798979D02*
X5427767Y-16779931D01*
X5427767Y-16779931D02*
X5437291Y-16770408D01*
X5437291Y-16770408D02*
X5456339Y-16760884D01*
X5608720Y-16960884D02*
X5608720Y-16827550D01*
X5608720Y-16846598D02*
X5618243Y-16837074D01*
X5618243Y-16837074D02*
X5637291Y-16827550D01*
X5637291Y-16827550D02*
X5665863Y-16827550D01*
X5665863Y-16827550D02*
X5684910Y-16837074D01*
X5684910Y-16837074D02*
X5694434Y-16856122D01*
X5694434Y-16856122D02*
X5694434Y-16960884D01*
X5694434Y-16856122D02*
X5703958Y-16837074D01*
X5703958Y-16837074D02*
X5723005Y-16827550D01*
X5723005Y-16827550D02*
X5751577Y-16827550D01*
X5751577Y-16827550D02*
X5770624Y-16837074D01*
X5770624Y-16837074D02*
X5780148Y-16856122D01*
X5780148Y-16856122D02*
X5780148Y-16960884D01*
X5875386Y-16960884D02*
X5875386Y-16827550D01*
X5875386Y-16846598D02*
X5884910Y-16837074D01*
X5884910Y-16837074D02*
X5903958Y-16827550D01*
X5903958Y-16827550D02*
X5932529Y-16827550D01*
X5932529Y-16827550D02*
X5951577Y-16837074D01*
X5951577Y-16837074D02*
X5961101Y-16856122D01*
X5961101Y-16856122D02*
X5961101Y-16960884D01*
X5961101Y-16856122D02*
X5970624Y-16837074D01*
X5970624Y-16837074D02*
X5989672Y-16827550D01*
X5989672Y-16827550D02*
X6018243Y-16827550D01*
X6018243Y-16827550D02*
X6037291Y-16837074D01*
X6037291Y-16837074D02*
X6046815Y-16856122D01*
X6046815Y-16856122D02*
X6046815Y-16960884D01*
X6437291Y-16751360D02*
X6265863Y-17008503D01*
X6694434Y-16760884D02*
X6713482Y-16760884D01*
X6713482Y-16760884D02*
X6732529Y-16770408D01*
X6732529Y-16770408D02*
X6742053Y-16779931D01*
X6742053Y-16779931D02*
X6751577Y-16798979D01*
X6751577Y-16798979D02*
X6761101Y-16837074D01*
X6761101Y-16837074D02*
X6761101Y-16884693D01*
X6761101Y-16884693D02*
X6751577Y-16922789D01*
X6751577Y-16922789D02*
X6742053Y-16941836D01*
X6742053Y-16941836D02*
X6732529Y-16951360D01*
X6732529Y-16951360D02*
X6713482Y-16960884D01*
X6713482Y-16960884D02*
X6694434Y-16960884D01*
X6694434Y-16960884D02*
X6675386Y-16951360D01*
X6675386Y-16951360D02*
X6665863Y-16941836D01*
X6665863Y-16941836D02*
X6656339Y-16922789D01*
X6656339Y-16922789D02*
X6646815Y-16884693D01*
X6646815Y-16884693D02*
X6646815Y-16837074D01*
X6646815Y-16837074D02*
X6656339Y-16798979D01*
X6656339Y-16798979D02*
X6665863Y-16779931D01*
X6665863Y-16779931D02*
X6675386Y-16770408D01*
X6675386Y-16770408D02*
X6694434Y-16760884D01*
X6846815Y-16941836D02*
X6856339Y-16951360D01*
X6856339Y-16951360D02*
X6846815Y-16960884D01*
X6846815Y-16960884D02*
X6837291Y-16951360D01*
X6837291Y-16951360D02*
X6846815Y-16941836D01*
X6846815Y-16941836D02*
X6846815Y-16960884D01*
X6980148Y-16760884D02*
X6999196Y-16760884D01*
X6999196Y-16760884D02*
X7018244Y-16770408D01*
X7018244Y-16770408D02*
X7027767Y-16779931D01*
X7027767Y-16779931D02*
X7037291Y-16798979D01*
X7037291Y-16798979D02*
X7046815Y-16837074D01*
X7046815Y-16837074D02*
X7046815Y-16884693D01*
X7046815Y-16884693D02*
X7037291Y-16922789D01*
X7037291Y-16922789D02*
X7027767Y-16941836D01*
X7027767Y-16941836D02*
X7018244Y-16951360D01*
X7018244Y-16951360D02*
X6999196Y-16960884D01*
X6999196Y-16960884D02*
X6980148Y-16960884D01*
X6980148Y-16960884D02*
X6961101Y-16951360D01*
X6961101Y-16951360D02*
X6951577Y-16941836D01*
X6951577Y-16941836D02*
X6942053Y-16922789D01*
X6942053Y-16922789D02*
X6932529Y-16884693D01*
X6932529Y-16884693D02*
X6932529Y-16837074D01*
X6932529Y-16837074D02*
X6942053Y-16798979D01*
X6942053Y-16798979D02*
X6951577Y-16779931D01*
X6951577Y-16779931D02*
X6961101Y-16770408D01*
X6961101Y-16770408D02*
X6980148Y-16760884D01*
X7227767Y-16760884D02*
X7132529Y-16760884D01*
X7132529Y-16760884D02*
X7123006Y-16856122D01*
X7123006Y-16856122D02*
X7132529Y-16846598D01*
X7132529Y-16846598D02*
X7151577Y-16837074D01*
X7151577Y-16837074D02*
X7199196Y-16837074D01*
X7199196Y-16837074D02*
X7218244Y-16846598D01*
X7218244Y-16846598D02*
X7227767Y-16856122D01*
X7227767Y-16856122D02*
X7237291Y-16875170D01*
X7237291Y-16875170D02*
X7237291Y-16922789D01*
X7237291Y-16922789D02*
X7227767Y-16941836D01*
X7227767Y-16941836D02*
X7218244Y-16951360D01*
X7218244Y-16951360D02*
X7199196Y-16960884D01*
X7199196Y-16960884D02*
X7151577Y-16960884D01*
X7151577Y-16960884D02*
X7132529Y-16951360D01*
X7132529Y-16951360D02*
X7123006Y-16941836D01*
X7427767Y-16960884D02*
X7313482Y-16960884D01*
X7370625Y-16960884D02*
X7370625Y-16760884D01*
X7370625Y-16760884D02*
X7351577Y-16789455D01*
X7351577Y-16789455D02*
X7332529Y-16808503D01*
X7332529Y-16808503D02*
X7313482Y-16818027D01*
X7503958Y-16779931D02*
X7513482Y-16770408D01*
X7513482Y-16770408D02*
X7532529Y-16760884D01*
X7532529Y-16760884D02*
X7580148Y-16760884D01*
X7580148Y-16760884D02*
X7599196Y-16770408D01*
X7599196Y-16770408D02*
X7608720Y-16779931D01*
X7608720Y-16779931D02*
X7618244Y-16798979D01*
X7618244Y-16798979D02*
X7618244Y-16818027D01*
X7618244Y-16818027D02*
X7608720Y-16846598D01*
X7608720Y-16846598D02*
X7494434Y-16960884D01*
X7494434Y-16960884D02*
X7618244Y-16960884D01*
X7694434Y-16760884D02*
X7694434Y-16798979D01*
X7770625Y-16760884D02*
X7770625Y-16798979D01*
X8065863Y-17037074D02*
X8056339Y-17027550D01*
X8056339Y-17027550D02*
X8037291Y-16998979D01*
X8037291Y-16998979D02*
X8027768Y-16979931D01*
X8027768Y-16979931D02*
X8018244Y-16951360D01*
X8018244Y-16951360D02*
X8008720Y-16903741D01*
X8008720Y-16903741D02*
X8008720Y-16865646D01*
X8008720Y-16865646D02*
X8018244Y-16818027D01*
X8018244Y-16818027D02*
X8027768Y-16789455D01*
X8027768Y-16789455D02*
X8037291Y-16770408D01*
X8037291Y-16770408D02*
X8056339Y-16741836D01*
X8056339Y-16741836D02*
X8065863Y-16732312D01*
X8246815Y-16960884D02*
X8132529Y-16960884D01*
X8189672Y-16960884D02*
X8189672Y-16760884D01*
X8189672Y-16760884D02*
X8170625Y-16789455D01*
X8170625Y-16789455D02*
X8151577Y-16808503D01*
X8151577Y-16808503D02*
X8132529Y-16818027D01*
X8323006Y-16779931D02*
X8332529Y-16770408D01*
X8332529Y-16770408D02*
X8351577Y-16760884D01*
X8351577Y-16760884D02*
X8399196Y-16760884D01*
X8399196Y-16760884D02*
X8418244Y-16770408D01*
X8418244Y-16770408D02*
X8427768Y-16779931D01*
X8427768Y-16779931D02*
X8437291Y-16798979D01*
X8437291Y-16798979D02*
X8437291Y-16818027D01*
X8437291Y-16818027D02*
X8427768Y-16846598D01*
X8427768Y-16846598D02*
X8313482Y-16960884D01*
X8313482Y-16960884D02*
X8437291Y-16960884D01*
X8675387Y-16960884D02*
X8675387Y-16760884D01*
X8761101Y-16960884D02*
X8761101Y-16856122D01*
X8761101Y-16856122D02*
X8751577Y-16837074D01*
X8751577Y-16837074D02*
X8732530Y-16827550D01*
X8732530Y-16827550D02*
X8703958Y-16827550D01*
X8703958Y-16827550D02*
X8684911Y-16837074D01*
X8684911Y-16837074D02*
X8675387Y-16846598D01*
X8884911Y-16960884D02*
X8865863Y-16951360D01*
X8865863Y-16951360D02*
X8856339Y-16941836D01*
X8856339Y-16941836D02*
X8846815Y-16922789D01*
X8846815Y-16922789D02*
X8846815Y-16865646D01*
X8846815Y-16865646D02*
X8856339Y-16846598D01*
X8856339Y-16846598D02*
X8865863Y-16837074D01*
X8865863Y-16837074D02*
X8884911Y-16827550D01*
X8884911Y-16827550D02*
X8913482Y-16827550D01*
X8913482Y-16827550D02*
X8932530Y-16837074D01*
X8932530Y-16837074D02*
X8942053Y-16846598D01*
X8942053Y-16846598D02*
X8951577Y-16865646D01*
X8951577Y-16865646D02*
X8951577Y-16922789D01*
X8951577Y-16922789D02*
X8942053Y-16941836D01*
X8942053Y-16941836D02*
X8932530Y-16951360D01*
X8932530Y-16951360D02*
X8913482Y-16960884D01*
X8913482Y-16960884D02*
X8884911Y-16960884D01*
X9065863Y-16960884D02*
X9046815Y-16951360D01*
X9046815Y-16951360D02*
X9037292Y-16932312D01*
X9037292Y-16932312D02*
X9037292Y-16760884D01*
X9218244Y-16951360D02*
X9199196Y-16960884D01*
X9199196Y-16960884D02*
X9161101Y-16960884D01*
X9161101Y-16960884D02*
X9142053Y-16951360D01*
X9142053Y-16951360D02*
X9132530Y-16932312D01*
X9132530Y-16932312D02*
X9132530Y-16856122D01*
X9132530Y-16856122D02*
X9142053Y-16837074D01*
X9142053Y-16837074D02*
X9161101Y-16827550D01*
X9161101Y-16827550D02*
X9199196Y-16827550D01*
X9199196Y-16827550D02*
X9218244Y-16837074D01*
X9218244Y-16837074D02*
X9227768Y-16856122D01*
X9227768Y-16856122D02*
X9227768Y-16875170D01*
X9227768Y-16875170D02*
X9132530Y-16894217D01*
X9303958Y-16951360D02*
X9323006Y-16960884D01*
X9323006Y-16960884D02*
X9361101Y-16960884D01*
X9361101Y-16960884D02*
X9380149Y-16951360D01*
X9380149Y-16951360D02*
X9389673Y-16932312D01*
X9389673Y-16932312D02*
X9389673Y-16922789D01*
X9389673Y-16922789D02*
X9380149Y-16903741D01*
X9380149Y-16903741D02*
X9361101Y-16894217D01*
X9361101Y-16894217D02*
X9332530Y-16894217D01*
X9332530Y-16894217D02*
X9313482Y-16884693D01*
X9313482Y-16884693D02*
X9303958Y-16865646D01*
X9303958Y-16865646D02*
X9303958Y-16856122D01*
X9303958Y-16856122D02*
X9313482Y-16837074D01*
X9313482Y-16837074D02*
X9332530Y-16827550D01*
X9332530Y-16827550D02*
X9361101Y-16827550D01*
X9361101Y-16827550D02*
X9380149Y-16837074D01*
X9456339Y-17037074D02*
X9465863Y-17027550D01*
X9465863Y-17027550D02*
X9484911Y-16998979D01*
X9484911Y-16998979D02*
X9494434Y-16979931D01*
X9494434Y-16979931D02*
X9503958Y-16951360D01*
X9503958Y-16951360D02*
X9513482Y-16903741D01*
X9513482Y-16903741D02*
X9513482Y-16865646D01*
X9513482Y-16865646D02*
X9503958Y-16818027D01*
X9503958Y-16818027D02*
X9494434Y-16789455D01*
X9494434Y-16789455D02*
X9484911Y-16770408D01*
X9484911Y-16770408D02*
X9465863Y-16741836D01*
X9465863Y-16741836D02*
X9456339Y-16732312D01*
X4290800Y-17033400D02*
X4490800Y-17233400D01*
X4490800Y-17033400D02*
X4290800Y-17233400D01*
X4390800Y-17233400D02*
X4490800Y-17133400D01*
X4390800Y-17033400D01*
X4290800Y-17133400D01*
X4390800Y-17233400D01*
X4837291Y-17091550D02*
X4837291Y-17224884D01*
X4789672Y-17015360D02*
X4742053Y-17158217D01*
X4742053Y-17158217D02*
X4865863Y-17158217D01*
X4942053Y-17205836D02*
X4951577Y-17215360D01*
X4951577Y-17215360D02*
X4942053Y-17224884D01*
X4942053Y-17224884D02*
X4932529Y-17215360D01*
X4932529Y-17215360D02*
X4942053Y-17205836D01*
X4942053Y-17205836D02*
X4942053Y-17224884D01*
X5018244Y-17024884D02*
X5142053Y-17024884D01*
X5142053Y-17024884D02*
X5075386Y-17101074D01*
X5075386Y-17101074D02*
X5103958Y-17101074D01*
X5103958Y-17101074D02*
X5123005Y-17110598D01*
X5123005Y-17110598D02*
X5132529Y-17120122D01*
X5132529Y-17120122D02*
X5142053Y-17139170D01*
X5142053Y-17139170D02*
X5142053Y-17186789D01*
X5142053Y-17186789D02*
X5132529Y-17205836D01*
X5132529Y-17205836D02*
X5123005Y-17215360D01*
X5123005Y-17215360D02*
X5103958Y-17224884D01*
X5103958Y-17224884D02*
X5046815Y-17224884D01*
X5046815Y-17224884D02*
X5027767Y-17215360D01*
X5027767Y-17215360D02*
X5018244Y-17205836D01*
X5265863Y-17024884D02*
X5284910Y-17024884D01*
X5284910Y-17024884D02*
X5303958Y-17034408D01*
X5303958Y-17034408D02*
X5313482Y-17043931D01*
X5313482Y-17043931D02*
X5323005Y-17062979D01*
X5323005Y-17062979D02*
X5332529Y-17101074D01*
X5332529Y-17101074D02*
X5332529Y-17148693D01*
X5332529Y-17148693D02*
X5323005Y-17186789D01*
X5323005Y-17186789D02*
X5313482Y-17205836D01*
X5313482Y-17205836D02*
X5303958Y-17215360D01*
X5303958Y-17215360D02*
X5284910Y-17224884D01*
X5284910Y-17224884D02*
X5265863Y-17224884D01*
X5265863Y-17224884D02*
X5246815Y-17215360D01*
X5246815Y-17215360D02*
X5237291Y-17205836D01*
X5237291Y-17205836D02*
X5227767Y-17186789D01*
X5227767Y-17186789D02*
X5218244Y-17148693D01*
X5218244Y-17148693D02*
X5218244Y-17101074D01*
X5218244Y-17101074D02*
X5227767Y-17062979D01*
X5227767Y-17062979D02*
X5237291Y-17043931D01*
X5237291Y-17043931D02*
X5246815Y-17034408D01*
X5246815Y-17034408D02*
X5265863Y-17024884D01*
X5456339Y-17024884D02*
X5475386Y-17024884D01*
X5475386Y-17024884D02*
X5494434Y-17034408D01*
X5494434Y-17034408D02*
X5503958Y-17043931D01*
X5503958Y-17043931D02*
X5513482Y-17062979D01*
X5513482Y-17062979D02*
X5523005Y-17101074D01*
X5523005Y-17101074D02*
X5523005Y-17148693D01*
X5523005Y-17148693D02*
X5513482Y-17186789D01*
X5513482Y-17186789D02*
X5503958Y-17205836D01*
X5503958Y-17205836D02*
X5494434Y-17215360D01*
X5494434Y-17215360D02*
X5475386Y-17224884D01*
X5475386Y-17224884D02*
X5456339Y-17224884D01*
X5456339Y-17224884D02*
X5437291Y-17215360D01*
X5437291Y-17215360D02*
X5427767Y-17205836D01*
X5427767Y-17205836D02*
X5418244Y-17186789D01*
X5418244Y-17186789D02*
X5408720Y-17148693D01*
X5408720Y-17148693D02*
X5408720Y-17101074D01*
X5408720Y-17101074D02*
X5418244Y-17062979D01*
X5418244Y-17062979D02*
X5427767Y-17043931D01*
X5427767Y-17043931D02*
X5437291Y-17034408D01*
X5437291Y-17034408D02*
X5456339Y-17024884D01*
X5608720Y-17224884D02*
X5608720Y-17091550D01*
X5608720Y-17110598D02*
X5618243Y-17101074D01*
X5618243Y-17101074D02*
X5637291Y-17091550D01*
X5637291Y-17091550D02*
X5665863Y-17091550D01*
X5665863Y-17091550D02*
X5684910Y-17101074D01*
X5684910Y-17101074D02*
X5694434Y-17120122D01*
X5694434Y-17120122D02*
X5694434Y-17224884D01*
X5694434Y-17120122D02*
X5703958Y-17101074D01*
X5703958Y-17101074D02*
X5723005Y-17091550D01*
X5723005Y-17091550D02*
X5751577Y-17091550D01*
X5751577Y-17091550D02*
X5770624Y-17101074D01*
X5770624Y-17101074D02*
X5780148Y-17120122D01*
X5780148Y-17120122D02*
X5780148Y-17224884D01*
X5875386Y-17224884D02*
X5875386Y-17091550D01*
X5875386Y-17110598D02*
X5884910Y-17101074D01*
X5884910Y-17101074D02*
X5903958Y-17091550D01*
X5903958Y-17091550D02*
X5932529Y-17091550D01*
X5932529Y-17091550D02*
X5951577Y-17101074D01*
X5951577Y-17101074D02*
X5961101Y-17120122D01*
X5961101Y-17120122D02*
X5961101Y-17224884D01*
X5961101Y-17120122D02*
X5970624Y-17101074D01*
X5970624Y-17101074D02*
X5989672Y-17091550D01*
X5989672Y-17091550D02*
X6018243Y-17091550D01*
X6018243Y-17091550D02*
X6037291Y-17101074D01*
X6037291Y-17101074D02*
X6046815Y-17120122D01*
X6046815Y-17120122D02*
X6046815Y-17224884D01*
X6437291Y-17015360D02*
X6265863Y-17272503D01*
X6694434Y-17024884D02*
X6713482Y-17024884D01*
X6713482Y-17024884D02*
X6732529Y-17034408D01*
X6732529Y-17034408D02*
X6742053Y-17043931D01*
X6742053Y-17043931D02*
X6751577Y-17062979D01*
X6751577Y-17062979D02*
X6761101Y-17101074D01*
X6761101Y-17101074D02*
X6761101Y-17148693D01*
X6761101Y-17148693D02*
X6751577Y-17186789D01*
X6751577Y-17186789D02*
X6742053Y-17205836D01*
X6742053Y-17205836D02*
X6732529Y-17215360D01*
X6732529Y-17215360D02*
X6713482Y-17224884D01*
X6713482Y-17224884D02*
X6694434Y-17224884D01*
X6694434Y-17224884D02*
X6675386Y-17215360D01*
X6675386Y-17215360D02*
X6665863Y-17205836D01*
X6665863Y-17205836D02*
X6656339Y-17186789D01*
X6656339Y-17186789D02*
X6646815Y-17148693D01*
X6646815Y-17148693D02*
X6646815Y-17101074D01*
X6646815Y-17101074D02*
X6656339Y-17062979D01*
X6656339Y-17062979D02*
X6665863Y-17043931D01*
X6665863Y-17043931D02*
X6675386Y-17034408D01*
X6675386Y-17034408D02*
X6694434Y-17024884D01*
X6846815Y-17205836D02*
X6856339Y-17215360D01*
X6856339Y-17215360D02*
X6846815Y-17224884D01*
X6846815Y-17224884D02*
X6837291Y-17215360D01*
X6837291Y-17215360D02*
X6846815Y-17205836D01*
X6846815Y-17205836D02*
X6846815Y-17224884D01*
X7046815Y-17224884D02*
X6932529Y-17224884D01*
X6989672Y-17224884D02*
X6989672Y-17024884D01*
X6989672Y-17024884D02*
X6970625Y-17053455D01*
X6970625Y-17053455D02*
X6951577Y-17072503D01*
X6951577Y-17072503D02*
X6932529Y-17082027D01*
X7218244Y-17024884D02*
X7180148Y-17024884D01*
X7180148Y-17024884D02*
X7161101Y-17034408D01*
X7161101Y-17034408D02*
X7151577Y-17043931D01*
X7151577Y-17043931D02*
X7132529Y-17072503D01*
X7132529Y-17072503D02*
X7123006Y-17110598D01*
X7123006Y-17110598D02*
X7123006Y-17186789D01*
X7123006Y-17186789D02*
X7132529Y-17205836D01*
X7132529Y-17205836D02*
X7142053Y-17215360D01*
X7142053Y-17215360D02*
X7161101Y-17224884D01*
X7161101Y-17224884D02*
X7199196Y-17224884D01*
X7199196Y-17224884D02*
X7218244Y-17215360D01*
X7218244Y-17215360D02*
X7227767Y-17205836D01*
X7227767Y-17205836D02*
X7237291Y-17186789D01*
X7237291Y-17186789D02*
X7237291Y-17139170D01*
X7237291Y-17139170D02*
X7227767Y-17120122D01*
X7227767Y-17120122D02*
X7218244Y-17110598D01*
X7218244Y-17110598D02*
X7199196Y-17101074D01*
X7199196Y-17101074D02*
X7161101Y-17101074D01*
X7161101Y-17101074D02*
X7142053Y-17110598D01*
X7142053Y-17110598D02*
X7132529Y-17120122D01*
X7132529Y-17120122D02*
X7123006Y-17139170D01*
X7332529Y-17224884D02*
X7370625Y-17224884D01*
X7370625Y-17224884D02*
X7389672Y-17215360D01*
X7389672Y-17215360D02*
X7399196Y-17205836D01*
X7399196Y-17205836D02*
X7418244Y-17177265D01*
X7418244Y-17177265D02*
X7427767Y-17139170D01*
X7427767Y-17139170D02*
X7427767Y-17062979D01*
X7427767Y-17062979D02*
X7418244Y-17043931D01*
X7418244Y-17043931D02*
X7408720Y-17034408D01*
X7408720Y-17034408D02*
X7389672Y-17024884D01*
X7389672Y-17024884D02*
X7351577Y-17024884D01*
X7351577Y-17024884D02*
X7332529Y-17034408D01*
X7332529Y-17034408D02*
X7323006Y-17043931D01*
X7323006Y-17043931D02*
X7313482Y-17062979D01*
X7313482Y-17062979D02*
X7313482Y-17110598D01*
X7313482Y-17110598D02*
X7323006Y-17129646D01*
X7323006Y-17129646D02*
X7332529Y-17139170D01*
X7332529Y-17139170D02*
X7351577Y-17148693D01*
X7351577Y-17148693D02*
X7389672Y-17148693D01*
X7389672Y-17148693D02*
X7408720Y-17139170D01*
X7408720Y-17139170D02*
X7418244Y-17129646D01*
X7418244Y-17129646D02*
X7427767Y-17110598D01*
X7494434Y-17024884D02*
X7618244Y-17024884D01*
X7618244Y-17024884D02*
X7551577Y-17101074D01*
X7551577Y-17101074D02*
X7580148Y-17101074D01*
X7580148Y-17101074D02*
X7599196Y-17110598D01*
X7599196Y-17110598D02*
X7608720Y-17120122D01*
X7608720Y-17120122D02*
X7618244Y-17139170D01*
X7618244Y-17139170D02*
X7618244Y-17186789D01*
X7618244Y-17186789D02*
X7608720Y-17205836D01*
X7608720Y-17205836D02*
X7599196Y-17215360D01*
X7599196Y-17215360D02*
X7580148Y-17224884D01*
X7580148Y-17224884D02*
X7523006Y-17224884D01*
X7523006Y-17224884D02*
X7503958Y-17215360D01*
X7503958Y-17215360D02*
X7494434Y-17205836D01*
X7694434Y-17024884D02*
X7694434Y-17062979D01*
X7770625Y-17024884D02*
X7770625Y-17062979D01*
X8065863Y-17301074D02*
X8056339Y-17291550D01*
X8056339Y-17291550D02*
X8037291Y-17262979D01*
X8037291Y-17262979D02*
X8027768Y-17243931D01*
X8027768Y-17243931D02*
X8018244Y-17215360D01*
X8018244Y-17215360D02*
X8008720Y-17167741D01*
X8008720Y-17167741D02*
X8008720Y-17129646D01*
X8008720Y-17129646D02*
X8018244Y-17082027D01*
X8018244Y-17082027D02*
X8027768Y-17053455D01*
X8027768Y-17053455D02*
X8037291Y-17034408D01*
X8037291Y-17034408D02*
X8056339Y-17005836D01*
X8056339Y-17005836D02*
X8065863Y-16996312D01*
X8227768Y-17091550D02*
X8227768Y-17224884D01*
X8180148Y-17015360D02*
X8132529Y-17158217D01*
X8132529Y-17158217D02*
X8256339Y-17158217D01*
X8484911Y-17224884D02*
X8484911Y-17024884D01*
X8570625Y-17224884D02*
X8570625Y-17120122D01*
X8570625Y-17120122D02*
X8561101Y-17101074D01*
X8561101Y-17101074D02*
X8542053Y-17091550D01*
X8542053Y-17091550D02*
X8513482Y-17091550D01*
X8513482Y-17091550D02*
X8494434Y-17101074D01*
X8494434Y-17101074D02*
X8484911Y-17110598D01*
X8694434Y-17224884D02*
X8675387Y-17215360D01*
X8675387Y-17215360D02*
X8665863Y-17205836D01*
X8665863Y-17205836D02*
X8656339Y-17186789D01*
X8656339Y-17186789D02*
X8656339Y-17129646D01*
X8656339Y-17129646D02*
X8665863Y-17110598D01*
X8665863Y-17110598D02*
X8675387Y-17101074D01*
X8675387Y-17101074D02*
X8694434Y-17091550D01*
X8694434Y-17091550D02*
X8723006Y-17091550D01*
X8723006Y-17091550D02*
X8742053Y-17101074D01*
X8742053Y-17101074D02*
X8751577Y-17110598D01*
X8751577Y-17110598D02*
X8761101Y-17129646D01*
X8761101Y-17129646D02*
X8761101Y-17186789D01*
X8761101Y-17186789D02*
X8751577Y-17205836D01*
X8751577Y-17205836D02*
X8742053Y-17215360D01*
X8742053Y-17215360D02*
X8723006Y-17224884D01*
X8723006Y-17224884D02*
X8694434Y-17224884D01*
X8875387Y-17224884D02*
X8856339Y-17215360D01*
X8856339Y-17215360D02*
X8846815Y-17196312D01*
X8846815Y-17196312D02*
X8846815Y-17024884D01*
X9027768Y-17215360D02*
X9008720Y-17224884D01*
X9008720Y-17224884D02*
X8970625Y-17224884D01*
X8970625Y-17224884D02*
X8951577Y-17215360D01*
X8951577Y-17215360D02*
X8942053Y-17196312D01*
X8942053Y-17196312D02*
X8942053Y-17120122D01*
X8942053Y-17120122D02*
X8951577Y-17101074D01*
X8951577Y-17101074D02*
X8970625Y-17091550D01*
X8970625Y-17091550D02*
X9008720Y-17091550D01*
X9008720Y-17091550D02*
X9027768Y-17101074D01*
X9027768Y-17101074D02*
X9037292Y-17120122D01*
X9037292Y-17120122D02*
X9037292Y-17139170D01*
X9037292Y-17139170D02*
X8942053Y-17158217D01*
X9113482Y-17215360D02*
X9132530Y-17224884D01*
X9132530Y-17224884D02*
X9170625Y-17224884D01*
X9170625Y-17224884D02*
X9189673Y-17215360D01*
X9189673Y-17215360D02*
X9199196Y-17196312D01*
X9199196Y-17196312D02*
X9199196Y-17186789D01*
X9199196Y-17186789D02*
X9189673Y-17167741D01*
X9189673Y-17167741D02*
X9170625Y-17158217D01*
X9170625Y-17158217D02*
X9142053Y-17158217D01*
X9142053Y-17158217D02*
X9123006Y-17148693D01*
X9123006Y-17148693D02*
X9113482Y-17129646D01*
X9113482Y-17129646D02*
X9113482Y-17120122D01*
X9113482Y-17120122D02*
X9123006Y-17101074D01*
X9123006Y-17101074D02*
X9142053Y-17091550D01*
X9142053Y-17091550D02*
X9170625Y-17091550D01*
X9170625Y-17091550D02*
X9189673Y-17101074D01*
X9265863Y-17301074D02*
X9275387Y-17291550D01*
X9275387Y-17291550D02*
X9294434Y-17262979D01*
X9294434Y-17262979D02*
X9303958Y-17243931D01*
X9303958Y-17243931D02*
X9313482Y-17215360D01*
X9313482Y-17215360D02*
X9323006Y-17167741D01*
X9323006Y-17167741D02*
X9323006Y-17129646D01*
X9323006Y-17129646D02*
X9313482Y-17082027D01*
X9313482Y-17082027D02*
X9303958Y-17053455D01*
X9303958Y-17053455D02*
X9294434Y-17034408D01*
X9294434Y-17034408D02*
X9275387Y-17005836D01*
X9275387Y-17005836D02*
X9265863Y-16996312D01*
M02*
