%TF.GenerationSoftware,KiCad,Pcbnew,7.0.10-7.0.10~ubuntu22.04.1*%
%TF.CreationDate,2024-01-09T13:34:09+01:00*%
%TF.ProjectId,pedal,70656461-6c2e-46b6-9963-61645f706362,rev?*%
%TF.SameCoordinates,Original*%
%TF.FileFunction,Copper,L1,Top*%
%TF.FilePolarity,Positive*%
%FSLAX46Y46*%
G04 Gerber Fmt 4.6, Leading zero omitted, Abs format (unit mm)*
G04 Created by KiCad (PCBNEW 7.0.10-7.0.10~ubuntu22.04.1) date 2024-01-09 13:34:09*
%MOMM*%
%LPD*%
G01*
G04 APERTURE LIST*
%TA.AperFunction,ComponentPad*%
%ADD10C,7.500000*%
%TD*%
%TA.AperFunction,ComponentPad*%
%ADD11R,1.350000X1.350000*%
%TD*%
%TA.AperFunction,ComponentPad*%
%ADD12O,1.350000X1.350000*%
%TD*%
%TA.AperFunction,ComponentPad*%
%ADD13R,2.200000X2.200000*%
%TD*%
%TA.AperFunction,ComponentPad*%
%ADD14O,2.200000X2.200000*%
%TD*%
%TA.AperFunction,ComponentPad*%
%ADD15R,1.600000X1.600000*%
%TD*%
%TA.AperFunction,ComponentPad*%
%ADD16O,1.600000X1.600000*%
%TD*%
%TA.AperFunction,ComponentPad*%
%ADD17C,1.600000*%
%TD*%
%TA.AperFunction,ComponentPad*%
%ADD18R,1.200000X1.200000*%
%TD*%
%TA.AperFunction,ComponentPad*%
%ADD19C,1.200000*%
%TD*%
%TA.AperFunction,ComponentPad*%
%ADD20C,1.400000*%
%TD*%
%TA.AperFunction,ComponentPad*%
%ADD21O,1.400000X1.400000*%
%TD*%
%TA.AperFunction,ComponentPad*%
%ADD22C,2.000000*%
%TD*%
%TA.AperFunction,ComponentPad*%
%ADD23C,2.235200*%
%TD*%
%TA.AperFunction,ComponentPad*%
%ADD24R,1.000000X1.000000*%
%TD*%
%TA.AperFunction,ComponentPad*%
%ADD25O,1.000000X1.000000*%
%TD*%
%TA.AperFunction,ViaPad*%
%ADD26C,0.800000*%
%TD*%
%TA.AperFunction,Conductor*%
%ADD27C,1.000000*%
%TD*%
G04 APERTURE END LIST*
D10*
%TO.P,J2,1,Pin_1*%
%TO.N,Earth*%
X87934800Y-133197600D03*
%TD*%
D11*
%TO.P,J6,1,Pin_1*%
%TO.N,OUT*%
X71424800Y-45262800D03*
D12*
%TO.P,J6,2,Pin_2*%
%TO.N,GND*%
X69424800Y-45262800D03*
%TD*%
D13*
%TO.P,D2,1,K*%
%TO.N,Net-(D1-A)*%
X67056000Y-92710000D03*
D14*
%TO.P,D2,2,A*%
%TO.N,Net-(D2-A)*%
X74676000Y-92710000D03*
%TD*%
D15*
%TO.P,D1,1,K*%
%TO.N,Net-(D1-K)*%
X48768000Y-74676000D03*
D16*
%TO.P,D1,2,A*%
%TO.N,Net-(D1-A)*%
X56388000Y-74676000D03*
%TD*%
D15*
%TO.P,C3,1*%
%TO.N,Net-(SW1A-A)*%
X59182000Y-81534000D03*
D17*
%TO.P,C3,2*%
%TO.N,4.5V*%
X61682000Y-81534000D03*
%TD*%
D18*
%TO.P,C2,1*%
%TO.N,Net-(D1-A)*%
X69406900Y-120142000D03*
D19*
%TO.P,C2,2*%
%TO.N,Net-(BT1--)*%
X71406900Y-120142000D03*
%TD*%
D15*
%TO.P,C1,1*%
%TO.N,4.5V*%
X50633600Y-82296000D03*
D17*
%TO.P,C1,2*%
%TO.N,Bufout*%
X53133600Y-82296000D03*
%TD*%
D20*
%TO.P,R11,1*%
%TO.N,4.5V*%
X78486000Y-96774000D03*
D21*
%TO.P,R11,2*%
%TO.N,Net-(U1C--)*%
X78486000Y-91694000D03*
%TD*%
D11*
%TO.P,RV2,1,1*%
%TO.N,Net-(U1C--)*%
X67850000Y-82296000D03*
D12*
%TO.P,RV2,2,2*%
%TO.N,Net-(C10-Pad1)*%
X69850000Y-82296000D03*
%TO.P,RV2,3,3*%
%TO.N,Net-(U1C-+)*%
X71850000Y-82296000D03*
%TD*%
D15*
%TO.P,C11,1*%
%TO.N,Net-(U1C--)*%
X84876000Y-69850000D03*
D17*
%TO.P,C11,2*%
%TO.N,GND*%
X87376000Y-69850000D03*
%TD*%
D20*
%TO.P,R9,1*%
%TO.N,Net-(D3-K)*%
X84328000Y-98298000D03*
D21*
%TO.P,R9,2*%
%TO.N,Net-(R9-Pad2)*%
X89408000Y-98298000D03*
%TD*%
D22*
%TO.P,SW3,1,A*%
%TO.N,Net-(SW3A-A)*%
X67858000Y-78676000D03*
%TO.P,SW3,2,B*%
%TO.N,Net-(SW3A-B)*%
X67858000Y-74676000D03*
%TO.P,SW3,3,C*%
%TO.N,Net-(SW3A-C)*%
X67858000Y-70676000D03*
%TO.P,SW3,4,A*%
%TO.N,Net-(SW3A-A)*%
X72858000Y-78676000D03*
%TO.P,SW3,5,B*%
%TO.N,Net-(D5-K)*%
X72858000Y-74676000D03*
%TO.P,SW3,6,C*%
%TO.N,unconnected-(SW3B-C-Pad6)*%
X72858000Y-70676000D03*
%TD*%
D23*
%TO.P,T1,1,PR1*%
%TO.N,Net-(D6-A)*%
X65278000Y-54102000D03*
%TO.P,T1,2,PM*%
%TO.N,GND*%
X65278000Y-58864500D03*
%TO.P,T1,3,PR2*%
%TO.N,Net-(D5-A)*%
X65278000Y-63627000D03*
%TO.P,T1,4,S1*%
%TO.N,Net-(SW3A-C)*%
X75971400Y-54102000D03*
%TO.P,T1,5,S2*%
%TO.N,unconnected-(T1-S2-Pad5)*%
X75971400Y-58864500D03*
%TO.P,T1,6,S2*%
%TO.N,GND*%
X75971400Y-63627000D03*
%TD*%
D15*
%TO.P,C8,1*%
%TO.N,Net-(D2-A)*%
X50840000Y-99568000D03*
D17*
%TO.P,C8,2*%
%TO.N,Net-(BT1--)*%
X53340000Y-99568000D03*
%TD*%
D20*
%TO.P,R2,1*%
%TO.N,Net-(D1-A)*%
X76962000Y-103632000D03*
D21*
%TO.P,R2,2*%
%TO.N,4.5V*%
X82042000Y-103632000D03*
%TD*%
D15*
%TO.P,U1,1*%
%TO.N,Net-(U1A--)*%
X66802000Y-98552000D03*
D16*
%TO.P,U1,2,-*%
X66802000Y-101092000D03*
%TO.P,U1,3,+*%
%TO.N,4.5V*%
X66802000Y-103632000D03*
%TO.P,U1,4,V+*%
%TO.N,Net-(D1-A)*%
X66802000Y-106172000D03*
%TO.P,U1,5,+*%
%TO.N,Net-(D3-K)*%
X66802000Y-108712000D03*
%TO.P,U1,6,-*%
%TO.N,Net-(U1B--)*%
X66802000Y-111252000D03*
%TO.P,U1,7*%
%TO.N,Net-(D3-A)*%
X66802000Y-113792000D03*
%TO.P,U1,8*%
%TO.N,Net-(R12-Pad2)*%
X74422000Y-113792000D03*
%TO.P,U1,9,-*%
%TO.N,Net-(U1C--)*%
X74422000Y-111252000D03*
%TO.P,U1,10,+*%
%TO.N,Net-(U1C-+)*%
X74422000Y-108712000D03*
%TO.P,U1,11,V-*%
%TO.N,Net-(BT1--)*%
X74422000Y-106172000D03*
%TO.P,U1,12,+*%
%TO.N,4.5V*%
X74422000Y-103632000D03*
%TO.P,U1,13,-*%
%TO.N,Net-(U1D--)*%
X74422000Y-101092000D03*
%TO.P,U1,14*%
X74422000Y-98552000D03*
%TD*%
D20*
%TO.P,R4,1*%
%TO.N,4.5V*%
X48768000Y-69952000D03*
D21*
%TO.P,R4,2*%
%TO.N,GND*%
X53848000Y-69952000D03*
%TD*%
D15*
%TO.P,C6,1*%
%TO.N,Net-(U1D--)*%
X78296900Y-109728000D03*
D17*
%TO.P,C6,2*%
%TO.N,OUT*%
X80796900Y-109728000D03*
%TD*%
D10*
%TO.P,J3,1,Pin_1*%
%TO.N,Earth*%
X53086000Y-49276000D03*
%TD*%
D20*
%TO.P,R3,1*%
%TO.N,4.5V*%
X48768000Y-66802000D03*
D21*
%TO.P,R3,2*%
%TO.N,Net-(BT1--)*%
X53848000Y-66802000D03*
%TD*%
D11*
%TO.P,J1,1,Pin_1*%
%TO.N,GND*%
X67850000Y-139446000D03*
D12*
%TO.P,J1,2,Pin_2*%
X69850000Y-139446000D03*
%TO.P,J1,3,Pin_3*%
%TO.N,Net-(J1-Pin_3)*%
X71850000Y-139446000D03*
%TD*%
D15*
%TO.P,C12,1*%
%TO.N,Net-(C12-Pad1)*%
X84876000Y-76400000D03*
D17*
%TO.P,C12,2*%
%TO.N,Net-(SW3A-B)*%
X87376000Y-76400000D03*
%TD*%
D11*
%TO.P,BT1,1,+*%
%TO.N,Net-(BT1-+)*%
X50292000Y-61722000D03*
D12*
%TO.P,BT1,2,-*%
%TO.N,Net-(BT1--)*%
X52292000Y-61722000D03*
%TD*%
D15*
%TO.P,D6,1,K*%
%TO.N,Net-(D5-K)*%
X81788000Y-62738000D03*
D16*
%TO.P,D6,2,A*%
%TO.N,Net-(D6-A)*%
X81788000Y-55118000D03*
%TD*%
D20*
%TO.P,R5,1*%
%TO.N,4.5V*%
X58420000Y-119634000D03*
D21*
%TO.P,R5,2*%
%TO.N,Out1*%
X63500000Y-119634000D03*
%TD*%
D20*
%TO.P,R12,1*%
%TO.N,Net-(U1C-+)*%
X77216000Y-117094000D03*
D21*
%TO.P,R12,2*%
%TO.N,Net-(R12-Pad2)*%
X82296000Y-117094000D03*
%TD*%
D10*
%TO.P,J5,1,Pin_1*%
%TO.N,Earth*%
X53340000Y-133350000D03*
%TD*%
D22*
%TO.P,SW1,1,A*%
%TO.N,Net-(SW1A-A)*%
X67898000Y-134492000D03*
%TO.P,SW1,2,B*%
%TO.N,Net-(J1-Pin_3)*%
X67898000Y-130492000D03*
%TO.P,SW1,3,C*%
%TO.N,Bypass*%
X67898000Y-126492000D03*
%TO.P,SW1,4,A*%
%TO.N,Net-(SW1B-A)*%
X72898000Y-134492000D03*
%TO.P,SW1,5,B*%
%TO.N,Bufout*%
X72898000Y-130492000D03*
%TO.P,SW1,6,C*%
%TO.N,Bypass*%
X72898000Y-126492000D03*
%TD*%
D20*
%TO.P,R6,1*%
%TO.N,Net-(D1-K)*%
X67818000Y-89662000D03*
D21*
%TO.P,R6,2*%
%TO.N,Net-(BT1--)*%
X72898000Y-89662000D03*
%TD*%
D15*
%TO.P,C10,1*%
%TO.N,Net-(C10-Pad1)*%
X77756000Y-73406000D03*
D17*
%TO.P,C10,2*%
%TO.N,Net-(C10-Pad2)*%
X79756000Y-73406000D03*
%TD*%
D20*
%TO.P,R13,1*%
%TO.N,Net-(R12-Pad2)*%
X58674000Y-116840000D03*
D21*
%TO.P,R13,2*%
%TO.N,Net-(C12-Pad1)*%
X63754000Y-116840000D03*
%TD*%
D20*
%TO.P,R10,1*%
%TO.N,GND*%
X78740000Y-88138000D03*
D21*
%TO.P,R10,2*%
%TO.N,Net-(C10-Pad2)*%
X78740000Y-83058000D03*
%TD*%
D11*
%TO.P,RV3,1,1*%
%TO.N,Net-(SW3A-A)*%
X68237600Y-48717200D03*
D12*
%TO.P,RV3,2,2*%
%TO.N,Net-(SW1B-A)*%
X70237600Y-48717200D03*
%TO.P,RV3,3,3*%
%TO.N,GND*%
X72237600Y-48717200D03*
%TD*%
D24*
%TO.P,SW2,1,A*%
%TO.N,Net-(BT1-+)*%
X69088000Y-86614000D03*
D25*
%TO.P,SW2,2,B*%
%TO.N,Net-(D2-A)*%
X70358000Y-86614000D03*
%TO.P,SW2,3,C*%
%TO.N,unconnected-(SW2-C-Pad3)*%
X71628000Y-86614000D03*
%TD*%
D18*
%TO.P,C9,1*%
%TO.N,Net-(D3-A)*%
X85344000Y-109982000D03*
D19*
%TO.P,C9,2*%
%TO.N,Net-(U1C--)*%
X86844000Y-109982000D03*
%TD*%
D20*
%TO.P,R8,1*%
%TO.N,Net-(C4-Pad1)*%
X83820000Y-87376000D03*
D21*
%TO.P,R8,2*%
%TO.N,Net-(D3-K)*%
X88900000Y-87376000D03*
%TD*%
D15*
%TO.P,D3,1,K*%
%TO.N,Net-(D3-K)*%
X82604000Y-91278000D03*
D16*
%TO.P,D3,2,A*%
%TO.N,Net-(D3-A)*%
X90224000Y-91278000D03*
%TD*%
D15*
%TO.P,C5,1*%
%TO.N,Net-(U1A--)*%
X59984000Y-109728000D03*
D17*
%TO.P,C5,2*%
%TO.N,Out1*%
X62484000Y-109728000D03*
%TD*%
D20*
%TO.P,R7,1*%
%TO.N,Out1*%
X77470000Y-120142000D03*
D21*
%TO.P,R7,2*%
%TO.N,Net-(U1B--)*%
X82550000Y-120142000D03*
%TD*%
D15*
%TO.P,D4,1,K*%
%TO.N,Net-(D3-A)*%
X82604000Y-94828000D03*
D16*
%TO.P,D4,2,A*%
%TO.N,Net-(D3-K)*%
X90224000Y-94828000D03*
%TD*%
D15*
%TO.P,C4,1*%
%TO.N,Net-(C4-Pad1)*%
X59722000Y-90932000D03*
D17*
%TO.P,C4,2*%
%TO.N,GND*%
X61722000Y-90932000D03*
%TD*%
D15*
%TO.P,C7,1*%
%TO.N,Net-(D1-A)*%
X50610900Y-90678000D03*
D17*
%TO.P,C7,2*%
%TO.N,Net-(BT1--)*%
X53110900Y-90678000D03*
%TD*%
D20*
%TO.P,R1,1*%
%TO.N,4.5V*%
X58674000Y-103632000D03*
D21*
%TO.P,R1,2*%
%TO.N,GND*%
X63754000Y-103632000D03*
%TD*%
D15*
%TO.P,D5,1,K*%
%TO.N,Net-(D5-K)*%
X58674000Y-62230000D03*
D16*
%TO.P,D5,2,A*%
%TO.N,Net-(D5-A)*%
X58674000Y-54610000D03*
%TD*%
D10*
%TO.P,J4,1,Pin_1*%
%TO.N,Earth*%
X86360000Y-49276000D03*
%TD*%
D11*
%TO.P,RV1,1,1*%
%TO.N,GND*%
X84335100Y-83820000D03*
D12*
%TO.P,RV1,2,2*%
%TO.N,Net-(D3-A)*%
X86335100Y-83820000D03*
%TO.P,RV1,3,3*%
%TO.N,Net-(R9-Pad2)*%
X88335100Y-83820000D03*
%TD*%
D26*
%TO.N,Earth*%
X69291200Y-108915200D03*
X76352400Y-99110800D03*
X57810400Y-79044800D03*
X48310800Y-78486000D03*
X64770000Y-90932000D03*
X63042800Y-97942400D03*
X63703200Y-106781600D03*
X82550000Y-106578400D03*
X61620400Y-68021200D03*
X71983600Y-66548000D03*
%TO.N,Net-(D1-A)*%
X63634400Y-113985500D03*
X58204500Y-113498700D03*
%TO.N,Net-(U1C-+)*%
X69684500Y-104953300D03*
%TO.N,Net-(C12-Pad1)*%
X77004500Y-93003200D03*
%TO.N,Net-(D3-A)*%
X86050600Y-113985500D03*
X74349500Y-117100400D03*
%TO.N,Net-(U1A--)*%
X63952100Y-100648700D03*
%TO.N,Net-(D1-K)*%
X56930300Y-71852600D03*
%TO.N,Net-(BT1--)*%
X71396200Y-95450400D03*
X71309200Y-104820200D03*
%TD*%
D27*
%TO.N,Net-(C12-Pad1)*%
X77004500Y-93003200D02*
X72587200Y-97420500D01*
X72587200Y-97420500D02*
X72587200Y-105239256D01*
X72587200Y-105239256D02*
X71393200Y-106433256D01*
X71393200Y-106433256D02*
X71393200Y-111342800D01*
X71393200Y-111342800D02*
X65896000Y-116840000D01*
X65896000Y-116840000D02*
X63754000Y-116840000D01*
%TO.N,Net-(BT1--)*%
X71406900Y-120142000D02*
X71406900Y-116646244D01*
X71406900Y-116646244D02*
X72593200Y-115459944D01*
X72593200Y-115459944D02*
X72593200Y-108000800D01*
X72593200Y-108000800D02*
X74422000Y-106172000D01*
%TO.N,Net-(U1C--)*%
X67850000Y-82296000D02*
X69270500Y-80875500D01*
X77702000Y-90910000D02*
X78486000Y-91694000D01*
X69270500Y-80875500D02*
X72423400Y-80875500D01*
X74218800Y-90321099D02*
X74218800Y-90525600D01*
X72423400Y-80875500D02*
X74218800Y-82670900D01*
X74603200Y-90910000D02*
X77702000Y-90910000D01*
X74218800Y-82670900D02*
X74218800Y-89002901D01*
X74298000Y-89082101D02*
X74298000Y-90241899D01*
X74218800Y-89002901D02*
X74298000Y-89082101D01*
X74298000Y-90241899D02*
X74218800Y-90321099D01*
X74218800Y-90525600D02*
X74603200Y-90910000D01*
%TO.N,Net-(D1-A)*%
X58204500Y-113498700D02*
X56058400Y-111352600D01*
X56058400Y-111352600D02*
X56058400Y-109449200D01*
X56058400Y-109449200D02*
X49338100Y-102728900D01*
X49338100Y-102728900D02*
X49338100Y-93750800D01*
X49338100Y-93750800D02*
X50610900Y-92478000D01*
X50610900Y-92478000D02*
X50610900Y-90678000D01*
%TO.N,GND*%
X63754000Y-103632000D02*
X63754000Y-101932000D01*
X63754000Y-101932000D02*
X63535700Y-101932000D01*
X63535700Y-101932000D02*
X58928000Y-97324300D01*
X58928000Y-97324300D02*
X58928000Y-94726000D01*
X58928000Y-94726000D02*
X61722000Y-91932000D01*
X61722000Y-91932000D02*
X61722000Y-90932000D01*
%TO.N,Net-(D1-K)*%
X67818000Y-89662000D02*
X64566800Y-86410800D01*
X57470300Y-71852600D02*
X56930300Y-71852600D01*
X64566800Y-86410800D02*
X64566800Y-78949100D01*
X64566800Y-78949100D02*
X57470300Y-71852600D01*
%TO.N,Net-(D1-A)*%
X67056000Y-92710000D02*
X67056000Y-94810000D01*
X68303900Y-104670100D02*
X66802000Y-106172000D01*
X68303900Y-96057900D02*
X68303900Y-104670100D01*
X67056000Y-94810000D02*
X68303900Y-96057900D01*
X65067500Y-112552400D02*
X63634400Y-113985500D01*
X65067500Y-107906500D02*
X65067500Y-112552400D01*
X66802000Y-106172000D02*
X65067500Y-107906500D01*
X70718300Y-121453400D02*
X69406900Y-120142000D01*
X71942100Y-121453400D02*
X70718300Y-121453400D01*
X73147600Y-120247900D02*
X71942100Y-121453400D01*
X73147600Y-116602600D02*
X73147600Y-120247900D01*
X73851700Y-115898500D02*
X73147600Y-116602600D01*
X74446600Y-115898500D02*
X73851700Y-115898500D01*
X76482300Y-113862800D02*
X74446600Y-115898500D01*
X76482300Y-104111700D02*
X76482300Y-113862800D01*
X76962000Y-103632000D02*
X76482300Y-104111700D01*
%TO.N,Net-(SW3A-C)*%
X67858000Y-62215400D02*
X67858000Y-70676000D01*
X75971400Y-54102000D02*
X67858000Y-62215400D01*
%TO.N,Net-(SW3A-A)*%
X72858000Y-78676000D02*
X67858000Y-78676000D01*
%TO.N,Net-(SW3A-B)*%
X87376000Y-76273300D02*
X87376000Y-76400000D01*
X83002000Y-71899300D02*
X87376000Y-76273300D01*
X74870800Y-71899300D02*
X83002000Y-71899300D01*
X74094100Y-72676000D02*
X74870800Y-71899300D01*
X69858000Y-72676000D02*
X74094100Y-72676000D01*
X67858000Y-74676000D02*
X69858000Y-72676000D01*
%TO.N,Net-(U1C-+)*%
X71850000Y-82296000D02*
X71850000Y-83971000D01*
X69684500Y-90815000D02*
X69684500Y-104953300D01*
X72864700Y-87634800D02*
X69684500Y-90815000D01*
X72864700Y-84985700D02*
X72864700Y-87634800D01*
X71850000Y-83971000D02*
X72864700Y-84985700D01*
%TO.N,Net-(R9-Pad2)*%
X87494400Y-94684400D02*
X89408000Y-96598000D01*
X87494400Y-86335700D02*
X87494400Y-94684400D01*
X88335100Y-85495000D02*
X87494400Y-86335700D01*
X88335100Y-83820000D02*
X88335100Y-85495000D01*
X89408000Y-98298000D02*
X89408000Y-96598000D01*
%TO.N,Net-(D3-K)*%
X84328000Y-93939900D02*
X84328000Y-98298000D01*
X83466100Y-93078000D02*
X84328000Y-93939900D01*
X82604000Y-93078000D02*
X83466100Y-93078000D01*
X82604000Y-91278000D02*
X82604000Y-93078000D01*
X88709200Y-89266800D02*
X88900000Y-89076000D01*
X88709200Y-91897500D02*
X88709200Y-89266800D01*
X89839700Y-93028000D02*
X88709200Y-91897500D01*
X90224000Y-93028000D02*
X89839700Y-93028000D01*
X90224000Y-94828000D02*
X90224000Y-93028000D01*
X88900000Y-87376000D02*
X88900000Y-89076000D01*
%TO.N,Net-(C10-Pad2)*%
X79756000Y-80342000D02*
X78740000Y-81358000D01*
X79756000Y-73406000D02*
X79756000Y-80342000D01*
X78740000Y-83058000D02*
X78740000Y-81358000D01*
%TO.N,Net-(U1C--)*%
X86844000Y-102805000D02*
X86844000Y-109982000D01*
X78486000Y-94447000D02*
X86844000Y-102805000D01*
X78486000Y-91694000D02*
X78486000Y-94447000D01*
%TO.N,Net-(D3-A)*%
X75227100Y-117100400D02*
X74349500Y-117100400D01*
X78342000Y-113985500D02*
X75227100Y-117100400D01*
X86050600Y-113985500D02*
X78342000Y-113985500D01*
%TO.N,OUT*%
X82367200Y-111298300D02*
X80796900Y-109728000D01*
X87370400Y-111298300D02*
X82367200Y-111298300D01*
X91726000Y-106942700D02*
X87370400Y-111298300D01*
X91726000Y-62923500D02*
X91726000Y-106942700D01*
X74065300Y-45262800D02*
X91726000Y-62923500D01*
X71424800Y-45262800D02*
X74065300Y-45262800D01*
%TO.N,Net-(U1D--)*%
X74422000Y-98552000D02*
X74422000Y-101092000D01*
%TO.N,Out1*%
X62295200Y-118429200D02*
X63500000Y-119634000D01*
X62295200Y-109916800D02*
X62295200Y-118429200D01*
X62484000Y-109728000D02*
X62295200Y-109916800D01*
%TO.N,Net-(U1A--)*%
X66802000Y-100648700D02*
X63952100Y-100648700D01*
X66802000Y-101092000D02*
X66802000Y-100648700D01*
X66802000Y-100648700D02*
X66802000Y-98552000D01*
%TO.N,GND*%
X69529200Y-47042200D02*
X69424800Y-46937800D01*
X72237600Y-47042200D02*
X69529200Y-47042200D01*
X72237600Y-48717200D02*
X72237600Y-47042200D01*
X69424800Y-45262800D02*
X69424800Y-46937800D01*
X88891100Y-77589000D02*
X84335100Y-82145000D01*
X88891100Y-71365100D02*
X88891100Y-77589000D01*
X87376000Y-69850000D02*
X88891100Y-71365100D01*
X84335100Y-83820000D02*
X84335100Y-82145000D01*
X55370100Y-73174100D02*
X53848000Y-71652000D01*
X57010100Y-73174100D02*
X55370100Y-73174100D01*
X63187300Y-79351300D02*
X57010100Y-73174100D01*
X63187300Y-89466700D02*
X63187300Y-79351300D01*
X61722000Y-90932000D02*
X63187300Y-89466700D01*
X53848000Y-69952000D02*
X53848000Y-71652000D01*
X72237600Y-51904900D02*
X65278000Y-58864500D01*
X72237600Y-48717200D02*
X72237600Y-51904900D01*
X55548000Y-68594500D02*
X55548000Y-69952000D01*
X65278000Y-58864500D02*
X55548000Y-68594500D01*
X53848000Y-69952000D02*
X55548000Y-69952000D01*
X87376000Y-69732300D02*
X87376000Y-69850000D01*
X83730700Y-66087000D02*
X87376000Y-69732300D01*
X78431400Y-66087000D02*
X83730700Y-66087000D01*
X75971400Y-63627000D02*
X78431400Y-66087000D01*
%TO.N,Net-(SW1A-A)*%
X59182000Y-81534000D02*
X59182000Y-83334000D01*
X57258400Y-85257600D02*
X59182000Y-83334000D01*
X57258400Y-110852900D02*
X57258400Y-85257600D01*
X60179100Y-113773600D02*
X57258400Y-110852900D01*
X60179100Y-126773100D02*
X60179100Y-113773600D01*
X67898000Y-134492000D02*
X60179100Y-126773100D01*
%TO.N,4.5V*%
X65368600Y-105065400D02*
X66802000Y-103632000D01*
X60107400Y-105065400D02*
X65368600Y-105065400D01*
X58674000Y-103632000D02*
X60107400Y-105065400D01*
X48768000Y-66802000D02*
X48768000Y-69952000D01*
X77978000Y-100076000D02*
X78486000Y-100076000D01*
X74422000Y-103632000D02*
X77978000Y-100076000D01*
X80342000Y-101932000D02*
X78486000Y-100076000D01*
X80342000Y-103632000D02*
X80342000Y-101932000D01*
X78486000Y-100076000D02*
X78486000Y-96774000D01*
X82042000Y-103632000D02*
X80342000Y-103632000D01*
X50633600Y-71819600D02*
X50633600Y-82296000D01*
X49964700Y-71150700D02*
X50633600Y-71819600D01*
X49964700Y-71148700D02*
X49964700Y-71150700D01*
X48768000Y-69952000D02*
X49964700Y-71148700D01*
%TO.N,Net-(BT1--)*%
X71396200Y-92863800D02*
X72898000Y-91362000D01*
X71396200Y-95450400D02*
X71396200Y-92863800D01*
X72898000Y-89662000D02*
X72898000Y-91362000D01*
X71309200Y-95537400D02*
X71309200Y-104820200D01*
X71396200Y-95450400D02*
X71309200Y-95537400D01*
X52292000Y-63546000D02*
X53848000Y-65102000D01*
X52292000Y-61722000D02*
X52292000Y-63546000D01*
X53848000Y-66802000D02*
X53848000Y-66371000D01*
X53848000Y-66371000D02*
X53848000Y-65102000D01*
X53340000Y-90907100D02*
X53110900Y-90678000D01*
X53340000Y-99568000D02*
X53340000Y-90907100D01*
X52424500Y-67794500D02*
X53848000Y-66371000D01*
X52424500Y-76425100D02*
X52424500Y-67794500D01*
X54635900Y-78636500D02*
X52424500Y-76425100D01*
X54635900Y-89153000D02*
X54635900Y-78636500D01*
X53110900Y-90678000D02*
X54635900Y-89153000D01*
%TD*%
%TA.AperFunction,Conductor*%
%TO.N,Earth*%
G36*
X70597946Y-104944319D02*
G01*
X70621981Y-104983590D01*
X70684382Y-105148131D01*
X70746675Y-105238377D01*
X70781017Y-105288129D01*
X70886705Y-105381760D01*
X70908350Y-105400936D01*
X71058974Y-105479990D01*
X71083643Y-105486070D01*
X71144024Y-105521225D01*
X71175813Y-105583444D01*
X71168918Y-105652973D01*
X71141650Y-105694148D01*
X70915490Y-105920307D01*
X70910038Y-105925439D01*
X70865019Y-105965324D01*
X70830849Y-106014825D01*
X70826413Y-106020853D01*
X70789324Y-106068194D01*
X70789319Y-106068204D01*
X70785160Y-106077444D01*
X70774142Y-106096979D01*
X70768387Y-106105317D01*
X70768379Y-106105332D01*
X70747053Y-106161561D01*
X70744189Y-106168476D01*
X70719505Y-106223324D01*
X70717677Y-106233298D01*
X70711653Y-106254909D01*
X70708060Y-106264383D01*
X70708060Y-106264384D01*
X70700810Y-106324083D01*
X70699683Y-106331483D01*
X70688842Y-106390645D01*
X70688842Y-106390651D01*
X70692474Y-106450688D01*
X70692700Y-106458176D01*
X70692700Y-111001280D01*
X70673015Y-111068319D01*
X70656381Y-111088961D01*
X68005818Y-113739524D01*
X67944495Y-113773009D01*
X67874803Y-113768025D01*
X67818870Y-113726153D01*
X67794734Y-113663997D01*
X67792204Y-113638308D01*
X67788024Y-113595868D01*
X67730814Y-113407273D01*
X67730811Y-113407269D01*
X67730811Y-113407266D01*
X67637913Y-113233467D01*
X67637909Y-113233460D01*
X67512883Y-113081116D01*
X67360539Y-112956090D01*
X67360532Y-112956086D01*
X67186733Y-112863188D01*
X67186727Y-112863186D01*
X67057849Y-112824091D01*
X66998129Y-112805975D01*
X66802000Y-112786659D01*
X66605870Y-112805975D01*
X66417266Y-112863188D01*
X66243467Y-112956086D01*
X66243460Y-112956090D01*
X66091116Y-113081116D01*
X65966090Y-113233460D01*
X65966086Y-113233467D01*
X65873188Y-113407266D01*
X65815975Y-113595870D01*
X65796659Y-113792000D01*
X65815975Y-113988129D01*
X65873188Y-114176733D01*
X65966086Y-114350532D01*
X65966090Y-114350539D01*
X66091116Y-114502883D01*
X66243460Y-114627909D01*
X66243467Y-114627913D01*
X66417266Y-114720811D01*
X66417269Y-114720811D01*
X66417273Y-114720814D01*
X66605868Y-114778024D01*
X66652137Y-114782581D01*
X66673997Y-114784734D01*
X66738784Y-114810895D01*
X66779143Y-114867929D01*
X66782260Y-114937729D01*
X66749524Y-114995818D01*
X65642162Y-116103181D01*
X65580839Y-116136666D01*
X65554481Y-116139500D01*
X64362156Y-116139500D01*
X64295117Y-116119815D01*
X64289271Y-116115818D01*
X64206734Y-116055851D01*
X64206729Y-116055848D01*
X64033807Y-115978857D01*
X64033802Y-115978855D01*
X63888001Y-115947865D01*
X63848646Y-115939500D01*
X63659354Y-115939500D01*
X63626897Y-115946398D01*
X63474197Y-115978855D01*
X63474192Y-115978857D01*
X63301270Y-116055848D01*
X63301265Y-116055851D01*
X63192585Y-116134812D01*
X63126779Y-116158292D01*
X63058725Y-116142466D01*
X63010030Y-116092360D01*
X62995700Y-116034494D01*
X62995700Y-114636199D01*
X63015385Y-114569160D01*
X63068189Y-114523405D01*
X63137347Y-114513461D01*
X63192769Y-114537135D01*
X63192796Y-114537091D01*
X63193109Y-114537280D01*
X63196175Y-114538590D01*
X63199213Y-114540970D01*
X63199215Y-114540972D01*
X63344794Y-114628978D01*
X63507204Y-114679586D01*
X63677006Y-114689858D01*
X63844332Y-114659195D01*
X63999457Y-114589378D01*
X64099767Y-114510790D01*
X65545231Y-113065324D01*
X65550651Y-113060222D01*
X65595683Y-113020329D01*
X65629858Y-112970816D01*
X65634279Y-112964807D01*
X65671377Y-112917457D01*
X65675529Y-112908228D01*
X65686562Y-112888668D01*
X65686919Y-112888150D01*
X65692318Y-112880330D01*
X65713654Y-112824068D01*
X65716514Y-112817166D01*
X65721551Y-112805976D01*
X65741194Y-112762332D01*
X65743020Y-112752365D01*
X65749048Y-112730740D01*
X65752640Y-112721272D01*
X65759889Y-112661569D01*
X65761016Y-112654162D01*
X65771857Y-112595006D01*
X65768226Y-112534977D01*
X65768000Y-112527490D01*
X65768000Y-111915721D01*
X65787685Y-111848682D01*
X65840489Y-111802927D01*
X65909647Y-111792983D01*
X65973203Y-111822008D01*
X65987853Y-111837056D01*
X66091116Y-111962883D01*
X66243460Y-112087909D01*
X66243467Y-112087913D01*
X66417266Y-112180811D01*
X66417269Y-112180811D01*
X66417273Y-112180814D01*
X66605868Y-112238024D01*
X66802000Y-112257341D01*
X66998132Y-112238024D01*
X67186727Y-112180814D01*
X67360538Y-112087910D01*
X67512883Y-111962883D01*
X67637910Y-111810538D01*
X67692497Y-111708413D01*
X67730811Y-111636733D01*
X67730811Y-111636732D01*
X67730814Y-111636727D01*
X67788024Y-111448132D01*
X67807341Y-111252000D01*
X67788024Y-111055868D01*
X67730814Y-110867273D01*
X67730811Y-110867269D01*
X67730811Y-110867266D01*
X67637913Y-110693467D01*
X67637909Y-110693460D01*
X67512883Y-110541116D01*
X67360539Y-110416090D01*
X67360532Y-110416086D01*
X67186733Y-110323188D01*
X67186727Y-110323186D01*
X66998132Y-110265976D01*
X66998129Y-110265975D01*
X66802000Y-110246659D01*
X66605870Y-110265975D01*
X66417266Y-110323188D01*
X66243467Y-110416086D01*
X66243460Y-110416090D01*
X66091116Y-110541116D01*
X65987853Y-110666943D01*
X65930107Y-110706277D01*
X65860263Y-110708148D01*
X65800494Y-110671960D01*
X65769779Y-110609204D01*
X65768000Y-110588278D01*
X65768000Y-109375721D01*
X65787685Y-109308682D01*
X65840489Y-109262927D01*
X65909647Y-109252983D01*
X65973203Y-109282008D01*
X65987853Y-109297056D01*
X66091116Y-109422883D01*
X66243460Y-109547909D01*
X66243467Y-109547913D01*
X66417266Y-109640811D01*
X66417269Y-109640811D01*
X66417273Y-109640814D01*
X66605868Y-109698024D01*
X66802000Y-109717341D01*
X66998132Y-109698024D01*
X67186727Y-109640814D01*
X67360538Y-109547910D01*
X67512883Y-109422883D01*
X67637910Y-109270538D01*
X67691937Y-109169460D01*
X67730811Y-109096733D01*
X67730811Y-109096732D01*
X67730814Y-109096727D01*
X67788024Y-108908132D01*
X67807341Y-108712000D01*
X67788024Y-108515868D01*
X67730814Y-108327273D01*
X67730811Y-108327269D01*
X67730811Y-108327266D01*
X67637913Y-108153467D01*
X67637909Y-108153460D01*
X67512883Y-108001116D01*
X67360539Y-107876090D01*
X67360532Y-107876086D01*
X67186733Y-107783188D01*
X67186727Y-107783186D01*
X67053540Y-107742784D01*
X66998129Y-107725975D01*
X66802000Y-107706659D01*
X66605867Y-107725976D01*
X66552511Y-107742161D01*
X66482644Y-107742784D01*
X66423532Y-107705535D01*
X66393941Y-107642241D01*
X66403268Y-107572996D01*
X66428833Y-107535823D01*
X66754339Y-107210316D01*
X66815660Y-107176833D01*
X66829855Y-107174597D01*
X66998132Y-107158024D01*
X67186727Y-107100814D01*
X67360538Y-107007910D01*
X67512883Y-106882883D01*
X67637910Y-106730538D01*
X67730814Y-106556727D01*
X67788024Y-106368132D01*
X67804596Y-106199863D01*
X67830756Y-106135077D01*
X67840309Y-106124346D01*
X68781631Y-105183024D01*
X68787035Y-105177936D01*
X68827331Y-105142238D01*
X68890560Y-105112520D01*
X68959823Y-105121704D01*
X69013126Y-105166876D01*
X69025495Y-105191086D01*
X69059682Y-105281230D01*
X69059682Y-105281231D01*
X69097549Y-105336090D01*
X69156317Y-105421229D01*
X69222645Y-105479990D01*
X69283650Y-105534036D01*
X69417550Y-105604312D01*
X69434275Y-105613090D01*
X69599444Y-105653800D01*
X69769556Y-105653800D01*
X69934725Y-105613090D01*
X70022189Y-105567185D01*
X70085349Y-105534036D01*
X70085350Y-105534034D01*
X70085352Y-105534034D01*
X70212683Y-105421229D01*
X70309318Y-105281230D01*
X70369640Y-105122172D01*
X70382943Y-105012614D01*
X70410565Y-104948436D01*
X70468499Y-104909380D01*
X70538352Y-104907845D01*
X70597946Y-104944319D01*
G37*
%TD.AperFunction*%
%TA.AperFunction,Conductor*%
G36*
X73790820Y-45982985D02*
G01*
X73811462Y-45999619D01*
X81726876Y-53915033D01*
X81760361Y-53976356D01*
X81755377Y-54046048D01*
X81713505Y-54101981D01*
X81651350Y-54126117D01*
X81591870Y-54131975D01*
X81403266Y-54189188D01*
X81229467Y-54282086D01*
X81229460Y-54282090D01*
X81077116Y-54407116D01*
X80952090Y-54559460D01*
X80952086Y-54559467D01*
X80859188Y-54733266D01*
X80801975Y-54921870D01*
X80782659Y-55118000D01*
X80801975Y-55314129D01*
X80859188Y-55502733D01*
X80952086Y-55676532D01*
X80952090Y-55676539D01*
X81077116Y-55828883D01*
X81229460Y-55953909D01*
X81229467Y-55953913D01*
X81403266Y-56046811D01*
X81403269Y-56046811D01*
X81403273Y-56046814D01*
X81591868Y-56104024D01*
X81788000Y-56123341D01*
X81984132Y-56104024D01*
X82172727Y-56046814D01*
X82346538Y-55953910D01*
X82498883Y-55828883D01*
X82623910Y-55676538D01*
X82716814Y-55502727D01*
X82774024Y-55314132D01*
X82779882Y-55254650D01*
X82806042Y-55189863D01*
X82863076Y-55149504D01*
X82932877Y-55146387D01*
X82990966Y-55179123D01*
X90989181Y-63177338D01*
X91022666Y-63238661D01*
X91025500Y-63265019D01*
X91025500Y-90379307D01*
X91005815Y-90446346D01*
X90953011Y-90492101D01*
X90883853Y-90502045D01*
X90822836Y-90475161D01*
X90782538Y-90442090D01*
X90782532Y-90442086D01*
X90608733Y-90349188D01*
X90608727Y-90349186D01*
X90479292Y-90309922D01*
X90420129Y-90291975D01*
X90224000Y-90272659D01*
X90027870Y-90291975D01*
X89839266Y-90349188D01*
X89665467Y-90442086D01*
X89665460Y-90442091D01*
X89612365Y-90485665D01*
X89548055Y-90512978D01*
X89479187Y-90501187D01*
X89427627Y-90454035D01*
X89409700Y-90389812D01*
X89409700Y-89609345D01*
X89429385Y-89542306D01*
X89431619Y-89538950D01*
X89462366Y-89494404D01*
X89466775Y-89488413D01*
X89503878Y-89441057D01*
X89508034Y-89431821D01*
X89519062Y-89412266D01*
X89524818Y-89403930D01*
X89546150Y-89347678D01*
X89549010Y-89340776D01*
X89573693Y-89285936D01*
X89573693Y-89285934D01*
X89573695Y-89285931D01*
X89575522Y-89275959D01*
X89581546Y-89254347D01*
X89585140Y-89244872D01*
X89592387Y-89185184D01*
X89593514Y-89177777D01*
X89593740Y-89176543D01*
X89604358Y-89118606D01*
X89600726Y-89058565D01*
X89600500Y-89051078D01*
X89600500Y-87991391D01*
X89620185Y-87924352D01*
X89632352Y-87908417D01*
X89632533Y-87908216D01*
X89727179Y-87744284D01*
X89785674Y-87564256D01*
X89805460Y-87376000D01*
X89785674Y-87187744D01*
X89727179Y-87007716D01*
X89632533Y-86843784D01*
X89505871Y-86703112D01*
X89472684Y-86679000D01*
X89352734Y-86591851D01*
X89352729Y-86591848D01*
X89179807Y-86514857D01*
X89179802Y-86514855D01*
X89034001Y-86483865D01*
X88994646Y-86475500D01*
X88805354Y-86475500D01*
X88805352Y-86475500D01*
X88630528Y-86512659D01*
X88560861Y-86507343D01*
X88505128Y-86465205D01*
X88481023Y-86399625D01*
X88496200Y-86331424D01*
X88517062Y-86303693D01*
X88812831Y-86007924D01*
X88818251Y-86002822D01*
X88863283Y-85962929D01*
X88897458Y-85913416D01*
X88901879Y-85907407D01*
X88938977Y-85860057D01*
X88943129Y-85850828D01*
X88954162Y-85831268D01*
X88958207Y-85825408D01*
X88959918Y-85822930D01*
X88981254Y-85766668D01*
X88984114Y-85759766D01*
X89008793Y-85704934D01*
X89008792Y-85704934D01*
X89008794Y-85704932D01*
X89010620Y-85694965D01*
X89016648Y-85673340D01*
X89020240Y-85663872D01*
X89027489Y-85604169D01*
X89028616Y-85596762D01*
X89039457Y-85537606D01*
X89035826Y-85477577D01*
X89035600Y-85470090D01*
X89035600Y-84390921D01*
X89052213Y-84328921D01*
X89139314Y-84178059D01*
X89196185Y-84003029D01*
X89215422Y-83820000D01*
X89196185Y-83636971D01*
X89139314Y-83461941D01*
X89047295Y-83302560D01*
X88924150Y-83165793D01*
X88924148Y-83165791D01*
X88775265Y-83057621D01*
X88775262Y-83057619D01*
X88775261Y-83057619D01*
X88714212Y-83030438D01*
X88607138Y-82982765D01*
X88607133Y-82982763D01*
X88427119Y-82944500D01*
X88243081Y-82944500D01*
X88063066Y-82982763D01*
X88063061Y-82982765D01*
X87894939Y-83057619D01*
X87894934Y-83057621D01*
X87746051Y-83165791D01*
X87746049Y-83165793D01*
X87622904Y-83302561D01*
X87530886Y-83461940D01*
X87530883Y-83461946D01*
X87474016Y-83636967D01*
X87474015Y-83636971D01*
X87465587Y-83717162D01*
X87458421Y-83785342D01*
X87444237Y-83819814D01*
X87457077Y-83845312D01*
X87458419Y-83854646D01*
X87474015Y-84003029D01*
X87474016Y-84003032D01*
X87530883Y-84178053D01*
X87530886Y-84178059D01*
X87616769Y-84326813D01*
X87617987Y-84328921D01*
X87634600Y-84390921D01*
X87634600Y-85153480D01*
X87614915Y-85220519D01*
X87598281Y-85241161D01*
X87016690Y-85822751D01*
X87011238Y-85827883D01*
X86966219Y-85867768D01*
X86932049Y-85917269D01*
X86927613Y-85923297D01*
X86890524Y-85970638D01*
X86890519Y-85970648D01*
X86886360Y-85979888D01*
X86875342Y-85999423D01*
X86869587Y-86007761D01*
X86869579Y-86007776D01*
X86848253Y-86064005D01*
X86845389Y-86070920D01*
X86820705Y-86125768D01*
X86818877Y-86135742D01*
X86812853Y-86157353D01*
X86809260Y-86166827D01*
X86809260Y-86166828D01*
X86802010Y-86226527D01*
X86800883Y-86233927D01*
X86790042Y-86293089D01*
X86790042Y-86293095D01*
X86793674Y-86353132D01*
X86793900Y-86360620D01*
X86793900Y-94659478D01*
X86793674Y-94666966D01*
X86790042Y-94727003D01*
X86790042Y-94727005D01*
X86800883Y-94786170D01*
X86802010Y-94793571D01*
X86809259Y-94853271D01*
X86809260Y-94853274D01*
X86812851Y-94862743D01*
X86818874Y-94884346D01*
X86820704Y-94894330D01*
X86845391Y-94949182D01*
X86848254Y-94956094D01*
X86869582Y-95012330D01*
X86869583Y-95012331D01*
X86875336Y-95020666D01*
X86886361Y-95040213D01*
X86890520Y-95049455D01*
X86890524Y-95049460D01*
X86927615Y-95096803D01*
X86932055Y-95102838D01*
X86966212Y-95152324D01*
X86966216Y-95152329D01*
X87011228Y-95192205D01*
X87016683Y-95197340D01*
X88671181Y-96851838D01*
X88704666Y-96913161D01*
X88707500Y-96939519D01*
X88707500Y-97682608D01*
X88687815Y-97749647D01*
X88675656Y-97765574D01*
X88675468Y-97765782D01*
X88675464Y-97765787D01*
X88580821Y-97929715D01*
X88580818Y-97929722D01*
X88525153Y-98101042D01*
X88522326Y-98109744D01*
X88502540Y-98298000D01*
X88522326Y-98486256D01*
X88522327Y-98486259D01*
X88580818Y-98666277D01*
X88580821Y-98666284D01*
X88675467Y-98830216D01*
X88802129Y-98970888D01*
X88955265Y-99082148D01*
X88955270Y-99082151D01*
X89128192Y-99159142D01*
X89128197Y-99159144D01*
X89313354Y-99198500D01*
X89313355Y-99198500D01*
X89502644Y-99198500D01*
X89502646Y-99198500D01*
X89687803Y-99159144D01*
X89860730Y-99082151D01*
X90013871Y-98970888D01*
X90140533Y-98830216D01*
X90235179Y-98666284D01*
X90293674Y-98486256D01*
X90313460Y-98298000D01*
X90293674Y-98109744D01*
X90235179Y-97929716D01*
X90140533Y-97765784D01*
X90140344Y-97765574D01*
X90140273Y-97765427D01*
X90136714Y-97760528D01*
X90137610Y-97759876D01*
X90110119Y-97702580D01*
X90108500Y-97682608D01*
X90108500Y-96622908D01*
X90108726Y-96615421D01*
X90112357Y-96555394D01*
X90101512Y-96496217D01*
X90100388Y-96488826D01*
X90093140Y-96429127D01*
X90089548Y-96419656D01*
X90083522Y-96398042D01*
X90081695Y-96388068D01*
X90057006Y-96333212D01*
X90054142Y-96326297D01*
X90032819Y-96270071D01*
X90030723Y-96267035D01*
X90027063Y-96261733D01*
X90016036Y-96242182D01*
X90011879Y-96232946D01*
X90011878Y-96232943D01*
X89974785Y-96185597D01*
X89970355Y-96179577D01*
X89936183Y-96130071D01*
X89891153Y-96090178D01*
X89885715Y-96085058D01*
X89784807Y-95984150D01*
X89751322Y-95922827D01*
X89756306Y-95853135D01*
X89798178Y-95797202D01*
X89863642Y-95772785D01*
X89908483Y-95777808D01*
X90027868Y-95814024D01*
X90224000Y-95833341D01*
X90420132Y-95814024D01*
X90608727Y-95756814D01*
X90673684Y-95722094D01*
X90782532Y-95663913D01*
X90782538Y-95663910D01*
X90822835Y-95630839D01*
X90887144Y-95603526D01*
X90956012Y-95615317D01*
X91007572Y-95662469D01*
X91025500Y-95726692D01*
X91025500Y-106601180D01*
X91005815Y-106668219D01*
X90989181Y-106688861D01*
X87832660Y-109845381D01*
X87771337Y-109878866D01*
X87701645Y-109873882D01*
X87645712Y-109832010D01*
X87627938Y-109798655D01*
X87569790Y-109632479D01*
X87563506Y-109622478D01*
X87544500Y-109556507D01*
X87544500Y-102829920D01*
X87544726Y-102822432D01*
X87548358Y-102762394D01*
X87537514Y-102703221D01*
X87536387Y-102695815D01*
X87534120Y-102677145D01*
X87529140Y-102636128D01*
X87525548Y-102626656D01*
X87519521Y-102605034D01*
X87517695Y-102595071D01*
X87517693Y-102595063D01*
X87493008Y-102540219D01*
X87490153Y-102533329D01*
X87468818Y-102477070D01*
X87463063Y-102468733D01*
X87452036Y-102449182D01*
X87447879Y-102439946D01*
X87447878Y-102439943D01*
X87410785Y-102392597D01*
X87406355Y-102386577D01*
X87372183Y-102337071D01*
X87327153Y-102297178D01*
X87321715Y-102292058D01*
X84423738Y-99394081D01*
X84390253Y-99332758D01*
X84395237Y-99263066D01*
X84437109Y-99207133D01*
X84485632Y-99185111D01*
X84607803Y-99159144D01*
X84607807Y-99159142D01*
X84607808Y-99159142D01*
X84716970Y-99110539D01*
X84780730Y-99082151D01*
X84933871Y-98970888D01*
X85060533Y-98830216D01*
X85155179Y-98666284D01*
X85213674Y-98486256D01*
X85233460Y-98298000D01*
X85213674Y-98109744D01*
X85155179Y-97929716D01*
X85060533Y-97765784D01*
X85060344Y-97765574D01*
X85060273Y-97765427D01*
X85056714Y-97760528D01*
X85057610Y-97759876D01*
X85030119Y-97702580D01*
X85028500Y-97682608D01*
X85028500Y-93964820D01*
X85028726Y-93957332D01*
X85032358Y-93897294D01*
X85021514Y-93838121D01*
X85020387Y-93830715D01*
X85016427Y-93798104D01*
X85013140Y-93771028D01*
X85010731Y-93764677D01*
X85009548Y-93761556D01*
X85003521Y-93739934D01*
X85003128Y-93737790D01*
X85001695Y-93729969D01*
X85001693Y-93729966D01*
X85001693Y-93729963D01*
X84977009Y-93675121D01*
X84974154Y-93668231D01*
X84952818Y-93611970D01*
X84947062Y-93603631D01*
X84936034Y-93584077D01*
X84931880Y-93574846D01*
X84905260Y-93540868D01*
X84894780Y-93527491D01*
X84890352Y-93521473D01*
X84887240Y-93516964D01*
X84856183Y-93471971D01*
X84811153Y-93432078D01*
X84805715Y-93426958D01*
X83979040Y-92600283D01*
X83973905Y-92594828D01*
X83934029Y-92549816D01*
X83934024Y-92549812D01*
X83884538Y-92515655D01*
X83878503Y-92511215D01*
X83831160Y-92474124D01*
X83831155Y-92474120D01*
X83821913Y-92469961D01*
X83802366Y-92458936D01*
X83794031Y-92453183D01*
X83794032Y-92453183D01*
X83794030Y-92453182D01*
X83737794Y-92431854D01*
X83730890Y-92428994D01*
X83676032Y-92404305D01*
X83676030Y-92404304D01*
X83666046Y-92402474D01*
X83644443Y-92396451D01*
X83634974Y-92392860D01*
X83634696Y-92392792D01*
X83634514Y-92392686D01*
X83627963Y-92390202D01*
X83628376Y-92389111D01*
X83574318Y-92357631D01*
X83542534Y-92295409D01*
X83549435Y-92225881D01*
X83561279Y-92203505D01*
X83592867Y-92156231D01*
X83592868Y-92156229D01*
X83601996Y-92110334D01*
X83604500Y-92097748D01*
X83604500Y-90458252D01*
X83604500Y-90458249D01*
X83604499Y-90458247D01*
X83592868Y-90399770D01*
X83592867Y-90399769D01*
X83548552Y-90333447D01*
X83482230Y-90289132D01*
X83482229Y-90289131D01*
X83423752Y-90277500D01*
X83423748Y-90277500D01*
X81784252Y-90277500D01*
X81784247Y-90277500D01*
X81725770Y-90289131D01*
X81725769Y-90289132D01*
X81659447Y-90333447D01*
X81615132Y-90399769D01*
X81615131Y-90399770D01*
X81603500Y-90458247D01*
X81603500Y-92097752D01*
X81615131Y-92156229D01*
X81615132Y-92156230D01*
X81659447Y-92222552D01*
X81725769Y-92266867D01*
X81725770Y-92266868D01*
X81779446Y-92277544D01*
X81784252Y-92278500D01*
X81784257Y-92278500D01*
X81790312Y-92279097D01*
X81790065Y-92281602D01*
X81846539Y-92298185D01*
X81892294Y-92350989D01*
X81903500Y-92402500D01*
X81903500Y-93163059D01*
X81911919Y-93197218D01*
X81914618Y-93211942D01*
X81918859Y-93246869D01*
X81918861Y-93246876D01*
X81931337Y-93279774D01*
X81935790Y-93294066D01*
X81944208Y-93328221D01*
X81944210Y-93328225D01*
X81960559Y-93359377D01*
X81966702Y-93373026D01*
X81979182Y-93405931D01*
X81979183Y-93405934D01*
X81999171Y-93434890D01*
X82006918Y-93447705D01*
X82019655Y-93471972D01*
X82023266Y-93478852D01*
X82046592Y-93505182D01*
X82055822Y-93516964D01*
X82075813Y-93545924D01*
X82075821Y-93545933D01*
X82102150Y-93569258D01*
X82112735Y-93579842D01*
X82136071Y-93606183D01*
X82136075Y-93606187D01*
X82141156Y-93610689D01*
X82178280Y-93669881D01*
X82177508Y-93739746D01*
X82139087Y-93798104D01*
X82075215Y-93826425D01*
X82058924Y-93827500D01*
X81784247Y-93827500D01*
X81725770Y-93839131D01*
X81725769Y-93839132D01*
X81659447Y-93883447D01*
X81615132Y-93949769D01*
X81615131Y-93949770D01*
X81603500Y-94008247D01*
X81603500Y-95647752D01*
X81615131Y-95706229D01*
X81615132Y-95706230D01*
X81659447Y-95772552D01*
X81725769Y-95816867D01*
X81725770Y-95816868D01*
X81784247Y-95828499D01*
X81784250Y-95828500D01*
X81784252Y-95828500D01*
X83423749Y-95828500D01*
X83437241Y-95825816D01*
X83479309Y-95817448D01*
X83548899Y-95823675D01*
X83604077Y-95866537D01*
X83627322Y-95932426D01*
X83627500Y-95939065D01*
X83627500Y-97682608D01*
X83607815Y-97749647D01*
X83595656Y-97765574D01*
X83595468Y-97765782D01*
X83595464Y-97765787D01*
X83500821Y-97929715D01*
X83500818Y-97929722D01*
X83442326Y-98109742D01*
X83442325Y-98109745D01*
X83440689Y-98125315D01*
X83414104Y-98189929D01*
X83356805Y-98229912D01*
X83286986Y-98232570D01*
X83229688Y-98200031D01*
X79222819Y-94193162D01*
X79189334Y-94131839D01*
X79186500Y-94105481D01*
X79186500Y-92309391D01*
X79206185Y-92242352D01*
X79218352Y-92226417D01*
X79218533Y-92226216D01*
X79313179Y-92062284D01*
X79371674Y-91882256D01*
X79391460Y-91694000D01*
X79371674Y-91505744D01*
X79313179Y-91325716D01*
X79218533Y-91161784D01*
X79091871Y-91021112D01*
X79091870Y-91021111D01*
X78938734Y-90909851D01*
X78938729Y-90909848D01*
X78765807Y-90832857D01*
X78765802Y-90832855D01*
X78629490Y-90803882D01*
X78610872Y-90799924D01*
X78549391Y-90766733D01*
X78548973Y-90766316D01*
X78214940Y-90432283D01*
X78209805Y-90426828D01*
X78169929Y-90381816D01*
X78169924Y-90381812D01*
X78120438Y-90347655D01*
X78114403Y-90343215D01*
X78067060Y-90306124D01*
X78067055Y-90306120D01*
X78057813Y-90301961D01*
X78038266Y-90290936D01*
X78029931Y-90285183D01*
X78029932Y-90285183D01*
X78029930Y-90285182D01*
X77973694Y-90263854D01*
X77966790Y-90260994D01*
X77911932Y-90236305D01*
X77911930Y-90236304D01*
X77901946Y-90234474D01*
X77880343Y-90228451D01*
X77870874Y-90224860D01*
X77870871Y-90224859D01*
X77811171Y-90217610D01*
X77803770Y-90216483D01*
X77744609Y-90205642D01*
X77744603Y-90205642D01*
X77684567Y-90209274D01*
X77677079Y-90209500D01*
X75122500Y-90209500D01*
X75055461Y-90189815D01*
X75009706Y-90137011D01*
X74998500Y-90085500D01*
X74998500Y-89107021D01*
X74998726Y-89099533D01*
X75002358Y-89039495D01*
X74991514Y-88980322D01*
X74990387Y-88972916D01*
X74984223Y-88922151D01*
X74983140Y-88913229D01*
X74979548Y-88903757D01*
X74973521Y-88882135D01*
X74972736Y-88877851D01*
X74971695Y-88872170D01*
X74947003Y-88817309D01*
X74944148Y-88810415D01*
X74927356Y-88766139D01*
X74919300Y-88722171D01*
X74919300Y-88138000D01*
X77834540Y-88138000D01*
X77854326Y-88326256D01*
X77854327Y-88326259D01*
X77912818Y-88506277D01*
X77912821Y-88506284D01*
X78007467Y-88670216D01*
X78090746Y-88762706D01*
X78134129Y-88810888D01*
X78287265Y-88922148D01*
X78287270Y-88922151D01*
X78460192Y-88999142D01*
X78460197Y-88999144D01*
X78645354Y-89038500D01*
X78645355Y-89038500D01*
X78834644Y-89038500D01*
X78834646Y-89038500D01*
X79019803Y-88999144D01*
X79192730Y-88922151D01*
X79345871Y-88810888D01*
X79472533Y-88670216D01*
X79567179Y-88506284D01*
X79625674Y-88326256D01*
X79645460Y-88138000D01*
X79625674Y-87949744D01*
X79567179Y-87769716D01*
X79472533Y-87605784D01*
X79345871Y-87465112D01*
X79345870Y-87465111D01*
X79223219Y-87376000D01*
X82914540Y-87376000D01*
X82934326Y-87564256D01*
X82934327Y-87564259D01*
X82992818Y-87744277D01*
X82992821Y-87744284D01*
X83087467Y-87908216D01*
X83169981Y-87999857D01*
X83214129Y-88048888D01*
X83367265Y-88160148D01*
X83367270Y-88160151D01*
X83540192Y-88237142D01*
X83540197Y-88237144D01*
X83725354Y-88276500D01*
X83725355Y-88276500D01*
X83914644Y-88276500D01*
X83914646Y-88276500D01*
X84099803Y-88237144D01*
X84272730Y-88160151D01*
X84425871Y-88048888D01*
X84552533Y-87908216D01*
X84647179Y-87744284D01*
X84705674Y-87564256D01*
X84725460Y-87376000D01*
X84705674Y-87187744D01*
X84647179Y-87007716D01*
X84552533Y-86843784D01*
X84425871Y-86703112D01*
X84392684Y-86679000D01*
X84272734Y-86591851D01*
X84272729Y-86591848D01*
X84099807Y-86514857D01*
X84099802Y-86514855D01*
X83954001Y-86483865D01*
X83914646Y-86475500D01*
X83725354Y-86475500D01*
X83692897Y-86482398D01*
X83540197Y-86514855D01*
X83540192Y-86514857D01*
X83367270Y-86591848D01*
X83367265Y-86591851D01*
X83214129Y-86703111D01*
X83087466Y-86843785D01*
X82992821Y-87007715D01*
X82992818Y-87007722D01*
X82951870Y-87133748D01*
X82934326Y-87187744D01*
X82914540Y-87376000D01*
X79223219Y-87376000D01*
X79192734Y-87353851D01*
X79192729Y-87353848D01*
X79019807Y-87276857D01*
X79019802Y-87276855D01*
X78867823Y-87244552D01*
X78834646Y-87237500D01*
X78645354Y-87237500D01*
X78612897Y-87244398D01*
X78460197Y-87276855D01*
X78460192Y-87276857D01*
X78287270Y-87353848D01*
X78287265Y-87353851D01*
X78134129Y-87465111D01*
X78007466Y-87605785D01*
X77912821Y-87769715D01*
X77912818Y-87769722D01*
X77867819Y-87908216D01*
X77854326Y-87949744D01*
X77834540Y-88138000D01*
X74919300Y-88138000D01*
X74919300Y-82695820D01*
X74919526Y-82688332D01*
X74919986Y-82680727D01*
X74923158Y-82628294D01*
X74912314Y-82569119D01*
X74911187Y-82561714D01*
X74908259Y-82537602D01*
X74903940Y-82502028D01*
X74900348Y-82492556D01*
X74894322Y-82470942D01*
X74892495Y-82460968D01*
X74867806Y-82406112D01*
X74864942Y-82399197D01*
X74843619Y-82342971D01*
X74838845Y-82336056D01*
X74837863Y-82334633D01*
X74826836Y-82315082D01*
X74825784Y-82312745D01*
X74822678Y-82305843D01*
X74785585Y-82258497D01*
X74781155Y-82252477D01*
X74746983Y-82202971D01*
X74701953Y-82163078D01*
X74696515Y-82157958D01*
X72936340Y-80397783D01*
X72931205Y-80392328D01*
X72891329Y-80347316D01*
X72891324Y-80347312D01*
X72841838Y-80313155D01*
X72835803Y-80308715D01*
X72788460Y-80271624D01*
X72788455Y-80271620D01*
X72779213Y-80267461D01*
X72759666Y-80256436D01*
X72751331Y-80250683D01*
X72751332Y-80250683D01*
X72751330Y-80250682D01*
X72695094Y-80229354D01*
X72688190Y-80226494D01*
X72633332Y-80201805D01*
X72633330Y-80201804D01*
X72623346Y-80199974D01*
X72601743Y-80193951D01*
X72592274Y-80190360D01*
X72592271Y-80190359D01*
X72532571Y-80183110D01*
X72525170Y-80181983D01*
X72466009Y-80171142D01*
X72466003Y-80171142D01*
X72405967Y-80174774D01*
X72398479Y-80175000D01*
X69295410Y-80175000D01*
X69287923Y-80174774D01*
X69227896Y-80171143D01*
X69227889Y-80171143D01*
X69168743Y-80181981D01*
X69161343Y-80183108D01*
X69101625Y-80190360D01*
X69092142Y-80193956D01*
X69070538Y-80199978D01*
X69069035Y-80200254D01*
X69060565Y-80201806D01*
X69060563Y-80201807D01*
X69005734Y-80226483D01*
X68998819Y-80229348D01*
X68942568Y-80250682D01*
X68934224Y-80256442D01*
X68914683Y-80267464D01*
X68905444Y-80271622D01*
X68905439Y-80271625D01*
X68858094Y-80308716D01*
X68852066Y-80313152D01*
X68802572Y-80347316D01*
X68802564Y-80347323D01*
X68762683Y-80392338D01*
X68757551Y-80397790D01*
X67771162Y-81384181D01*
X67709839Y-81417666D01*
X67683481Y-81420500D01*
X67155247Y-81420500D01*
X67096770Y-81432131D01*
X67096769Y-81432132D01*
X67030447Y-81476447D01*
X66986132Y-81542769D01*
X66986131Y-81542770D01*
X66974500Y-81601247D01*
X66974500Y-82990752D01*
X66986131Y-83049229D01*
X66986132Y-83049230D01*
X67030447Y-83115552D01*
X67096769Y-83159867D01*
X67096770Y-83159868D01*
X67155247Y-83171499D01*
X67155250Y-83171500D01*
X67155252Y-83171500D01*
X68544750Y-83171500D01*
X68544751Y-83171499D01*
X68559568Y-83168552D01*
X68603229Y-83159868D01*
X68603229Y-83159867D01*
X68603231Y-83159867D01*
X68669552Y-83115552D01*
X68713867Y-83049231D01*
X68713867Y-83049229D01*
X68713868Y-83049229D01*
X68722552Y-83005568D01*
X68725500Y-82990748D01*
X68725500Y-82462518D01*
X68745185Y-82395479D01*
X68761807Y-82374849D01*
X68773581Y-82363075D01*
X68834897Y-82329592D01*
X68904589Y-82334573D01*
X68960524Y-82376442D01*
X68984580Y-82437793D01*
X68988914Y-82479026D01*
X68988915Y-82479030D01*
X69045783Y-82654053D01*
X69045786Y-82654059D01*
X69137805Y-82813440D01*
X69238018Y-82924738D01*
X69260949Y-82950206D01*
X69260951Y-82950208D01*
X69409834Y-83058378D01*
X69409835Y-83058378D01*
X69409839Y-83058381D01*
X69500157Y-83098593D01*
X69577961Y-83133234D01*
X69577966Y-83133236D01*
X69757981Y-83171500D01*
X69942019Y-83171500D01*
X70122034Y-83133236D01*
X70290161Y-83058381D01*
X70439050Y-82950207D01*
X70562195Y-82813440D01*
X70654214Y-82654059D01*
X70711085Y-82479029D01*
X70726679Y-82330655D01*
X70740862Y-82296184D01*
X70728023Y-82270687D01*
X70726679Y-82261342D01*
X70726380Y-82258497D01*
X70711085Y-82112971D01*
X70666622Y-81976128D01*
X70654216Y-81937946D01*
X70654213Y-81937940D01*
X70643120Y-81918727D01*
X70562195Y-81778560D01*
X70558377Y-81773305D01*
X70560702Y-81771615D01*
X70535926Y-81719905D01*
X70544594Y-81650575D01*
X70589369Y-81596937D01*
X70656034Y-81576021D01*
X70658318Y-81576000D01*
X71041682Y-81576000D01*
X71108721Y-81595685D01*
X71154476Y-81648489D01*
X71164420Y-81717647D01*
X71139654Y-81771875D01*
X71141623Y-81773305D01*
X71137804Y-81778560D01*
X71045786Y-81937940D01*
X71045783Y-81937946D01*
X70992351Y-82102395D01*
X70988915Y-82112971D01*
X70973620Y-82258497D01*
X70973321Y-82261342D01*
X70959137Y-82295814D01*
X70971977Y-82321312D01*
X70973319Y-82330646D01*
X70988915Y-82479029D01*
X70988916Y-82479031D01*
X70988916Y-82479032D01*
X71045783Y-82654053D01*
X71045786Y-82654059D01*
X71132887Y-82804921D01*
X71149500Y-82866921D01*
X71149500Y-83946078D01*
X71149274Y-83953566D01*
X71145642Y-84013603D01*
X71145642Y-84013605D01*
X71156483Y-84072770D01*
X71157610Y-84080171D01*
X71164859Y-84139871D01*
X71164860Y-84139874D01*
X71168451Y-84149343D01*
X71174474Y-84170946D01*
X71176304Y-84180930D01*
X71200991Y-84235782D01*
X71203854Y-84242694D01*
X71225182Y-84298930D01*
X71225183Y-84298931D01*
X71230936Y-84307266D01*
X71241961Y-84326813D01*
X71246120Y-84336055D01*
X71246124Y-84336060D01*
X71283215Y-84383403D01*
X71287655Y-84389438D01*
X71321812Y-84438924D01*
X71321816Y-84438929D01*
X71366828Y-84478805D01*
X71372283Y-84483940D01*
X72127881Y-85239537D01*
X72161366Y-85300860D01*
X72164200Y-85327218D01*
X72164200Y-85899180D01*
X72144515Y-85966219D01*
X72091711Y-86011974D01*
X72022553Y-86021918D01*
X71982574Y-86008977D01*
X71878223Y-85954209D01*
X71713056Y-85913500D01*
X71542944Y-85913500D01*
X71377773Y-85954210D01*
X71227150Y-86033263D01*
X71099815Y-86146072D01*
X71095049Y-86152978D01*
X71040766Y-86196968D01*
X70971317Y-86204627D01*
X70908753Y-86173523D01*
X70890951Y-86152978D01*
X70886184Y-86146072D01*
X70758849Y-86033263D01*
X70608226Y-85954210D01*
X70443056Y-85913500D01*
X70272944Y-85913500D01*
X70107773Y-85954210D01*
X69957149Y-86033264D01*
X69957147Y-86033266D01*
X69949223Y-86040286D01*
X69885989Y-86070005D01*
X69816726Y-86060820D01*
X69763897Y-86016358D01*
X69732553Y-85969448D01*
X69666230Y-85925132D01*
X69666229Y-85925131D01*
X69607752Y-85913500D01*
X69607748Y-85913500D01*
X68568252Y-85913500D01*
X68568247Y-85913500D01*
X68509770Y-85925131D01*
X68509769Y-85925132D01*
X68443447Y-85969447D01*
X68399132Y-86035769D01*
X68399131Y-86035770D01*
X68387500Y-86094247D01*
X68387500Y-87133752D01*
X68399131Y-87192229D01*
X68399132Y-87192230D01*
X68443447Y-87258552D01*
X68509769Y-87302867D01*
X68509770Y-87302868D01*
X68568247Y-87314499D01*
X68568250Y-87314500D01*
X68568252Y-87314500D01*
X69607750Y-87314500D01*
X69607751Y-87314499D01*
X69622568Y-87311552D01*
X69666229Y-87302868D01*
X69666229Y-87302867D01*
X69666231Y-87302867D01*
X69732552Y-87258552D01*
X69763899Y-87211638D01*
X69817508Y-87166836D01*
X69886833Y-87158127D01*
X69949225Y-87187715D01*
X69957148Y-87194734D01*
X70107775Y-87273790D01*
X70272944Y-87314500D01*
X70443056Y-87314500D01*
X70608225Y-87273790D01*
X70726639Y-87211641D01*
X70758849Y-87194736D01*
X70758850Y-87194734D01*
X70758852Y-87194734D01*
X70886183Y-87081929D01*
X70890950Y-87075021D01*
X70945230Y-87031033D01*
X71014678Y-87023372D01*
X71077244Y-87054473D01*
X71095046Y-87075017D01*
X71099817Y-87081929D01*
X71185827Y-87158127D01*
X71227150Y-87194736D01*
X71370636Y-87270043D01*
X71377775Y-87273790D01*
X71542944Y-87314500D01*
X71713056Y-87314500D01*
X71878225Y-87273790D01*
X71907778Y-87258278D01*
X71976286Y-87244552D01*
X72041340Y-87270043D01*
X72082285Y-87326658D01*
X72086122Y-87396423D01*
X72053087Y-87455755D01*
X69206790Y-90302051D01*
X69201338Y-90307183D01*
X69156319Y-90347068D01*
X69122149Y-90396569D01*
X69117713Y-90402597D01*
X69080624Y-90449938D01*
X69080619Y-90449948D01*
X69076460Y-90459188D01*
X69065442Y-90478723D01*
X69059687Y-90487061D01*
X69059679Y-90487076D01*
X69038353Y-90543305D01*
X69035489Y-90550220D01*
X69010805Y-90605068D01*
X69008977Y-90615042D01*
X69002953Y-90636653D01*
X68999360Y-90646127D01*
X68999360Y-90646128D01*
X68992110Y-90705827D01*
X68990983Y-90713227D01*
X68980142Y-90772389D01*
X68980142Y-90772395D01*
X68983774Y-90832432D01*
X68984000Y-90839920D01*
X68984000Y-95447981D01*
X68964315Y-95515020D01*
X68911511Y-95560775D01*
X68842353Y-95570719D01*
X68778797Y-95541694D01*
X68772319Y-95535662D01*
X67792819Y-94556162D01*
X67759334Y-94494839D01*
X67756500Y-94468481D01*
X67756500Y-94134500D01*
X67776185Y-94067461D01*
X67828989Y-94021706D01*
X67880500Y-94010500D01*
X68175750Y-94010500D01*
X68175751Y-94010499D01*
X68190568Y-94007552D01*
X68234229Y-93998868D01*
X68234229Y-93998867D01*
X68234231Y-93998867D01*
X68300552Y-93954552D01*
X68344867Y-93888231D01*
X68344867Y-93888229D01*
X68344868Y-93888229D01*
X68354634Y-93839131D01*
X68356500Y-93829748D01*
X68356500Y-91590252D01*
X68356500Y-91590249D01*
X68356499Y-91590247D01*
X68344868Y-91531770D01*
X68344867Y-91531769D01*
X68300552Y-91465447D01*
X68234230Y-91421132D01*
X68234229Y-91421131D01*
X68175752Y-91409500D01*
X68175748Y-91409500D01*
X65936252Y-91409500D01*
X65936247Y-91409500D01*
X65877770Y-91421131D01*
X65877769Y-91421132D01*
X65811447Y-91465447D01*
X65767132Y-91531769D01*
X65767131Y-91531770D01*
X65755500Y-91590247D01*
X65755500Y-93829752D01*
X65767131Y-93888229D01*
X65767132Y-93888230D01*
X65811447Y-93954552D01*
X65877769Y-93998867D01*
X65877770Y-93998868D01*
X65936247Y-94010499D01*
X65936250Y-94010500D01*
X65936252Y-94010500D01*
X66231500Y-94010500D01*
X66298539Y-94030185D01*
X66344294Y-94082989D01*
X66355500Y-94134500D01*
X66355500Y-94785078D01*
X66355274Y-94792566D01*
X66353131Y-94828000D01*
X66351642Y-94852606D01*
X66352888Y-94859403D01*
X66362483Y-94911770D01*
X66363610Y-94919171D01*
X66370859Y-94978871D01*
X66370860Y-94978874D01*
X66374451Y-94988343D01*
X66380474Y-95009946D01*
X66382304Y-95019930D01*
X66382305Y-95019932D01*
X66403721Y-95067518D01*
X66406991Y-95074782D01*
X66409854Y-95081694D01*
X66431182Y-95137930D01*
X66431183Y-95137931D01*
X66436936Y-95146266D01*
X66447961Y-95165813D01*
X66452120Y-95175055D01*
X66452124Y-95175060D01*
X66489215Y-95222403D01*
X66493655Y-95228438D01*
X66527812Y-95277924D01*
X66527816Y-95277929D01*
X66572828Y-95317805D01*
X66578283Y-95322940D01*
X67567081Y-96311738D01*
X67600566Y-96373061D01*
X67603400Y-96399419D01*
X67603400Y-97427500D01*
X67583715Y-97494539D01*
X67530911Y-97540294D01*
X67479400Y-97551500D01*
X65982247Y-97551500D01*
X65923770Y-97563131D01*
X65923769Y-97563132D01*
X65857447Y-97607447D01*
X65813132Y-97673769D01*
X65813131Y-97673770D01*
X65801500Y-97732247D01*
X65801500Y-99371752D01*
X65813131Y-99430229D01*
X65813132Y-99430230D01*
X65857447Y-99496552D01*
X65923769Y-99540867D01*
X65923770Y-99540868D01*
X65981852Y-99552420D01*
X65982252Y-99552500D01*
X65982257Y-99552500D01*
X65988312Y-99553097D01*
X65988065Y-99555602D01*
X66044539Y-99572185D01*
X66090294Y-99624989D01*
X66101500Y-99676500D01*
X66101500Y-99824200D01*
X66081815Y-99891239D01*
X66029011Y-99936994D01*
X65977500Y-99948200D01*
X63909726Y-99948200D01*
X63783231Y-99963559D01*
X63783225Y-99963560D01*
X63624168Y-100023882D01*
X63484172Y-100120516D01*
X63371363Y-100247850D01*
X63292309Y-100398474D01*
X63292309Y-100398475D01*
X63285705Y-100425268D01*
X63250548Y-100485648D01*
X63188328Y-100517435D01*
X63118799Y-100510537D01*
X63077628Y-100483271D01*
X59664819Y-97070462D01*
X59631334Y-97009139D01*
X59628500Y-96982781D01*
X59628500Y-95067518D01*
X59648185Y-95000479D01*
X59664814Y-94979842D01*
X62199731Y-92444924D01*
X62205151Y-92439822D01*
X62250183Y-92399929D01*
X62284362Y-92350411D01*
X62288789Y-92344396D01*
X62325878Y-92297056D01*
X62330037Y-92287813D01*
X62341061Y-92268268D01*
X62346818Y-92259930D01*
X62365751Y-92210007D01*
X62368145Y-92203694D01*
X62371013Y-92196770D01*
X62395693Y-92141936D01*
X62395693Y-92141934D01*
X62395695Y-92141931D01*
X62397522Y-92131959D01*
X62403546Y-92110347D01*
X62407140Y-92100872D01*
X62414387Y-92041184D01*
X62415514Y-92033777D01*
X62415787Y-92032286D01*
X62426358Y-91974606D01*
X62422726Y-91914565D01*
X62422500Y-91907078D01*
X62422500Y-91699902D01*
X62442185Y-91632863D01*
X62450642Y-91621242D01*
X62557910Y-91490538D01*
X62650814Y-91316727D01*
X62708024Y-91128132D01*
X62724596Y-90959863D01*
X62750756Y-90895077D01*
X62760309Y-90884346D01*
X63665031Y-89979624D01*
X63670451Y-89974522D01*
X63715483Y-89934629D01*
X63749666Y-89885104D01*
X63754075Y-89879113D01*
X63791178Y-89831757D01*
X63795337Y-89822515D01*
X63806362Y-89802968D01*
X63812118Y-89794630D01*
X63814832Y-89787475D01*
X63833446Y-89738390D01*
X63836302Y-89731491D01*
X63860994Y-89676632D01*
X63862820Y-89666665D01*
X63868848Y-89645040D01*
X63872440Y-89635572D01*
X63879689Y-89575869D01*
X63880816Y-89568462D01*
X63891657Y-89509306D01*
X63888026Y-89449277D01*
X63887800Y-89441790D01*
X63887800Y-87021819D01*
X63907485Y-86954780D01*
X63960289Y-86909025D01*
X64029447Y-86899081D01*
X64093003Y-86928106D01*
X64099481Y-86934138D01*
X66891495Y-89726152D01*
X66924980Y-89787475D01*
X66927134Y-89800869D01*
X66932325Y-89850249D01*
X66932327Y-89850260D01*
X66990818Y-90030277D01*
X66990821Y-90030284D01*
X67085467Y-90194216D01*
X67210832Y-90333447D01*
X67212129Y-90334888D01*
X67365265Y-90446148D01*
X67365270Y-90446151D01*
X67538192Y-90523142D01*
X67538197Y-90523144D01*
X67723354Y-90562500D01*
X67723355Y-90562500D01*
X67912644Y-90562500D01*
X67912646Y-90562500D01*
X68097803Y-90523144D01*
X68270730Y-90446151D01*
X68423871Y-90334888D01*
X68550533Y-90194216D01*
X68645179Y-90030284D01*
X68703674Y-89850256D01*
X68723460Y-89662000D01*
X68703674Y-89473744D01*
X68645179Y-89293716D01*
X68550533Y-89129784D01*
X68423871Y-88989112D01*
X68423870Y-88989111D01*
X68270734Y-88877851D01*
X68270729Y-88877848D01*
X68097807Y-88800857D01*
X68097802Y-88800855D01*
X67961490Y-88771882D01*
X67942872Y-88767924D01*
X67881391Y-88734733D01*
X67880973Y-88734316D01*
X65303619Y-86156962D01*
X65270134Y-86095639D01*
X65267300Y-86069281D01*
X65267300Y-78974020D01*
X65267526Y-78966532D01*
X65271158Y-78906494D01*
X65260314Y-78847321D01*
X65259187Y-78839915D01*
X65258928Y-78837789D01*
X65251940Y-78780228D01*
X65248348Y-78770756D01*
X65242321Y-78749134D01*
X65240495Y-78739171D01*
X65240493Y-78739163D01*
X65215809Y-78684321D01*
X65212954Y-78677431D01*
X65212411Y-78676000D01*
X66652357Y-78676000D01*
X66672884Y-78897535D01*
X66672885Y-78897537D01*
X66733769Y-79111523D01*
X66733775Y-79111538D01*
X66832938Y-79310683D01*
X66832943Y-79310691D01*
X66967020Y-79488238D01*
X67131437Y-79638123D01*
X67131439Y-79638125D01*
X67320595Y-79755245D01*
X67320596Y-79755245D01*
X67320599Y-79755247D01*
X67528060Y-79835618D01*
X67746757Y-79876500D01*
X67746759Y-79876500D01*
X67969241Y-79876500D01*
X67969243Y-79876500D01*
X68187940Y-79835618D01*
X68395401Y-79755247D01*
X68584562Y-79638124D01*
X68748981Y-79488236D01*
X68796151Y-79425773D01*
X68852260Y-79384137D01*
X68895105Y-79376500D01*
X71820895Y-79376500D01*
X71887934Y-79396185D01*
X71919849Y-79425773D01*
X71967020Y-79488238D01*
X72131437Y-79638123D01*
X72131439Y-79638125D01*
X72320595Y-79755245D01*
X72320596Y-79755245D01*
X72320599Y-79755247D01*
X72528060Y-79835618D01*
X72746757Y-79876500D01*
X72746759Y-79876500D01*
X72969241Y-79876500D01*
X72969243Y-79876500D01*
X73187940Y-79835618D01*
X73395401Y-79755247D01*
X73584562Y-79638124D01*
X73748981Y-79488236D01*
X73883058Y-79310689D01*
X73982229Y-79111528D01*
X74043115Y-78897536D01*
X74063643Y-78676000D01*
X74043115Y-78454464D01*
X73982229Y-78240472D01*
X73982224Y-78240461D01*
X73883061Y-78041316D01*
X73883056Y-78041308D01*
X73748979Y-77863761D01*
X73584562Y-77713876D01*
X73584560Y-77713874D01*
X73395404Y-77596754D01*
X73395398Y-77596752D01*
X73187940Y-77516382D01*
X72969243Y-77475500D01*
X72746757Y-77475500D01*
X72528060Y-77516382D01*
X72404943Y-77564078D01*
X72320601Y-77596752D01*
X72320595Y-77596754D01*
X72131439Y-77713874D01*
X72131437Y-77713876D01*
X71967020Y-77863761D01*
X71919849Y-77926227D01*
X71863740Y-77967863D01*
X71820895Y-77975500D01*
X68895105Y-77975500D01*
X68828066Y-77955815D01*
X68796151Y-77926227D01*
X68748979Y-77863761D01*
X68584562Y-77713876D01*
X68584560Y-77713874D01*
X68395404Y-77596754D01*
X68395398Y-77596752D01*
X68187940Y-77516382D01*
X67969243Y-77475500D01*
X67746757Y-77475500D01*
X67528060Y-77516382D01*
X67404943Y-77564078D01*
X67320601Y-77596752D01*
X67320595Y-77596754D01*
X67131439Y-77713874D01*
X67131437Y-77713876D01*
X66967020Y-77863761D01*
X66832943Y-78041308D01*
X66832938Y-78041316D01*
X66733775Y-78240461D01*
X66733769Y-78240476D01*
X66672885Y-78454462D01*
X66672884Y-78454464D01*
X66652357Y-78675999D01*
X66652357Y-78676000D01*
X65212411Y-78676000D01*
X65191618Y-78621170D01*
X65185862Y-78612831D01*
X65174834Y-78593277D01*
X65170681Y-78584049D01*
X65170678Y-78584045D01*
X65170678Y-78584044D01*
X65133588Y-78536703D01*
X65129152Y-78530674D01*
X65126833Y-78527315D01*
X65094983Y-78481171D01*
X65049945Y-78441271D01*
X65044507Y-78436151D01*
X61284357Y-74676000D01*
X66652357Y-74676000D01*
X66672884Y-74897535D01*
X66672885Y-74897537D01*
X66733769Y-75111523D01*
X66733775Y-75111538D01*
X66832938Y-75310683D01*
X66832943Y-75310691D01*
X66967020Y-75488238D01*
X67131437Y-75638123D01*
X67131439Y-75638125D01*
X67320595Y-75755245D01*
X67320596Y-75755245D01*
X67320599Y-75755247D01*
X67528060Y-75835618D01*
X67746757Y-75876500D01*
X67746759Y-75876500D01*
X67969241Y-75876500D01*
X67969243Y-75876500D01*
X68187940Y-75835618D01*
X68395401Y-75755247D01*
X68584562Y-75638124D01*
X68748981Y-75488236D01*
X68883058Y-75310689D01*
X68982229Y-75111528D01*
X69043115Y-74897536D01*
X69063643Y-74676000D01*
X69050781Y-74537203D01*
X69064196Y-74468637D01*
X69086568Y-74438087D01*
X70111838Y-73412819D01*
X70173161Y-73379334D01*
X70199519Y-73376500D01*
X72240505Y-73376500D01*
X72307544Y-73396185D01*
X72353299Y-73448989D01*
X72363243Y-73518147D01*
X72334218Y-73581703D01*
X72305782Y-73605927D01*
X72131439Y-73713874D01*
X72131437Y-73713876D01*
X71967020Y-73863761D01*
X71832943Y-74041308D01*
X71832938Y-74041316D01*
X71733775Y-74240461D01*
X71733769Y-74240476D01*
X71672885Y-74454462D01*
X71672884Y-74454464D01*
X71652357Y-74675999D01*
X71652357Y-74676000D01*
X71672884Y-74897535D01*
X71672885Y-74897537D01*
X71733769Y-75111523D01*
X71733775Y-75111538D01*
X71832938Y-75310683D01*
X71832943Y-75310691D01*
X71967020Y-75488238D01*
X72131437Y-75638123D01*
X72131439Y-75638125D01*
X72320595Y-75755245D01*
X72320596Y-75755245D01*
X72320599Y-75755247D01*
X72528060Y-75835618D01*
X72746757Y-75876500D01*
X72746759Y-75876500D01*
X72969241Y-75876500D01*
X72969243Y-75876500D01*
X73187940Y-75835618D01*
X73395401Y-75755247D01*
X73584562Y-75638124D01*
X73748981Y-75488236D01*
X73883058Y-75310689D01*
X73982229Y-75111528D01*
X74043115Y-74897536D01*
X74063643Y-74676000D01*
X74043115Y-74454464D01*
X73982229Y-74240472D01*
X73982224Y-74240461D01*
X73883061Y-74041316D01*
X73883056Y-74041308D01*
X73748979Y-73863761D01*
X73584562Y-73713876D01*
X73584560Y-73713874D01*
X73410218Y-73605927D01*
X73363582Y-73553899D01*
X73352478Y-73484918D01*
X73380431Y-73420883D01*
X73438566Y-73382127D01*
X73475495Y-73376500D01*
X74069179Y-73376500D01*
X74076666Y-73376725D01*
X74136706Y-73380358D01*
X74195882Y-73369513D01*
X74203285Y-73368387D01*
X74207021Y-73367933D01*
X74262972Y-73361140D01*
X74272435Y-73357550D01*
X74294061Y-73351522D01*
X74294993Y-73351351D01*
X74304032Y-73349695D01*
X74358908Y-73324996D01*
X74365778Y-73322150D01*
X74422030Y-73300818D01*
X74430366Y-73295062D01*
X74449921Y-73284034D01*
X74459157Y-73279878D01*
X74506513Y-73242775D01*
X74512504Y-73238366D01*
X74562029Y-73204183D01*
X74601922Y-73159151D01*
X74607024Y-73153731D01*
X75124638Y-72636119D01*
X75185961Y-72602634D01*
X75212319Y-72599800D01*
X76631500Y-72599800D01*
X76698539Y-72619485D01*
X76744294Y-72672289D01*
X76755500Y-72723800D01*
X76755500Y-74225752D01*
X76767131Y-74284229D01*
X76767132Y-74284230D01*
X76811447Y-74350552D01*
X76877769Y-74394867D01*
X76877770Y-74394868D01*
X76936247Y-74406499D01*
X76936250Y-74406500D01*
X76936252Y-74406500D01*
X78575750Y-74406500D01*
X78575751Y-74406499D01*
X78590568Y-74403552D01*
X78634229Y-74394868D01*
X78634229Y-74394867D01*
X78634231Y-74394867D01*
X78700552Y-74350552D01*
X78744867Y-74284231D01*
X78744867Y-74284229D01*
X78744868Y-74284229D01*
X78756499Y-74225752D01*
X78756500Y-74225750D01*
X78756500Y-74111759D01*
X78776185Y-74044720D01*
X78828989Y-73998965D01*
X78898147Y-73989021D01*
X78961703Y-74018046D01*
X78976351Y-74033092D01*
X79027353Y-74095238D01*
X79054666Y-74159547D01*
X79055500Y-74173902D01*
X79055500Y-80000480D01*
X79035815Y-80067519D01*
X79019181Y-80088161D01*
X78262290Y-80845051D01*
X78256838Y-80850183D01*
X78211819Y-80890068D01*
X78177649Y-80939569D01*
X78173213Y-80945597D01*
X78136124Y-80992938D01*
X78136119Y-80992948D01*
X78131960Y-81002188D01*
X78120942Y-81021723D01*
X78115187Y-81030061D01*
X78115179Y-81030076D01*
X78093853Y-81086305D01*
X78090989Y-81093220D01*
X78066305Y-81148068D01*
X78064477Y-81158042D01*
X78058453Y-81179653D01*
X78054860Y-81189127D01*
X78054860Y-81189128D01*
X78047610Y-81248827D01*
X78046483Y-81256227D01*
X78035642Y-81315389D01*
X78035642Y-81315395D01*
X78039274Y-81375432D01*
X78039500Y-81382920D01*
X78039500Y-82442608D01*
X78019815Y-82509647D01*
X78007656Y-82525574D01*
X78007468Y-82525782D01*
X78007464Y-82525787D01*
X77912821Y-82689715D01*
X77912818Y-82689722D01*
X77859266Y-82854539D01*
X77854326Y-82869744D01*
X77834540Y-83058000D01*
X77854326Y-83246256D01*
X77854327Y-83246259D01*
X77912818Y-83426277D01*
X77912821Y-83426284D01*
X78007467Y-83590216D01*
X78105468Y-83699057D01*
X78134129Y-83730888D01*
X78287265Y-83842148D01*
X78287270Y-83842151D01*
X78460192Y-83919142D01*
X78460197Y-83919144D01*
X78645354Y-83958500D01*
X78645355Y-83958500D01*
X78834644Y-83958500D01*
X78834646Y-83958500D01*
X79019803Y-83919144D01*
X79192730Y-83842151D01*
X79345871Y-83730888D01*
X79472533Y-83590216D01*
X79567179Y-83426284D01*
X79625674Y-83246256D01*
X79645460Y-83058000D01*
X79625674Y-82869744D01*
X79567179Y-82689716D01*
X79509256Y-82589390D01*
X79472535Y-82525787D01*
X79472531Y-82525782D01*
X79472344Y-82525574D01*
X79472273Y-82525427D01*
X79468714Y-82520528D01*
X79469610Y-82519876D01*
X79442119Y-82462580D01*
X79440500Y-82442608D01*
X79440500Y-81699518D01*
X79460185Y-81632479D01*
X79476815Y-81611841D01*
X80233731Y-80854924D01*
X80239151Y-80849822D01*
X80284183Y-80809929D01*
X80318366Y-80760404D01*
X80322775Y-80754413D01*
X80359878Y-80707057D01*
X80364034Y-80697821D01*
X80375062Y-80678266D01*
X80380818Y-80669930D01*
X80402150Y-80613678D01*
X80404996Y-80606808D01*
X80429695Y-80551932D01*
X80431522Y-80541961D01*
X80437552Y-80520331D01*
X80441140Y-80510871D01*
X80441140Y-80510868D01*
X80448387Y-80451185D01*
X80449514Y-80443778D01*
X80460358Y-80384606D01*
X80456726Y-80324565D01*
X80456500Y-80317078D01*
X80456500Y-74173902D01*
X80476185Y-74106863D01*
X80484642Y-74095242D01*
X80591910Y-73964538D01*
X80645775Y-73863764D01*
X80684811Y-73790733D01*
X80684811Y-73790732D01*
X80684814Y-73790727D01*
X80742024Y-73602132D01*
X80761341Y-73406000D01*
X80742024Y-73209868D01*
X80684814Y-73021273D01*
X80684811Y-73021269D01*
X80684811Y-73021266D01*
X80591913Y-72847467D01*
X80591909Y-72847460D01*
X80554982Y-72802465D01*
X80527669Y-72738155D01*
X80539460Y-72669288D01*
X80586612Y-72617727D01*
X80650835Y-72599800D01*
X82660481Y-72599800D01*
X82727520Y-72619485D01*
X82748162Y-72636119D01*
X85299862Y-75187819D01*
X85333347Y-75249142D01*
X85328363Y-75318834D01*
X85286491Y-75374767D01*
X85221027Y-75399184D01*
X85212181Y-75399500D01*
X84056247Y-75399500D01*
X83997770Y-75411131D01*
X83997769Y-75411132D01*
X83931447Y-75455447D01*
X83887132Y-75521769D01*
X83887131Y-75521770D01*
X83875500Y-75580247D01*
X83875500Y-77219752D01*
X83887131Y-77278229D01*
X83887132Y-77278230D01*
X83931447Y-77344552D01*
X83997769Y-77388867D01*
X83997770Y-77388868D01*
X84056247Y-77400499D01*
X84056250Y-77400500D01*
X84056252Y-77400500D01*
X85695750Y-77400500D01*
X85695751Y-77400499D01*
X85710568Y-77397552D01*
X85754229Y-77388868D01*
X85754229Y-77388867D01*
X85754231Y-77388867D01*
X85820552Y-77344552D01*
X85864867Y-77278231D01*
X85864867Y-77278229D01*
X85864868Y-77278229D01*
X85876499Y-77219752D01*
X85876500Y-77219750D01*
X85876500Y-76063819D01*
X85896185Y-75996780D01*
X85948989Y-75951025D01*
X86018147Y-75941081D01*
X86081703Y-75970106D01*
X86088181Y-75976138D01*
X86341864Y-76229821D01*
X86375349Y-76291144D01*
X86377586Y-76329654D01*
X86370659Y-76399998D01*
X86370659Y-76399999D01*
X86389975Y-76596129D01*
X86389976Y-76596132D01*
X86440099Y-76761366D01*
X86447188Y-76784733D01*
X86540086Y-76958532D01*
X86540090Y-76958539D01*
X86665116Y-77110883D01*
X86817460Y-77235909D01*
X86817467Y-77235913D01*
X86991266Y-77328811D01*
X86991269Y-77328811D01*
X86991273Y-77328814D01*
X87179868Y-77386024D01*
X87376000Y-77405341D01*
X87572132Y-77386024D01*
X87760727Y-77328814D01*
X87882596Y-77263673D01*
X87950996Y-77249432D01*
X88016240Y-77274431D01*
X88057611Y-77330736D01*
X88061973Y-77400469D01*
X88028728Y-77460713D01*
X83857390Y-81632051D01*
X83851938Y-81637183D01*
X83806919Y-81677068D01*
X83772749Y-81726569D01*
X83768313Y-81732597D01*
X83731224Y-81779938D01*
X83731219Y-81779948D01*
X83727060Y-81789188D01*
X83716042Y-81808723D01*
X83710287Y-81817061D01*
X83710279Y-81817076D01*
X83688953Y-81873305D01*
X83686089Y-81880220D01*
X83661405Y-81935068D01*
X83659577Y-81945042D01*
X83653553Y-81966653D01*
X83649960Y-81976127D01*
X83649960Y-81976128D01*
X83642710Y-82035827D01*
X83641583Y-82043227D01*
X83630742Y-82102389D01*
X83630742Y-82102395D01*
X83634374Y-82162432D01*
X83634600Y-82169920D01*
X83634600Y-82854619D01*
X83614915Y-82921658D01*
X83579492Y-82957720D01*
X83515548Y-83000446D01*
X83471232Y-83066769D01*
X83471231Y-83066770D01*
X83459600Y-83125247D01*
X83459600Y-84514752D01*
X83471231Y-84573229D01*
X83471232Y-84573230D01*
X83515547Y-84639552D01*
X83581869Y-84683867D01*
X83581870Y-84683868D01*
X83640347Y-84695499D01*
X83640350Y-84695500D01*
X83640352Y-84695500D01*
X85029850Y-84695500D01*
X85029851Y-84695499D01*
X85044668Y-84692552D01*
X85088329Y-84683868D01*
X85088329Y-84683867D01*
X85088331Y-84683867D01*
X85154652Y-84639552D01*
X85198967Y-84573231D01*
X85198967Y-84573229D01*
X85198968Y-84573229D01*
X85210599Y-84514752D01*
X85210600Y-84514750D01*
X85210600Y-83862862D01*
X85223107Y-83820265D01*
X85221605Y-83817282D01*
X85446736Y-83817282D01*
X85453577Y-83827927D01*
X85457920Y-83849895D01*
X85474015Y-84003029D01*
X85474016Y-84003032D01*
X85530883Y-84178053D01*
X85530886Y-84178059D01*
X85622905Y-84337440D01*
X85693929Y-84416320D01*
X85746049Y-84474206D01*
X85746051Y-84474208D01*
X85894934Y-84582378D01*
X85894935Y-84582378D01*
X85894939Y-84582381D01*
X86032053Y-84643428D01*
X86063061Y-84657234D01*
X86063066Y-84657236D01*
X86243081Y-84695500D01*
X86427119Y-84695500D01*
X86607134Y-84657236D01*
X86775261Y-84582381D01*
X86924150Y-84474207D01*
X87047295Y-84337440D01*
X87139314Y-84178059D01*
X87196185Y-84003029D01*
X87211779Y-83854655D01*
X87225962Y-83820184D01*
X87213123Y-83794687D01*
X87211779Y-83785342D01*
X87207996Y-83749349D01*
X87196185Y-83636971D01*
X87139314Y-83461941D01*
X87047295Y-83302560D01*
X86924150Y-83165793D01*
X86924148Y-83165791D01*
X86775265Y-83057621D01*
X86775262Y-83057619D01*
X86775261Y-83057619D01*
X86714212Y-83030438D01*
X86607138Y-82982765D01*
X86607133Y-82982763D01*
X86427119Y-82944500D01*
X86243081Y-82944500D01*
X86063066Y-82982763D01*
X86063061Y-82982765D01*
X85894939Y-83057619D01*
X85894934Y-83057621D01*
X85746051Y-83165791D01*
X85746049Y-83165793D01*
X85622904Y-83302561D01*
X85530886Y-83461940D01*
X85530883Y-83461946D01*
X85474016Y-83636967D01*
X85474015Y-83636971D01*
X85465587Y-83717162D01*
X85457921Y-83790099D01*
X85446736Y-83817282D01*
X85221605Y-83817282D01*
X85212623Y-83799444D01*
X85210600Y-83777137D01*
X85210600Y-83125249D01*
X85210599Y-83125247D01*
X85198968Y-83066770D01*
X85198967Y-83066769D01*
X85154651Y-83000446D01*
X85090708Y-82957720D01*
X85045904Y-82904108D01*
X85035600Y-82854619D01*
X85035600Y-82486518D01*
X85055285Y-82419479D01*
X85071914Y-82398842D01*
X89368831Y-78101924D01*
X89374251Y-78096822D01*
X89419283Y-78056929D01*
X89453466Y-78007404D01*
X89457875Y-78001413D01*
X89494978Y-77954057D01*
X89499134Y-77944821D01*
X89510162Y-77925266D01*
X89515918Y-77916930D01*
X89537250Y-77860678D01*
X89540096Y-77853808D01*
X89564795Y-77798932D01*
X89566622Y-77788961D01*
X89572652Y-77767331D01*
X89576240Y-77757871D01*
X89576240Y-77757868D01*
X89583487Y-77698185D01*
X89584614Y-77690778D01*
X89595458Y-77631606D01*
X89591826Y-77571565D01*
X89591600Y-77564078D01*
X89591600Y-71390020D01*
X89591826Y-71382532D01*
X89595458Y-71322494D01*
X89584614Y-71263321D01*
X89583487Y-71255915D01*
X89581547Y-71239939D01*
X89576240Y-71196228D01*
X89572648Y-71186756D01*
X89566621Y-71165134D01*
X89564795Y-71155171D01*
X89564793Y-71155163D01*
X89540108Y-71100319D01*
X89537253Y-71093429D01*
X89515918Y-71037170D01*
X89510163Y-71028833D01*
X89499136Y-71009282D01*
X89494979Y-71000046D01*
X89494978Y-71000043D01*
X89457885Y-70952697D01*
X89453455Y-70946677D01*
X89419283Y-70897171D01*
X89374253Y-70857278D01*
X89368815Y-70852158D01*
X88414318Y-69897661D01*
X88380833Y-69836338D01*
X88378596Y-69822134D01*
X88372845Y-69763744D01*
X88362024Y-69653868D01*
X88304814Y-69465273D01*
X88304811Y-69465269D01*
X88304811Y-69465266D01*
X88211913Y-69291467D01*
X88211909Y-69291460D01*
X88086883Y-69139116D01*
X87934539Y-69014090D01*
X87934532Y-69014086D01*
X87760733Y-68921188D01*
X87760727Y-68921186D01*
X87572132Y-68863976D01*
X87572129Y-68863975D01*
X87534421Y-68860261D01*
X87469634Y-68834099D01*
X87458896Y-68824539D01*
X84243640Y-65609283D01*
X84238505Y-65603828D01*
X84198629Y-65558816D01*
X84198624Y-65558812D01*
X84149138Y-65524655D01*
X84143103Y-65520215D01*
X84095760Y-65483124D01*
X84095755Y-65483120D01*
X84086513Y-65478961D01*
X84066966Y-65467936D01*
X84058631Y-65462183D01*
X84058632Y-65462183D01*
X84058630Y-65462182D01*
X84002394Y-65440854D01*
X83995490Y-65437994D01*
X83940632Y-65413305D01*
X83940630Y-65413304D01*
X83930646Y-65411474D01*
X83909043Y-65405451D01*
X83899574Y-65401860D01*
X83899571Y-65401859D01*
X83839871Y-65394610D01*
X83832470Y-65393483D01*
X83773309Y-65382642D01*
X83773303Y-65382642D01*
X83713267Y-65386274D01*
X83705779Y-65386500D01*
X78772919Y-65386500D01*
X78705880Y-65366815D01*
X78685238Y-65350181D01*
X77307598Y-63972541D01*
X77274113Y-63911218D01*
X77275281Y-63862414D01*
X77273493Y-63862099D01*
X77274433Y-63856762D01*
X77274434Y-63856760D01*
X77294535Y-63627000D01*
X77288477Y-63557752D01*
X80787500Y-63557752D01*
X80799131Y-63616229D01*
X80799132Y-63616230D01*
X80843447Y-63682552D01*
X80909769Y-63726867D01*
X80909770Y-63726868D01*
X80968247Y-63738499D01*
X80968250Y-63738500D01*
X80968252Y-63738500D01*
X82607750Y-63738500D01*
X82607751Y-63738499D01*
X82625967Y-63734876D01*
X82666229Y-63726868D01*
X82666229Y-63726867D01*
X82666231Y-63726867D01*
X82732552Y-63682552D01*
X82776867Y-63616231D01*
X82776867Y-63616229D01*
X82776868Y-63616229D01*
X82788499Y-63557752D01*
X82788500Y-63557750D01*
X82788500Y-61918249D01*
X82788499Y-61918247D01*
X82776868Y-61859770D01*
X82776867Y-61859769D01*
X82732552Y-61793447D01*
X82666230Y-61749132D01*
X82666229Y-61749131D01*
X82607752Y-61737500D01*
X82607748Y-61737500D01*
X80968252Y-61737500D01*
X80968247Y-61737500D01*
X80909770Y-61749131D01*
X80909769Y-61749132D01*
X80843447Y-61793447D01*
X80799132Y-61859769D01*
X80799131Y-61859770D01*
X80787500Y-61918247D01*
X80787500Y-63557752D01*
X77288477Y-63557752D01*
X77274434Y-63397240D01*
X77214740Y-63174461D01*
X77117269Y-62965433D01*
X76984980Y-62776505D01*
X76821895Y-62613420D01*
X76632968Y-62481131D01*
X76632964Y-62481129D01*
X76423945Y-62383662D01*
X76423934Y-62383658D01*
X76201162Y-62323966D01*
X76201154Y-62323965D01*
X75971402Y-62303865D01*
X75971398Y-62303865D01*
X75741645Y-62323965D01*
X75741637Y-62323966D01*
X75518865Y-62383658D01*
X75518861Y-62383660D01*
X75309833Y-62481131D01*
X75120905Y-62613420D01*
X75120903Y-62613421D01*
X75120900Y-62613424D01*
X74957824Y-62776500D01*
X74957821Y-62776503D01*
X74957820Y-62776505D01*
X74825531Y-62965433D01*
X74786214Y-63049750D01*
X74728061Y-63174459D01*
X74728058Y-63174465D01*
X74668366Y-63397237D01*
X74668365Y-63397245D01*
X74648265Y-63626997D01*
X74648265Y-63627002D01*
X74668365Y-63856754D01*
X74668366Y-63856762D01*
X74728058Y-64079534D01*
X74728062Y-64079545D01*
X74825529Y-64288564D01*
X74825531Y-64288568D01*
X74957820Y-64477495D01*
X75120905Y-64640580D01*
X75309832Y-64772869D01*
X75312408Y-64774070D01*
X75518854Y-64870337D01*
X75518856Y-64870337D01*
X75518861Y-64870340D01*
X75741640Y-64930034D01*
X75905754Y-64944391D01*
X75971398Y-64950135D01*
X75971400Y-64950135D01*
X75971402Y-64950135D01*
X76011604Y-64946617D01*
X76201160Y-64930034D01*
X76201167Y-64930032D01*
X76206499Y-64929093D01*
X76206895Y-64931342D01*
X76266985Y-64932757D01*
X76316941Y-64963198D01*
X77918458Y-66564715D01*
X77923578Y-66570153D01*
X77963471Y-66615183D01*
X78006418Y-66644827D01*
X78012969Y-66649349D01*
X78019001Y-66653788D01*
X78066338Y-66690874D01*
X78066343Y-66690877D01*
X78075574Y-66695031D01*
X78095127Y-66706059D01*
X78103470Y-66711818D01*
X78159722Y-66733151D01*
X78166628Y-66736012D01*
X78221463Y-66760692D01*
X78221464Y-66760692D01*
X78221468Y-66760694D01*
X78231430Y-66762519D01*
X78253051Y-66768546D01*
X78262525Y-66772139D01*
X78262528Y-66772140D01*
X78306634Y-66777495D01*
X78322230Y-66779389D01*
X78329635Y-66780516D01*
X78350800Y-66784394D01*
X78388794Y-66791357D01*
X78448823Y-66787726D01*
X78456310Y-66787500D01*
X83389181Y-66787500D01*
X83456220Y-66807185D01*
X83476862Y-66823819D01*
X85290862Y-68637819D01*
X85324347Y-68699142D01*
X85319363Y-68768834D01*
X85277491Y-68824767D01*
X85212027Y-68849184D01*
X85203181Y-68849500D01*
X84056247Y-68849500D01*
X83997770Y-68861131D01*
X83997769Y-68861132D01*
X83931447Y-68905447D01*
X83887132Y-68971769D01*
X83887131Y-68971770D01*
X83875500Y-69030247D01*
X83875500Y-70669752D01*
X83887131Y-70728229D01*
X83887132Y-70728230D01*
X83931447Y-70794552D01*
X83997769Y-70838867D01*
X83997770Y-70838868D01*
X84056247Y-70850499D01*
X84056250Y-70850500D01*
X84056252Y-70850500D01*
X85695750Y-70850500D01*
X85695751Y-70850499D01*
X85710568Y-70847552D01*
X85754229Y-70838868D01*
X85754229Y-70838867D01*
X85754231Y-70838867D01*
X85820552Y-70794552D01*
X85864867Y-70728231D01*
X85864867Y-70728229D01*
X85864868Y-70728229D01*
X85875256Y-70676000D01*
X85876500Y-70669748D01*
X85876500Y-69522819D01*
X85896185Y-69455780D01*
X85948989Y-69410025D01*
X86018147Y-69400081D01*
X86081703Y-69429106D01*
X86088181Y-69435138D01*
X86341057Y-69688014D01*
X86374542Y-69749337D01*
X86376779Y-69787846D01*
X86370659Y-69849997D01*
X86370659Y-69850000D01*
X86371976Y-69863367D01*
X86389975Y-70046129D01*
X86389976Y-70046132D01*
X86426964Y-70168066D01*
X86447188Y-70234733D01*
X86540086Y-70408532D01*
X86540090Y-70408539D01*
X86665116Y-70560883D01*
X86817460Y-70685909D01*
X86817467Y-70685913D01*
X86991266Y-70778811D01*
X86991269Y-70778811D01*
X86991273Y-70778814D01*
X87179868Y-70836024D01*
X87348135Y-70852596D01*
X87412921Y-70878757D01*
X87423661Y-70888318D01*
X88154281Y-71618938D01*
X88187766Y-71680261D01*
X88190600Y-71706619D01*
X88190600Y-75512058D01*
X88170915Y-75579097D01*
X88118111Y-75624852D01*
X88048953Y-75634796D01*
X87987936Y-75607912D01*
X87934538Y-75564090D01*
X87934532Y-75564086D01*
X87760733Y-75471188D01*
X87760727Y-75471186D01*
X87572132Y-75413976D01*
X87572129Y-75413975D01*
X87544402Y-75411244D01*
X87479616Y-75385081D01*
X87468879Y-75375522D01*
X83514940Y-71421583D01*
X83509805Y-71416128D01*
X83469929Y-71371116D01*
X83469924Y-71371112D01*
X83420438Y-71336955D01*
X83414403Y-71332515D01*
X83367060Y-71295424D01*
X83367055Y-71295420D01*
X83357813Y-71291261D01*
X83338266Y-71280236D01*
X83336657Y-71279126D01*
X83329930Y-71274482D01*
X83273694Y-71253154D01*
X83266790Y-71250294D01*
X83211932Y-71225605D01*
X83211930Y-71225604D01*
X83201946Y-71223774D01*
X83180343Y-71217751D01*
X83170874Y-71214160D01*
X83170871Y-71214159D01*
X83111171Y-71206910D01*
X83103770Y-71205783D01*
X83044609Y-71194942D01*
X83044603Y-71194942D01*
X82984567Y-71198574D01*
X82977079Y-71198800D01*
X74895721Y-71198800D01*
X74888233Y-71198574D01*
X74828196Y-71194942D01*
X74828188Y-71194942D01*
X74769027Y-71205783D01*
X74761627Y-71206910D01*
X74701928Y-71214160D01*
X74701921Y-71214161D01*
X74692447Y-71217754D01*
X74670849Y-71223775D01*
X74660869Y-71225604D01*
X74606027Y-71250287D01*
X74599109Y-71253152D01*
X74542872Y-71274481D01*
X74542866Y-71274484D01*
X74534522Y-71280243D01*
X74514987Y-71291261D01*
X74505747Y-71295420D01*
X74505745Y-71295421D01*
X74458409Y-71332505D01*
X74452382Y-71336939D01*
X74402870Y-71371117D01*
X74402868Y-71371119D01*
X74362983Y-71416138D01*
X74357851Y-71421590D01*
X73840262Y-71939181D01*
X73778939Y-71972666D01*
X73752581Y-71975500D01*
X73475495Y-71975500D01*
X73408456Y-71955815D01*
X73362701Y-71903011D01*
X73352757Y-71833853D01*
X73381782Y-71770297D01*
X73410218Y-71746073D01*
X73564204Y-71650729D01*
X73584562Y-71638124D01*
X73748981Y-71488236D01*
X73883058Y-71310689D01*
X73982229Y-71111528D01*
X74043115Y-70897536D01*
X74063643Y-70676000D01*
X74061465Y-70652500D01*
X74043115Y-70454464D01*
X74043114Y-70454462D01*
X74042940Y-70453851D01*
X73982229Y-70240472D01*
X73982003Y-70240018D01*
X73883061Y-70041316D01*
X73883056Y-70041308D01*
X73748979Y-69863761D01*
X73584562Y-69713876D01*
X73584560Y-69713874D01*
X73395404Y-69596754D01*
X73395398Y-69596752D01*
X73187940Y-69516382D01*
X72969243Y-69475500D01*
X72746757Y-69475500D01*
X72528060Y-69516382D01*
X72396864Y-69567207D01*
X72320601Y-69596752D01*
X72320595Y-69596754D01*
X72131439Y-69713874D01*
X72131437Y-69713876D01*
X71967020Y-69863761D01*
X71832943Y-70041308D01*
X71832938Y-70041316D01*
X71733775Y-70240461D01*
X71733769Y-70240476D01*
X71672885Y-70454462D01*
X71672884Y-70454464D01*
X71652357Y-70675999D01*
X71652357Y-70676000D01*
X71672884Y-70897535D01*
X71672885Y-70897537D01*
X71733769Y-71111523D01*
X71733775Y-71111538D01*
X71832938Y-71310683D01*
X71832943Y-71310691D01*
X71967020Y-71488238D01*
X72131437Y-71638123D01*
X72131439Y-71638125D01*
X72305782Y-71746073D01*
X72352418Y-71798101D01*
X72363522Y-71867082D01*
X72335569Y-71931117D01*
X72277434Y-71969873D01*
X72240505Y-71975500D01*
X69882910Y-71975500D01*
X69875423Y-71975274D01*
X69815396Y-71971643D01*
X69815389Y-71971643D01*
X69756243Y-71982481D01*
X69748843Y-71983608D01*
X69689125Y-71990860D01*
X69679642Y-71994456D01*
X69658038Y-72000478D01*
X69656535Y-72000754D01*
X69648065Y-72002306D01*
X69593229Y-72026986D01*
X69586313Y-72029851D01*
X69557701Y-72040702D01*
X69530070Y-72051182D01*
X69530068Y-72051183D01*
X69530066Y-72051184D01*
X69530061Y-72051186D01*
X69521722Y-72056942D01*
X69502190Y-72067959D01*
X69492946Y-72072120D01*
X69492944Y-72072121D01*
X69492943Y-72072122D01*
X69464580Y-72094342D01*
X69445597Y-72109214D01*
X69439569Y-72113649D01*
X69390068Y-72147819D01*
X69350183Y-72192838D01*
X69345051Y-72198290D01*
X68098531Y-73444810D01*
X68037208Y-73478295D01*
X67988070Y-73479019D01*
X67980968Y-73477691D01*
X67969243Y-73475500D01*
X67746757Y-73475500D01*
X67528060Y-73516382D01*
X67431218Y-73553899D01*
X67320601Y-73596752D01*
X67320595Y-73596754D01*
X67131439Y-73713874D01*
X67131437Y-73713876D01*
X66967020Y-73863761D01*
X66832943Y-74041308D01*
X66832938Y-74041316D01*
X66733775Y-74240461D01*
X66733769Y-74240476D01*
X66672885Y-74454462D01*
X66672884Y-74454464D01*
X66652357Y-74675999D01*
X66652357Y-74676000D01*
X61284357Y-74676000D01*
X57983240Y-71374883D01*
X57978105Y-71369428D01*
X57938229Y-71324416D01*
X57938224Y-71324412D01*
X57888738Y-71290255D01*
X57882703Y-71285815D01*
X57835360Y-71248724D01*
X57835355Y-71248720D01*
X57826113Y-71244561D01*
X57806566Y-71233536D01*
X57798231Y-71227783D01*
X57798232Y-71227783D01*
X57798230Y-71227782D01*
X57741994Y-71206454D01*
X57735090Y-71203594D01*
X57680232Y-71178905D01*
X57680230Y-71178904D01*
X57670246Y-71177074D01*
X57648643Y-71171051D01*
X57639174Y-71167460D01*
X57639171Y-71167459D01*
X57579471Y-71160210D01*
X57572070Y-71159083D01*
X57512909Y-71148242D01*
X57512903Y-71148242D01*
X57452867Y-71151874D01*
X57445379Y-71152100D01*
X56887926Y-71152100D01*
X56761431Y-71167459D01*
X56761425Y-71167460D01*
X56602368Y-71227782D01*
X56462372Y-71324416D01*
X56349563Y-71451750D01*
X56270510Y-71602373D01*
X56242052Y-71717835D01*
X56229800Y-71767544D01*
X56229800Y-71937656D01*
X56243800Y-71994456D01*
X56270510Y-72102826D01*
X56349563Y-72253449D01*
X56361900Y-72267374D01*
X56391620Y-72330608D01*
X56382436Y-72399871D01*
X56337263Y-72453174D01*
X56270443Y-72473593D01*
X56269083Y-72473600D01*
X55711619Y-72473600D01*
X55644580Y-72453915D01*
X55623938Y-72437281D01*
X54584819Y-71398162D01*
X54551334Y-71336839D01*
X54548500Y-71310481D01*
X54548500Y-70776500D01*
X54568185Y-70709461D01*
X54606801Y-70676000D01*
X66652357Y-70676000D01*
X66672884Y-70897535D01*
X66672885Y-70897537D01*
X66733769Y-71111523D01*
X66733775Y-71111538D01*
X66832938Y-71310683D01*
X66832943Y-71310691D01*
X66967020Y-71488238D01*
X67131437Y-71638123D01*
X67131439Y-71638125D01*
X67320595Y-71755245D01*
X67320596Y-71755245D01*
X67320599Y-71755247D01*
X67528060Y-71835618D01*
X67746757Y-71876500D01*
X67746759Y-71876500D01*
X67969241Y-71876500D01*
X67969243Y-71876500D01*
X68187940Y-71835618D01*
X68395401Y-71755247D01*
X68584562Y-71638124D01*
X68748981Y-71488236D01*
X68883058Y-71310689D01*
X68982229Y-71111528D01*
X69043115Y-70897536D01*
X69063643Y-70676000D01*
X69061465Y-70652500D01*
X69043115Y-70454464D01*
X69043114Y-70454462D01*
X69042940Y-70453851D01*
X68982229Y-70240472D01*
X68982003Y-70240018D01*
X68883061Y-70041316D01*
X68883056Y-70041308D01*
X68748981Y-69863764D01*
X68598961Y-69727002D01*
X68562680Y-69667290D01*
X68558500Y-69635365D01*
X68558500Y-62556918D01*
X68578185Y-62489879D01*
X68594814Y-62469242D01*
X72199553Y-58864502D01*
X74648265Y-58864502D01*
X74668365Y-59094254D01*
X74668366Y-59094262D01*
X74728058Y-59317034D01*
X74728062Y-59317045D01*
X74825529Y-59526064D01*
X74825531Y-59526068D01*
X74957820Y-59714995D01*
X75120905Y-59878080D01*
X75309832Y-60010369D01*
X75435589Y-60069010D01*
X75518854Y-60107837D01*
X75518856Y-60107837D01*
X75518861Y-60107840D01*
X75741640Y-60167534D01*
X75905754Y-60181891D01*
X75971398Y-60187635D01*
X75971400Y-60187635D01*
X75971402Y-60187635D01*
X76028840Y-60182609D01*
X76201160Y-60167534D01*
X76423939Y-60107840D01*
X76632968Y-60010369D01*
X76821895Y-59878080D01*
X76984980Y-59714995D01*
X77117269Y-59526068D01*
X77214740Y-59317039D01*
X77274434Y-59094260D01*
X77294535Y-58864500D01*
X77274434Y-58634740D01*
X77214740Y-58411961D01*
X77117269Y-58202933D01*
X76984980Y-58014005D01*
X76821895Y-57850920D01*
X76632968Y-57718631D01*
X76632964Y-57718629D01*
X76423945Y-57621162D01*
X76423934Y-57621158D01*
X76201162Y-57561466D01*
X76201154Y-57561465D01*
X75971402Y-57541365D01*
X75971398Y-57541365D01*
X75741645Y-57561465D01*
X75741637Y-57561466D01*
X75518865Y-57621158D01*
X75518861Y-57621160D01*
X75309833Y-57718631D01*
X75120905Y-57850920D01*
X75120903Y-57850921D01*
X75120900Y-57850924D01*
X74957824Y-58014000D01*
X74825531Y-58202933D01*
X74728061Y-58411959D01*
X74728058Y-58411965D01*
X74668366Y-58634737D01*
X74668365Y-58634745D01*
X74648265Y-58864497D01*
X74648265Y-58864502D01*
X72199553Y-58864502D01*
X75625860Y-55438195D01*
X75687181Y-55404712D01*
X75735986Y-55405888D01*
X75736303Y-55404093D01*
X75741629Y-55405031D01*
X75741640Y-55405034D01*
X75937183Y-55422141D01*
X75971398Y-55425135D01*
X75971400Y-55425135D01*
X75971402Y-55425135D01*
X76028840Y-55420109D01*
X76201160Y-55405034D01*
X76423939Y-55345340D01*
X76632968Y-55247869D01*
X76821895Y-55115580D01*
X76984980Y-54952495D01*
X77117269Y-54763568D01*
X77214740Y-54554539D01*
X77274434Y-54331760D01*
X77289509Y-54159440D01*
X77294535Y-54102002D01*
X77294535Y-54101997D01*
X77274434Y-53872245D01*
X77274434Y-53872240D01*
X77214740Y-53649461D01*
X77117269Y-53440433D01*
X76984980Y-53251505D01*
X76821895Y-53088420D01*
X76632968Y-52956131D01*
X76632964Y-52956129D01*
X76423945Y-52858662D01*
X76423934Y-52858658D01*
X76201162Y-52798966D01*
X76201154Y-52798965D01*
X75971402Y-52778865D01*
X75971398Y-52778865D01*
X75741645Y-52798965D01*
X75741637Y-52798966D01*
X75518865Y-52858658D01*
X75518861Y-52858660D01*
X75309833Y-52956131D01*
X75120905Y-53088420D01*
X75120903Y-53088421D01*
X75120900Y-53088424D01*
X74957824Y-53251500D01*
X74825531Y-53440433D01*
X74728061Y-53649459D01*
X74728058Y-53649465D01*
X74668366Y-53872237D01*
X74668365Y-53872245D01*
X74648265Y-54101997D01*
X74648265Y-54102002D01*
X74668365Y-54331754D01*
X74669307Y-54337094D01*
X74667080Y-54337486D01*
X74665606Y-54397697D01*
X74635201Y-54447540D01*
X67380290Y-61702451D01*
X67374838Y-61707583D01*
X67329819Y-61747468D01*
X67295649Y-61796969D01*
X67291213Y-61802997D01*
X67254124Y-61850338D01*
X67254119Y-61850348D01*
X67249960Y-61859588D01*
X67238942Y-61879123D01*
X67233187Y-61887461D01*
X67233179Y-61887476D01*
X67211853Y-61943705D01*
X67208989Y-61950620D01*
X67184305Y-62005468D01*
X67182477Y-62015442D01*
X67176453Y-62037053D01*
X67172860Y-62046527D01*
X67172860Y-62046528D01*
X67165610Y-62106227D01*
X67164483Y-62113627D01*
X67153642Y-62172789D01*
X67153642Y-62172795D01*
X67157274Y-62232832D01*
X67157500Y-62240320D01*
X67157500Y-69635365D01*
X67137815Y-69702404D01*
X67117039Y-69727002D01*
X66967018Y-69863764D01*
X66832943Y-70041308D01*
X66832938Y-70041316D01*
X66733775Y-70240461D01*
X66733769Y-70240476D01*
X66672885Y-70454462D01*
X66672884Y-70454464D01*
X66652357Y-70675999D01*
X66652357Y-70676000D01*
X54606801Y-70676000D01*
X54620989Y-70663706D01*
X54672500Y-70652500D01*
X55633058Y-70652500D01*
X55647117Y-70649034D01*
X55667223Y-70644077D01*
X55681942Y-70641380D01*
X55716872Y-70637140D01*
X55749772Y-70624662D01*
X55764066Y-70620209D01*
X55798225Y-70611790D01*
X55829380Y-70595437D01*
X55843022Y-70589297D01*
X55875930Y-70576818D01*
X55904890Y-70556827D01*
X55917692Y-70549087D01*
X55948852Y-70532734D01*
X55975195Y-70509395D01*
X55986960Y-70500178D01*
X56015929Y-70480183D01*
X56039264Y-70453841D01*
X56049841Y-70443264D01*
X56076183Y-70419929D01*
X56096178Y-70390960D01*
X56105395Y-70379195D01*
X56128734Y-70352852D01*
X56145087Y-70321692D01*
X56152827Y-70308890D01*
X56172818Y-70279930D01*
X56185297Y-70247022D01*
X56191437Y-70233380D01*
X56207790Y-70202225D01*
X56216209Y-70168065D01*
X56220664Y-70153767D01*
X56225788Y-70140256D01*
X56233140Y-70120872D01*
X56237380Y-70085942D01*
X56240077Y-70071223D01*
X56247450Y-70041316D01*
X56248500Y-70037058D01*
X56248500Y-68936018D01*
X56268185Y-68868979D01*
X56284814Y-68848342D01*
X61506153Y-63627002D01*
X63954865Y-63627002D01*
X63974965Y-63856754D01*
X63974966Y-63856762D01*
X64034658Y-64079534D01*
X64034662Y-64079545D01*
X64132129Y-64288564D01*
X64132131Y-64288568D01*
X64264420Y-64477495D01*
X64427505Y-64640580D01*
X64616432Y-64772869D01*
X64619008Y-64774070D01*
X64825454Y-64870337D01*
X64825456Y-64870337D01*
X64825461Y-64870340D01*
X65048240Y-64930034D01*
X65212354Y-64944391D01*
X65277998Y-64950135D01*
X65278000Y-64950135D01*
X65278002Y-64950135D01*
X65335440Y-64945109D01*
X65507760Y-64930034D01*
X65730539Y-64870340D01*
X65939568Y-64772869D01*
X66128495Y-64640580D01*
X66291580Y-64477495D01*
X66423869Y-64288568D01*
X66521340Y-64079539D01*
X66581034Y-63856760D01*
X66601135Y-63627000D01*
X66581034Y-63397240D01*
X66521340Y-63174461D01*
X66423869Y-62965433D01*
X66291580Y-62776505D01*
X66128495Y-62613420D01*
X65939568Y-62481131D01*
X65939564Y-62481129D01*
X65730545Y-62383662D01*
X65730534Y-62383658D01*
X65507762Y-62323966D01*
X65507754Y-62323965D01*
X65278002Y-62303865D01*
X65277998Y-62303865D01*
X65048245Y-62323965D01*
X65048237Y-62323966D01*
X64825465Y-62383658D01*
X64825461Y-62383660D01*
X64616433Y-62481131D01*
X64427505Y-62613420D01*
X64427503Y-62613421D01*
X64427500Y-62613424D01*
X64264424Y-62776500D01*
X64264421Y-62776503D01*
X64264420Y-62776505D01*
X64132131Y-62965433D01*
X64092814Y-63049750D01*
X64034661Y-63174459D01*
X64034658Y-63174465D01*
X63974966Y-63397237D01*
X63974965Y-63397245D01*
X63954865Y-63626997D01*
X63954865Y-63627002D01*
X61506153Y-63627002D01*
X64932460Y-60200695D01*
X64993781Y-60167212D01*
X65042586Y-60168388D01*
X65042903Y-60166593D01*
X65048229Y-60167531D01*
X65048240Y-60167534D01*
X65243783Y-60184641D01*
X65277998Y-60187635D01*
X65278000Y-60187635D01*
X65278002Y-60187635D01*
X65335440Y-60182609D01*
X65507760Y-60167534D01*
X65730539Y-60107840D01*
X65939568Y-60010369D01*
X66128495Y-59878080D01*
X66291580Y-59714995D01*
X66423869Y-59526068D01*
X66521340Y-59317039D01*
X66581034Y-59094260D01*
X66601135Y-58864500D01*
X66581034Y-58634740D01*
X66581031Y-58634729D01*
X66580093Y-58629403D01*
X66582350Y-58629005D01*
X66583743Y-58568955D01*
X66614195Y-58518960D01*
X72715331Y-52417824D01*
X72720751Y-52412722D01*
X72765783Y-52372829D01*
X72799962Y-52323311D01*
X72804389Y-52317296D01*
X72841478Y-52269956D01*
X72845637Y-52260713D01*
X72856661Y-52241168D01*
X72862418Y-52232830D01*
X72883745Y-52176594D01*
X72886613Y-52169670D01*
X72911293Y-52114836D01*
X72911293Y-52114834D01*
X72911295Y-52114831D01*
X72913122Y-52104859D01*
X72919146Y-52083247D01*
X72922740Y-52073772D01*
X72929987Y-52014084D01*
X72931114Y-52006677D01*
X72941958Y-51947506D01*
X72938326Y-51887465D01*
X72938100Y-51879978D01*
X72938100Y-49288121D01*
X72954713Y-49226121D01*
X73041814Y-49075259D01*
X73098685Y-48900229D01*
X73117922Y-48717200D01*
X73098685Y-48534171D01*
X73041814Y-48359141D01*
X73008720Y-48301821D01*
X72954713Y-48208277D01*
X72938100Y-48146277D01*
X72938100Y-46957143D01*
X72929680Y-46922986D01*
X72926980Y-46908252D01*
X72922740Y-46873330D01*
X72922740Y-46873328D01*
X72910259Y-46840418D01*
X72905809Y-46826134D01*
X72897391Y-46791978D01*
X72897390Y-46791977D01*
X72897390Y-46791975D01*
X72881032Y-46760809D01*
X72874899Y-46747182D01*
X72862418Y-46714270D01*
X72842419Y-46685298D01*
X72834681Y-46672495D01*
X72818336Y-46641351D01*
X72818331Y-46641344D01*
X72795005Y-46615014D01*
X72785771Y-46603228D01*
X72765785Y-46574273D01*
X72765783Y-46574271D01*
X72739442Y-46550935D01*
X72728858Y-46540350D01*
X72705533Y-46514021D01*
X72705524Y-46514013D01*
X72676564Y-46494022D01*
X72664782Y-46484792D01*
X72638452Y-46461466D01*
X72638449Y-46461464D01*
X72638447Y-46461463D01*
X72607305Y-46445118D01*
X72594490Y-46437371D01*
X72565534Y-46417383D01*
X72565531Y-46417382D01*
X72532626Y-46404902D01*
X72518977Y-46398759D01*
X72487825Y-46382410D01*
X72487821Y-46382408D01*
X72453666Y-46373990D01*
X72439374Y-46369537D01*
X72406476Y-46357061D01*
X72406469Y-46357059D01*
X72371542Y-46352818D01*
X72356818Y-46350119D01*
X72322659Y-46341700D01*
X72322656Y-46341700D01*
X72279972Y-46341700D01*
X72264985Y-46341700D01*
X72197946Y-46322015D01*
X72152191Y-46269211D01*
X72142247Y-46200053D01*
X72171272Y-46136497D01*
X72196093Y-46114598D01*
X72244352Y-46082352D01*
X72287078Y-46018408D01*
X72340690Y-45973604D01*
X72390180Y-45963300D01*
X73723781Y-45963300D01*
X73790820Y-45982985D01*
G37*
%TD.AperFunction*%
%TA.AperFunction,Conductor*%
G36*
X77751085Y-93415779D02*
G01*
X77783216Y-93477823D01*
X77785500Y-93501514D01*
X77785500Y-94422078D01*
X77785274Y-94429566D01*
X77781642Y-94489603D01*
X77781642Y-94489605D01*
X77792483Y-94548770D01*
X77793610Y-94556171D01*
X77800859Y-94615871D01*
X77800860Y-94615874D01*
X77804451Y-94625343D01*
X77810474Y-94646946D01*
X77812304Y-94656930D01*
X77812305Y-94656932D01*
X77824214Y-94683394D01*
X77836991Y-94711782D01*
X77839854Y-94718694D01*
X77861182Y-94774930D01*
X77861183Y-94774931D01*
X77866936Y-94783266D01*
X77877961Y-94802813D01*
X77882120Y-94812055D01*
X77882124Y-94812060D01*
X77919215Y-94859403D01*
X77923655Y-94865438D01*
X77957812Y-94914924D01*
X77957816Y-94914929D01*
X78002828Y-94954805D01*
X78008283Y-94959940D01*
X78717937Y-95669594D01*
X78751422Y-95730917D01*
X78746438Y-95800609D01*
X78704566Y-95856542D01*
X78639102Y-95880959D01*
X78604476Y-95878565D01*
X78580647Y-95873500D01*
X78580646Y-95873500D01*
X78391354Y-95873500D01*
X78367525Y-95878565D01*
X78206197Y-95912855D01*
X78206192Y-95912857D01*
X78033270Y-95989848D01*
X78033265Y-95989851D01*
X77880129Y-96101111D01*
X77753466Y-96241785D01*
X77658821Y-96405715D01*
X77658818Y-96405722D01*
X77610187Y-96555394D01*
X77600326Y-96585744D01*
X77580540Y-96774000D01*
X77600326Y-96962256D01*
X77600327Y-96962259D01*
X77658818Y-97142277D01*
X77658821Y-97142284D01*
X77753466Y-97306215D01*
X77753648Y-97306417D01*
X77753716Y-97306559D01*
X77757285Y-97311471D01*
X77756386Y-97312123D01*
X77783879Y-97369408D01*
X77785500Y-97389391D01*
X77785500Y-99314228D01*
X77765815Y-99381267D01*
X77713011Y-99427022D01*
X77705473Y-99430169D01*
X77650069Y-99451181D01*
X77641724Y-99456942D01*
X77622183Y-99467964D01*
X77612944Y-99472122D01*
X77612939Y-99472125D01*
X77565594Y-99509216D01*
X77559566Y-99513652D01*
X77510072Y-99547816D01*
X77510064Y-99547823D01*
X77470183Y-99592838D01*
X77465051Y-99598290D01*
X75598181Y-101465160D01*
X75536858Y-101498645D01*
X75467166Y-101493661D01*
X75411233Y-101451789D01*
X75386816Y-101386325D01*
X75391840Y-101341483D01*
X75408024Y-101288132D01*
X75427341Y-101092000D01*
X75408024Y-100895868D01*
X75350814Y-100707273D01*
X75350811Y-100707269D01*
X75350811Y-100707266D01*
X75257913Y-100533467D01*
X75257909Y-100533460D01*
X75150647Y-100402761D01*
X75123334Y-100338451D01*
X75122500Y-100324096D01*
X75122500Y-99319902D01*
X75142185Y-99252863D01*
X75150642Y-99241242D01*
X75257910Y-99110538D01*
X75350814Y-98936727D01*
X75408024Y-98748132D01*
X75427341Y-98552000D01*
X75408024Y-98355868D01*
X75350814Y-98167273D01*
X75350811Y-98167269D01*
X75350811Y-98167266D01*
X75257913Y-97993467D01*
X75257909Y-97993460D01*
X75132883Y-97841116D01*
X74980539Y-97716090D01*
X74980532Y-97716086D01*
X74806733Y-97623188D01*
X74806727Y-97623186D01*
X74618132Y-97565976D01*
X74618129Y-97565975D01*
X74422000Y-97546659D01*
X74225870Y-97565975D01*
X74037266Y-97623188D01*
X73863467Y-97716086D01*
X73863460Y-97716090D01*
X73711116Y-97841116D01*
X73586090Y-97993460D01*
X73586085Y-97993467D01*
X73521058Y-98115126D01*
X73472096Y-98164971D01*
X73403958Y-98180431D01*
X73338278Y-98156599D01*
X73295910Y-98101042D01*
X73287700Y-98056673D01*
X73287700Y-97762018D01*
X73307385Y-97694979D01*
X73324019Y-97674337D01*
X77529785Y-93468571D01*
X77529790Y-93468566D01*
X77563890Y-93425040D01*
X77620728Y-93384409D01*
X77690512Y-93380956D01*
X77751085Y-93415779D01*
G37*
%TD.AperFunction*%
%TA.AperFunction,Conductor*%
G36*
X90112539Y-40406185D02*
G01*
X90158294Y-40458989D01*
X90169500Y-40510500D01*
X90169500Y-41148017D01*
X90169558Y-41365170D01*
X90206622Y-41797919D01*
X90206623Y-41797928D01*
X90276575Y-42203297D01*
X90280484Y-42225946D01*
X90390601Y-42646098D01*
X90536170Y-43055320D01*
X90716131Y-43450627D01*
X90815392Y-43626986D01*
X90929174Y-43829142D01*
X91173728Y-44188077D01*
X91448030Y-44524845D01*
X91697290Y-44782434D01*
X91750072Y-44836979D01*
X91913042Y-44978876D01*
X92077652Y-45122201D01*
X92077669Y-45122214D01*
X92428353Y-45378410D01*
X92428371Y-45378422D01*
X92799662Y-45603772D01*
X92799666Y-45603775D01*
X93188855Y-45796628D01*
X93369929Y-45867824D01*
X93593070Y-45955561D01*
X93741154Y-45999619D01*
X94009370Y-46079419D01*
X94009373Y-46079419D01*
X94009378Y-46079421D01*
X94434736Y-46167303D01*
X94434741Y-46167303D01*
X94434743Y-46167304D01*
X94539370Y-46179739D01*
X94866043Y-46218566D01*
X95300151Y-46232835D01*
X95511958Y-46221742D01*
X95522046Y-46221626D01*
X95637113Y-46224978D01*
X95703548Y-46246604D01*
X95747746Y-46300718D01*
X95757500Y-46348924D01*
X95757500Y-137289500D01*
X95737815Y-137356539D01*
X95685011Y-137402294D01*
X95633500Y-137413500D01*
X95030421Y-137413500D01*
X94592634Y-137447955D01*
X94592633Y-137447955D01*
X94158899Y-137516651D01*
X93731873Y-137619172D01*
X93314237Y-137754869D01*
X92908528Y-137922920D01*
X92908515Y-137922926D01*
X92517219Y-138122301D01*
X92517214Y-138122304D01*
X92142809Y-138351740D01*
X92142798Y-138351748D01*
X91787531Y-138609864D01*
X91787517Y-138609875D01*
X91453601Y-138895066D01*
X91453587Y-138895079D01*
X91143079Y-139205587D01*
X91143066Y-139205601D01*
X90857875Y-139539517D01*
X90857864Y-139539531D01*
X90599748Y-139894798D01*
X90599740Y-139894809D01*
X90370304Y-140269214D01*
X90370301Y-140269219D01*
X90170926Y-140660515D01*
X90170920Y-140660528D01*
X90002869Y-141066237D01*
X89867172Y-141483873D01*
X89764651Y-141910899D01*
X89695955Y-142344633D01*
X89695955Y-142344634D01*
X89661500Y-142782421D01*
X89661500Y-143639500D01*
X89641815Y-143706539D01*
X89589011Y-143752294D01*
X89537500Y-143763500D01*
X50416500Y-143763500D01*
X50349461Y-143743815D01*
X50303706Y-143691011D01*
X50292500Y-143639500D01*
X50292500Y-142537873D01*
X50292499Y-142537858D01*
X50257796Y-142119052D01*
X50257795Y-142119046D01*
X50257795Y-142119042D01*
X50188622Y-141704512D01*
X50085454Y-141297110D01*
X49948995Y-140899619D01*
X49780178Y-140514754D01*
X49675594Y-140321500D01*
X49580157Y-140145147D01*
X49577286Y-140140752D01*
X66974500Y-140140752D01*
X66986131Y-140199229D01*
X66986132Y-140199230D01*
X67030447Y-140265552D01*
X67096769Y-140309867D01*
X67096770Y-140309868D01*
X67155247Y-140321499D01*
X67155250Y-140321500D01*
X67155252Y-140321500D01*
X68544750Y-140321500D01*
X68544751Y-140321499D01*
X68559568Y-140318552D01*
X68603229Y-140309868D01*
X68603229Y-140309867D01*
X68603231Y-140309867D01*
X68669552Y-140265552D01*
X68713867Y-140199231D01*
X68713867Y-140199229D01*
X68713868Y-140199229D01*
X68724625Y-140145147D01*
X68725500Y-140140748D01*
X68725500Y-139488862D01*
X68738007Y-139446265D01*
X68736505Y-139443282D01*
X68961636Y-139443282D01*
X68968477Y-139453927D01*
X68972820Y-139475895D01*
X68988915Y-139629029D01*
X68988916Y-139629032D01*
X69045783Y-139804053D01*
X69045786Y-139804059D01*
X69137805Y-139963440D01*
X69245042Y-140082539D01*
X69260949Y-140100206D01*
X69260951Y-140100208D01*
X69409834Y-140208378D01*
X69409835Y-140208378D01*
X69409839Y-140208381D01*
X69538247Y-140265552D01*
X69577961Y-140283234D01*
X69577966Y-140283236D01*
X69757981Y-140321500D01*
X69942019Y-140321500D01*
X70122034Y-140283236D01*
X70290161Y-140208381D01*
X70439050Y-140100207D01*
X70562195Y-139963440D01*
X70654214Y-139804059D01*
X70711085Y-139629029D01*
X70726679Y-139480655D01*
X70740862Y-139446184D01*
X70740676Y-139445814D01*
X70959137Y-139445814D01*
X70971977Y-139471312D01*
X70973319Y-139480646D01*
X70988915Y-139629029D01*
X70988916Y-139629032D01*
X71045783Y-139804053D01*
X71045786Y-139804059D01*
X71137805Y-139963440D01*
X71245042Y-140082539D01*
X71260949Y-140100206D01*
X71260951Y-140100208D01*
X71409834Y-140208378D01*
X71409835Y-140208378D01*
X71409839Y-140208381D01*
X71538247Y-140265552D01*
X71577961Y-140283234D01*
X71577966Y-140283236D01*
X71757981Y-140321500D01*
X71942019Y-140321500D01*
X72122034Y-140283236D01*
X72290161Y-140208381D01*
X72439050Y-140100207D01*
X72562195Y-139963440D01*
X72654214Y-139804059D01*
X72711085Y-139629029D01*
X72730322Y-139446000D01*
X72711085Y-139262971D01*
X72654214Y-139087941D01*
X72562195Y-138928560D01*
X72439050Y-138791793D01*
X72439048Y-138791791D01*
X72290165Y-138683621D01*
X72290162Y-138683619D01*
X72290161Y-138683619D01*
X72229112Y-138656438D01*
X72122038Y-138608765D01*
X72122033Y-138608763D01*
X71942019Y-138570500D01*
X71757981Y-138570500D01*
X71577966Y-138608763D01*
X71577961Y-138608765D01*
X71409839Y-138683619D01*
X71409834Y-138683621D01*
X71260951Y-138791791D01*
X71260949Y-138791793D01*
X71137804Y-138928561D01*
X71045786Y-139087940D01*
X71045783Y-139087946D01*
X70988916Y-139262967D01*
X70988915Y-139262971D01*
X70984209Y-139307748D01*
X70973321Y-139411342D01*
X70959137Y-139445814D01*
X70740676Y-139445814D01*
X70728023Y-139420687D01*
X70726679Y-139411342D01*
X70722671Y-139373209D01*
X70711085Y-139262971D01*
X70654214Y-139087941D01*
X70562195Y-138928560D01*
X70439050Y-138791793D01*
X70439048Y-138791791D01*
X70290165Y-138683621D01*
X70290162Y-138683619D01*
X70290161Y-138683619D01*
X70229112Y-138656438D01*
X70122038Y-138608765D01*
X70122033Y-138608763D01*
X69942019Y-138570500D01*
X69757981Y-138570500D01*
X69577966Y-138608763D01*
X69577961Y-138608765D01*
X69409839Y-138683619D01*
X69409834Y-138683621D01*
X69260951Y-138791791D01*
X69260949Y-138791793D01*
X69137804Y-138928561D01*
X69045786Y-139087940D01*
X69045783Y-139087946D01*
X68988916Y-139262967D01*
X68988915Y-139262971D01*
X68984209Y-139307748D01*
X68972821Y-139416099D01*
X68961636Y-139443282D01*
X68736505Y-139443282D01*
X68727523Y-139425444D01*
X68725500Y-139403137D01*
X68725500Y-138751249D01*
X68725499Y-138751247D01*
X68713868Y-138692770D01*
X68713867Y-138692769D01*
X68669552Y-138626447D01*
X68603230Y-138582132D01*
X68603229Y-138582131D01*
X68544752Y-138570500D01*
X68544748Y-138570500D01*
X67155252Y-138570500D01*
X67155247Y-138570500D01*
X67096770Y-138582131D01*
X67096769Y-138582132D01*
X67030447Y-138626447D01*
X66986132Y-138692769D01*
X66986131Y-138692770D01*
X66974500Y-138751247D01*
X66974500Y-140140752D01*
X49577286Y-140140752D01*
X49461442Y-139963440D01*
X49350294Y-139793315D01*
X49092163Y-139461669D01*
X49010730Y-139373209D01*
X48807528Y-139152471D01*
X48498331Y-138867837D01*
X48166693Y-138609712D01*
X48166692Y-138609711D01*
X48166688Y-138609708D01*
X48166685Y-138609706D01*
X47970631Y-138481618D01*
X47814852Y-138379842D01*
X47445255Y-138179826D01*
X47445241Y-138179820D01*
X47060384Y-138011006D01*
X46662903Y-137874550D01*
X46662897Y-137874548D01*
X46662890Y-137874546D01*
X46255488Y-137771378D01*
X46255484Y-137771377D01*
X45840953Y-137702204D01*
X45840947Y-137702203D01*
X45422141Y-137667500D01*
X45422131Y-137667500D01*
X45212099Y-137667500D01*
X45082500Y-137667500D01*
X45015461Y-137647815D01*
X44969706Y-137595011D01*
X44958500Y-137543500D01*
X44958500Y-102771505D01*
X48633742Y-102771505D01*
X48644583Y-102830670D01*
X48645710Y-102838071D01*
X48652959Y-102897771D01*
X48652960Y-102897774D01*
X48656551Y-102907243D01*
X48662574Y-102928846D01*
X48664404Y-102938830D01*
X48689091Y-102993682D01*
X48691954Y-103000594D01*
X48713282Y-103056830D01*
X48713283Y-103056831D01*
X48719036Y-103065166D01*
X48730061Y-103084713D01*
X48734220Y-103093955D01*
X48734224Y-103093960D01*
X48771315Y-103141303D01*
X48775755Y-103147338D01*
X48809912Y-103196824D01*
X48809916Y-103196829D01*
X48854928Y-103236705D01*
X48860383Y-103241840D01*
X55321581Y-109703038D01*
X55355066Y-109764361D01*
X55357900Y-109790719D01*
X55357900Y-111327678D01*
X55357674Y-111335166D01*
X55354042Y-111395203D01*
X55354042Y-111395205D01*
X55364883Y-111454370D01*
X55366010Y-111461771D01*
X55373259Y-111521471D01*
X55373260Y-111521474D01*
X55376851Y-111530943D01*
X55382874Y-111552546D01*
X55384704Y-111562530D01*
X55409391Y-111617382D01*
X55412254Y-111624294D01*
X55433582Y-111680530D01*
X55433583Y-111680531D01*
X55439336Y-111688866D01*
X55450361Y-111708413D01*
X55454520Y-111717655D01*
X55454524Y-111717660D01*
X55491615Y-111765003D01*
X55496055Y-111771038D01*
X55530212Y-111820524D01*
X55530216Y-111820529D01*
X55575228Y-111860405D01*
X55580683Y-111865540D01*
X57739119Y-114023977D01*
X57739125Y-114023982D01*
X57739133Y-114023990D01*
X57839444Y-114102578D01*
X57994569Y-114172395D01*
X58161894Y-114203058D01*
X58331696Y-114192786D01*
X58494106Y-114142178D01*
X58639685Y-114054172D01*
X58759972Y-113933885D01*
X58847978Y-113788306D01*
X58871335Y-113713347D01*
X58910071Y-113655202D01*
X58974096Y-113627227D01*
X59043082Y-113638308D01*
X59077401Y-113662558D01*
X59442281Y-114027437D01*
X59475766Y-114088760D01*
X59478600Y-114115118D01*
X59478600Y-116068133D01*
X59458915Y-116135172D01*
X59406111Y-116180927D01*
X59336953Y-116190871D01*
X59281715Y-116168451D01*
X59126734Y-116055851D01*
X59126729Y-116055848D01*
X58953807Y-115978857D01*
X58953802Y-115978855D01*
X58808001Y-115947865D01*
X58768646Y-115939500D01*
X58579354Y-115939500D01*
X58546897Y-115946398D01*
X58394197Y-115978855D01*
X58394192Y-115978857D01*
X58221270Y-116055848D01*
X58221265Y-116055851D01*
X58068129Y-116167111D01*
X57941466Y-116307785D01*
X57846821Y-116471715D01*
X57846818Y-116471722D01*
X57803956Y-116603639D01*
X57788326Y-116651744D01*
X57768540Y-116840000D01*
X57788326Y-117028256D01*
X57788327Y-117028259D01*
X57846818Y-117208277D01*
X57846821Y-117208284D01*
X57941467Y-117372216D01*
X58060030Y-117503893D01*
X58068129Y-117512888D01*
X58221265Y-117624148D01*
X58221270Y-117624151D01*
X58394192Y-117701142D01*
X58394197Y-117701144D01*
X58579354Y-117740500D01*
X58579355Y-117740500D01*
X58768644Y-117740500D01*
X58768646Y-117740500D01*
X58953803Y-117701144D01*
X59126730Y-117624151D01*
X59279871Y-117512888D01*
X59279873Y-117512885D01*
X59281714Y-117511548D01*
X59347521Y-117488068D01*
X59415575Y-117503893D01*
X59464270Y-117553999D01*
X59478600Y-117611866D01*
X59478600Y-119203775D01*
X59458915Y-119270814D01*
X59406111Y-119316569D01*
X59336953Y-119326513D01*
X59273397Y-119297488D01*
X59247213Y-119265775D01*
X59211417Y-119203775D01*
X59152533Y-119101784D01*
X59025871Y-118961112D01*
X59025870Y-118961111D01*
X58872734Y-118849851D01*
X58872729Y-118849848D01*
X58699807Y-118772857D01*
X58699802Y-118772855D01*
X58544869Y-118739924D01*
X58514646Y-118733500D01*
X58325354Y-118733500D01*
X58295131Y-118739924D01*
X58140197Y-118772855D01*
X58140192Y-118772857D01*
X57967270Y-118849848D01*
X57967265Y-118849851D01*
X57814129Y-118961111D01*
X57687466Y-119101785D01*
X57592821Y-119265715D01*
X57592818Y-119265722D01*
X57550018Y-119397448D01*
X57534326Y-119445744D01*
X57514540Y-119634000D01*
X57534326Y-119822256D01*
X57534327Y-119822259D01*
X57592818Y-120002277D01*
X57592821Y-120002284D01*
X57687467Y-120166216D01*
X57745328Y-120230477D01*
X57814129Y-120306888D01*
X57967265Y-120418148D01*
X57967270Y-120418151D01*
X58140192Y-120495142D01*
X58140197Y-120495144D01*
X58325354Y-120534500D01*
X58325355Y-120534500D01*
X58514644Y-120534500D01*
X58514646Y-120534500D01*
X58699803Y-120495144D01*
X58872730Y-120418151D01*
X59025871Y-120306888D01*
X59152533Y-120166216D01*
X59247179Y-120002284D01*
X59247179Y-120002283D01*
X59247213Y-120002225D01*
X59297779Y-119954009D01*
X59366386Y-119940785D01*
X59431251Y-119966753D01*
X59471780Y-120023667D01*
X59478600Y-120064224D01*
X59478600Y-126748178D01*
X59478374Y-126755666D01*
X59474742Y-126815703D01*
X59474742Y-126815705D01*
X59485583Y-126874870D01*
X59486710Y-126882271D01*
X59493959Y-126941971D01*
X59493960Y-126941974D01*
X59497551Y-126951443D01*
X59503574Y-126973046D01*
X59505404Y-126983030D01*
X59530091Y-127037882D01*
X59532954Y-127044794D01*
X59554282Y-127101030D01*
X59554283Y-127101031D01*
X59560036Y-127109366D01*
X59571061Y-127128913D01*
X59575220Y-127138155D01*
X59575224Y-127138160D01*
X59612315Y-127185503D01*
X59616755Y-127191538D01*
X59650912Y-127241024D01*
X59650916Y-127241029D01*
X59695928Y-127280905D01*
X59701383Y-127286040D01*
X66669427Y-134254084D01*
X66702912Y-134315407D01*
X66705217Y-134353205D01*
X66692357Y-134491998D01*
X66692357Y-134492000D01*
X66712884Y-134713535D01*
X66712885Y-134713537D01*
X66773769Y-134927523D01*
X66773775Y-134927538D01*
X66872938Y-135126683D01*
X66872943Y-135126691D01*
X67007020Y-135304238D01*
X67171437Y-135454123D01*
X67171439Y-135454125D01*
X67360595Y-135571245D01*
X67360596Y-135571245D01*
X67360599Y-135571247D01*
X67568060Y-135651618D01*
X67786757Y-135692500D01*
X67786759Y-135692500D01*
X68009241Y-135692500D01*
X68009243Y-135692500D01*
X68227940Y-135651618D01*
X68435401Y-135571247D01*
X68624562Y-135454124D01*
X68788981Y-135304236D01*
X68923058Y-135126689D01*
X69022229Y-134927528D01*
X69083115Y-134713536D01*
X69103643Y-134492000D01*
X71692357Y-134492000D01*
X71712884Y-134713535D01*
X71712885Y-134713537D01*
X71773769Y-134927523D01*
X71773775Y-134927538D01*
X71872938Y-135126683D01*
X71872943Y-135126691D01*
X72007020Y-135304238D01*
X72171437Y-135454123D01*
X72171439Y-135454125D01*
X72360595Y-135571245D01*
X72360596Y-135571245D01*
X72360599Y-135571247D01*
X72568060Y-135651618D01*
X72786757Y-135692500D01*
X72786759Y-135692500D01*
X73009241Y-135692500D01*
X73009243Y-135692500D01*
X73227940Y-135651618D01*
X73435401Y-135571247D01*
X73624562Y-135454124D01*
X73788981Y-135304236D01*
X73923058Y-135126689D01*
X74022229Y-134927528D01*
X74083115Y-134713536D01*
X74103643Y-134492000D01*
X74083115Y-134270464D01*
X74022229Y-134056472D01*
X74022224Y-134056461D01*
X73923061Y-133857316D01*
X73923056Y-133857308D01*
X73788979Y-133679761D01*
X73624562Y-133529876D01*
X73624560Y-133529874D01*
X73435404Y-133412754D01*
X73435398Y-133412752D01*
X73227940Y-133332382D01*
X73009243Y-133291500D01*
X72786757Y-133291500D01*
X72568060Y-133332382D01*
X72436864Y-133383207D01*
X72360601Y-133412752D01*
X72360595Y-133412754D01*
X72171439Y-133529874D01*
X72171437Y-133529876D01*
X72007020Y-133679761D01*
X71872943Y-133857308D01*
X71872938Y-133857316D01*
X71773775Y-134056461D01*
X71773769Y-134056476D01*
X71712885Y-134270462D01*
X71712884Y-134270464D01*
X71692357Y-134491999D01*
X71692357Y-134492000D01*
X69103643Y-134492000D01*
X69083115Y-134270464D01*
X69022229Y-134056472D01*
X69022224Y-134056461D01*
X68923061Y-133857316D01*
X68923056Y-133857308D01*
X68788979Y-133679761D01*
X68624562Y-133529876D01*
X68624560Y-133529874D01*
X68435404Y-133412754D01*
X68435398Y-133412752D01*
X68227940Y-133332382D01*
X68009243Y-133291500D01*
X67786757Y-133291500D01*
X67786754Y-133291500D01*
X67767926Y-133295019D01*
X67698412Y-133287984D01*
X67657467Y-133260810D01*
X64888657Y-130492000D01*
X66692357Y-130492000D01*
X66712884Y-130713535D01*
X66712885Y-130713537D01*
X66773769Y-130927523D01*
X66773775Y-130927538D01*
X66872938Y-131126683D01*
X66872943Y-131126691D01*
X67007020Y-131304238D01*
X67171437Y-131454123D01*
X67171439Y-131454125D01*
X67360595Y-131571245D01*
X67360596Y-131571245D01*
X67360599Y-131571247D01*
X67568060Y-131651618D01*
X67786757Y-131692500D01*
X67786759Y-131692500D01*
X68009241Y-131692500D01*
X68009243Y-131692500D01*
X68227940Y-131651618D01*
X68435401Y-131571247D01*
X68624562Y-131454124D01*
X68788981Y-131304236D01*
X68923058Y-131126689D01*
X69022229Y-130927528D01*
X69083115Y-130713536D01*
X69103643Y-130492000D01*
X71692357Y-130492000D01*
X71712884Y-130713535D01*
X71712885Y-130713537D01*
X71773769Y-130927523D01*
X71773775Y-130927538D01*
X71872938Y-131126683D01*
X71872943Y-131126691D01*
X72007020Y-131304238D01*
X72171437Y-131454123D01*
X72171439Y-131454125D01*
X72360595Y-131571245D01*
X72360596Y-131571245D01*
X72360599Y-131571247D01*
X72568060Y-131651618D01*
X72786757Y-131692500D01*
X72786759Y-131692500D01*
X73009241Y-131692500D01*
X73009243Y-131692500D01*
X73227940Y-131651618D01*
X73435401Y-131571247D01*
X73624562Y-131454124D01*
X73788981Y-131304236D01*
X73923058Y-131126689D01*
X74022229Y-130927528D01*
X74083115Y-130713536D01*
X74103643Y-130492000D01*
X74083115Y-130270464D01*
X74022229Y-130056472D01*
X74022224Y-130056461D01*
X73923061Y-129857316D01*
X73923056Y-129857308D01*
X73788979Y-129679761D01*
X73624562Y-129529876D01*
X73624560Y-129529874D01*
X73435404Y-129412754D01*
X73435398Y-129412752D01*
X73227940Y-129332382D01*
X73009243Y-129291500D01*
X72786757Y-129291500D01*
X72568060Y-129332382D01*
X72436864Y-129383207D01*
X72360601Y-129412752D01*
X72360595Y-129412754D01*
X72171439Y-129529874D01*
X72171437Y-129529876D01*
X72007020Y-129679761D01*
X71872943Y-129857308D01*
X71872938Y-129857316D01*
X71773775Y-130056461D01*
X71773769Y-130056476D01*
X71712885Y-130270462D01*
X71712884Y-130270464D01*
X71692357Y-130491999D01*
X71692357Y-130492000D01*
X69103643Y-130492000D01*
X69083115Y-130270464D01*
X69022229Y-130056472D01*
X69022224Y-130056461D01*
X68923061Y-129857316D01*
X68923056Y-129857308D01*
X68788979Y-129679761D01*
X68624562Y-129529876D01*
X68624560Y-129529874D01*
X68435404Y-129412754D01*
X68435398Y-129412752D01*
X68227940Y-129332382D01*
X68009243Y-129291500D01*
X67786757Y-129291500D01*
X67568060Y-129332382D01*
X67436864Y-129383207D01*
X67360601Y-129412752D01*
X67360595Y-129412754D01*
X67171439Y-129529874D01*
X67171437Y-129529876D01*
X67007020Y-129679761D01*
X66872943Y-129857308D01*
X66872938Y-129857316D01*
X66773775Y-130056461D01*
X66773769Y-130056476D01*
X66712885Y-130270462D01*
X66712884Y-130270464D01*
X66692357Y-130491999D01*
X66692357Y-130492000D01*
X64888657Y-130492000D01*
X60915919Y-126519262D01*
X60901033Y-126492000D01*
X66692357Y-126492000D01*
X66712884Y-126713535D01*
X66712885Y-126713537D01*
X66773769Y-126927523D01*
X66773775Y-126927538D01*
X66872938Y-127126683D01*
X66872943Y-127126691D01*
X67007020Y-127304238D01*
X67171437Y-127454123D01*
X67171439Y-127454125D01*
X67360595Y-127571245D01*
X67360596Y-127571245D01*
X67360599Y-127571247D01*
X67568060Y-127651618D01*
X67786757Y-127692500D01*
X67786759Y-127692500D01*
X68009241Y-127692500D01*
X68009243Y-127692500D01*
X68227940Y-127651618D01*
X68435401Y-127571247D01*
X68624562Y-127454124D01*
X68788981Y-127304236D01*
X68923058Y-127126689D01*
X69022229Y-126927528D01*
X69083115Y-126713536D01*
X69103643Y-126492000D01*
X71692357Y-126492000D01*
X71712884Y-126713535D01*
X71712885Y-126713537D01*
X71773769Y-126927523D01*
X71773775Y-126927538D01*
X71872938Y-127126683D01*
X71872943Y-127126691D01*
X72007020Y-127304238D01*
X72171437Y-127454123D01*
X72171439Y-127454125D01*
X72360595Y-127571245D01*
X72360596Y-127571245D01*
X72360599Y-127571247D01*
X72568060Y-127651618D01*
X72786757Y-127692500D01*
X72786759Y-127692500D01*
X73009241Y-127692500D01*
X73009243Y-127692500D01*
X73227940Y-127651618D01*
X73435401Y-127571247D01*
X73624562Y-127454124D01*
X73788981Y-127304236D01*
X73923058Y-127126689D01*
X74022229Y-126927528D01*
X74083115Y-126713536D01*
X74103643Y-126492000D01*
X74098044Y-126431581D01*
X74083115Y-126270464D01*
X74083114Y-126270462D01*
X74022230Y-126056476D01*
X74022229Y-126056472D01*
X74022224Y-126056461D01*
X73923061Y-125857316D01*
X73923056Y-125857308D01*
X73788979Y-125679761D01*
X73624562Y-125529876D01*
X73624560Y-125529874D01*
X73435404Y-125412754D01*
X73435398Y-125412752D01*
X73227940Y-125332382D01*
X73009243Y-125291500D01*
X72786757Y-125291500D01*
X72568060Y-125332382D01*
X72436864Y-125383207D01*
X72360601Y-125412752D01*
X72360595Y-125412754D01*
X72171439Y-125529874D01*
X72171437Y-125529876D01*
X72007020Y-125679761D01*
X71872943Y-125857308D01*
X71872938Y-125857316D01*
X71773775Y-126056461D01*
X71773769Y-126056476D01*
X71712885Y-126270462D01*
X71712884Y-126270464D01*
X71692357Y-126491999D01*
X71692357Y-126492000D01*
X69103643Y-126492000D01*
X69098044Y-126431581D01*
X69083115Y-126270464D01*
X69083114Y-126270462D01*
X69022230Y-126056476D01*
X69022229Y-126056472D01*
X69022224Y-126056461D01*
X68923061Y-125857316D01*
X68923056Y-125857308D01*
X68788979Y-125679761D01*
X68624562Y-125529876D01*
X68624560Y-125529874D01*
X68435404Y-125412754D01*
X68435398Y-125412752D01*
X68227940Y-125332382D01*
X68009243Y-125291500D01*
X67786757Y-125291500D01*
X67568060Y-125332382D01*
X67436864Y-125383207D01*
X67360601Y-125412752D01*
X67360595Y-125412754D01*
X67171439Y-125529874D01*
X67171437Y-125529876D01*
X67007020Y-125679761D01*
X66872943Y-125857308D01*
X66872938Y-125857316D01*
X66773775Y-126056461D01*
X66773769Y-126056476D01*
X66712885Y-126270462D01*
X66712884Y-126270464D01*
X66692357Y-126491999D01*
X66692357Y-126492000D01*
X60901033Y-126492000D01*
X60882434Y-126457939D01*
X60879600Y-126431581D01*
X60879600Y-113798520D01*
X60879826Y-113791032D01*
X60883458Y-113730994D01*
X60872614Y-113671821D01*
X60871487Y-113664415D01*
X60868317Y-113638308D01*
X60864240Y-113604728D01*
X60860648Y-113595256D01*
X60854621Y-113573634D01*
X60852795Y-113563671D01*
X60852793Y-113563663D01*
X60833717Y-113521281D01*
X60828103Y-113508808D01*
X60825254Y-113501931D01*
X60803918Y-113445670D01*
X60798162Y-113437331D01*
X60787134Y-113417777D01*
X60782981Y-113408549D01*
X60782978Y-113408545D01*
X60782978Y-113408544D01*
X60745888Y-113361203D01*
X60741452Y-113355174D01*
X60729616Y-113338027D01*
X60707283Y-113305671D01*
X60662245Y-113265771D01*
X60656807Y-113260651D01*
X57995219Y-110599062D01*
X57967202Y-110547752D01*
X58983500Y-110547752D01*
X58995131Y-110606229D01*
X58995132Y-110606230D01*
X59039447Y-110672552D01*
X59105769Y-110716867D01*
X59105770Y-110716868D01*
X59164247Y-110728499D01*
X59164250Y-110728500D01*
X59164252Y-110728500D01*
X60803750Y-110728500D01*
X60803751Y-110728499D01*
X60818568Y-110725552D01*
X60862229Y-110716868D01*
X60862229Y-110716867D01*
X60862231Y-110716867D01*
X60928552Y-110672552D01*
X60972867Y-110606231D01*
X60972867Y-110606229D01*
X60972868Y-110606229D01*
X60984499Y-110547752D01*
X60984500Y-110547750D01*
X60984500Y-108908249D01*
X60984499Y-108908247D01*
X60972868Y-108849770D01*
X60972867Y-108849769D01*
X60928552Y-108783447D01*
X60862230Y-108739132D01*
X60862229Y-108739131D01*
X60803752Y-108727500D01*
X60803748Y-108727500D01*
X59164252Y-108727500D01*
X59164247Y-108727500D01*
X59105770Y-108739131D01*
X59105769Y-108739132D01*
X59039447Y-108783447D01*
X58995132Y-108849769D01*
X58995131Y-108849770D01*
X58983500Y-108908247D01*
X58983500Y-110547752D01*
X57967202Y-110547752D01*
X57961734Y-110537739D01*
X57958900Y-110511381D01*
X57958900Y-104468891D01*
X57978585Y-104401852D01*
X58031389Y-104356097D01*
X58100547Y-104346153D01*
X58155786Y-104368574D01*
X58221264Y-104416147D01*
X58221270Y-104416151D01*
X58394191Y-104493142D01*
X58394193Y-104493142D01*
X58394197Y-104493144D01*
X58549130Y-104526075D01*
X58610607Y-104559266D01*
X58611026Y-104559683D01*
X59594458Y-105543115D01*
X59599578Y-105548553D01*
X59639471Y-105593583D01*
X59688973Y-105627752D01*
X59694991Y-105632180D01*
X59742344Y-105669278D01*
X59742347Y-105669280D01*
X59742346Y-105669280D01*
X59751577Y-105673434D01*
X59771131Y-105684462D01*
X59779470Y-105690218D01*
X59835731Y-105711554D01*
X59842608Y-105714403D01*
X59853094Y-105719123D01*
X59897463Y-105739093D01*
X59897466Y-105739093D01*
X59897469Y-105739095D01*
X59907434Y-105740921D01*
X59929056Y-105746948D01*
X59932177Y-105748131D01*
X59938528Y-105750540D01*
X59996089Y-105757528D01*
X59998215Y-105757787D01*
X60005622Y-105758914D01*
X60064794Y-105769758D01*
X60124833Y-105766125D01*
X60132321Y-105765900D01*
X65343679Y-105765900D01*
X65351166Y-105766125D01*
X65411206Y-105769758D01*
X65470382Y-105758913D01*
X65477785Y-105757787D01*
X65481521Y-105757333D01*
X65537472Y-105750540D01*
X65546935Y-105746950D01*
X65568561Y-105740922D01*
X65569493Y-105740751D01*
X65578532Y-105739095D01*
X65633408Y-105714396D01*
X65640294Y-105711544D01*
X65693566Y-105691341D01*
X65763228Y-105685975D01*
X65824734Y-105719123D01*
X65858555Y-105780262D01*
X65856196Y-105843279D01*
X65815975Y-105975869D01*
X65799403Y-106144133D01*
X65773242Y-106208921D01*
X65763681Y-106219660D01*
X64589790Y-107393551D01*
X64584338Y-107398683D01*
X64539319Y-107438568D01*
X64505149Y-107488069D01*
X64500713Y-107494097D01*
X64463624Y-107541438D01*
X64463619Y-107541448D01*
X64459460Y-107550688D01*
X64448442Y-107570223D01*
X64442687Y-107578561D01*
X64442679Y-107578576D01*
X64421353Y-107634805D01*
X64418489Y-107641720D01*
X64393805Y-107696568D01*
X64391977Y-107706542D01*
X64385953Y-107728153D01*
X64382360Y-107737627D01*
X64382360Y-107737628D01*
X64375110Y-107797327D01*
X64373983Y-107804727D01*
X64363142Y-107863889D01*
X64363142Y-107863895D01*
X64366774Y-107923932D01*
X64367000Y-107931420D01*
X64367000Y-112210880D01*
X64347315Y-112277919D01*
X64330681Y-112298561D01*
X63207381Y-113421861D01*
X63146058Y-113455346D01*
X63076366Y-113450362D01*
X63020433Y-113408490D01*
X62996016Y-113343026D01*
X62995700Y-113334180D01*
X62995700Y-110660996D01*
X63015385Y-110593957D01*
X63041035Y-110565143D01*
X63042536Y-110563910D01*
X63042538Y-110563910D01*
X63194883Y-110438883D01*
X63319910Y-110286538D01*
X63412814Y-110112727D01*
X63470024Y-109924132D01*
X63489341Y-109728000D01*
X63470024Y-109531868D01*
X63412814Y-109343273D01*
X63412811Y-109343269D01*
X63412811Y-109343266D01*
X63319913Y-109169467D01*
X63319909Y-109169460D01*
X63194883Y-109017116D01*
X63042539Y-108892090D01*
X63042532Y-108892086D01*
X62868733Y-108799188D01*
X62868727Y-108799186D01*
X62680132Y-108741976D01*
X62680129Y-108741975D01*
X62484000Y-108722659D01*
X62287870Y-108741975D01*
X62099266Y-108799188D01*
X61925467Y-108892086D01*
X61925460Y-108892090D01*
X61773116Y-109017116D01*
X61648090Y-109169460D01*
X61648086Y-109169467D01*
X61555188Y-109343266D01*
X61497975Y-109531870D01*
X61478659Y-109728000D01*
X61497975Y-109924129D01*
X61555187Y-110112730D01*
X61580058Y-110159258D01*
X61594700Y-110217712D01*
X61594700Y-118404278D01*
X61594474Y-118411766D01*
X61590842Y-118471803D01*
X61590842Y-118471805D01*
X61601683Y-118530970D01*
X61602810Y-118538371D01*
X61610059Y-118598071D01*
X61610060Y-118598074D01*
X61613651Y-118607543D01*
X61619674Y-118629146D01*
X61621504Y-118639130D01*
X61646191Y-118693982D01*
X61649054Y-118700894D01*
X61670382Y-118757130D01*
X61670383Y-118757131D01*
X61676136Y-118765466D01*
X61687161Y-118785013D01*
X61691320Y-118794255D01*
X61691324Y-118794260D01*
X61728415Y-118841603D01*
X61732855Y-118847638D01*
X61767012Y-118897124D01*
X61767016Y-118897129D01*
X61812028Y-118937005D01*
X61817483Y-118942140D01*
X62573495Y-119698152D01*
X62606980Y-119759475D01*
X62609134Y-119772869D01*
X62614325Y-119822249D01*
X62614327Y-119822260D01*
X62672818Y-120002277D01*
X62672821Y-120002284D01*
X62767467Y-120166216D01*
X62825328Y-120230477D01*
X62894129Y-120306888D01*
X63047265Y-120418148D01*
X63047270Y-120418151D01*
X63220192Y-120495142D01*
X63220197Y-120495144D01*
X63405354Y-120534500D01*
X63405355Y-120534500D01*
X63594644Y-120534500D01*
X63594646Y-120534500D01*
X63779803Y-120495144D01*
X63952730Y-120418151D01*
X64105871Y-120306888D01*
X64232533Y-120166216D01*
X64327179Y-120002284D01*
X64385674Y-119822256D01*
X64405460Y-119634000D01*
X64385674Y-119445744D01*
X64327179Y-119265716D01*
X64232533Y-119101784D01*
X64105871Y-118961112D01*
X64105870Y-118961111D01*
X63952734Y-118849851D01*
X63952729Y-118849848D01*
X63779807Y-118772857D01*
X63779802Y-118772855D01*
X63624871Y-118739924D01*
X63563389Y-118706732D01*
X63562971Y-118706315D01*
X63032019Y-118175362D01*
X62998534Y-118114039D01*
X62995700Y-118087681D01*
X62995700Y-117645505D01*
X63015385Y-117578466D01*
X63068189Y-117532711D01*
X63137347Y-117522767D01*
X63192583Y-117545186D01*
X63284361Y-117611866D01*
X63301270Y-117624151D01*
X63474192Y-117701142D01*
X63474197Y-117701144D01*
X63659354Y-117740500D01*
X63659355Y-117740500D01*
X63848644Y-117740500D01*
X63848646Y-117740500D01*
X64033803Y-117701144D01*
X64206730Y-117624151D01*
X64223639Y-117611866D01*
X64289271Y-117564182D01*
X64355077Y-117540702D01*
X64362156Y-117540500D01*
X65871079Y-117540500D01*
X65878566Y-117540725D01*
X65938606Y-117544358D01*
X65997782Y-117533513D01*
X66005185Y-117532387D01*
X66008921Y-117531933D01*
X66064872Y-117525140D01*
X66074335Y-117521550D01*
X66095961Y-117515522D01*
X66096893Y-117515351D01*
X66105932Y-117513695D01*
X66160808Y-117488996D01*
X66167678Y-117486150D01*
X66223930Y-117464818D01*
X66232266Y-117459062D01*
X66251821Y-117448034D01*
X66261057Y-117443878D01*
X66308413Y-117406775D01*
X66314404Y-117402366D01*
X66363929Y-117368183D01*
X66403822Y-117323151D01*
X66408924Y-117317731D01*
X71681019Y-112045637D01*
X71742342Y-112012152D01*
X71812034Y-112017136D01*
X71867967Y-112059008D01*
X71892384Y-112124472D01*
X71892700Y-112133318D01*
X71892700Y-115118424D01*
X71873015Y-115185463D01*
X71856381Y-115206105D01*
X70929190Y-116133295D01*
X70923738Y-116138427D01*
X70878719Y-116178312D01*
X70844549Y-116227813D01*
X70840113Y-116233841D01*
X70803024Y-116281182D01*
X70803019Y-116281192D01*
X70798860Y-116290432D01*
X70787842Y-116309967D01*
X70782087Y-116318305D01*
X70782079Y-116318320D01*
X70760753Y-116374549D01*
X70757889Y-116381464D01*
X70733205Y-116436312D01*
X70731377Y-116446286D01*
X70725353Y-116467897D01*
X70721760Y-116477371D01*
X70721760Y-116477372D01*
X70714510Y-116537071D01*
X70713383Y-116544471D01*
X70702542Y-116603633D01*
X70702542Y-116603639D01*
X70706174Y-116663676D01*
X70706400Y-116671164D01*
X70706400Y-119716507D01*
X70687394Y-119782478D01*
X70681109Y-119792479D01*
X70621533Y-119962737D01*
X70621530Y-119962749D01*
X70609528Y-120069273D01*
X70582461Y-120133687D01*
X70524866Y-120173242D01*
X70455029Y-120175379D01*
X70398627Y-120143070D01*
X70243719Y-119988162D01*
X70210234Y-119926839D01*
X70207400Y-119900481D01*
X70207400Y-119522249D01*
X70207399Y-119522247D01*
X70195768Y-119463770D01*
X70195767Y-119463769D01*
X70151452Y-119397447D01*
X70085130Y-119353132D01*
X70085129Y-119353131D01*
X70026652Y-119341500D01*
X70026648Y-119341500D01*
X68787152Y-119341500D01*
X68787147Y-119341500D01*
X68728670Y-119353131D01*
X68728669Y-119353132D01*
X68662347Y-119397447D01*
X68618032Y-119463769D01*
X68618031Y-119463770D01*
X68606400Y-119522247D01*
X68606400Y-120761752D01*
X68618031Y-120820229D01*
X68618032Y-120820230D01*
X68662347Y-120886552D01*
X68728669Y-120930867D01*
X68728670Y-120930868D01*
X68787147Y-120942499D01*
X68787150Y-120942500D01*
X68787152Y-120942500D01*
X69165381Y-120942500D01*
X69232420Y-120962185D01*
X69253062Y-120978819D01*
X70205358Y-121931115D01*
X70210478Y-121936553D01*
X70250371Y-121981583D01*
X70299864Y-122015746D01*
X70299873Y-122015752D01*
X70305891Y-122020180D01*
X70353243Y-122057277D01*
X70353247Y-122057280D01*
X70353246Y-122057280D01*
X70362477Y-122061434D01*
X70382031Y-122072462D01*
X70390370Y-122078218D01*
X70446631Y-122099554D01*
X70453508Y-122102403D01*
X70474863Y-122112015D01*
X70508363Y-122127093D01*
X70508366Y-122127093D01*
X70508369Y-122127095D01*
X70518334Y-122128921D01*
X70539956Y-122134948D01*
X70539967Y-122134952D01*
X70549428Y-122138540D01*
X70606989Y-122145528D01*
X70609115Y-122145787D01*
X70616522Y-122146914D01*
X70675694Y-122157758D01*
X70735733Y-122154125D01*
X70743221Y-122153900D01*
X71917179Y-122153900D01*
X71924666Y-122154125D01*
X71984706Y-122157758D01*
X72043882Y-122146913D01*
X72051285Y-122145787D01*
X72055021Y-122145333D01*
X72110972Y-122138540D01*
X72120435Y-122134950D01*
X72142061Y-122128922D01*
X72142993Y-122128751D01*
X72152032Y-122127095D01*
X72206908Y-122102396D01*
X72213778Y-122099550D01*
X72270030Y-122078218D01*
X72278366Y-122072462D01*
X72297921Y-122061434D01*
X72307157Y-122057278D01*
X72354513Y-122020175D01*
X72360504Y-122015766D01*
X72410029Y-121981583D01*
X72449922Y-121936551D01*
X72455024Y-121931131D01*
X73625331Y-120760824D01*
X73630751Y-120755722D01*
X73675783Y-120715829D01*
X73709958Y-120666316D01*
X73714379Y-120660307D01*
X73751477Y-120612957D01*
X73755629Y-120603728D01*
X73766662Y-120584168D01*
X73767019Y-120583650D01*
X73772418Y-120575830D01*
X73793754Y-120519568D01*
X73796614Y-120512666D01*
X73797690Y-120510277D01*
X73821294Y-120457832D01*
X73823120Y-120447865D01*
X73829148Y-120426240D01*
X73832740Y-120416772D01*
X73839989Y-120357069D01*
X73841116Y-120349662D01*
X73851957Y-120290506D01*
X73848326Y-120230477D01*
X73848100Y-120222990D01*
X73848100Y-120142000D01*
X76564540Y-120142000D01*
X76584326Y-120330256D01*
X76584327Y-120330259D01*
X76642818Y-120510277D01*
X76642821Y-120510284D01*
X76737467Y-120674216D01*
X76816285Y-120761752D01*
X76864129Y-120814888D01*
X77017265Y-120926148D01*
X77017270Y-120926151D01*
X77190192Y-121003142D01*
X77190197Y-121003144D01*
X77375354Y-121042500D01*
X77375355Y-121042500D01*
X77564644Y-121042500D01*
X77564646Y-121042500D01*
X77749803Y-121003144D01*
X77922730Y-120926151D01*
X78075871Y-120814888D01*
X78202533Y-120674216D01*
X78297179Y-120510284D01*
X78355674Y-120330256D01*
X78375460Y-120142000D01*
X81644540Y-120142000D01*
X81664326Y-120330256D01*
X81664327Y-120330259D01*
X81722818Y-120510277D01*
X81722821Y-120510284D01*
X81817467Y-120674216D01*
X81896285Y-120761752D01*
X81944129Y-120814888D01*
X82097265Y-120926148D01*
X82097270Y-120926151D01*
X82270192Y-121003142D01*
X82270197Y-121003144D01*
X82455354Y-121042500D01*
X82455355Y-121042500D01*
X82644644Y-121042500D01*
X82644646Y-121042500D01*
X82829803Y-121003144D01*
X83002730Y-120926151D01*
X83155871Y-120814888D01*
X83282533Y-120674216D01*
X83377179Y-120510284D01*
X83435674Y-120330256D01*
X83455460Y-120142000D01*
X83435674Y-119953744D01*
X83377179Y-119773716D01*
X83282533Y-119609784D01*
X83155871Y-119469112D01*
X83155870Y-119469111D01*
X83002734Y-119357851D01*
X83002729Y-119357848D01*
X82829807Y-119280857D01*
X82829802Y-119280855D01*
X82684001Y-119249865D01*
X82644646Y-119241500D01*
X82455354Y-119241500D01*
X82422897Y-119248398D01*
X82270197Y-119280855D01*
X82270192Y-119280857D01*
X82097270Y-119357848D01*
X82097265Y-119357851D01*
X81944129Y-119469111D01*
X81817466Y-119609785D01*
X81722821Y-119773715D01*
X81722818Y-119773722D01*
X81664327Y-119953740D01*
X81664326Y-119953744D01*
X81644540Y-120142000D01*
X78375460Y-120142000D01*
X78355674Y-119953744D01*
X78297179Y-119773716D01*
X78202533Y-119609784D01*
X78075871Y-119469112D01*
X78075870Y-119469111D01*
X77922734Y-119357851D01*
X77922729Y-119357848D01*
X77749807Y-119280857D01*
X77749802Y-119280855D01*
X77604001Y-119249865D01*
X77564646Y-119241500D01*
X77375354Y-119241500D01*
X77342897Y-119248398D01*
X77190197Y-119280855D01*
X77190192Y-119280857D01*
X77017270Y-119357848D01*
X77017265Y-119357851D01*
X76864129Y-119469111D01*
X76737466Y-119609785D01*
X76642821Y-119773715D01*
X76642818Y-119773722D01*
X76584327Y-119953740D01*
X76584326Y-119953744D01*
X76564540Y-120142000D01*
X73848100Y-120142000D01*
X73848100Y-117839074D01*
X73867785Y-117772035D01*
X73920589Y-117726280D01*
X73989747Y-117716336D01*
X74016071Y-117723132D01*
X74021568Y-117725216D01*
X74021570Y-117725218D01*
X74180628Y-117785540D01*
X74249594Y-117793914D01*
X74307126Y-117800900D01*
X74307128Y-117800900D01*
X75202179Y-117800900D01*
X75209666Y-117801125D01*
X75269706Y-117804758D01*
X75328882Y-117793913D01*
X75336285Y-117792787D01*
X75340021Y-117792333D01*
X75395972Y-117785540D01*
X75405435Y-117781950D01*
X75427061Y-117775922D01*
X75427993Y-117775751D01*
X75437032Y-117774095D01*
X75491908Y-117749396D01*
X75498778Y-117746550D01*
X75555030Y-117725218D01*
X75563366Y-117719462D01*
X75582921Y-117708434D01*
X75592157Y-117704278D01*
X75639513Y-117667175D01*
X75645504Y-117662766D01*
X75695029Y-117628583D01*
X75734922Y-117583551D01*
X75740024Y-117578131D01*
X76118498Y-117199657D01*
X76179819Y-117166174D01*
X76249511Y-117171158D01*
X76305444Y-117213030D01*
X76329497Y-117274372D01*
X76330326Y-117282255D01*
X76330326Y-117282257D01*
X76388818Y-117462277D01*
X76388821Y-117462284D01*
X76483467Y-117626216D01*
X76586369Y-117740500D01*
X76610129Y-117766888D01*
X76763265Y-117878148D01*
X76763270Y-117878151D01*
X76936192Y-117955142D01*
X76936197Y-117955144D01*
X77121354Y-117994500D01*
X77121355Y-117994500D01*
X77310644Y-117994500D01*
X77310646Y-117994500D01*
X77495803Y-117955144D01*
X77668730Y-117878151D01*
X77821871Y-117766888D01*
X77948533Y-117626216D01*
X78043179Y-117462284D01*
X78101674Y-117282256D01*
X78121460Y-117094000D01*
X81390540Y-117094000D01*
X81410326Y-117282256D01*
X81410327Y-117282259D01*
X81468818Y-117462277D01*
X81468821Y-117462284D01*
X81563467Y-117626216D01*
X81666369Y-117740500D01*
X81690129Y-117766888D01*
X81843265Y-117878148D01*
X81843270Y-117878151D01*
X82016192Y-117955142D01*
X82016197Y-117955144D01*
X82201354Y-117994500D01*
X82201355Y-117994500D01*
X82390644Y-117994500D01*
X82390646Y-117994500D01*
X82575803Y-117955144D01*
X82748730Y-117878151D01*
X82901871Y-117766888D01*
X83028533Y-117626216D01*
X83123179Y-117462284D01*
X83181674Y-117282256D01*
X83201460Y-117094000D01*
X83181674Y-116905744D01*
X83123179Y-116725716D01*
X83028533Y-116561784D01*
X82901871Y-116421112D01*
X82901870Y-116421111D01*
X82748734Y-116309851D01*
X82748729Y-116309848D01*
X82575807Y-116232857D01*
X82575802Y-116232855D01*
X82430001Y-116201865D01*
X82390646Y-116193500D01*
X82201354Y-116193500D01*
X82168897Y-116200398D01*
X82016197Y-116232855D01*
X82016192Y-116232857D01*
X81843270Y-116309848D01*
X81843265Y-116309851D01*
X81690129Y-116421111D01*
X81563466Y-116561785D01*
X81468821Y-116725715D01*
X81468818Y-116725722D01*
X81416346Y-116887215D01*
X81410326Y-116905744D01*
X81390540Y-117094000D01*
X78121460Y-117094000D01*
X78101674Y-116905744D01*
X78043179Y-116725716D01*
X77948533Y-116561784D01*
X77821871Y-116421112D01*
X77821870Y-116421111D01*
X77668734Y-116309851D01*
X77668729Y-116309848D01*
X77495807Y-116232857D01*
X77495802Y-116232855D01*
X77380648Y-116208379D01*
X77319166Y-116175187D01*
X77285390Y-116114024D01*
X77290042Y-116044309D01*
X77318746Y-115999410D01*
X78595838Y-114722319D01*
X78657161Y-114688834D01*
X78683519Y-114686000D01*
X86092974Y-114686000D01*
X86135138Y-114680880D01*
X86219472Y-114670640D01*
X86378530Y-114610318D01*
X86518529Y-114513683D01*
X86631334Y-114386352D01*
X86638291Y-114373098D01*
X86688128Y-114278141D01*
X86710390Y-114235725D01*
X86751100Y-114070556D01*
X86751100Y-113900444D01*
X86710390Y-113735275D01*
X86690728Y-113697813D01*
X86631336Y-113584650D01*
X86575196Y-113521281D01*
X86518529Y-113457317D01*
X86447870Y-113408544D01*
X86378531Y-113360682D01*
X86219474Y-113300360D01*
X86219468Y-113300359D01*
X86092974Y-113285000D01*
X86092972Y-113285000D01*
X78366921Y-113285000D01*
X78359433Y-113284774D01*
X78299396Y-113281142D01*
X78299388Y-113281142D01*
X78240227Y-113291983D01*
X78232827Y-113293110D01*
X78173128Y-113300360D01*
X78173121Y-113300361D01*
X78163647Y-113303954D01*
X78142049Y-113309975D01*
X78132069Y-113311804D01*
X78077227Y-113336487D01*
X78070309Y-113339352D01*
X78014072Y-113360681D01*
X78014066Y-113360684D01*
X78005722Y-113366443D01*
X77986187Y-113377461D01*
X77976947Y-113381620D01*
X77976945Y-113381621D01*
X77929609Y-113418705D01*
X77923582Y-113423139D01*
X77874070Y-113457317D01*
X77874068Y-113457319D01*
X77834183Y-113502338D01*
X77829051Y-113507790D01*
X77395439Y-113941402D01*
X77334116Y-113974887D01*
X77264424Y-113969903D01*
X77208491Y-113928031D01*
X77184074Y-113862567D01*
X77183984Y-113861205D01*
X77183026Y-113845362D01*
X77182800Y-113837878D01*
X77182800Y-110791251D01*
X77202485Y-110724212D01*
X77255289Y-110678457D01*
X77324447Y-110668513D01*
X77375692Y-110688150D01*
X77418668Y-110716867D01*
X77418670Y-110716868D01*
X77477147Y-110728499D01*
X77477150Y-110728500D01*
X77477152Y-110728500D01*
X79116650Y-110728500D01*
X79116651Y-110728499D01*
X79131468Y-110725552D01*
X79175129Y-110716868D01*
X79175129Y-110716867D01*
X79175131Y-110716867D01*
X79241452Y-110672552D01*
X79285767Y-110606231D01*
X79285767Y-110606229D01*
X79285768Y-110606229D01*
X79297399Y-110547752D01*
X79297400Y-110547750D01*
X79297400Y-108908249D01*
X79297399Y-108908247D01*
X79285768Y-108849770D01*
X79285767Y-108849769D01*
X79241452Y-108783447D01*
X79175130Y-108739132D01*
X79175129Y-108739131D01*
X79116652Y-108727500D01*
X79116648Y-108727500D01*
X77477152Y-108727500D01*
X77477147Y-108727500D01*
X77418670Y-108739131D01*
X77418669Y-108739132D01*
X77375691Y-108767850D01*
X77309014Y-108788728D01*
X77241634Y-108770244D01*
X77194943Y-108718265D01*
X77182800Y-108664748D01*
X77182800Y-104599940D01*
X77202485Y-104532901D01*
X77255289Y-104487146D01*
X77256364Y-104486661D01*
X77298481Y-104467909D01*
X77414730Y-104416151D01*
X77567871Y-104304888D01*
X77694533Y-104164216D01*
X77789179Y-104000284D01*
X77847674Y-103820256D01*
X77867460Y-103632000D01*
X77847674Y-103443744D01*
X77789179Y-103263716D01*
X77694533Y-103099784D01*
X77567871Y-102959112D01*
X77539958Y-102938832D01*
X77414734Y-102847851D01*
X77414729Y-102847848D01*
X77241807Y-102770857D01*
X77241802Y-102770855D01*
X77096001Y-102739865D01*
X77056646Y-102731500D01*
X76867354Y-102731500D01*
X76834897Y-102738398D01*
X76682197Y-102770855D01*
X76682192Y-102770857D01*
X76557244Y-102826489D01*
X76487994Y-102835774D01*
X76424717Y-102806146D01*
X76387504Y-102747011D01*
X76388169Y-102677145D01*
X76419127Y-102625529D01*
X76822499Y-102222157D01*
X78144322Y-100900334D01*
X78205641Y-100866852D01*
X78275333Y-100871836D01*
X78319680Y-100900337D01*
X79605181Y-102185838D01*
X79638666Y-102247161D01*
X79641500Y-102273519D01*
X79641500Y-103717059D01*
X79649919Y-103751218D01*
X79652618Y-103765942D01*
X79656859Y-103800869D01*
X79656861Y-103800876D01*
X79669337Y-103833774D01*
X79673790Y-103848066D01*
X79682208Y-103882221D01*
X79682210Y-103882225D01*
X79698559Y-103913377D01*
X79704702Y-103927026D01*
X79717182Y-103959931D01*
X79717183Y-103959934D01*
X79737171Y-103988890D01*
X79744918Y-104001705D01*
X79752806Y-104016733D01*
X79761266Y-104032852D01*
X79784592Y-104059182D01*
X79793822Y-104070964D01*
X79813813Y-104099924D01*
X79813821Y-104099933D01*
X79840150Y-104123258D01*
X79850735Y-104133842D01*
X79874071Y-104160183D01*
X79874073Y-104160185D01*
X79903028Y-104180171D01*
X79914814Y-104189405D01*
X79941144Y-104212731D01*
X79941151Y-104212736D01*
X79972295Y-104229081D01*
X79985098Y-104236819D01*
X80014070Y-104256818D01*
X80046982Y-104269299D01*
X80060609Y-104275432D01*
X80091775Y-104291790D01*
X80091779Y-104291791D01*
X80091777Y-104291791D01*
X80115909Y-104297738D01*
X80125937Y-104300210D01*
X80140218Y-104304659D01*
X80173128Y-104317140D01*
X80208052Y-104321380D01*
X80222779Y-104324078D01*
X80241045Y-104328581D01*
X80256943Y-104332500D01*
X80256944Y-104332500D01*
X80299628Y-104332500D01*
X81433844Y-104332500D01*
X81500883Y-104352185D01*
X81506729Y-104356182D01*
X81589265Y-104416148D01*
X81589270Y-104416151D01*
X81762192Y-104493142D01*
X81762197Y-104493144D01*
X81947354Y-104532500D01*
X81947355Y-104532500D01*
X82136644Y-104532500D01*
X82136646Y-104532500D01*
X82321803Y-104493144D01*
X82494730Y-104416151D01*
X82647871Y-104304888D01*
X82774533Y-104164216D01*
X82869179Y-104000284D01*
X82927674Y-103820256D01*
X82947460Y-103632000D01*
X82927674Y-103443744D01*
X82869179Y-103263716D01*
X82774533Y-103099784D01*
X82647871Y-102959112D01*
X82619958Y-102938832D01*
X82494734Y-102847851D01*
X82494729Y-102847848D01*
X82321807Y-102770857D01*
X82321802Y-102770855D01*
X82176001Y-102739865D01*
X82136646Y-102731500D01*
X81947354Y-102731500D01*
X81914897Y-102738398D01*
X81762197Y-102770855D01*
X81762192Y-102770857D01*
X81589270Y-102847848D01*
X81589265Y-102847851D01*
X81506729Y-102907818D01*
X81440923Y-102931298D01*
X81433844Y-102931500D01*
X81166500Y-102931500D01*
X81099461Y-102911815D01*
X81053706Y-102859011D01*
X81042500Y-102807500D01*
X81042500Y-101956908D01*
X81042726Y-101949421D01*
X81046357Y-101889394D01*
X81046356Y-101889391D01*
X81042364Y-101867608D01*
X81035516Y-101830235D01*
X81034389Y-101822830D01*
X81027140Y-101763129D01*
X81027139Y-101763125D01*
X81023546Y-101753651D01*
X81017519Y-101732029D01*
X81015694Y-101722070D01*
X81015694Y-101722068D01*
X80991012Y-101667228D01*
X80988151Y-101660322D01*
X80966818Y-101604070D01*
X80961059Y-101595727D01*
X80950030Y-101576172D01*
X80949554Y-101575115D01*
X80945877Y-101566943D01*
X80945874Y-101566938D01*
X80908788Y-101519601D01*
X80904349Y-101513569D01*
X80894431Y-101499201D01*
X80870183Y-101464071D01*
X80825153Y-101424178D01*
X80819715Y-101419058D01*
X79222819Y-99822162D01*
X79189334Y-99760839D01*
X79186500Y-99734481D01*
X79186500Y-97389391D01*
X79206185Y-97322352D01*
X79218352Y-97306417D01*
X79218533Y-97306216D01*
X79313179Y-97142284D01*
X79371674Y-96962256D01*
X79391460Y-96774000D01*
X79377455Y-96640753D01*
X79390024Y-96572027D01*
X79437756Y-96521003D01*
X79505497Y-96503885D01*
X79571738Y-96526107D01*
X79588457Y-96540114D01*
X86107181Y-103058838D01*
X86140666Y-103120161D01*
X86143500Y-103146519D01*
X86143500Y-109066160D01*
X86123815Y-109133199D01*
X86071011Y-109178954D01*
X86001853Y-109188898D01*
X85995309Y-109187777D01*
X85963752Y-109181500D01*
X85963748Y-109181500D01*
X84724252Y-109181500D01*
X84724247Y-109181500D01*
X84665770Y-109193131D01*
X84665769Y-109193132D01*
X84599447Y-109237447D01*
X84555132Y-109303769D01*
X84555131Y-109303770D01*
X84543500Y-109362247D01*
X84543500Y-110473800D01*
X84523815Y-110540839D01*
X84471011Y-110586594D01*
X84419500Y-110597800D01*
X82708718Y-110597800D01*
X82641679Y-110578115D01*
X82621037Y-110561481D01*
X81835218Y-109775661D01*
X81801733Y-109714338D01*
X81799496Y-109700134D01*
X81799288Y-109698024D01*
X81782924Y-109531868D01*
X81725714Y-109343273D01*
X81725711Y-109343269D01*
X81725711Y-109343266D01*
X81632813Y-109169467D01*
X81632809Y-109169460D01*
X81507783Y-109017116D01*
X81355439Y-108892090D01*
X81355432Y-108892086D01*
X81181633Y-108799188D01*
X81181627Y-108799186D01*
X80993032Y-108741976D01*
X80993029Y-108741975D01*
X80796900Y-108722659D01*
X80600770Y-108741975D01*
X80412166Y-108799188D01*
X80238367Y-108892086D01*
X80238360Y-108892090D01*
X80086016Y-109017116D01*
X79960990Y-109169460D01*
X79960986Y-109169467D01*
X79868088Y-109343266D01*
X79810875Y-109531870D01*
X79791559Y-109728000D01*
X79810875Y-109924129D01*
X79868088Y-110112733D01*
X79960986Y-110286532D01*
X79960990Y-110286539D01*
X80086016Y-110438883D01*
X80238360Y-110563909D01*
X80238367Y-110563913D01*
X80412166Y-110656811D01*
X80412169Y-110656811D01*
X80412173Y-110656814D01*
X80600768Y-110714024D01*
X80769035Y-110730596D01*
X80833821Y-110756757D01*
X80844561Y-110766318D01*
X81854251Y-111776007D01*
X81859371Y-111781445D01*
X81885140Y-111810532D01*
X81899271Y-111826483D01*
X81948774Y-111860652D01*
X81954803Y-111865088D01*
X82002144Y-111902178D01*
X82002146Y-111902179D01*
X82002149Y-111902181D01*
X82011377Y-111906334D01*
X82030931Y-111917362D01*
X82039270Y-111923118D01*
X82095531Y-111944454D01*
X82102408Y-111947303D01*
X82123763Y-111956915D01*
X82157263Y-111971993D01*
X82157266Y-111971993D01*
X82157269Y-111971995D01*
X82167234Y-111973821D01*
X82188856Y-111979848D01*
X82188867Y-111979852D01*
X82198328Y-111983440D01*
X82255889Y-111990428D01*
X82258015Y-111990687D01*
X82265422Y-111991814D01*
X82324594Y-112002658D01*
X82384633Y-111999025D01*
X82392121Y-111998800D01*
X87345479Y-111998800D01*
X87352966Y-111999025D01*
X87413006Y-112002658D01*
X87472182Y-111991813D01*
X87479585Y-111990687D01*
X87483321Y-111990233D01*
X87539272Y-111983440D01*
X87548735Y-111979850D01*
X87570361Y-111973822D01*
X87571293Y-111973651D01*
X87580332Y-111971995D01*
X87635208Y-111947296D01*
X87642078Y-111944450D01*
X87698330Y-111923118D01*
X87706666Y-111917362D01*
X87726221Y-111906334D01*
X87735457Y-111902178D01*
X87782813Y-111865075D01*
X87788804Y-111860666D01*
X87838329Y-111826483D01*
X87878222Y-111781451D01*
X87883324Y-111776031D01*
X92203723Y-107455631D01*
X92209125Y-107450545D01*
X92254183Y-107410629D01*
X92288349Y-107361130D01*
X92292790Y-107355094D01*
X92315222Y-107326462D01*
X92329878Y-107307756D01*
X92334037Y-107298513D01*
X92345061Y-107278968D01*
X92350818Y-107270630D01*
X92372145Y-107214394D01*
X92375013Y-107207470D01*
X92399693Y-107152636D01*
X92399693Y-107152634D01*
X92399695Y-107152631D01*
X92401522Y-107142659D01*
X92407546Y-107121047D01*
X92411140Y-107111572D01*
X92418387Y-107051884D01*
X92419514Y-107044477D01*
X92430358Y-106985306D01*
X92426726Y-106925265D01*
X92426500Y-106917778D01*
X92426500Y-62948408D01*
X92426726Y-62940921D01*
X92430357Y-62880894D01*
X92430356Y-62880891D01*
X92419516Y-62821735D01*
X92418389Y-62814330D01*
X92411140Y-62754629D01*
X92411139Y-62754625D01*
X92407546Y-62745151D01*
X92401519Y-62723529D01*
X92399694Y-62713570D01*
X92399694Y-62713568D01*
X92375012Y-62658728D01*
X92372151Y-62651822D01*
X92350818Y-62595570D01*
X92345059Y-62587227D01*
X92334030Y-62567672D01*
X92329877Y-62558443D01*
X92329874Y-62558438D01*
X92292788Y-62511101D01*
X92288349Y-62505069D01*
X92277864Y-62489879D01*
X92254183Y-62455571D01*
X92209153Y-62415678D01*
X92203715Y-62410558D01*
X74578240Y-44785083D01*
X74573105Y-44779628D01*
X74533229Y-44734616D01*
X74533224Y-44734612D01*
X74483738Y-44700455D01*
X74477703Y-44696015D01*
X74430360Y-44658924D01*
X74430355Y-44658920D01*
X74421113Y-44654761D01*
X74401566Y-44643736D01*
X74393231Y-44637983D01*
X74393232Y-44637983D01*
X74393230Y-44637982D01*
X74336994Y-44616654D01*
X74330090Y-44613794D01*
X74275232Y-44589105D01*
X74275230Y-44589104D01*
X74265246Y-44587274D01*
X74243643Y-44581251D01*
X74234174Y-44577660D01*
X74234171Y-44577659D01*
X74174471Y-44570410D01*
X74167070Y-44569283D01*
X74107909Y-44558442D01*
X74107903Y-44558442D01*
X74047867Y-44562074D01*
X74040379Y-44562300D01*
X72390180Y-44562300D01*
X72323141Y-44542615D01*
X72287078Y-44507191D01*
X72244352Y-44443247D01*
X72178030Y-44398932D01*
X72178029Y-44398931D01*
X72119552Y-44387300D01*
X72119548Y-44387300D01*
X70730052Y-44387300D01*
X70730047Y-44387300D01*
X70671570Y-44398931D01*
X70671569Y-44398932D01*
X70605247Y-44443247D01*
X70560932Y-44509569D01*
X70560931Y-44509570D01*
X70549300Y-44568047D01*
X70549300Y-45219937D01*
X70536792Y-45262533D01*
X70547277Y-45283355D01*
X70549300Y-45305662D01*
X70549300Y-45957552D01*
X70560931Y-46016029D01*
X70560932Y-46016030D01*
X70605246Y-46082351D01*
X70653507Y-46114598D01*
X70698311Y-46168211D01*
X70707018Y-46237536D01*
X70676863Y-46300563D01*
X70617420Y-46337282D01*
X70584615Y-46341700D01*
X70249300Y-46341700D01*
X70182261Y-46322015D01*
X70136506Y-46269211D01*
X70125300Y-46217700D01*
X70125300Y-45833721D01*
X70141913Y-45771721D01*
X70229014Y-45620859D01*
X70285885Y-45445829D01*
X70301979Y-45292698D01*
X70313163Y-45265516D01*
X70306323Y-45254872D01*
X70301979Y-45232899D01*
X70300617Y-45219937D01*
X70285885Y-45079771D01*
X70229014Y-44904741D01*
X70136995Y-44745360D01*
X70013850Y-44608593D01*
X70013848Y-44608591D01*
X69864965Y-44500421D01*
X69864962Y-44500419D01*
X69864961Y-44500419D01*
X69803912Y-44473238D01*
X69696838Y-44425565D01*
X69696833Y-44425563D01*
X69516819Y-44387300D01*
X69332781Y-44387300D01*
X69152766Y-44425563D01*
X69152761Y-44425565D01*
X68984639Y-44500419D01*
X68984634Y-44500421D01*
X68835751Y-44608591D01*
X68835749Y-44608593D01*
X68712604Y-44745361D01*
X68620586Y-44904740D01*
X68620583Y-44904746D01*
X68563716Y-45079767D01*
X68563715Y-45079771D01*
X68544478Y-45262800D01*
X68563715Y-45445829D01*
X68563716Y-45445832D01*
X68620583Y-45620853D01*
X68620586Y-45620859D01*
X68665906Y-45699356D01*
X68707687Y-45771721D01*
X68724300Y-45833721D01*
X68724300Y-46912878D01*
X68724074Y-46920366D01*
X68720442Y-46980403D01*
X68720442Y-46980405D01*
X68731283Y-47039570D01*
X68732410Y-47046971D01*
X68739659Y-47106671D01*
X68739660Y-47106674D01*
X68743251Y-47116143D01*
X68749274Y-47137746D01*
X68751104Y-47147730D01*
X68775791Y-47202582D01*
X68778654Y-47209494D01*
X68799982Y-47265730D01*
X68799983Y-47265731D01*
X68805736Y-47274066D01*
X68816761Y-47293613D01*
X68820920Y-47302855D01*
X68820924Y-47302860D01*
X68858015Y-47350203D01*
X68862455Y-47356238D01*
X68896612Y-47405724D01*
X68896616Y-47405729D01*
X68941628Y-47445605D01*
X68947083Y-47450740D01*
X69016258Y-47519915D01*
X69021378Y-47525353D01*
X69061271Y-47570383D01*
X69110777Y-47604555D01*
X69116797Y-47608985D01*
X69164143Y-47646078D01*
X69171045Y-47649184D01*
X69173382Y-47650236D01*
X69192933Y-47661263D01*
X69201270Y-47667018D01*
X69257529Y-47688353D01*
X69264406Y-47691202D01*
X69285932Y-47700891D01*
X69319263Y-47715893D01*
X69319266Y-47715893D01*
X69319269Y-47715895D01*
X69329234Y-47717721D01*
X69350856Y-47723748D01*
X69353977Y-47724931D01*
X69360328Y-47727340D01*
X69417889Y-47734328D01*
X69420015Y-47734587D01*
X69427422Y-47735714D01*
X69486594Y-47746558D01*
X69546633Y-47742925D01*
X69554121Y-47742700D01*
X69707763Y-47742700D01*
X69774802Y-47762385D01*
X69820557Y-47815189D01*
X69830501Y-47884347D01*
X69801476Y-47947903D01*
X69780648Y-47967018D01*
X69648551Y-48062991D01*
X69648549Y-48062993D01*
X69525404Y-48199761D01*
X69433386Y-48359140D01*
X69433383Y-48359146D01*
X69376516Y-48534167D01*
X69376515Y-48534171D01*
X69361783Y-48674337D01*
X69360421Y-48687299D01*
X69349236Y-48714482D01*
X69356077Y-48725127D01*
X69360420Y-48747095D01*
X69376515Y-48900229D01*
X69376516Y-48900232D01*
X69433383Y-49075253D01*
X69433386Y-49075259D01*
X69525405Y-49234640D01*
X69634927Y-49356277D01*
X69648549Y-49371406D01*
X69648551Y-49371408D01*
X69797434Y-49479578D01*
X69797435Y-49479578D01*
X69797439Y-49479581D01*
X69925847Y-49536752D01*
X69965561Y-49554434D01*
X69965566Y-49554436D01*
X70145581Y-49592700D01*
X70329619Y-49592700D01*
X70509634Y-49554436D01*
X70677761Y-49479581D01*
X70826650Y-49371407D01*
X70949795Y-49234640D01*
X71041814Y-49075259D01*
X71098685Y-48900229D01*
X71114279Y-48751855D01*
X71128462Y-48717384D01*
X71115623Y-48691887D01*
X71114279Y-48682542D01*
X71113417Y-48674337D01*
X71098685Y-48534171D01*
X71041814Y-48359141D01*
X70949795Y-48199760D01*
X70826650Y-48062993D01*
X70826648Y-48062991D01*
X70694552Y-47967018D01*
X70651886Y-47911688D01*
X70645907Y-47842075D01*
X70678513Y-47780280D01*
X70739351Y-47745923D01*
X70767437Y-47742700D01*
X71413100Y-47742700D01*
X71480139Y-47762385D01*
X71525894Y-47815189D01*
X71537100Y-47866700D01*
X71537100Y-48146277D01*
X71520487Y-48208277D01*
X71433386Y-48359140D01*
X71433383Y-48359146D01*
X71376516Y-48534167D01*
X71376515Y-48534171D01*
X71361783Y-48674337D01*
X71360921Y-48682542D01*
X71346737Y-48717014D01*
X71359577Y-48742512D01*
X71360919Y-48751846D01*
X71376515Y-48900229D01*
X71376516Y-48900232D01*
X71433383Y-49075253D01*
X71433386Y-49075259D01*
X71520487Y-49226121D01*
X71537100Y-49288121D01*
X71537100Y-51563380D01*
X71517415Y-51630419D01*
X71500781Y-51651061D01*
X65623540Y-57528301D01*
X65562217Y-57561786D01*
X65513405Y-57560641D01*
X65513094Y-57562407D01*
X65507754Y-57561465D01*
X65278002Y-57541365D01*
X65277998Y-57541365D01*
X65048245Y-57561465D01*
X65048237Y-57561466D01*
X64825465Y-57621158D01*
X64825461Y-57621160D01*
X64616433Y-57718631D01*
X64427505Y-57850920D01*
X64427503Y-57850921D01*
X64427500Y-57850924D01*
X64264424Y-58014000D01*
X64132131Y-58202933D01*
X64034661Y-58411959D01*
X64034658Y-58411965D01*
X63974966Y-58634737D01*
X63974965Y-58634745D01*
X63954865Y-58864497D01*
X63954865Y-58864502D01*
X63974965Y-59094254D01*
X63975907Y-59099594D01*
X63973680Y-59099986D01*
X63972206Y-59160197D01*
X63941801Y-59210040D01*
X55070290Y-68081551D01*
X55064838Y-68086683D01*
X55019819Y-68126568D01*
X54985649Y-68176069D01*
X54981213Y-68182097D01*
X54944124Y-68229438D01*
X54944119Y-68229448D01*
X54939960Y-68238688D01*
X54928942Y-68258223D01*
X54923187Y-68266561D01*
X54923179Y-68266576D01*
X54901853Y-68322805D01*
X54898989Y-68329720D01*
X54874305Y-68384568D01*
X54872477Y-68394542D01*
X54866453Y-68416153D01*
X54862860Y-68425627D01*
X54862860Y-68425628D01*
X54855610Y-68485327D01*
X54854483Y-68492727D01*
X54843642Y-68551889D01*
X54843642Y-68551895D01*
X54847274Y-68611932D01*
X54847500Y-68619420D01*
X54847500Y-69127500D01*
X54827815Y-69194539D01*
X54775011Y-69240294D01*
X54723500Y-69251500D01*
X54456156Y-69251500D01*
X54389117Y-69231815D01*
X54383271Y-69227818D01*
X54300734Y-69167851D01*
X54300729Y-69167848D01*
X54127807Y-69090857D01*
X54127802Y-69090855D01*
X53982001Y-69059865D01*
X53942646Y-69051500D01*
X53753354Y-69051500D01*
X53720897Y-69058398D01*
X53568197Y-69090855D01*
X53568192Y-69090857D01*
X53395271Y-69167848D01*
X53321885Y-69221166D01*
X53256078Y-69244645D01*
X53188024Y-69228819D01*
X53139330Y-69178713D01*
X53125000Y-69120847D01*
X53125000Y-68136018D01*
X53144685Y-68068979D01*
X53161315Y-68048341D01*
X53502708Y-67706947D01*
X53564029Y-67673464D01*
X53616165Y-67673340D01*
X53753354Y-67702500D01*
X53753355Y-67702500D01*
X53942644Y-67702500D01*
X53942646Y-67702500D01*
X54127803Y-67663144D01*
X54300730Y-67586151D01*
X54453871Y-67474888D01*
X54580533Y-67334216D01*
X54675179Y-67170284D01*
X54733674Y-66990256D01*
X54753460Y-66802000D01*
X54733674Y-66613744D01*
X54675179Y-66433716D01*
X54580533Y-66269784D01*
X54580344Y-66269574D01*
X54580273Y-66269427D01*
X54576714Y-66264528D01*
X54577610Y-66263876D01*
X54550119Y-66206580D01*
X54548500Y-66186608D01*
X54548500Y-65126908D01*
X54548726Y-65119421D01*
X54552357Y-65059394D01*
X54552356Y-65059391D01*
X54541516Y-65000235D01*
X54540389Y-64992830D01*
X54533140Y-64933129D01*
X54533139Y-64933125D01*
X54529546Y-64923651D01*
X54523519Y-64902029D01*
X54521694Y-64892070D01*
X54521694Y-64892068D01*
X54511913Y-64870337D01*
X54497012Y-64837228D01*
X54494151Y-64830322D01*
X54472818Y-64774070D01*
X54467059Y-64765727D01*
X54456030Y-64746172D01*
X54451877Y-64736943D01*
X54451874Y-64736938D01*
X54414788Y-64689601D01*
X54410349Y-64683569D01*
X54405827Y-64677018D01*
X54376183Y-64634071D01*
X54331153Y-64594178D01*
X54325715Y-64589058D01*
X53028819Y-63292162D01*
X52995334Y-63230839D01*
X52992500Y-63204481D01*
X52992500Y-63049752D01*
X57673500Y-63049752D01*
X57685131Y-63108229D01*
X57685132Y-63108230D01*
X57729447Y-63174552D01*
X57795769Y-63218867D01*
X57795770Y-63218868D01*
X57854247Y-63230499D01*
X57854250Y-63230500D01*
X57854252Y-63230500D01*
X59493750Y-63230500D01*
X59493751Y-63230499D01*
X59508568Y-63227552D01*
X59552229Y-63218868D01*
X59552229Y-63218867D01*
X59552231Y-63218867D01*
X59618552Y-63174552D01*
X59662867Y-63108231D01*
X59662867Y-63108229D01*
X59662868Y-63108229D01*
X59674499Y-63049752D01*
X59674500Y-63049750D01*
X59674500Y-61410249D01*
X59674499Y-61410247D01*
X59662868Y-61351770D01*
X59662867Y-61351769D01*
X59618552Y-61285447D01*
X59552230Y-61241132D01*
X59552229Y-61241131D01*
X59493752Y-61229500D01*
X59493748Y-61229500D01*
X57854252Y-61229500D01*
X57854247Y-61229500D01*
X57795770Y-61241131D01*
X57795769Y-61241132D01*
X57729447Y-61285447D01*
X57685132Y-61351769D01*
X57685131Y-61351770D01*
X57673500Y-61410247D01*
X57673500Y-63049752D01*
X52992500Y-63049752D01*
X52992500Y-62292921D01*
X53009113Y-62230921D01*
X53096214Y-62080059D01*
X53153085Y-61905029D01*
X53172322Y-61722000D01*
X53153085Y-61538971D01*
X53116061Y-61425023D01*
X53096216Y-61363946D01*
X53096213Y-61363940D01*
X53089186Y-61351769D01*
X53004195Y-61204560D01*
X52881050Y-61067793D01*
X52881048Y-61067791D01*
X52732165Y-60959621D01*
X52732162Y-60959619D01*
X52732161Y-60959619D01*
X52671112Y-60932438D01*
X52564038Y-60884765D01*
X52564033Y-60884763D01*
X52384019Y-60846500D01*
X52199981Y-60846500D01*
X52019966Y-60884763D01*
X52019961Y-60884765D01*
X51851839Y-60959619D01*
X51851834Y-60959621D01*
X51702951Y-61067791D01*
X51702949Y-61067793D01*
X51579804Y-61204561D01*
X51487786Y-61363940D01*
X51487783Y-61363946D01*
X51430916Y-61538967D01*
X51430915Y-61538971D01*
X51416183Y-61679137D01*
X51414821Y-61692099D01*
X51403636Y-61719282D01*
X51410477Y-61729927D01*
X51414820Y-61751895D01*
X51430915Y-61905029D01*
X51430916Y-61905032D01*
X51487783Y-62080053D01*
X51487786Y-62080059D01*
X51541327Y-62172795D01*
X51574887Y-62230921D01*
X51591500Y-62292921D01*
X51591500Y-63521078D01*
X51591274Y-63528566D01*
X51587642Y-63588603D01*
X51587642Y-63588605D01*
X51598483Y-63647770D01*
X51599610Y-63655171D01*
X51606859Y-63714871D01*
X51606860Y-63714874D01*
X51610451Y-63724343D01*
X51616474Y-63745946D01*
X51618304Y-63755930D01*
X51642991Y-63810782D01*
X51645854Y-63817694D01*
X51667182Y-63873930D01*
X51667183Y-63873931D01*
X51672936Y-63882266D01*
X51683961Y-63901813D01*
X51688120Y-63911055D01*
X51688124Y-63911060D01*
X51725215Y-63958403D01*
X51729655Y-63964438D01*
X51763812Y-64013924D01*
X51763816Y-64013929D01*
X51808828Y-64053805D01*
X51814283Y-64058940D01*
X53111181Y-65355838D01*
X53144666Y-65417161D01*
X53147500Y-65443519D01*
X53147500Y-66029480D01*
X53127815Y-66096519D01*
X53111181Y-66117161D01*
X51946790Y-67281551D01*
X51941338Y-67286683D01*
X51896319Y-67326568D01*
X51862149Y-67376069D01*
X51857713Y-67382097D01*
X51820624Y-67429438D01*
X51820619Y-67429448D01*
X51816460Y-67438688D01*
X51805442Y-67458223D01*
X51799687Y-67466561D01*
X51799679Y-67466576D01*
X51778353Y-67522805D01*
X51775489Y-67529720D01*
X51750805Y-67584568D01*
X51748977Y-67594542D01*
X51742953Y-67616153D01*
X51739360Y-67625627D01*
X51739360Y-67625628D01*
X51732110Y-67685327D01*
X51730983Y-67692727D01*
X51720142Y-67751889D01*
X51720142Y-67751895D01*
X51723774Y-67811932D01*
X51724000Y-67819420D01*
X51724000Y-76400178D01*
X51723774Y-76407666D01*
X51720142Y-76467703D01*
X51720142Y-76467705D01*
X51730983Y-76526870D01*
X51732110Y-76534271D01*
X51739359Y-76593971D01*
X51739360Y-76593974D01*
X51742951Y-76603443D01*
X51748974Y-76625046D01*
X51750804Y-76635030D01*
X51775491Y-76689882D01*
X51778354Y-76696794D01*
X51799682Y-76753030D01*
X51799683Y-76753031D01*
X51805436Y-76761366D01*
X51816461Y-76780913D01*
X51820620Y-76790155D01*
X51820624Y-76790160D01*
X51857715Y-76837503D01*
X51862155Y-76843538D01*
X51896312Y-76893024D01*
X51896316Y-76893029D01*
X51941328Y-76932905D01*
X51946783Y-76938040D01*
X53899081Y-78890338D01*
X53932566Y-78951661D01*
X53935400Y-78978019D01*
X53935400Y-81397553D01*
X53915715Y-81464592D01*
X53862911Y-81510347D01*
X53793753Y-81520291D01*
X53732736Y-81493407D01*
X53692138Y-81460090D01*
X53692132Y-81460086D01*
X53518333Y-81367188D01*
X53518327Y-81367186D01*
X53329732Y-81309976D01*
X53329729Y-81309975D01*
X53133600Y-81290659D01*
X52937470Y-81309975D01*
X52748866Y-81367188D01*
X52575067Y-81460086D01*
X52575060Y-81460090D01*
X52422716Y-81585116D01*
X52297690Y-81737460D01*
X52297686Y-81737467D01*
X52204788Y-81911266D01*
X52147575Y-82099870D01*
X52128259Y-82296000D01*
X52147575Y-82492129D01*
X52161369Y-82537602D01*
X52198043Y-82658500D01*
X52204788Y-82680733D01*
X52297686Y-82854532D01*
X52297690Y-82854539D01*
X52422716Y-83006883D01*
X52575060Y-83131909D01*
X52575067Y-83131913D01*
X52748866Y-83224811D01*
X52748869Y-83224811D01*
X52748873Y-83224814D01*
X52937468Y-83282024D01*
X53133600Y-83301341D01*
X53329732Y-83282024D01*
X53518327Y-83224814D01*
X53575142Y-83194446D01*
X53692132Y-83131913D01*
X53692138Y-83131910D01*
X53707965Y-83118920D01*
X53732735Y-83098593D01*
X53797045Y-83071280D01*
X53865912Y-83083071D01*
X53917473Y-83130223D01*
X53935400Y-83194446D01*
X53935400Y-88811480D01*
X53915715Y-88878519D01*
X53899081Y-88899161D01*
X53158560Y-89639681D01*
X53097237Y-89673166D01*
X53083033Y-89675403D01*
X52914770Y-89691975D01*
X52726166Y-89749188D01*
X52552367Y-89842086D01*
X52552360Y-89842090D01*
X52400016Y-89967116D01*
X52274990Y-90119460D01*
X52274986Y-90119467D01*
X52182088Y-90293266D01*
X52124875Y-90481870D01*
X52105559Y-90678000D01*
X52124875Y-90874129D01*
X52124876Y-90874132D01*
X52169270Y-91020480D01*
X52182088Y-91062733D01*
X52274986Y-91236532D01*
X52274990Y-91236539D01*
X52400016Y-91388883D01*
X52552360Y-91513909D01*
X52552367Y-91513913D01*
X52573951Y-91525450D01*
X52623797Y-91574411D01*
X52639500Y-91634809D01*
X52639500Y-98800096D01*
X52619815Y-98867135D01*
X52611353Y-98878761D01*
X52504090Y-99009460D01*
X52504086Y-99009467D01*
X52411188Y-99183266D01*
X52353975Y-99371870D01*
X52334659Y-99568000D01*
X52353975Y-99764129D01*
X52353976Y-99764132D01*
X52406413Y-99936994D01*
X52411188Y-99952733D01*
X52504086Y-100126532D01*
X52504090Y-100126539D01*
X52629116Y-100278883D01*
X52781460Y-100403909D01*
X52781467Y-100403913D01*
X52955266Y-100496811D01*
X52955269Y-100496811D01*
X52955273Y-100496814D01*
X53143868Y-100554024D01*
X53340000Y-100573341D01*
X53536132Y-100554024D01*
X53724727Y-100496814D01*
X53734836Y-100491411D01*
X53898532Y-100403913D01*
X53898538Y-100403910D01*
X54050883Y-100278883D01*
X54175910Y-100126538D01*
X54268814Y-99952727D01*
X54326024Y-99764132D01*
X54345341Y-99568000D01*
X54326024Y-99371868D01*
X54268814Y-99183273D01*
X54268811Y-99183269D01*
X54268811Y-99183266D01*
X54175913Y-99009467D01*
X54175909Y-99009460D01*
X54068647Y-98878761D01*
X54041334Y-98814451D01*
X54040500Y-98800096D01*
X54040500Y-91078527D01*
X54045840Y-91042531D01*
X54047854Y-91035891D01*
X54096924Y-90874132D01*
X54113496Y-90705863D01*
X54139656Y-90641077D01*
X54149209Y-90630346D01*
X55113631Y-89665924D01*
X55119051Y-89660822D01*
X55164083Y-89620929D01*
X55198262Y-89571411D01*
X55202689Y-89565396D01*
X55239778Y-89518056D01*
X55243937Y-89508813D01*
X55254961Y-89489268D01*
X55260718Y-89480930D01*
X55282045Y-89424694D01*
X55284913Y-89417770D01*
X55309593Y-89362936D01*
X55309593Y-89362934D01*
X55309595Y-89362931D01*
X55311422Y-89352959D01*
X55317446Y-89331347D01*
X55321040Y-89321872D01*
X55328287Y-89262184D01*
X55329414Y-89254777D01*
X55331230Y-89244867D01*
X55340258Y-89195606D01*
X55336626Y-89135565D01*
X55336400Y-89128078D01*
X55336400Y-78661420D01*
X55336626Y-78653932D01*
X55340258Y-78593894D01*
X55329414Y-78534721D01*
X55328287Y-78527315D01*
X55322684Y-78481171D01*
X55321040Y-78467628D01*
X55317448Y-78458156D01*
X55311421Y-78436534D01*
X55309595Y-78426571D01*
X55309593Y-78426563D01*
X55284908Y-78371719D01*
X55282053Y-78364829D01*
X55260718Y-78308570D01*
X55254963Y-78300233D01*
X55243936Y-78280682D01*
X55239779Y-78271446D01*
X55239778Y-78271443D01*
X55202685Y-78224097D01*
X55198255Y-78218077D01*
X55164083Y-78168571D01*
X55119053Y-78128678D01*
X55113615Y-78123558D01*
X53161319Y-76171262D01*
X53127834Y-76109939D01*
X53125000Y-76083581D01*
X53125000Y-72222852D01*
X53144685Y-72155813D01*
X53197489Y-72110058D01*
X53266647Y-72100114D01*
X53330203Y-72129139D01*
X53331103Y-72129927D01*
X53364845Y-72159820D01*
X53370283Y-72164940D01*
X54857158Y-73651815D01*
X54862278Y-73657253D01*
X54902171Y-73702283D01*
X54927529Y-73719786D01*
X54951669Y-73736449D01*
X54957701Y-73740888D01*
X55005038Y-73777974D01*
X55005043Y-73777977D01*
X55014274Y-73782131D01*
X55033827Y-73793159D01*
X55042170Y-73798918D01*
X55098422Y-73820251D01*
X55105328Y-73823112D01*
X55160163Y-73847792D01*
X55160164Y-73847792D01*
X55160168Y-73847794D01*
X55170130Y-73849619D01*
X55191751Y-73855646D01*
X55201225Y-73859239D01*
X55201228Y-73859240D01*
X55245334Y-73864595D01*
X55260930Y-73866489D01*
X55268335Y-73867616D01*
X55289500Y-73871494D01*
X55327494Y-73878457D01*
X55387522Y-73874826D01*
X55395009Y-73874600D01*
X55489226Y-73874600D01*
X55556265Y-73894285D01*
X55602020Y-73947089D01*
X55611964Y-74016247D01*
X55585079Y-74077263D01*
X55552565Y-74116883D01*
X55552087Y-74117466D01*
X55552086Y-74117467D01*
X55459188Y-74291266D01*
X55401975Y-74479870D01*
X55382659Y-74676000D01*
X55401975Y-74872129D01*
X55459188Y-75060733D01*
X55552086Y-75234532D01*
X55552090Y-75234539D01*
X55677116Y-75386883D01*
X55829460Y-75511909D01*
X55829467Y-75511913D01*
X56003266Y-75604811D01*
X56003269Y-75604811D01*
X56003273Y-75604814D01*
X56191868Y-75662024D01*
X56388000Y-75681341D01*
X56584132Y-75662024D01*
X56772727Y-75604814D01*
X56946538Y-75511910D01*
X57098883Y-75386883D01*
X57223910Y-75234538D01*
X57316814Y-75060727D01*
X57374024Y-74872132D01*
X57379120Y-74820388D01*
X57405280Y-74755601D01*
X57462315Y-74715242D01*
X57532115Y-74712125D01*
X57590204Y-74744861D01*
X62450481Y-79605138D01*
X62483966Y-79666461D01*
X62486800Y-79692819D01*
X62486800Y-80638015D01*
X62467115Y-80705054D01*
X62414311Y-80750809D01*
X62345153Y-80760753D01*
X62284136Y-80733869D01*
X62240538Y-80698090D01*
X62240532Y-80698086D01*
X62066733Y-80605188D01*
X62066727Y-80605186D01*
X61878132Y-80547976D01*
X61878129Y-80547975D01*
X61682000Y-80528659D01*
X61485870Y-80547975D01*
X61297266Y-80605188D01*
X61123467Y-80698086D01*
X61123460Y-80698090D01*
X60971116Y-80823116D01*
X60846090Y-80975460D01*
X60846086Y-80975467D01*
X60753188Y-81149266D01*
X60695975Y-81337870D01*
X60676659Y-81534000D01*
X60695975Y-81730129D01*
X60753188Y-81918733D01*
X60846086Y-82092532D01*
X60846090Y-82092539D01*
X60971116Y-82244883D01*
X61123460Y-82369909D01*
X61123467Y-82369913D01*
X61297266Y-82462811D01*
X61297269Y-82462811D01*
X61297273Y-82462814D01*
X61485868Y-82520024D01*
X61682000Y-82539341D01*
X61878132Y-82520024D01*
X62066727Y-82462814D01*
X62103202Y-82443318D01*
X62228317Y-82376442D01*
X62240538Y-82369910D01*
X62255870Y-82357327D01*
X62284135Y-82334131D01*
X62348445Y-82306818D01*
X62417312Y-82318609D01*
X62468873Y-82365761D01*
X62486800Y-82429984D01*
X62486800Y-89125180D01*
X62467115Y-89192219D01*
X62450481Y-89212861D01*
X61769660Y-89893681D01*
X61708337Y-89927166D01*
X61694133Y-89929403D01*
X61525870Y-89945975D01*
X61337266Y-90003188D01*
X61163467Y-90096086D01*
X61163460Y-90096090D01*
X61011116Y-90221116D01*
X60942353Y-90304905D01*
X60884607Y-90344239D01*
X60814763Y-90346110D01*
X60754994Y-90309922D01*
X60724279Y-90247166D01*
X60722500Y-90226240D01*
X60722500Y-90112249D01*
X60722499Y-90112247D01*
X60710868Y-90053770D01*
X60710867Y-90053769D01*
X60666552Y-89987447D01*
X60600230Y-89943132D01*
X60600229Y-89943131D01*
X60541752Y-89931500D01*
X60541748Y-89931500D01*
X58902252Y-89931500D01*
X58902247Y-89931500D01*
X58843770Y-89943131D01*
X58843769Y-89943132D01*
X58777447Y-89987447D01*
X58733132Y-90053769D01*
X58733131Y-90053770D01*
X58721500Y-90112247D01*
X58721500Y-91751752D01*
X58733131Y-91810229D01*
X58733132Y-91810230D01*
X58777447Y-91876552D01*
X58843769Y-91920867D01*
X58843770Y-91920868D01*
X58902247Y-91932499D01*
X58902250Y-91932500D01*
X60431480Y-91932500D01*
X60498519Y-91952185D01*
X60544274Y-92004989D01*
X60554218Y-92074147D01*
X60525193Y-92137703D01*
X60519161Y-92144181D01*
X58450290Y-94213051D01*
X58444838Y-94218183D01*
X58399819Y-94258068D01*
X58365649Y-94307569D01*
X58361213Y-94313597D01*
X58324124Y-94360938D01*
X58324119Y-94360948D01*
X58319960Y-94370188D01*
X58308942Y-94389723D01*
X58303187Y-94398061D01*
X58303179Y-94398076D01*
X58281853Y-94454305D01*
X58278989Y-94461220D01*
X58254305Y-94516068D01*
X58252477Y-94526042D01*
X58246453Y-94547653D01*
X58242860Y-94557127D01*
X58242860Y-94557128D01*
X58235610Y-94616827D01*
X58234483Y-94624227D01*
X58223642Y-94683389D01*
X58223642Y-94683395D01*
X58227274Y-94743432D01*
X58227500Y-94750920D01*
X58227500Y-97299378D01*
X58227274Y-97306866D01*
X58223642Y-97366906D01*
X58226719Y-97383700D01*
X58234483Y-97426070D01*
X58235610Y-97433471D01*
X58242859Y-97493171D01*
X58242860Y-97493174D01*
X58246451Y-97502643D01*
X58252474Y-97524246D01*
X58254304Y-97534230D01*
X58278991Y-97589082D01*
X58281854Y-97595994D01*
X58303182Y-97652230D01*
X58303183Y-97652231D01*
X58308936Y-97660566D01*
X58319961Y-97680113D01*
X58324120Y-97689355D01*
X58324124Y-97689360D01*
X58361215Y-97736703D01*
X58365655Y-97742738D01*
X58399812Y-97792224D01*
X58399816Y-97792229D01*
X58444828Y-97832105D01*
X58450283Y-97837240D01*
X63017181Y-102404138D01*
X63050666Y-102465461D01*
X63053500Y-102491819D01*
X63053500Y-103016608D01*
X63033815Y-103083647D01*
X63021656Y-103099574D01*
X63021468Y-103099782D01*
X63021464Y-103099787D01*
X62926821Y-103263715D01*
X62926818Y-103263722D01*
X62868327Y-103443740D01*
X62868326Y-103443744D01*
X62848540Y-103632000D01*
X62868326Y-103820256D01*
X62868327Y-103820259D01*
X62926818Y-104000277D01*
X62926821Y-104000284D01*
X63005534Y-104136620D01*
X63021466Y-104164214D01*
X63024225Y-104168012D01*
X63047707Y-104233817D01*
X63031883Y-104301872D01*
X62981779Y-104350568D01*
X62923909Y-104364900D01*
X60448919Y-104364900D01*
X60381880Y-104345215D01*
X60361238Y-104328581D01*
X59600503Y-103567846D01*
X59567018Y-103506523D01*
X59564864Y-103493129D01*
X59559674Y-103443744D01*
X59559672Y-103443739D01*
X59501181Y-103263722D01*
X59501180Y-103263721D01*
X59501179Y-103263716D01*
X59406533Y-103099784D01*
X59279871Y-102959112D01*
X59251958Y-102938832D01*
X59126734Y-102847851D01*
X59126729Y-102847848D01*
X58953807Y-102770857D01*
X58953802Y-102770855D01*
X58808001Y-102739865D01*
X58768646Y-102731500D01*
X58579354Y-102731500D01*
X58546897Y-102738398D01*
X58394197Y-102770855D01*
X58394192Y-102770857D01*
X58221270Y-102847848D01*
X58221266Y-102847850D01*
X58155784Y-102895426D01*
X58089978Y-102918905D01*
X58021924Y-102903079D01*
X57973230Y-102852973D01*
X57958900Y-102795107D01*
X57958900Y-85599118D01*
X57978585Y-85532079D01*
X57995214Y-85511442D01*
X59659731Y-83846924D01*
X59665151Y-83841822D01*
X59710183Y-83801929D01*
X59744366Y-83752404D01*
X59748775Y-83746413D01*
X59785878Y-83699057D01*
X59790037Y-83689815D01*
X59801062Y-83670268D01*
X59806818Y-83661930D01*
X59816284Y-83636971D01*
X59828146Y-83605690D01*
X59831002Y-83598791D01*
X59855694Y-83543932D01*
X59857520Y-83533965D01*
X59863548Y-83512340D01*
X59867140Y-83502872D01*
X59874389Y-83443169D01*
X59875516Y-83435762D01*
X59877254Y-83426277D01*
X59886357Y-83376606D01*
X59882726Y-83316577D01*
X59882500Y-83309090D01*
X59882500Y-82658500D01*
X59902185Y-82591461D01*
X59954989Y-82545706D01*
X59995857Y-82536815D01*
X59995688Y-82535097D01*
X60001742Y-82534500D01*
X60001748Y-82534500D01*
X60016568Y-82531552D01*
X60060229Y-82522868D01*
X60060229Y-82522867D01*
X60060231Y-82522867D01*
X60126552Y-82478552D01*
X60170867Y-82412231D01*
X60170867Y-82412229D01*
X60170868Y-82412229D01*
X60182499Y-82353752D01*
X60182500Y-82353750D01*
X60182500Y-80714249D01*
X60182499Y-80714247D01*
X60170868Y-80655770D01*
X60170867Y-80655769D01*
X60126552Y-80589447D01*
X60060230Y-80545132D01*
X60060229Y-80545131D01*
X60001752Y-80533500D01*
X60001748Y-80533500D01*
X58362252Y-80533500D01*
X58362247Y-80533500D01*
X58303770Y-80545131D01*
X58303769Y-80545132D01*
X58237447Y-80589447D01*
X58193132Y-80655769D01*
X58193131Y-80655770D01*
X58181500Y-80714247D01*
X58181500Y-82353752D01*
X58193131Y-82412229D01*
X58193132Y-82412230D01*
X58237447Y-82478552D01*
X58303769Y-82522867D01*
X58303770Y-82522868D01*
X58361852Y-82534420D01*
X58362252Y-82534500D01*
X58362257Y-82534500D01*
X58368312Y-82535097D01*
X58368065Y-82537602D01*
X58424539Y-82554185D01*
X58470294Y-82606989D01*
X58481500Y-82658500D01*
X58481500Y-82992480D01*
X58461815Y-83059519D01*
X58445181Y-83080161D01*
X56780690Y-84744651D01*
X56775238Y-84749783D01*
X56730219Y-84789668D01*
X56696049Y-84839169D01*
X56691613Y-84845197D01*
X56654524Y-84892538D01*
X56654519Y-84892548D01*
X56650360Y-84901788D01*
X56639342Y-84921323D01*
X56633587Y-84929661D01*
X56633579Y-84929676D01*
X56612253Y-84985905D01*
X56609389Y-84992820D01*
X56584705Y-85047668D01*
X56582877Y-85057642D01*
X56576853Y-85079253D01*
X56573260Y-85088727D01*
X56573260Y-85088728D01*
X56566010Y-85148427D01*
X56564883Y-85155827D01*
X56554042Y-85214989D01*
X56554042Y-85214995D01*
X56557674Y-85275032D01*
X56557900Y-85282520D01*
X56557900Y-108658681D01*
X56538215Y-108725720D01*
X56485411Y-108771475D01*
X56416253Y-108781419D01*
X56352697Y-108752394D01*
X56346219Y-108746362D01*
X50074919Y-102475062D01*
X50041434Y-102413739D01*
X50038600Y-102387381D01*
X50038600Y-100692500D01*
X50058285Y-100625461D01*
X50111089Y-100579706D01*
X50162600Y-100568500D01*
X51659750Y-100568500D01*
X51659751Y-100568499D01*
X51684161Y-100563644D01*
X51718229Y-100556868D01*
X51718229Y-100556867D01*
X51718231Y-100556867D01*
X51784552Y-100512552D01*
X51828867Y-100446231D01*
X51828867Y-100446229D01*
X51828868Y-100446229D01*
X51840499Y-100387752D01*
X51840500Y-100387750D01*
X51840500Y-98748249D01*
X51840499Y-98748247D01*
X51828868Y-98689770D01*
X51828867Y-98689769D01*
X51784552Y-98623447D01*
X51718230Y-98579132D01*
X51718229Y-98579131D01*
X51659752Y-98567500D01*
X51659748Y-98567500D01*
X50162600Y-98567500D01*
X50095561Y-98547815D01*
X50049806Y-98495011D01*
X50038600Y-98443500D01*
X50038600Y-94092318D01*
X50058285Y-94025279D01*
X50074914Y-94004641D01*
X51088631Y-92990924D01*
X51094051Y-92985822D01*
X51139083Y-92945929D01*
X51173266Y-92896404D01*
X51177675Y-92890413D01*
X51214778Y-92843057D01*
X51218934Y-92833821D01*
X51229962Y-92814266D01*
X51235718Y-92805930D01*
X51257050Y-92749678D01*
X51259896Y-92742808D01*
X51284595Y-92687932D01*
X51286422Y-92677961D01*
X51292452Y-92656331D01*
X51293387Y-92653868D01*
X51296040Y-92646872D01*
X51303287Y-92587185D01*
X51304414Y-92579778D01*
X51306570Y-92568015D01*
X51315258Y-92520606D01*
X51311626Y-92460565D01*
X51311400Y-92453078D01*
X51311400Y-91802500D01*
X51331085Y-91735461D01*
X51383889Y-91689706D01*
X51424757Y-91680815D01*
X51424588Y-91679097D01*
X51430642Y-91678500D01*
X51430648Y-91678500D01*
X51445468Y-91675552D01*
X51489129Y-91666868D01*
X51489129Y-91666867D01*
X51489131Y-91666867D01*
X51555452Y-91622552D01*
X51599767Y-91556231D01*
X51599767Y-91556229D01*
X51599768Y-91556229D01*
X51611399Y-91497752D01*
X51611400Y-91497750D01*
X51611400Y-89858249D01*
X51611399Y-89858247D01*
X51599768Y-89799770D01*
X51599767Y-89799769D01*
X51555452Y-89733447D01*
X51489130Y-89689132D01*
X51489129Y-89689131D01*
X51430652Y-89677500D01*
X51430648Y-89677500D01*
X49791152Y-89677500D01*
X49791147Y-89677500D01*
X49732670Y-89689131D01*
X49732669Y-89689132D01*
X49666347Y-89733447D01*
X49622032Y-89799769D01*
X49622031Y-89799770D01*
X49610400Y-89858247D01*
X49610400Y-91497752D01*
X49622031Y-91556229D01*
X49622032Y-91556230D01*
X49666347Y-91622552D01*
X49732669Y-91666867D01*
X49732670Y-91666868D01*
X49790752Y-91678420D01*
X49791152Y-91678500D01*
X49791157Y-91678500D01*
X49797212Y-91679097D01*
X49796965Y-91681602D01*
X49853439Y-91698185D01*
X49899194Y-91750989D01*
X49910400Y-91802500D01*
X49910400Y-92136480D01*
X49890715Y-92203519D01*
X49874081Y-92224161D01*
X48860390Y-93237851D01*
X48854938Y-93242983D01*
X48809919Y-93282868D01*
X48775749Y-93332369D01*
X48771313Y-93338397D01*
X48734224Y-93385738D01*
X48734219Y-93385748D01*
X48730060Y-93394988D01*
X48719042Y-93414523D01*
X48713287Y-93422861D01*
X48713279Y-93422876D01*
X48691953Y-93479105D01*
X48689089Y-93486020D01*
X48664405Y-93540868D01*
X48662577Y-93550842D01*
X48656553Y-93572453D01*
X48652960Y-93581927D01*
X48652960Y-93581928D01*
X48645710Y-93641627D01*
X48644583Y-93649027D01*
X48633742Y-93708189D01*
X48633742Y-93708195D01*
X48637374Y-93768232D01*
X48637600Y-93775720D01*
X48637600Y-102703978D01*
X48637374Y-102711466D01*
X48633742Y-102771503D01*
X48633742Y-102771505D01*
X44958500Y-102771505D01*
X44958500Y-75495752D01*
X47767500Y-75495752D01*
X47779131Y-75554229D01*
X47779132Y-75554230D01*
X47823447Y-75620552D01*
X47889769Y-75664867D01*
X47889770Y-75664868D01*
X47948247Y-75676499D01*
X47948250Y-75676500D01*
X47948252Y-75676500D01*
X49587750Y-75676500D01*
X49587751Y-75676499D01*
X49602568Y-75673552D01*
X49646229Y-75664868D01*
X49646229Y-75664867D01*
X49646231Y-75664867D01*
X49712552Y-75620552D01*
X49712553Y-75620551D01*
X49721188Y-75611917D01*
X49724322Y-75615051D01*
X49759567Y-75585575D01*
X49828889Y-75576841D01*
X49891927Y-75606972D01*
X49928669Y-75666401D01*
X49933100Y-75699252D01*
X49933100Y-81171500D01*
X49913415Y-81238539D01*
X49860611Y-81284294D01*
X49819742Y-81293184D01*
X49819912Y-81294903D01*
X49813847Y-81295500D01*
X49755370Y-81307131D01*
X49755369Y-81307132D01*
X49689047Y-81351447D01*
X49644732Y-81417769D01*
X49644731Y-81417770D01*
X49633100Y-81476247D01*
X49633100Y-83115752D01*
X49644731Y-83174229D01*
X49644732Y-83174230D01*
X49689047Y-83240552D01*
X49755369Y-83284867D01*
X49755370Y-83284868D01*
X49813847Y-83296499D01*
X49813850Y-83296500D01*
X49813852Y-83296500D01*
X51453350Y-83296500D01*
X51453351Y-83296499D01*
X51468168Y-83293552D01*
X51511829Y-83284868D01*
X51511829Y-83284867D01*
X51511831Y-83284867D01*
X51578152Y-83240552D01*
X51622467Y-83174231D01*
X51622467Y-83174229D01*
X51622468Y-83174229D01*
X51631221Y-83130223D01*
X51634100Y-83115748D01*
X51634100Y-81476252D01*
X51634100Y-81476249D01*
X51634099Y-81476247D01*
X51622468Y-81417770D01*
X51622467Y-81417769D01*
X51578152Y-81351447D01*
X51511830Y-81307132D01*
X51511829Y-81307131D01*
X51453352Y-81295500D01*
X51447288Y-81294903D01*
X51447534Y-81292397D01*
X51391061Y-81275815D01*
X51345306Y-81223011D01*
X51334100Y-81171500D01*
X51334100Y-71844508D01*
X51334326Y-71837021D01*
X51337957Y-71776994D01*
X51337956Y-71776991D01*
X51336729Y-71770297D01*
X51327116Y-71717835D01*
X51325989Y-71710430D01*
X51318740Y-71650729D01*
X51318739Y-71650725D01*
X51315146Y-71641251D01*
X51309119Y-71619629D01*
X51307294Y-71609668D01*
X51282612Y-71554828D01*
X51279751Y-71547922D01*
X51258418Y-71491670D01*
X51252659Y-71483327D01*
X51241630Y-71463772D01*
X51237477Y-71454543D01*
X51237474Y-71454538D01*
X51200388Y-71407201D01*
X51195949Y-71401169D01*
X51188253Y-71390020D01*
X51161783Y-71351671D01*
X51116753Y-71311778D01*
X51111315Y-71306658D01*
X50517464Y-70712807D01*
X50503095Y-70695565D01*
X50492885Y-70680773D01*
X50492883Y-70680771D01*
X50447853Y-70640878D01*
X50442415Y-70635758D01*
X49694503Y-69887846D01*
X49661018Y-69826523D01*
X49658865Y-69813143D01*
X49653674Y-69763744D01*
X49633743Y-69702404D01*
X49595181Y-69583722D01*
X49595180Y-69583721D01*
X49595179Y-69583716D01*
X49500533Y-69419784D01*
X49500344Y-69419574D01*
X49500273Y-69419427D01*
X49496714Y-69414528D01*
X49497610Y-69413876D01*
X49470119Y-69356580D01*
X49468500Y-69336608D01*
X49468500Y-67417391D01*
X49488185Y-67350352D01*
X49500352Y-67334417D01*
X49500533Y-67334216D01*
X49595179Y-67170284D01*
X49653674Y-66990256D01*
X49673460Y-66802000D01*
X49653674Y-66613744D01*
X49595179Y-66433716D01*
X49500533Y-66269784D01*
X49373871Y-66129112D01*
X49357422Y-66117161D01*
X49220734Y-66017851D01*
X49220729Y-66017848D01*
X49047807Y-65940857D01*
X49047802Y-65940855D01*
X48902001Y-65909865D01*
X48862646Y-65901500D01*
X48673354Y-65901500D01*
X48640897Y-65908398D01*
X48488197Y-65940855D01*
X48488192Y-65940857D01*
X48315270Y-66017848D01*
X48315265Y-66017851D01*
X48162129Y-66129111D01*
X48035466Y-66269785D01*
X47940821Y-66433715D01*
X47940818Y-66433722D01*
X47896484Y-66570169D01*
X47882326Y-66613744D01*
X47862540Y-66802000D01*
X47882326Y-66990256D01*
X47882327Y-66990259D01*
X47940818Y-67170277D01*
X47940821Y-67170284D01*
X48035466Y-67334215D01*
X48035648Y-67334417D01*
X48035716Y-67334559D01*
X48039285Y-67339471D01*
X48038386Y-67340123D01*
X48065879Y-67397408D01*
X48067500Y-67417391D01*
X48067500Y-69336608D01*
X48047815Y-69403647D01*
X48035656Y-69419574D01*
X48035468Y-69419782D01*
X48035464Y-69419787D01*
X47940821Y-69583715D01*
X47940818Y-69583722D01*
X47898529Y-69713876D01*
X47882326Y-69763744D01*
X47862540Y-69952000D01*
X47882326Y-70140256D01*
X47882327Y-70140259D01*
X47940818Y-70320277D01*
X47940821Y-70320284D01*
X48035467Y-70484216D01*
X48157916Y-70620209D01*
X48162129Y-70624888D01*
X48315265Y-70736148D01*
X48315270Y-70736151D01*
X48488191Y-70813142D01*
X48488193Y-70813142D01*
X48488197Y-70813144D01*
X48643130Y-70846075D01*
X48704607Y-70879266D01*
X48705026Y-70879683D01*
X49411934Y-71586591D01*
X49426304Y-71603833D01*
X49436517Y-71618629D01*
X49436516Y-71618629D01*
X49481528Y-71658505D01*
X49486983Y-71663640D01*
X49896781Y-72073438D01*
X49930266Y-72134761D01*
X49933100Y-72161119D01*
X49933100Y-73652747D01*
X49913415Y-73719786D01*
X49860611Y-73765541D01*
X49791453Y-73775485D01*
X49727897Y-73746460D01*
X49721760Y-73739510D01*
X49721188Y-73740083D01*
X49712553Y-73731448D01*
X49646230Y-73687132D01*
X49646229Y-73687131D01*
X49587752Y-73675500D01*
X49587748Y-73675500D01*
X47948252Y-73675500D01*
X47948247Y-73675500D01*
X47889770Y-73687131D01*
X47889769Y-73687132D01*
X47823447Y-73731447D01*
X47779132Y-73797769D01*
X47779131Y-73797770D01*
X47767500Y-73856247D01*
X47767500Y-75495752D01*
X44958500Y-75495752D01*
X44958500Y-62416752D01*
X49416500Y-62416752D01*
X49428131Y-62475229D01*
X49428132Y-62475230D01*
X49472447Y-62541552D01*
X49538769Y-62585867D01*
X49538770Y-62585868D01*
X49597247Y-62597499D01*
X49597250Y-62597500D01*
X49597252Y-62597500D01*
X50986750Y-62597500D01*
X50986751Y-62597499D01*
X51001568Y-62594552D01*
X51045229Y-62585868D01*
X51045229Y-62585867D01*
X51045231Y-62585867D01*
X51111552Y-62541552D01*
X51155867Y-62475231D01*
X51155867Y-62475229D01*
X51155868Y-62475229D01*
X51167499Y-62416752D01*
X51167500Y-62416750D01*
X51167500Y-61764862D01*
X51180007Y-61722265D01*
X51169523Y-61701444D01*
X51167500Y-61679137D01*
X51167500Y-61027249D01*
X51167499Y-61027247D01*
X51155868Y-60968770D01*
X51155867Y-60968769D01*
X51111552Y-60902447D01*
X51045230Y-60858132D01*
X51045229Y-60858131D01*
X50986752Y-60846500D01*
X50986748Y-60846500D01*
X49597252Y-60846500D01*
X49597247Y-60846500D01*
X49538770Y-60858131D01*
X49538769Y-60858132D01*
X49472447Y-60902447D01*
X49428132Y-60968769D01*
X49428131Y-60968770D01*
X49416500Y-61027247D01*
X49416500Y-62416752D01*
X44958500Y-62416752D01*
X44958500Y-54610000D01*
X57668659Y-54610000D01*
X57687975Y-54806129D01*
X57745188Y-54994733D01*
X57838086Y-55168532D01*
X57838090Y-55168539D01*
X57963116Y-55320883D01*
X58115460Y-55445909D01*
X58115467Y-55445913D01*
X58289266Y-55538811D01*
X58289269Y-55538811D01*
X58289273Y-55538814D01*
X58477868Y-55596024D01*
X58674000Y-55615341D01*
X58870132Y-55596024D01*
X59058727Y-55538814D01*
X59232538Y-55445910D01*
X59384883Y-55320883D01*
X59509910Y-55168538D01*
X59602814Y-54994727D01*
X59660024Y-54806132D01*
X59679341Y-54610000D01*
X59660024Y-54413868D01*
X59602814Y-54225273D01*
X59602811Y-54225269D01*
X59602811Y-54225266D01*
X59536925Y-54102002D01*
X63954865Y-54102002D01*
X63974965Y-54331754D01*
X63974966Y-54331762D01*
X64034658Y-54554534D01*
X64034662Y-54554545D01*
X64118001Y-54733266D01*
X64132131Y-54763568D01*
X64264420Y-54952495D01*
X64427505Y-55115580D01*
X64616432Y-55247869D01*
X64742189Y-55306510D01*
X64825454Y-55345337D01*
X64825456Y-55345337D01*
X64825461Y-55345340D01*
X65048240Y-55405034D01*
X65212354Y-55419391D01*
X65277998Y-55425135D01*
X65278000Y-55425135D01*
X65278002Y-55425135D01*
X65335440Y-55420109D01*
X65507760Y-55405034D01*
X65730539Y-55345340D01*
X65939568Y-55247869D01*
X66128495Y-55115580D01*
X66291580Y-54952495D01*
X66423869Y-54763568D01*
X66521340Y-54554539D01*
X66581034Y-54331760D01*
X66596109Y-54159440D01*
X66601135Y-54102002D01*
X66601135Y-54101997D01*
X66581034Y-53872245D01*
X66581034Y-53872240D01*
X66521340Y-53649461D01*
X66423869Y-53440433D01*
X66291580Y-53251505D01*
X66128495Y-53088420D01*
X65939568Y-52956131D01*
X65939564Y-52956129D01*
X65730545Y-52858662D01*
X65730534Y-52858658D01*
X65507762Y-52798966D01*
X65507754Y-52798965D01*
X65278002Y-52778865D01*
X65277998Y-52778865D01*
X65048245Y-52798965D01*
X65048237Y-52798966D01*
X64825465Y-52858658D01*
X64825461Y-52858660D01*
X64616433Y-52956131D01*
X64427505Y-53088420D01*
X64427503Y-53088421D01*
X64427500Y-53088424D01*
X64264424Y-53251500D01*
X64132131Y-53440433D01*
X64034661Y-53649459D01*
X64034658Y-53649465D01*
X63974966Y-53872237D01*
X63974965Y-53872245D01*
X63954865Y-54101997D01*
X63954865Y-54102002D01*
X59536925Y-54102002D01*
X59509913Y-54051467D01*
X59509909Y-54051460D01*
X59384883Y-53899116D01*
X59232539Y-53774090D01*
X59232532Y-53774086D01*
X59058733Y-53681188D01*
X59058727Y-53681186D01*
X58870132Y-53623976D01*
X58870129Y-53623975D01*
X58674000Y-53604659D01*
X58477870Y-53623975D01*
X58289266Y-53681188D01*
X58115467Y-53774086D01*
X58115460Y-53774090D01*
X57963116Y-53899116D01*
X57838090Y-54051460D01*
X57838086Y-54051467D01*
X57745188Y-54225266D01*
X57687975Y-54413870D01*
X57668659Y-54610000D01*
X44958500Y-54610000D01*
X44958500Y-49411952D01*
X67362100Y-49411952D01*
X67373731Y-49470429D01*
X67373732Y-49470430D01*
X67418047Y-49536752D01*
X67484369Y-49581067D01*
X67484370Y-49581068D01*
X67542847Y-49592699D01*
X67542850Y-49592700D01*
X67542852Y-49592700D01*
X68932350Y-49592700D01*
X68932351Y-49592699D01*
X68947168Y-49589752D01*
X68990829Y-49581068D01*
X68990829Y-49581067D01*
X68990831Y-49581067D01*
X69057152Y-49536752D01*
X69101467Y-49470431D01*
X69101467Y-49470429D01*
X69101468Y-49470429D01*
X69113099Y-49411952D01*
X69113100Y-49411950D01*
X69113100Y-48760062D01*
X69125607Y-48717465D01*
X69115123Y-48696644D01*
X69113100Y-48674337D01*
X69113100Y-48022449D01*
X69113099Y-48022447D01*
X69101468Y-47963970D01*
X69101467Y-47963969D01*
X69057152Y-47897647D01*
X68990830Y-47853332D01*
X68990829Y-47853331D01*
X68932352Y-47841700D01*
X68932348Y-47841700D01*
X67542852Y-47841700D01*
X67542847Y-47841700D01*
X67484370Y-47853331D01*
X67484369Y-47853332D01*
X67418047Y-47897647D01*
X67373732Y-47963969D01*
X67373731Y-47963970D01*
X67362100Y-48022447D01*
X67362100Y-49411952D01*
X44958500Y-49411952D01*
X44958500Y-46352500D01*
X44978185Y-46285461D01*
X45030989Y-46239706D01*
X45082500Y-46228500D01*
X45178633Y-46228500D01*
X45178637Y-46228500D01*
X45521942Y-46200053D01*
X45618392Y-46192061D01*
X45618393Y-46192060D01*
X45618403Y-46192060D01*
X46053657Y-46119429D01*
X46481428Y-46011103D01*
X46898791Y-45867822D01*
X47302897Y-45690564D01*
X47690986Y-45480541D01*
X48060405Y-45239188D01*
X48408631Y-44968152D01*
X48733286Y-44669286D01*
X49032152Y-44344631D01*
X49303188Y-43996405D01*
X49544541Y-43626986D01*
X49754564Y-43238897D01*
X49931822Y-42834791D01*
X50075103Y-42417428D01*
X50183429Y-41989657D01*
X50256060Y-41554403D01*
X50292500Y-41114637D01*
X50292500Y-40894000D01*
X50292500Y-40893500D01*
X50292500Y-40510500D01*
X50312185Y-40443461D01*
X50364989Y-40397706D01*
X50416500Y-40386500D01*
X90045500Y-40386500D01*
X90112539Y-40406185D01*
G37*
%TD.AperFunction*%
%TD*%
M02*
